<?xml version="1.0" encoding="utf-8"?>
<!-- Generator: Adobe Illustrator 22.1.0, SVG Export Plug-In . SVG Version: 6.00 Build 0)  -->
<svg version="1.1" id="Layer_1" xmlns="http://www.w3.org/2000/svg" xmlns:xlink="http://www.w3.org/1999/xlink" x="0px" y="0px"
	 viewBox="0 0 1404 1872" style="enable-background:new 0 0 1404 1872;" xml:space="preserve">
<style type="text/css">
	.st0{fill:#FFFFFF;}
	.st1{fill:none;stroke:#000000;stroke-width:0.5;stroke-miterlimit:10;}
	.st2{fill:none;stroke:#000000;stroke-width:0.33;stroke-miterlimit:10;}
	.st3{fill:none;stroke:#000000;stroke-miterlimit:10;}
</style>
<title>isometric</title>
<g id="Paper_background">
	<rect x="2.7" y="-0.5" class="st0" width="1401.3" height="1869.9"/>
</g>
<g id="LINES">
	<line class="st1" x1="61" y1="0.7" x2="61" y2="1882.7"/>
	<line class="st1" x1="119.4" y1="0.7" x2="119.4" y2="1882.7"/>
	<line class="st1" x1="177.8" y1="0.7" x2="177.8" y2="1882.7"/>
	<line class="st1" x1="236.1" y1="0.7" x2="236.1" y2="1882.7"/>
	<line class="st1" x1="294.5" y1="0.7" x2="294.5" y2="1882.7"/>
	<line class="st1" x1="352.9" y1="0.7" x2="352.9" y2="1882.7"/>
	<line class="st1" x1="411.2" y1="0.7" x2="411.2" y2="1882.7"/>
	<line class="st1" x1="469.6" y1="0.7" x2="469.6" y2="1882.7"/>
	<line class="st1" x1="528" y1="0.7" x2="528" y2="1882.7"/>
	<line class="st1" x1="586.4" y1="0.7" x2="586.4" y2="1882.7"/>
	<line class="st1" x1="644.8" y1="0.7" x2="644.8" y2="1882.7"/>
	<line class="st1" x1="703.1" y1="0.7" x2="703.1" y2="1882.7"/>
	<line class="st1" x1="761.5" y1="0.7" x2="761.5" y2="1882.7"/>
	<line class="st1" x1="819.9" y1="0.7" x2="819.9" y2="1882.7"/>
	<line class="st1" x1="878.2" y1="0.7" x2="878.2" y2="1882.7"/>
	<line class="st1" x1="936.6" y1="0.7" x2="936.6" y2="1882.7"/>
	<line class="st1" x1="995" y1="0.7" x2="995" y2="1882.7"/>
	<line class="st1" x1="1053.4" y1="0.7" x2="1053.4" y2="1882.7"/>
	<line class="st1" x1="1111.8" y1="0.7" x2="1111.8" y2="1882.7"/>
	<line class="st1" x1="1170.1" y1="0.7" x2="1170.1" y2="1882.7"/>
	<line class="st1" x1="1228.5" y1="0.7" x2="1228.5" y2="1882.7"/>
	<line class="st1" x1="1286.9" y1="0.7" x2="1286.9" y2="1882.7"/>
	<line class="st1" x1="1345.2" y1="0.7" x2="1345.2" y2="1882.7"/>
	<line class="st1" x1="1403.6" y1="0.7" x2="1403.6" y2="1882.7"/>
	<line class="st2" x1="-302.1" y1="1171.8" x2="1475.2" y2="2198"/>
	<line class="st2" x1="-302.1" y1="1104.4" x2="1475.2" y2="2130.5"/>
	<line class="st2" x1="-302.1" y1="1036.9" x2="1475.2" y2="2063.1"/>
	<line class="st2" x1="-302.1" y1="969.5" x2="1475.2" y2="1995.7"/>
	<line class="st2" x1="-302.1" y1="902.1" x2="1475.2" y2="1928.3"/>
	<line class="st2" x1="-302.1" y1="834.6" x2="1475.2" y2="1860.8"/>
	<line class="st2" x1="-302.1" y1="767.2" x2="1475.2" y2="1793.4"/>
	<line class="st2" x1="-302.1" y1="699.8" x2="1475.2" y2="1726"/>
	<line class="st2" x1="-302.1" y1="632.4" x2="1475.2" y2="1658.6"/>
	<line class="st2" x1="-302.1" y1="565" x2="1475.2" y2="1591.2"/>
	<line class="st2" x1="-302.1" y1="497.5" x2="1475.2" y2="1523.7"/>
	<line class="st2" x1="-302.1" y1="430.1" x2="1475.2" y2="1456.3"/>
	<line class="st2" x1="-302.1" y1="362.7" x2="1475.2" y2="1388.9"/>
	<line class="st2" x1="-302.1" y1="295.3" x2="1475.2" y2="1321.5"/>
	<line class="st2" x1="-302.1" y1="227.8" x2="1475.2" y2="1254"/>
	<line class="st2" x1="-302.1" y1="160.4" x2="1475.2" y2="1186.6"/>
	<line class="st2" x1="-302.1" y1="93" x2="1475.2" y2="1119.2"/>
	<line class="st2" x1="-302.1" y1="25.6" x2="1475.2" y2="1051.8"/>
	<line class="st2" x1="-302.1" y1="-41.9" x2="1475.2" y2="984.3"/>
	<line class="st2" x1="-302.1" y1="-109.3" x2="1475.2" y2="916.9"/>
	<line class="st2" x1="-302.1" y1="-176.7" x2="1475.2" y2="849.5"/>
	<line class="st2" x1="-302.1" y1="-244.1" x2="1475.2" y2="782.1"/>
	<line class="st2" x1="-302.1" y1="-311.5" x2="1475.2" y2="714.7"/>
	<line class="st2" x1="-302.1" y1="-379" x2="1475.2" y2="647.2"/>
	<line class="st2" x1="-302.1" y1="-446.4" x2="1475.2" y2="579.8"/>
	<line class="st2" x1="-302.1" y1="-513.8" x2="1475.2" y2="512.4"/>
	<line class="st2" x1="-302.1" y1="-581.2" x2="1475.2" y2="444.9"/>
	<line class="st2" x1="-302.1" y1="-648.7" x2="1475.2" y2="377.5"/>
	<line class="st2" x1="-302.1" y1="-716.1" x2="1475.2" y2="310.1"/>
	<line class="st2" x1="-302.1" y1="-783.5" x2="1475.2" y2="242.7"/>
	<line class="st2" x1="-302.1" y1="-850.9" x2="1475.2" y2="175.2"/>
	<line class="st2" x1="-302.1" y1="-918.3" x2="1475.2" y2="107.8"/>
	<line class="st2" x1="-302.1" y1="-985.8" x2="1475.2" y2="40.4"/>
	<line class="st2" x1="-302.1" y1="175.2" x2="1475.2" y2="-850.9"/>
	<line class="st2" x1="-302.1" y1="242.7" x2="1475.2" y2="-783.5"/>
	<line class="st2" x1="-302.1" y1="310.1" x2="1475.2" y2="-716.1"/>
	<line class="st2" x1="-302.1" y1="377.5" x2="1475.2" y2="-648.7"/>
	<line class="st2" x1="-302.1" y1="444.9" x2="1475.2" y2="-581.2"/>
	<line class="st2" x1="-302.1" y1="512.4" x2="1475.2" y2="-513.8"/>
	<line class="st2" x1="-302.1" y1="579.8" x2="1475.2" y2="-446.4"/>
	<line class="st2" x1="-302.1" y1="647.2" x2="1475.2" y2="-379"/>
	<line class="st2" x1="-302.1" y1="714.7" x2="1475.2" y2="-311.5"/>
	<line class="st2" x1="-302.1" y1="782.1" x2="1475.2" y2="-244.1"/>
	<line class="st2" x1="-302.1" y1="849.5" x2="1475.2" y2="-176.7"/>
	<line class="st2" x1="-302.1" y1="916.9" x2="1475.2" y2="-109.3"/>
	<line class="st2" x1="-302.1" y1="984.3" x2="1475.2" y2="-41.9"/>
	<line class="st2" x1="-302.1" y1="1051.8" x2="1475.2" y2="25.6"/>
	<line class="st2" x1="-302.1" y1="1119.2" x2="1475.2" y2="93"/>
	<line class="st2" x1="-302.1" y1="1186.6" x2="1475.2" y2="160.4"/>
	<line class="st2" x1="-302.1" y1="1254" x2="1475.2" y2="227.8"/>
	<line class="st2" x1="-302.1" y1="1321.5" x2="1475.2" y2="295.3"/>
	<line class="st2" x1="-302.1" y1="1388.9" x2="1475.2" y2="362.7"/>
	<line class="st2" x1="-302.1" y1="1456.3" x2="1475.2" y2="430.1"/>
	<line class="st2" x1="-302.1" y1="1523.7" x2="1475.2" y2="497.5"/>
	<line class="st2" x1="-302.1" y1="1591.2" x2="1475.2" y2="565"/>
	<line class="st2" x1="-302.1" y1="1658.6" x2="1475.2" y2="632.4"/>
	<line class="st2" x1="-302.1" y1="1726" x2="1475.2" y2="699.8"/>
	<line class="st2" x1="-302.1" y1="1793.4" x2="1475.2" y2="767.2"/>
	<line class="st2" x1="-302.1" y1="1860.8" x2="1475.2" y2="834.6"/>
	<line class="st2" x1="-302.1" y1="1928.3" x2="1475.2" y2="902.1"/>
	<line class="st2" x1="-302.1" y1="1995.7" x2="1475.2" y2="969.5"/>
	<line class="st2" x1="-302.1" y1="2063.1" x2="1475.2" y2="1036.9"/>
	<line class="st2" x1="-302.1" y1="2130.5" x2="1475.2" y2="1104.4"/>
	<line class="st2" x1="-302.1" y1="2198" x2="1475.2" y2="1171.8"/>
	<line class="st2" x1="-302.1" y1="2265.4" x2="1475.2" y2="1239.2"/>
	<line class="st2" x1="-302.1" y1="2332.8" x2="1475.2" y2="1306.6"/>
	<line class="st2" x1="-302.1" y1="2400.2" x2="1475.2" y2="1374"/>
	<line class="st2" x1="-302.1" y1="1845.6" x2="1475.2" y2="2871.7"/>
	<line class="st2" x1="-302.1" y1="1778.2" x2="1475.2" y2="2804.3"/>
	<line class="st2" x1="-302.1" y1="1710.7" x2="1475.2" y2="2736.9"/>
	<line class="st2" x1="-302.1" y1="1643.3" x2="1475.2" y2="2669.5"/>
	<line class="st2" x1="-302.1" y1="1575.9" x2="1475.2" y2="2602.1"/>
	<line class="st2" x1="-302.1" y1="1508.4" x2="1475.2" y2="2534.6"/>
	<line class="st2" x1="-302.1" y1="1441" x2="1475.2" y2="2467.2"/>
	<line class="st2" x1="-302.1" y1="1373.6" x2="1475.2" y2="2399.8"/>
	<line class="st2" x1="-302.1" y1="1306.2" x2="1475.2" y2="2332.4"/>
	<line class="st2" x1="-302.1" y1="1238.8" x2="1475.2" y2="2264.9"/>
	<line class="st2" x1="-302.1" y1="1171.3" x2="1475.2" y2="2197.5"/>
	<line class="st2" x1="-302.1" y1="1103.9" x2="1475.2" y2="2130.1"/>
	<line class="st2" x1="-302.1" y1="1036.5" x2="1475.2" y2="2062.7"/>
	<line class="st2" x1="-302.1" y1="969.1" x2="1475.2" y2="1995.2"/>
	<line class="st2" x1="-302.1" y1="901.6" x2="1475.2" y2="1927.8"/>
	<line class="st2" x1="-302.1" y1="834.2" x2="1475.2" y2="1860.4"/>
	<line class="st2" x1="-302.1" y1="766.8" x2="1475.2" y2="1793"/>
	<line class="st2" x1="-302.1" y1="699.4" x2="1475.2" y2="1725.6"/>
	<line class="st2" x1="-302.1" y1="632" x2="1475.2" y2="1658.1"/>
	<line class="st2" x1="-302.1" y1="564.5" x2="1475.2" y2="1590.7"/>
	<line class="st2" x1="-302.1" y1="497.1" x2="1475.2" y2="1523.3"/>
	<line class="st2" x1="-302.1" y1="429.7" x2="1475.2" y2="1455.8"/>
	<line class="st2" x1="-302.1" y1="362.2" x2="1475.2" y2="1388.4"/>
	<line class="st2" x1="-302.1" y1="294.8" x2="1475.2" y2="1321"/>
	<line class="st2" x1="-302.1" y1="1523.3" x2="1475.2" y2="497.1"/>
	<line class="st2" x1="-302.1" y1="1590.7" x2="1475.2" y2="564.5"/>
	<line class="st2" x1="-302.1" y1="1658.1" x2="1475.2" y2="632"/>
	<line class="st2" x1="-302.1" y1="1725.6" x2="1475.2" y2="699.4"/>
	<line class="st2" x1="-302.1" y1="1793" x2="1475.2" y2="766.8"/>
	<line class="st2" x1="-302.1" y1="1860.4" x2="1475.2" y2="834.2"/>
	<line class="st2" x1="-302.1" y1="1927.8" x2="1475.2" y2="901.6"/>
	<line class="st2" x1="-302.1" y1="1995.2" x2="1475.2" y2="969.1"/>
	<line class="st2" x1="-302.1" y1="2062.7" x2="1475.2" y2="1036.5"/>
	<line class="st2" x1="-302.1" y1="2130.1" x2="1475.2" y2="1103.9"/>
	<line class="st2" x1="-302.1" y1="2197.5" x2="1475.2" y2="1171.3"/>
	<line class="st2" x1="-302.1" y1="2264.9" x2="1475.2" y2="1238.8"/>
	<line class="st2" x1="-302.1" y1="2332.4" x2="1475.2" y2="1306.2"/>
	<line class="st2" x1="-302.1" y1="2399.8" x2="1475.2" y2="1373.6"/>
	<line class="st2" x1="-302.1" y1="2467.2" x2="1475.2" y2="1441"/>
	<line class="st2" x1="-302.1" y1="2534.6" x2="1475.2" y2="1508.4"/>
	<line class="st2" x1="-302.1" y1="2602.1" x2="1475.2" y2="1575.9"/>
	<line class="st2" x1="-302.1" y1="2669.5" x2="1475.2" y2="1643.3"/>
	<line class="st2" x1="-302.1" y1="2736.9" x2="1475.2" y2="1710.7"/>
	<line class="st2" x1="-302.1" y1="2804.3" x2="1475.2" y2="1778.2"/>
	<line class="st2" x1="-302.1" y1="2871.7" x2="1475.2" y2="1845.6"/>
	<rect x="2.7" y="-0.5" class="st3" width="1401.3" height="1869.9"/>
</g>
</svg>
