<?xml version="1.0" encoding="utf-8"?>
<!-- Generator: Adobe Illustrator 24.1.3, SVG Export Plug-In . SVG Version: 6.00 Build 0)  -->
<svg version="1.1" id="Layer_1" xmlns="http://www.w3.org/2000/svg" xmlns:xlink="http://www.w3.org/1999/xlink" x="0px" y="0px"
	 viewBox="0 0 1404 1872" style="enable-background:new 0 0 1404 1872;" xml:space="preserve">
<style type="text/css">
	.st0{fill:#FFFFFF;}
	.st1{fill:none;stroke:#000000;stroke-width:0.5;stroke-miterlimit:10;}
	.st2{fill:none;stroke:#000000;stroke-width:0.5;stroke-miterlimit:10;stroke-dasharray:12,18;}
</style>
<g id="White_BG">
	<rect class="st0" width="1404" height="1872"/>
</g>
<line class="st1" x1="182" y1="1870.4" x2="66.5" y2="1812.5"/>
<line class="st1" x1="182" y1="1826.4" x2="66.5" y2="1768.5"/>
<line class="st1" x1="182" y1="1781.4" x2="66.5" y2="1723.5"/>
<line class="st1" x1="182" y1="1737.4" x2="66.5" y2="1679.5"/>
<line class="st1" x1="182" y1="1692.4" x2="66.5" y2="1634.5"/>
<line class="st1" x1="182" y1="1648.4" x2="66.5" y2="1590.5"/>
<line class="st1" x1="182" y1="1603.4" x2="66.5" y2="1545.5"/>
<line class="st1" x1="182" y1="1559.4" x2="66.5" y2="1501.5"/>
<line class="st1" x1="182" y1="1514.4" x2="66.5" y2="1456.5"/>
<line class="st1" x1="182" y1="1470.4" x2="66.5" y2="1412.5"/>
<line class="st1" x1="182" y1="1425.4" x2="66.5" y2="1367.5"/>
<line class="st1" x1="182" y1="1381.4" x2="66.5" y2="1323.5"/>
<line class="st1" x1="182" y1="1336.4" x2="66.5" y2="1278.5"/>
<line class="st1" x1="182" y1="1292.4" x2="66.5" y2="1234.5"/>
<line class="st1" x1="182" y1="1247.4" x2="66.5" y2="1189.5"/>
<line class="st1" x1="182" y1="1203.4" x2="66.5" y2="1145.5"/>
<line class="st1" x1="182" y1="1159.4" x2="66.5" y2="1101.5"/>
<line class="st1" x1="182" y1="1114.4" x2="66.5" y2="1056.5"/>
<line class="st1" x1="182" y1="1070.4" x2="66.5" y2="1012.5"/>
<line class="st1" x1="182" y1="1025.4" x2="66.5" y2="967.5"/>
<line class="st1" x1="182" y1="981.4" x2="66.5" y2="923.5"/>
<line class="st1" x1="182" y1="936.4" x2="66.5" y2="878.5"/>
<line class="st1" x1="182" y1="892.4" x2="66.5" y2="834.5"/>
<line class="st1" x1="182" y1="847.4" x2="66.5" y2="789.5"/>
<line class="st1" x1="182" y1="803.4" x2="66.5" y2="745.5"/>
<line class="st1" x1="182" y1="758.4" x2="66.5" y2="700.5"/>
<line class="st1" x1="182" y1="714.4" x2="66.5" y2="656.5"/>
<line class="st1" x1="182" y1="669.4" x2="66.5" y2="611.5"/>
<line class="st1" x1="182" y1="625.4" x2="66.5" y2="567.5"/>
<line class="st1" x1="182" y1="580.4" x2="66.5" y2="522.5"/>
<line class="st1" x1="182" y1="536.4" x2="66.5" y2="478.5"/>
<line class="st1" x1="182" y1="492.4" x2="66.5" y2="434.5"/>
<line class="st1" x1="182" y1="447.4" x2="66.5" y2="389.5"/>
<line class="st1" x1="182" y1="403.4" x2="66.5" y2="345.5"/>
<line class="st1" x1="182" y1="358.4" x2="66.5" y2="300.5"/>
<line class="st1" x1="182" y1="314.4" x2="66.5" y2="256.5"/>
<line class="st1" x1="182" y1="269.4" x2="66.5" y2="211.5"/>
<g>
	<line class="st1" x1="145.5" y1="0" x2="145.5" y2="1872"/>
	<line class="st2" x1="65.5" y1="1859.7" x2="65.5" y2="17.1"/>
	<line class="st2" x1="107.5" y1="1859.7" x2="107.5" y2="17.1"/>
	<line class="st2" x1="184.5" y1="1860.9" x2="184.5" y2="18.3"/>
	<line class="st1" x1="182" y1="225.4" x2="66.5" y2="167.5"/>
	<line class="st1" x1="182" y1="180.4" x2="66.5" y2="122.5"/>
	<line class="st1" x1="182" y1="136.4" x2="66.5" y2="78.5"/>
	<line class="st1" x1="182" y1="91.4" x2="66.5" y2="33.5"/>
	<line class="st1" x1="182" y1="47.4" x2="90.4" y2="1.5"/>
</g>
<line class="st1" x1="341" y1="1870.4" x2="225.5" y2="1812.5"/>
<line class="st1" x1="341" y1="1826.4" x2="225.5" y2="1768.5"/>
<line class="st1" x1="341" y1="1781.4" x2="225.5" y2="1723.5"/>
<line class="st1" x1="341" y1="1737.4" x2="225.5" y2="1679.5"/>
<line class="st1" x1="341" y1="1692.4" x2="225.5" y2="1634.5"/>
<line class="st1" x1="341" y1="1648.4" x2="225.5" y2="1590.5"/>
<line class="st1" x1="341" y1="1603.4" x2="225.5" y2="1545.5"/>
<line class="st1" x1="341" y1="1559.4" x2="225.5" y2="1501.5"/>
<line class="st1" x1="341" y1="1514.4" x2="225.5" y2="1456.5"/>
<line class="st1" x1="341" y1="1470.4" x2="225.5" y2="1412.5"/>
<line class="st1" x1="341" y1="1425.4" x2="225.5" y2="1367.5"/>
<line class="st1" x1="341" y1="1381.4" x2="225.5" y2="1323.5"/>
<line class="st1" x1="341" y1="1336.4" x2="225.5" y2="1278.5"/>
<line class="st1" x1="341" y1="1292.4" x2="225.5" y2="1234.5"/>
<line class="st1" x1="341" y1="1247.4" x2="225.5" y2="1189.5"/>
<line class="st1" x1="341" y1="1203.4" x2="225.5" y2="1145.5"/>
<line class="st1" x1="341" y1="1159.4" x2="225.5" y2="1101.5"/>
<line class="st1" x1="341" y1="1114.4" x2="225.5" y2="1056.5"/>
<line class="st1" x1="341" y1="1070.4" x2="225.5" y2="1012.5"/>
<line class="st1" x1="341" y1="1025.4" x2="225.5" y2="967.5"/>
<line class="st1" x1="341" y1="981.4" x2="225.5" y2="923.5"/>
<line class="st1" x1="341" y1="936.4" x2="225.5" y2="878.5"/>
<line class="st1" x1="341" y1="892.4" x2="225.5" y2="834.5"/>
<line class="st1" x1="341" y1="847.4" x2="225.5" y2="789.5"/>
<line class="st1" x1="341" y1="803.4" x2="225.5" y2="745.5"/>
<line class="st1" x1="341" y1="758.4" x2="225.5" y2="700.5"/>
<line class="st1" x1="341" y1="714.4" x2="225.5" y2="656.5"/>
<line class="st1" x1="341" y1="669.4" x2="225.5" y2="611.5"/>
<line class="st1" x1="341" y1="625.4" x2="225.5" y2="567.5"/>
<line class="st1" x1="341" y1="580.4" x2="225.5" y2="522.5"/>
<line class="st1" x1="341" y1="536.4" x2="225.5" y2="478.5"/>
<line class="st1" x1="341" y1="492.4" x2="225.5" y2="434.5"/>
<line class="st1" x1="341" y1="447.4" x2="225.5" y2="389.5"/>
<line class="st1" x1="341" y1="403.4" x2="225.5" y2="345.5"/>
<line class="st1" x1="341" y1="358.4" x2="225.5" y2="300.5"/>
<line class="st1" x1="341" y1="314.4" x2="225.5" y2="256.5"/>
<line class="st1" x1="341" y1="269.4" x2="225.5" y2="211.5"/>
<line class="st1" x1="341" y1="225.4" x2="225.5" y2="167.5"/>
<g>
	<line class="st1" x1="303.5" y1="0" x2="303.5" y2="1872"/>
	<line class="st2" x1="224.5" y1="1859.7" x2="224.5" y2="17.1"/>
	<line class="st2" x1="266.5" y1="1859.7" x2="266.5" y2="17.1"/>
	<line class="st2" x1="343.5" y1="1860.9" x2="343.5" y2="18.3"/>
	<line class="st1" x1="341" y1="180.4" x2="225.5" y2="122.5"/>
	<line class="st1" x1="341" y1="136.4" x2="225.5" y2="78.5"/>
	<line class="st1" x1="341" y1="91.4" x2="225.5" y2="33.5"/>
	<line class="st1" x1="341" y1="47.4" x2="249.4" y2="1.5"/>
</g>
<line class="st1" x1="499" y1="1870.4" x2="383.5" y2="1812.5"/>
<line class="st1" x1="499" y1="1826.4" x2="383.5" y2="1768.5"/>
<line class="st1" x1="499" y1="1781.4" x2="383.5" y2="1723.5"/>
<line class="st1" x1="499" y1="1737.4" x2="383.5" y2="1679.5"/>
<line class="st1" x1="499" y1="1692.4" x2="383.5" y2="1634.5"/>
<line class="st1" x1="499" y1="1648.4" x2="383.5" y2="1590.5"/>
<line class="st1" x1="499" y1="1603.4" x2="383.5" y2="1545.5"/>
<line class="st1" x1="499" y1="1559.4" x2="383.5" y2="1501.5"/>
<line class="st1" x1="499" y1="1514.4" x2="383.5" y2="1456.5"/>
<line class="st1" x1="499" y1="1470.4" x2="383.5" y2="1412.5"/>
<line class="st1" x1="499" y1="1425.4" x2="383.5" y2="1367.5"/>
<line class="st1" x1="499" y1="1381.4" x2="383.5" y2="1323.5"/>
<line class="st1" x1="499" y1="1336.4" x2="383.5" y2="1278.5"/>
<line class="st1" x1="499" y1="1292.4" x2="383.5" y2="1234.5"/>
<line class="st1" x1="499" y1="1247.4" x2="383.5" y2="1189.5"/>
<line class="st1" x1="499" y1="1203.4" x2="383.5" y2="1145.5"/>
<line class="st1" x1="499" y1="1159.4" x2="383.5" y2="1101.5"/>
<line class="st1" x1="499" y1="1114.4" x2="383.5" y2="1056.5"/>
<line class="st1" x1="499" y1="1070.4" x2="383.5" y2="1012.5"/>
<line class="st1" x1="499" y1="1025.4" x2="383.5" y2="967.5"/>
<line class="st1" x1="499" y1="981.4" x2="383.5" y2="923.5"/>
<line class="st1" x1="499" y1="936.4" x2="383.5" y2="878.5"/>
<line class="st1" x1="499" y1="892.4" x2="383.5" y2="834.5"/>
<line class="st1" x1="499" y1="847.4" x2="383.5" y2="789.5"/>
<line class="st1" x1="499" y1="803.4" x2="383.5" y2="745.5"/>
<line class="st1" x1="499" y1="758.4" x2="383.5" y2="700.5"/>
<line class="st1" x1="499" y1="714.4" x2="383.5" y2="656.5"/>
<line class="st1" x1="499" y1="669.4" x2="383.5" y2="611.5"/>
<line class="st1" x1="499" y1="625.4" x2="383.5" y2="567.5"/>
<line class="st1" x1="499" y1="580.4" x2="383.5" y2="522.5"/>
<line class="st1" x1="499" y1="536.4" x2="383.5" y2="478.5"/>
<line class="st1" x1="499" y1="492.4" x2="383.5" y2="434.5"/>
<line class="st1" x1="499" y1="447.4" x2="383.5" y2="389.5"/>
<line class="st1" x1="499" y1="403.4" x2="383.5" y2="345.5"/>
<line class="st1" x1="499" y1="358.4" x2="383.5" y2="300.5"/>
<line class="st1" x1="499" y1="314.4" x2="383.5" y2="256.5"/>
<line class="st1" x1="499" y1="269.4" x2="383.5" y2="211.5"/>
<line class="st1" x1="499" y1="225.4" x2="383.5" y2="167.5"/>
<line class="st1" x1="499" y1="180.4" x2="383.5" y2="122.5"/>
<g>
	<line class="st1" x1="460.5" y1="0" x2="460.5" y2="1872"/>
	<line class="st2" x1="382.5" y1="1859.7" x2="382.5" y2="17.1"/>
	<line class="st2" x1="424.5" y1="1859.7" x2="424.5" y2="17.1"/>
	<line class="st2" x1="501.5" y1="1860.9" x2="501.5" y2="18.3"/>
	<line class="st1" x1="499" y1="136.4" x2="383.5" y2="78.5"/>
	<line class="st1" x1="499" y1="91.4" x2="383.5" y2="33.5"/>
	<line class="st1" x1="499" y1="47.4" x2="407.4" y2="1.5"/>
</g>
<line class="st1" x1="656" y1="1870.4" x2="540.5" y2="1812.5"/>
<line class="st1" x1="656" y1="1826.4" x2="540.5" y2="1768.5"/>
<line class="st1" x1="656" y1="1781.4" x2="540.5" y2="1723.5"/>
<line class="st1" x1="656" y1="1737.4" x2="540.5" y2="1679.5"/>
<line class="st1" x1="656" y1="1692.4" x2="540.5" y2="1634.5"/>
<line class="st1" x1="656" y1="1648.4" x2="540.5" y2="1590.5"/>
<line class="st1" x1="656" y1="1603.4" x2="540.5" y2="1545.5"/>
<line class="st1" x1="656" y1="1559.4" x2="540.5" y2="1501.5"/>
<line class="st1" x1="656" y1="1514.4" x2="540.5" y2="1456.5"/>
<line class="st1" x1="656" y1="1470.4" x2="540.5" y2="1412.5"/>
<line class="st1" x1="656" y1="1425.4" x2="540.5" y2="1367.5"/>
<line class="st1" x1="656" y1="1381.4" x2="540.5" y2="1323.5"/>
<line class="st1" x1="656" y1="1336.4" x2="540.5" y2="1278.5"/>
<line class="st1" x1="656" y1="1292.4" x2="540.5" y2="1234.5"/>
<line class="st1" x1="656" y1="1247.4" x2="540.5" y2="1189.5"/>
<line class="st1" x1="656" y1="1203.4" x2="540.5" y2="1145.5"/>
<line class="st1" x1="656" y1="1159.4" x2="540.5" y2="1101.5"/>
<line class="st1" x1="656" y1="1114.4" x2="540.5" y2="1056.5"/>
<line class="st1" x1="656" y1="1070.4" x2="540.5" y2="1012.5"/>
<line class="st1" x1="656" y1="1025.4" x2="540.5" y2="967.5"/>
<line class="st1" x1="656" y1="981.4" x2="540.5" y2="923.5"/>
<line class="st1" x1="656" y1="936.4" x2="540.5" y2="878.5"/>
<line class="st1" x1="656" y1="892.4" x2="540.5" y2="834.5"/>
<line class="st1" x1="656" y1="847.4" x2="540.5" y2="789.5"/>
<line class="st1" x1="656" y1="803.4" x2="540.5" y2="745.5"/>
<line class="st1" x1="656" y1="758.4" x2="540.5" y2="700.5"/>
<line class="st1" x1="656" y1="714.4" x2="540.5" y2="656.5"/>
<line class="st1" x1="656" y1="669.4" x2="540.5" y2="611.5"/>
<line class="st1" x1="656" y1="625.4" x2="540.5" y2="567.5"/>
<line class="st1" x1="656" y1="580.4" x2="540.5" y2="522.5"/>
<line class="st1" x1="656" y1="536.4" x2="540.5" y2="478.5"/>
<line class="st1" x1="656" y1="492.4" x2="540.5" y2="434.5"/>
<line class="st1" x1="656" y1="447.4" x2="540.5" y2="389.5"/>
<line class="st1" x1="656" y1="403.4" x2="540.5" y2="345.5"/>
<line class="st1" x1="656" y1="358.4" x2="540.5" y2="300.5"/>
<line class="st1" x1="656" y1="314.4" x2="540.5" y2="256.5"/>
<line class="st1" x1="656" y1="269.4" x2="540.5" y2="211.5"/>
<line class="st1" x1="656" y1="225.4" x2="540.5" y2="167.5"/>
<line class="st1" x1="656" y1="180.4" x2="540.5" y2="122.5"/>
<g>
	<line class="st1" x1="618.5" y1="0" x2="618.5" y2="1872"/>
	<line class="st2" x1="539.5" y1="1859.7" x2="539.5" y2="17.1"/>
	<line class="st2" x1="581.5" y1="1859.7" x2="581.5" y2="17.1"/>
	<line class="st2" x1="658.5" y1="1860.9" x2="658.5" y2="18.3"/>
	<line class="st1" x1="656" y1="136.4" x2="540.5" y2="78.5"/>
	<line class="st1" x1="656" y1="91.4" x2="540.5" y2="33.5"/>
	<line class="st1" x1="656" y1="47.4" x2="564.4" y2="1.5"/>
</g>
<line class="st1" x1="814" y1="1870.4" x2="698.5" y2="1812.5"/>
<line class="st1" x1="814" y1="1826.4" x2="698.5" y2="1768.5"/>
<line class="st1" x1="814" y1="1781.4" x2="698.5" y2="1723.5"/>
<line class="st1" x1="814" y1="1737.4" x2="698.5" y2="1679.5"/>
<line class="st1" x1="814" y1="1692.4" x2="698.5" y2="1634.5"/>
<line class="st1" x1="814" y1="1648.4" x2="698.5" y2="1590.5"/>
<line class="st1" x1="814" y1="1603.4" x2="698.5" y2="1545.5"/>
<line class="st1" x1="814" y1="1559.4" x2="698.5" y2="1501.5"/>
<line class="st1" x1="814" y1="1514.4" x2="698.5" y2="1456.5"/>
<line class="st1" x1="814" y1="1470.4" x2="698.5" y2="1412.5"/>
<line class="st1" x1="814" y1="1425.4" x2="698.5" y2="1367.5"/>
<line class="st1" x1="814" y1="1381.4" x2="698.5" y2="1323.5"/>
<line class="st1" x1="814" y1="1336.4" x2="698.5" y2="1278.5"/>
<line class="st1" x1="814" y1="1292.4" x2="698.5" y2="1234.5"/>
<line class="st1" x1="814" y1="1247.4" x2="698.5" y2="1189.5"/>
<line class="st1" x1="814" y1="1203.4" x2="698.5" y2="1145.5"/>
<line class="st1" x1="814" y1="1159.4" x2="698.5" y2="1101.5"/>
<line class="st1" x1="814" y1="1114.4" x2="698.5" y2="1056.5"/>
<line class="st1" x1="814" y1="1070.4" x2="698.5" y2="1012.5"/>
<line class="st1" x1="814" y1="1025.4" x2="698.5" y2="967.5"/>
<line class="st1" x1="814" y1="981.4" x2="698.5" y2="923.5"/>
<line class="st1" x1="814" y1="936.4" x2="698.5" y2="878.5"/>
<line class="st1" x1="814" y1="892.4" x2="698.5" y2="834.5"/>
<line class="st1" x1="814" y1="847.4" x2="698.5" y2="789.5"/>
<line class="st1" x1="814" y1="803.4" x2="698.5" y2="745.5"/>
<line class="st1" x1="814" y1="758.4" x2="698.5" y2="700.5"/>
<line class="st1" x1="814" y1="714.4" x2="698.5" y2="656.5"/>
<line class="st1" x1="814" y1="669.4" x2="698.5" y2="611.5"/>
<line class="st1" x1="814" y1="625.4" x2="698.5" y2="567.5"/>
<line class="st1" x1="814" y1="580.4" x2="698.5" y2="522.5"/>
<line class="st1" x1="814" y1="536.4" x2="698.5" y2="478.5"/>
<line class="st1" x1="814" y1="492.4" x2="698.5" y2="434.5"/>
<line class="st1" x1="814" y1="447.4" x2="698.5" y2="389.5"/>
<line class="st1" x1="814" y1="403.4" x2="698.5" y2="345.5"/>
<line class="st1" x1="814" y1="358.4" x2="698.5" y2="300.5"/>
<line class="st1" x1="814" y1="314.4" x2="698.5" y2="256.5"/>
<line class="st1" x1="814" y1="269.4" x2="698.5" y2="211.5"/>
<line class="st1" x1="814" y1="225.4" x2="698.5" y2="167.5"/>
<g>
	<line class="st1" x1="776.5" y1="0" x2="776.5" y2="1872"/>
	<line class="st2" x1="697.5" y1="1859.7" x2="697.5" y2="17.1"/>
	<line class="st2" x1="739.5" y1="1859.7" x2="739.5" y2="17.1"/>
	<line class="st2" x1="816.5" y1="1860.9" x2="816.5" y2="18.3"/>
	<line class="st1" x1="814" y1="180.4" x2="698.5" y2="122.5"/>
	<line class="st1" x1="814" y1="136.4" x2="698.5" y2="78.5"/>
	<line class="st1" x1="814" y1="91.4" x2="698.5" y2="33.5"/>
	<line class="st1" x1="814" y1="47.4" x2="722.4" y2="1.5"/>
</g>
<line class="st1" x1="971" y1="1870.4" x2="855.5" y2="1812.5"/>
<line class="st1" x1="971" y1="1826.4" x2="855.5" y2="1768.5"/>
<line class="st1" x1="971" y1="1781.4" x2="855.5" y2="1723.5"/>
<line class="st1" x1="971" y1="1737.4" x2="855.5" y2="1679.5"/>
<line class="st1" x1="971" y1="1692.4" x2="855.5" y2="1634.5"/>
<line class="st1" x1="971" y1="1648.4" x2="855.5" y2="1590.5"/>
<line class="st1" x1="971" y1="1603.4" x2="855.5" y2="1545.5"/>
<line class="st1" x1="971" y1="1559.4" x2="855.5" y2="1501.5"/>
<line class="st1" x1="971" y1="1514.4" x2="855.5" y2="1456.5"/>
<line class="st1" x1="971" y1="1470.4" x2="855.5" y2="1412.5"/>
<line class="st1" x1="971" y1="1425.4" x2="855.5" y2="1367.5"/>
<line class="st1" x1="971" y1="1381.4" x2="855.5" y2="1323.5"/>
<line class="st1" x1="971" y1="1336.4" x2="855.5" y2="1278.5"/>
<line class="st1" x1="971" y1="1292.4" x2="855.5" y2="1234.5"/>
<line class="st1" x1="971" y1="1247.4" x2="855.5" y2="1189.5"/>
<line class="st1" x1="971" y1="1203.4" x2="855.5" y2="1145.5"/>
<line class="st1" x1="971" y1="1159.4" x2="855.5" y2="1101.5"/>
<line class="st1" x1="971" y1="1114.4" x2="855.5" y2="1056.5"/>
<line class="st1" x1="971" y1="1070.4" x2="855.5" y2="1012.5"/>
<line class="st1" x1="971" y1="1025.4" x2="855.5" y2="967.5"/>
<line class="st1" x1="971" y1="981.4" x2="855.5" y2="923.5"/>
<line class="st1" x1="971" y1="936.4" x2="855.5" y2="878.5"/>
<line class="st1" x1="971" y1="892.4" x2="855.5" y2="834.5"/>
<line class="st1" x1="971" y1="847.4" x2="855.5" y2="789.5"/>
<line class="st1" x1="971" y1="803.4" x2="855.5" y2="745.5"/>
<line class="st1" x1="971" y1="758.4" x2="855.5" y2="700.5"/>
<line class="st1" x1="971" y1="714.4" x2="855.5" y2="656.5"/>
<line class="st1" x1="971" y1="669.4" x2="855.5" y2="611.5"/>
<line class="st1" x1="971" y1="625.4" x2="855.5" y2="567.5"/>
<line class="st1" x1="971" y1="580.4" x2="855.5" y2="522.5"/>
<line class="st1" x1="971" y1="536.4" x2="855.5" y2="478.5"/>
<line class="st1" x1="971" y1="492.4" x2="855.5" y2="434.5"/>
<line class="st1" x1="971" y1="447.4" x2="855.5" y2="389.5"/>
<line class="st1" x1="971" y1="403.4" x2="855.5" y2="345.5"/>
<line class="st1" x1="971" y1="358.4" x2="855.5" y2="300.5"/>
<line class="st1" x1="971" y1="314.4" x2="855.5" y2="256.5"/>
<line class="st1" x1="971" y1="269.4" x2="855.5" y2="211.5"/>
<line class="st1" x1="971" y1="225.4" x2="855.5" y2="167.5"/>
<line class="st1" x1="971" y1="180.4" x2="855.5" y2="122.5"/>
<g>
	<line class="st1" x1="933.5" y1="0" x2="933.5" y2="1872"/>
	<line class="st2" x1="854.5" y1="1859.7" x2="854.5" y2="17.1"/>
	<line class="st2" x1="896.5" y1="1859.7" x2="896.5" y2="17.1"/>
	<line class="st2" x1="973.5" y1="1860.9" x2="973.5" y2="18.3"/>
	<line class="st1" x1="971" y1="136.4" x2="855.5" y2="78.5"/>
	<line class="st1" x1="971" y1="91.4" x2="855.5" y2="33.5"/>
	<line class="st1" x1="971" y1="47.4" x2="879.4" y2="1.5"/>
</g>
<line class="st1" x1="1129" y1="1870.4" x2="1013.5" y2="1812.5"/>
<line class="st1" x1="1129" y1="1826.4" x2="1013.5" y2="1768.5"/>
<line class="st1" x1="1129" y1="1781.4" x2="1013.5" y2="1723.5"/>
<line class="st1" x1="1129" y1="1737.4" x2="1013.5" y2="1679.5"/>
<line class="st1" x1="1129" y1="1692.4" x2="1013.5" y2="1634.5"/>
<line class="st1" x1="1129" y1="1648.4" x2="1013.5" y2="1590.5"/>
<line class="st1" x1="1129" y1="1603.4" x2="1013.5" y2="1545.5"/>
<line class="st1" x1="1129" y1="1559.4" x2="1013.5" y2="1501.5"/>
<line class="st1" x1="1129" y1="1514.4" x2="1013.5" y2="1456.5"/>
<line class="st1" x1="1129" y1="1470.4" x2="1013.5" y2="1412.5"/>
<line class="st1" x1="1129" y1="1425.4" x2="1013.5" y2="1367.5"/>
<line class="st1" x1="1129" y1="1381.4" x2="1013.5" y2="1323.5"/>
<line class="st1" x1="1129" y1="1336.4" x2="1013.5" y2="1278.5"/>
<line class="st1" x1="1129" y1="1292.4" x2="1013.5" y2="1234.5"/>
<line class="st1" x1="1129" y1="1247.4" x2="1013.5" y2="1189.5"/>
<line class="st1" x1="1129" y1="1203.4" x2="1013.5" y2="1145.5"/>
<line class="st1" x1="1129" y1="1159.4" x2="1013.5" y2="1101.5"/>
<line class="st1" x1="1129" y1="1114.4" x2="1013.5" y2="1056.5"/>
<line class="st1" x1="1129" y1="1070.4" x2="1013.5" y2="1012.5"/>
<line class="st1" x1="1129" y1="1025.4" x2="1013.5" y2="967.5"/>
<line class="st1" x1="1129" y1="981.4" x2="1013.5" y2="923.5"/>
<line class="st1" x1="1129" y1="936.4" x2="1013.5" y2="878.5"/>
<line class="st1" x1="1129" y1="892.4" x2="1013.5" y2="834.5"/>
<line class="st1" x1="1129" y1="847.4" x2="1013.5" y2="789.5"/>
<line class="st1" x1="1129" y1="803.4" x2="1013.5" y2="745.5"/>
<line class="st1" x1="1129" y1="758.4" x2="1013.5" y2="700.5"/>
<line class="st1" x1="1129" y1="714.4" x2="1013.5" y2="656.5"/>
<line class="st1" x1="1129" y1="669.4" x2="1013.5" y2="611.5"/>
<line class="st1" x1="1129" y1="625.4" x2="1013.5" y2="567.5"/>
<line class="st1" x1="1129" y1="580.4" x2="1013.5" y2="522.5"/>
<line class="st1" x1="1129" y1="536.4" x2="1013.5" y2="478.5"/>
<line class="st1" x1="1129" y1="492.4" x2="1013.5" y2="434.5"/>
<line class="st1" x1="1129" y1="447.4" x2="1013.5" y2="389.5"/>
<line class="st1" x1="1129" y1="403.4" x2="1013.5" y2="345.5"/>
<line class="st1" x1="1129" y1="358.4" x2="1013.5" y2="300.5"/>
<line class="st1" x1="1129" y1="314.4" x2="1013.5" y2="256.5"/>
<line class="st1" x1="1129" y1="269.4" x2="1013.5" y2="211.5"/>
<line class="st1" x1="1129" y1="225.4" x2="1013.5" y2="167.5"/>
<g>
	<line class="st1" x1="1091.5" y1="0" x2="1091.5" y2="1872"/>
	<line class="st2" x1="1012.5" y1="1859.7" x2="1012.5" y2="17.1"/>
	<line class="st2" x1="1054.5" y1="1859.7" x2="1054.5" y2="17.1"/>
	<line class="st2" x1="1131.5" y1="1860.9" x2="1131.5" y2="18.3"/>
	<line class="st1" x1="1129" y1="180.4" x2="1013.5" y2="122.5"/>
	<line class="st1" x1="1129" y1="136.4" x2="1013.5" y2="78.5"/>
	<line class="st1" x1="1129" y1="91.4" x2="1013.5" y2="33.5"/>
	<line class="st1" x1="1129" y1="47.4" x2="1037.4" y2="1.5"/>
</g>
<line class="st1" x1="1286" y1="1870.4" x2="1170.5" y2="1812.5"/>
<line class="st1" x1="1286" y1="1826.4" x2="1170.5" y2="1768.5"/>
<line class="st1" x1="1286" y1="1781.4" x2="1170.5" y2="1723.5"/>
<line class="st1" x1="1286" y1="1737.4" x2="1170.5" y2="1679.5"/>
<line class="st1" x1="1286" y1="1692.4" x2="1170.5" y2="1634.5"/>
<line class="st1" x1="1286" y1="1648.4" x2="1170.5" y2="1590.5"/>
<line class="st1" x1="1286" y1="1603.4" x2="1170.5" y2="1545.5"/>
<line class="st1" x1="1286" y1="1559.4" x2="1170.5" y2="1501.5"/>
<line class="st1" x1="1286" y1="1514.4" x2="1170.5" y2="1456.5"/>
<line class="st1" x1="1286" y1="1470.4" x2="1170.5" y2="1412.5"/>
<line class="st1" x1="1286" y1="1425.4" x2="1170.5" y2="1367.5"/>
<line class="st1" x1="1286" y1="1381.4" x2="1170.5" y2="1323.5"/>
<line class="st1" x1="1286" y1="1336.4" x2="1170.5" y2="1278.5"/>
<line class="st1" x1="1286" y1="1292.4" x2="1170.5" y2="1234.5"/>
<line class="st1" x1="1286" y1="1247.4" x2="1170.5" y2="1189.5"/>
<line class="st1" x1="1286" y1="1203.4" x2="1170.5" y2="1145.5"/>
<line class="st1" x1="1286" y1="1159.4" x2="1170.5" y2="1101.5"/>
<line class="st1" x1="1286" y1="1114.4" x2="1170.5" y2="1056.5"/>
<line class="st1" x1="1286" y1="1070.4" x2="1170.5" y2="1012.5"/>
<line class="st1" x1="1286" y1="1025.4" x2="1170.5" y2="967.5"/>
<line class="st1" x1="1286" y1="981.4" x2="1170.5" y2="923.5"/>
<line class="st1" x1="1286" y1="936.4" x2="1170.5" y2="878.5"/>
<line class="st1" x1="1286" y1="892.4" x2="1170.5" y2="834.5"/>
<line class="st1" x1="1286" y1="847.4" x2="1170.5" y2="789.5"/>
<line class="st1" x1="1286" y1="803.4" x2="1170.5" y2="745.5"/>
<line class="st1" x1="1286" y1="758.4" x2="1170.5" y2="700.5"/>
<line class="st1" x1="1286" y1="714.4" x2="1170.5" y2="656.5"/>
<line class="st1" x1="1286" y1="669.4" x2="1170.5" y2="611.5"/>
<line class="st1" x1="1286" y1="625.4" x2="1170.5" y2="567.5"/>
<line class="st1" x1="1286" y1="580.4" x2="1170.5" y2="522.5"/>
<line class="st1" x1="1286" y1="536.4" x2="1170.5" y2="478.5"/>
<line class="st1" x1="1286" y1="492.4" x2="1170.5" y2="434.5"/>
<line class="st1" x1="1286" y1="447.4" x2="1170.5" y2="389.5"/>
<line class="st1" x1="1286" y1="403.4" x2="1170.5" y2="345.5"/>
<line class="st1" x1="1286" y1="358.4" x2="1170.5" y2="300.5"/>
<line class="st1" x1="1286" y1="314.4" x2="1170.5" y2="256.5"/>
<line class="st1" x1="1286" y1="269.4" x2="1170.5" y2="211.5"/>
<line class="st1" x1="1286" y1="225.4" x2="1170.5" y2="167.5"/>
<line class="st1" x1="1286" y1="180.4" x2="1170.5" y2="122.5"/>
<g>
	<line class="st1" x1="1248.5" y1="0" x2="1248.5" y2="1872"/>
	<line class="st2" x1="1169.5" y1="1859.7" x2="1169.5" y2="17.1"/>
	<line class="st2" x1="1211.5" y1="1859.7" x2="1211.5" y2="17.1"/>
	<line class="st2" x1="1288.5" y1="1860.9" x2="1288.5" y2="18.3"/>
	<line class="st1" x1="1286" y1="136.4" x2="1170.5" y2="78.5"/>
	<line class="st1" x1="1286" y1="91.4" x2="1170.5" y2="33.5"/>
	<line class="st1" x1="1286" y1="47.4" x2="1194.4" y2="1.5"/>
</g>
</svg>
