<?xml version="1.0" encoding="utf-8"?>
<!-- Generator: Adobe Illustrator 22.1.0, SVG Export Plug-In . SVG Version: 6.00 Build 0)  -->
<svg version="1.1" id="Layer_1" xmlns="http://www.w3.org/2000/svg" xmlns:xlink="http://www.w3.org/1999/xlink" x="0px" y="0px"
	 viewBox="0 0 1404 1872" style="enable-background:new 0 0 1404 1872;" xml:space="preserve">
<style type="text/css">
	.st0{fill:#FFFFFF;}
	.st1{fill:none;stroke:#000000;stroke-width:0.32;stroke-miterlimit:10;}
	.st2{fill:none;stroke:#000000;stroke-width:0.5;stroke-miterlimit:10;}
</style>
<title>templates_artboards_horisontal_turnt</title>
<g id="White_BG">
	<rect class="st0" width="1404" height="1872"/>
</g>
<g id="LINES">
	<line class="st1" x1="284" y1="1661" x2="284" y2="960"/>
	<line class="st1" x1="381" y1="1661" x2="381" y2="960"/>
	<line class="st1" x1="479" y1="1661" x2="479" y2="960"/>
	<line class="st1" x1="576" y1="1661" x2="576" y2="960"/>
	<line class="st1" x1="673" y1="1661" x2="673" y2="960"/>
	<line class="st1" x1="771" y1="1661" x2="771" y2="960"/>
	<line class="st1" x1="868" y1="1661" x2="868" y2="960"/>
	<line class="st1" x1="966" y1="1661" x2="966" y2="960"/>
	<line class="st1" x1="1063" y1="1661" x2="1063" y2="960"/>
	<line class="st1" x1="1160" y1="1661" x2="1160" y2="960"/>
	<line class="st1" x1="1258" y1="1661" x2="1258" y2="960"/>
	<line class="st1" x1="1355" y1="1661" x2="1355" y2="960"/>
	<line class="st1" x1="284" y1="751" x2="284" y2="50"/>
	<line class="st1" x1="381" y1="751" x2="381" y2="50"/>
	<line class="st1" x1="479" y1="751" x2="479" y2="50"/>
	<line class="st1" x1="576" y1="751" x2="576" y2="50"/>
	<line class="st1" x1="673" y1="751" x2="673" y2="50"/>
	<line class="st1" x1="771" y1="751" x2="771" y2="50"/>
	<line class="st1" x1="868" y1="751" x2="868" y2="50"/>
	<line class="st1" x1="966" y1="751" x2="966" y2="50"/>
	<line class="st1" x1="1063" y1="751" x2="1063" y2="50"/>
	<line class="st1" x1="1160" y1="751" x2="1160" y2="50"/>
	<line class="st1" x1="1258" y1="751" x2="1258" y2="50"/>
	<line class="st1" x1="1355" y1="751" x2="1355" y2="50"/>
	<line class="st2" x1="149.5" y1="1872" x2="149.5" y2="0"/>
	<rect x="228.5" y="1733.5" class="st2" width="55" height="55"/>
	<rect x="325.5" y="1733.5" class="st2" width="55" height="55"/>
	<rect x="423.5" y="1733.5" class="st2" width="55" height="55"/>
	<rect x="520.5" y="1733.5" class="st2" width="55" height="55"/>
	<rect x="617.5" y="1733.5" class="st2" width="55" height="55"/>
	<rect x="715.5" y="1733.5" class="st2" width="55" height="55"/>
	<rect x="812.5" y="1733.5" class="st2" width="55" height="55"/>
	<rect x="910.5" y="1733.5" class="st2" width="55" height="55"/>
	<rect x="1007.5" y="1733.5" class="st2" width="55" height="55"/>
	<rect x="1104.5" y="1733.5" class="st2" width="55" height="55"/>
	<rect x="1202.5" y="1733.5" class="st2" width="55" height="55"/>
	<rect x="1299.5" y="1733.5" class="st2" width="55" height="55"/>
	<rect x="228.5" y="825.5" class="st2" width="55" height="55"/>
	<rect x="325.5" y="825.5" class="st2" width="55" height="55"/>
	<rect x="423.5" y="825.5" class="st2" width="55" height="55"/>
	<rect x="520.5" y="825.5" class="st2" width="55" height="55"/>
	<rect x="617.5" y="825.5" class="st2" width="55" height="55"/>
	<rect x="715.5" y="825.5" class="st2" width="55" height="55"/>
	<rect x="812.5" y="825.5" class="st2" width="55" height="55"/>
	<rect x="910.5" y="825.5" class="st2" width="55" height="55"/>
	<rect x="1007.5" y="825.5" class="st2" width="55" height="55"/>
	<rect x="1104.5" y="825.5" class="st2" width="55" height="55"/>
	<rect x="1202.5" y="825.5" class="st2" width="55" height="55"/>
	<rect x="1299.5" y="825.5" class="st2" width="55" height="55"/>
</g>
</svg>
