<?xml version="1.0" encoding="utf-8"?>
<!-- Generator: Adobe Illustrator 22.1.0, SVG Export Plug-In . SVG Version: 6.00 Build 0)  -->
<svg version="1.1" id="Layer_1" xmlns="http://www.w3.org/2000/svg" xmlns:xlink="http://www.w3.org/1999/xlink" x="0px" y="0px"
	 viewBox="0 0 1404 1872" style="enable-background:new 0 0 1404 1872;" xml:space="preserve">
<style type="text/css">
	.st0{fill:#FFFFFF;}
</style>
<title>templates_artboards_horisontal_turnt</title>
<g id="White_BG">
	<rect x="4" class="st0" width="1400" height="1872"/>
</g>
<g id="DOTS">
	<circle cx="0" cy="7" r="1"/>
	<circle cx="0" cy="50" r="1"/>
	<circle cx="0" cy="92" r="1"/>
	<circle cx="0" cy="135" r="1"/>
	<circle cx="0" cy="177" r="1"/>
	<circle cx="0" cy="220" r="1"/>
	<circle cx="0" cy="262" r="1"/>
	<circle cx="0" cy="305" r="1"/>
	<circle cx="0" cy="347" r="1"/>
	<circle cx="0" cy="390" r="1"/>
	<circle cx="0" cy="432" r="1"/>
	<circle cx="0" cy="475" r="1"/>
	<circle cx="0" cy="517" r="1"/>
	<circle cx="0" cy="560" r="1"/>
	<circle cx="0" cy="602" r="1"/>
	<circle cx="0" cy="645" r="1"/>
	<circle cx="0" cy="687" r="1"/>
	<circle cx="0" cy="730" r="1"/>
	<circle cx="0" cy="772" r="1"/>
	<circle cx="0" cy="815" r="1"/>
	<circle cx="0" cy="857" r="1"/>
	<circle cx="0" cy="900" r="1"/>
	<circle cx="0" cy="942" r="1"/>
	<circle cx="0" cy="985" r="1"/>
	<circle cx="0" cy="1027" r="1"/>
	<circle cx="0" cy="1070" r="1"/>
	<circle cx="0" cy="1113" r="1"/>
	<circle cx="0" cy="1155" r="1"/>
	<circle cx="0" cy="1198" r="1"/>
	<circle cx="0" cy="1240" r="1"/>
	<circle cx="0" cy="1283" r="1"/>
	<circle cx="0" cy="1325" r="1"/>
	<circle cx="0" cy="1368" r="1"/>
	<circle cx="0" cy="1410" r="1"/>
	<circle cx="0" cy="1453" r="1"/>
	<circle cx="0" cy="1495" r="1"/>
	<circle cx="0" cy="1538" r="1"/>
	<circle cx="0" cy="1580" r="1"/>
	<circle cx="0" cy="1623" r="1"/>
	<circle cx="0" cy="1665" r="1"/>
	<circle cx="0" cy="1708" r="1"/>
	<circle cx="0" cy="1750" r="1"/>
	<circle cx="0" cy="1793" r="1"/>
	<circle cx="0" cy="1835" r="1"/>
	<circle cx="42" cy="7" r="1"/>
	<circle cx="42" cy="50" r="1"/>
	<circle cx="42" cy="92" r="1"/>
	<circle cx="42" cy="135" r="1"/>
	<circle cx="42" cy="177" r="1"/>
	<circle cx="42" cy="220" r="1"/>
	<circle cx="42" cy="262" r="1"/>
	<circle cx="42" cy="305" r="1"/>
	<circle cx="42" cy="347" r="1"/>
	<circle cx="42" cy="390" r="1"/>
	<circle cx="42" cy="432" r="1"/>
	<circle cx="42" cy="475" r="1"/>
	<circle cx="42" cy="517" r="1"/>
	<circle cx="42" cy="560" r="1"/>
	<circle cx="42" cy="602" r="1"/>
	<circle cx="42" cy="645" r="1"/>
	<circle cx="42" cy="687" r="1"/>
	<circle cx="42" cy="730" r="1"/>
	<circle cx="42" cy="772" r="1"/>
	<circle cx="42" cy="815" r="1"/>
	<circle cx="42" cy="857" r="1"/>
	<circle cx="42" cy="900" r="1"/>
	<circle cx="42" cy="942" r="1"/>
	<circle cx="42" cy="985" r="1"/>
	<circle cx="42" cy="1027" r="1"/>
	<circle cx="42" cy="1070" r="1"/>
	<circle cx="42" cy="1113" r="1"/>
	<circle cx="42" cy="1155" r="1"/>
	<circle cx="42" cy="1198" r="1"/>
	<circle cx="42" cy="1240" r="1"/>
	<circle cx="42" cy="1283" r="1"/>
	<circle cx="42" cy="1325" r="1"/>
	<circle cx="42" cy="1368" r="1"/>
	<circle cx="42" cy="1410" r="1"/>
	<circle cx="42" cy="1453" r="1"/>
	<circle cx="42" cy="1495" r="1"/>
	<circle cx="42" cy="1538" r="1"/>
	<circle cx="42" cy="1580" r="1"/>
	<circle cx="42" cy="1623" r="1"/>
	<circle cx="42" cy="1665" r="1"/>
	<circle cx="42" cy="1708" r="1"/>
	<circle cx="42" cy="1750" r="1"/>
	<circle cx="42" cy="1793" r="1"/>
	<circle cx="42" cy="1835" r="1"/>
	<circle cx="85" cy="7" r="1"/>
	<circle cx="85" cy="50" r="1"/>
	<circle cx="85" cy="92" r="1"/>
	<circle cx="85" cy="135" r="1"/>
	<circle cx="85" cy="177" r="1"/>
	<circle cx="85" cy="220" r="1"/>
	<circle cx="85" cy="262" r="1"/>
	<circle cx="85" cy="305" r="1"/>
	<circle cx="85" cy="347" r="1"/>
	<circle cx="85" cy="390" r="1"/>
	<circle cx="85" cy="432" r="1"/>
	<circle cx="85" cy="475" r="1"/>
	<circle cx="85" cy="517" r="1"/>
	<circle cx="85" cy="560" r="1"/>
	<circle cx="85" cy="602" r="1"/>
	<circle cx="85" cy="645" r="1"/>
	<circle cx="85" cy="687" r="1"/>
	<circle cx="85" cy="730" r="1"/>
	<circle cx="85" cy="772" r="1"/>
	<circle cx="85" cy="815" r="1"/>
	<circle cx="85" cy="857" r="1"/>
	<circle cx="85" cy="900" r="1"/>
	<circle cx="85" cy="942" r="1"/>
	<circle cx="85" cy="985" r="1"/>
	<circle cx="85" cy="1027" r="1"/>
	<circle cx="85" cy="1070" r="1"/>
	<circle cx="85" cy="1113" r="1"/>
	<circle cx="85" cy="1155" r="1"/>
	<circle cx="85" cy="1198" r="1"/>
	<circle cx="85" cy="1240" r="1"/>
	<circle cx="85" cy="1283" r="1"/>
	<circle cx="85" cy="1325" r="1"/>
	<circle cx="85" cy="1368" r="1"/>
	<circle cx="85" cy="1410" r="1"/>
	<circle cx="85" cy="1453" r="1"/>
	<circle cx="85" cy="1495" r="1"/>
	<circle cx="85" cy="1538" r="1"/>
	<circle cx="85" cy="1580" r="1"/>
	<circle cx="85" cy="1623" r="1"/>
	<circle cx="85" cy="1665" r="1"/>
	<circle cx="85" cy="1708" r="1"/>
	<circle cx="85" cy="1750" r="1"/>
	<circle cx="85" cy="1793" r="1"/>
	<circle cx="85" cy="1835" r="1"/>
	<circle cx="127" cy="7" r="1"/>
	<circle cx="127" cy="50" r="1"/>
	<circle cx="127" cy="92" r="1"/>
	<circle cx="127" cy="135" r="1"/>
	<circle cx="127" cy="177" r="1"/>
	<circle cx="127" cy="220" r="1"/>
	<circle cx="127" cy="262" r="1"/>
	<circle cx="127" cy="305" r="1"/>
	<circle cx="127" cy="347" r="1"/>
	<circle cx="127" cy="390" r="1"/>
	<circle cx="127" cy="432" r="1"/>
	<circle cx="127" cy="475" r="1"/>
	<circle cx="127" cy="517" r="1"/>
	<circle cx="127" cy="560" r="1"/>
	<circle cx="127" cy="602" r="1"/>
	<circle cx="127" cy="645" r="1"/>
	<circle cx="127" cy="687" r="1"/>
	<circle cx="127" cy="730" r="1"/>
	<circle cx="127" cy="772" r="1"/>
	<circle cx="127" cy="815" r="1"/>
	<circle cx="127" cy="857" r="1"/>
	<circle cx="127" cy="900" r="1"/>
	<circle cx="127" cy="942" r="1"/>
	<circle cx="127" cy="985" r="1"/>
	<circle cx="127" cy="1027" r="1"/>
	<circle cx="127" cy="1070" r="1"/>
	<circle cx="127" cy="1113" r="1"/>
	<circle cx="127" cy="1155" r="1"/>
	<circle cx="127" cy="1198" r="1"/>
	<circle cx="127" cy="1240" r="1"/>
	<circle cx="127" cy="1283" r="1"/>
	<circle cx="127" cy="1325" r="1"/>
	<circle cx="127" cy="1368" r="1"/>
	<circle cx="127" cy="1410" r="1"/>
	<circle cx="127" cy="1453" r="1"/>
	<circle cx="127" cy="1495" r="1"/>
	<circle cx="127" cy="1538" r="1"/>
	<circle cx="127" cy="1580" r="1"/>
	<circle cx="127" cy="1623" r="1"/>
	<circle cx="127" cy="1665" r="1"/>
	<circle cx="127" cy="1708" r="1"/>
	<circle cx="127" cy="1750" r="1"/>
	<circle cx="127" cy="1793" r="1"/>
	<circle cx="127" cy="1835" r="1"/>
	<circle cx="170" cy="7" r="1"/>
	<circle cx="170" cy="50" r="1"/>
	<circle cx="170" cy="92" r="1"/>
	<circle cx="170" cy="135" r="1"/>
	<circle cx="170" cy="177" r="1"/>
	<circle cx="170" cy="220" r="1"/>
	<circle cx="170" cy="262" r="1"/>
	<circle cx="170" cy="305" r="1"/>
	<circle cx="170" cy="347" r="1"/>
	<circle cx="170" cy="390" r="1"/>
	<circle cx="170" cy="432" r="1"/>
	<circle cx="170" cy="475" r="1"/>
	<circle cx="170" cy="517" r="1"/>
	<circle cx="170" cy="560" r="1"/>
	<circle cx="170" cy="602" r="1"/>
	<circle cx="170" cy="645" r="1"/>
	<circle cx="170" cy="687" r="1"/>
	<circle cx="170" cy="730" r="1"/>
	<circle cx="170" cy="772" r="1"/>
	<circle cx="170" cy="815" r="1"/>
	<circle cx="170" cy="857" r="1"/>
	<circle cx="170" cy="900" r="1"/>
	<circle cx="170" cy="942" r="1"/>
	<circle cx="170" cy="985" r="1"/>
	<circle cx="170" cy="1027" r="1"/>
	<circle cx="170" cy="1070" r="1"/>
	<circle cx="170" cy="1113" r="1"/>
	<circle cx="170" cy="1155" r="1"/>
	<circle cx="170" cy="1198" r="1"/>
	<circle cx="170" cy="1240" r="1"/>
	<circle cx="170" cy="1283" r="1"/>
	<circle cx="170" cy="1325" r="1"/>
	<circle cx="170" cy="1368" r="1"/>
	<circle cx="170" cy="1410" r="1"/>
	<circle cx="170" cy="1453" r="1"/>
	<circle cx="170" cy="1495" r="1"/>
	<circle cx="170" cy="1538" r="1"/>
	<circle cx="170" cy="1580" r="1"/>
	<circle cx="170" cy="1623" r="1"/>
	<circle cx="170" cy="1665" r="1"/>
	<circle cx="170" cy="1708" r="1"/>
	<circle cx="170" cy="1750" r="1"/>
	<circle cx="170" cy="1793" r="1"/>
	<circle cx="170" cy="1835" r="1"/>
	<circle cx="212" cy="7" r="1"/>
	<circle cx="212" cy="50" r="1"/>
	<circle cx="212" cy="92" r="1"/>
	<circle cx="212" cy="135" r="1"/>
	<circle cx="212" cy="177" r="1"/>
	<circle cx="212" cy="220" r="1"/>
	<circle cx="212" cy="262" r="1"/>
	<circle cx="212" cy="305" r="1"/>
	<circle cx="212" cy="347" r="1"/>
	<circle cx="212" cy="390" r="1"/>
	<circle cx="212" cy="432" r="1"/>
	<circle cx="212" cy="475" r="1"/>
	<circle cx="212" cy="517" r="1"/>
	<circle cx="212" cy="560" r="1"/>
	<circle cx="212" cy="602" r="1"/>
	<circle cx="212" cy="645" r="1"/>
	<circle cx="212" cy="687" r="1"/>
	<circle cx="212" cy="730" r="1"/>
	<circle cx="212" cy="772" r="1"/>
	<circle cx="212" cy="815" r="1"/>
	<circle cx="212" cy="857" r="1"/>
	<circle cx="212" cy="900" r="1"/>
	<circle cx="212" cy="942" r="1"/>
	<circle cx="212" cy="985" r="1"/>
	<circle cx="212" cy="1027" r="1"/>
	<circle cx="212" cy="1070" r="1"/>
	<circle cx="212" cy="1113" r="1"/>
	<circle cx="212" cy="1155" r="1"/>
	<circle cx="212" cy="1198" r="1"/>
	<circle cx="212" cy="1240" r="1"/>
	<circle cx="212" cy="1283" r="1"/>
	<circle cx="212" cy="1325" r="1"/>
	<circle cx="212" cy="1368" r="1"/>
	<circle cx="212" cy="1410" r="1"/>
	<circle cx="212" cy="1453" r="1"/>
	<circle cx="212" cy="1495" r="1"/>
	<circle cx="212" cy="1538" r="1"/>
	<circle cx="212" cy="1580" r="1"/>
	<circle cx="212" cy="1623" r="1"/>
	<circle cx="212" cy="1665" r="1"/>
	<circle cx="212" cy="1708" r="1"/>
	<circle cx="212" cy="1750" r="1"/>
	<circle cx="212" cy="1793" r="1"/>
	<circle cx="212" cy="1835" r="1"/>
	<circle cx="255" cy="7" r="1"/>
	<circle cx="255" cy="50" r="1"/>
	<circle cx="255" cy="92" r="1"/>
	<circle cx="255" cy="135" r="1"/>
	<circle cx="255" cy="177" r="1"/>
	<circle cx="255" cy="220" r="1"/>
	<circle cx="255" cy="262" r="1"/>
	<circle cx="255" cy="305" r="1"/>
	<circle cx="255" cy="347" r="1"/>
	<circle cx="255" cy="390" r="1"/>
	<circle cx="255" cy="432" r="1"/>
	<circle cx="255" cy="475" r="1"/>
	<circle cx="255" cy="517" r="1"/>
	<circle cx="255" cy="560" r="1"/>
	<circle cx="255" cy="602" r="1"/>
	<circle cx="255" cy="645" r="1"/>
	<circle cx="255" cy="687" r="1"/>
	<circle cx="255" cy="730" r="1"/>
	<circle cx="255" cy="772" r="1"/>
	<circle cx="255" cy="815" r="1"/>
	<circle cx="255" cy="857" r="1"/>
	<circle cx="255" cy="900" r="1"/>
	<circle cx="255" cy="942" r="1"/>
	<circle cx="255" cy="985" r="1"/>
	<circle cx="255" cy="1027" r="1"/>
	<circle cx="255" cy="1070" r="1"/>
	<circle cx="255" cy="1113" r="1"/>
	<circle cx="255" cy="1155" r="1"/>
	<circle cx="255" cy="1198" r="1"/>
	<circle cx="255" cy="1240" r="1"/>
	<circle cx="255" cy="1283" r="1"/>
	<circle cx="255" cy="1325" r="1"/>
	<circle cx="255" cy="1368" r="1"/>
	<circle cx="255" cy="1410" r="1"/>
	<circle cx="255" cy="1453" r="1"/>
	<circle cx="255" cy="1495" r="1"/>
	<circle cx="255" cy="1538" r="1"/>
	<circle cx="255" cy="1580" r="1"/>
	<circle cx="255" cy="1623" r="1"/>
	<circle cx="255" cy="1665" r="1"/>
	<circle cx="255" cy="1708" r="1"/>
	<circle cx="255" cy="1750" r="1"/>
	<circle cx="255" cy="1793" r="1"/>
	<circle cx="255" cy="1835" r="1"/>
	<circle cx="297" cy="7" r="1"/>
	<circle cx="297" cy="50" r="1"/>
	<circle cx="297" cy="92" r="1"/>
	<circle cx="297" cy="135" r="1"/>
	<circle cx="297" cy="177" r="1"/>
	<circle cx="297" cy="220" r="1"/>
	<circle cx="297" cy="262" r="1"/>
	<circle cx="297" cy="305" r="1"/>
	<circle cx="297" cy="347" r="1"/>
	<circle cx="297" cy="390" r="1"/>
	<circle cx="297" cy="432" r="1"/>
	<circle cx="297" cy="475" r="1"/>
	<circle cx="297" cy="517" r="1"/>
	<circle cx="297" cy="560" r="1"/>
	<circle cx="297" cy="602" r="1"/>
	<circle cx="297" cy="645" r="1"/>
	<circle cx="297" cy="687" r="1"/>
	<circle cx="297" cy="730" r="1"/>
	<circle cx="297" cy="772" r="1"/>
	<circle cx="297" cy="815" r="1"/>
	<circle cx="297" cy="857" r="1"/>
	<circle cx="297" cy="900" r="1"/>
	<circle cx="297" cy="942" r="1"/>
	<circle cx="297" cy="985" r="1"/>
	<circle cx="297" cy="1027" r="1"/>
	<circle cx="297" cy="1070" r="1"/>
	<circle cx="297" cy="1113" r="1"/>
	<circle cx="297" cy="1155" r="1"/>
	<circle cx="297" cy="1198" r="1"/>
	<circle cx="297" cy="1240" r="1"/>
	<circle cx="297" cy="1283" r="1"/>
	<circle cx="297" cy="1325" r="1"/>
	<circle cx="297" cy="1368" r="1"/>
	<circle cx="297" cy="1410" r="1"/>
	<circle cx="297" cy="1453" r="1"/>
	<circle cx="297" cy="1495" r="1"/>
	<circle cx="297" cy="1538" r="1"/>
	<circle cx="297" cy="1580" r="1"/>
	<circle cx="297" cy="1623" r="1"/>
	<circle cx="297" cy="1665" r="1"/>
	<circle cx="297" cy="1708" r="1"/>
	<circle cx="297" cy="1750" r="1"/>
	<circle cx="297" cy="1793" r="1"/>
	<circle cx="297" cy="1835" r="1"/>
	<circle cx="340" cy="7" r="1"/>
	<circle cx="340" cy="50" r="1"/>
	<circle cx="340" cy="92" r="1"/>
	<circle cx="340" cy="135" r="1"/>
	<circle cx="340" cy="177" r="1"/>
	<circle cx="340" cy="220" r="1"/>
	<circle cx="340" cy="262" r="1"/>
	<circle cx="340" cy="305" r="1"/>
	<circle cx="340" cy="347" r="1"/>
	<circle cx="340" cy="390" r="1"/>
	<circle cx="340" cy="432" r="1"/>
	<circle cx="340" cy="475" r="1"/>
	<circle cx="340" cy="517" r="1"/>
	<circle cx="340" cy="560" r="1"/>
	<circle cx="340" cy="602" r="1"/>
	<circle cx="340" cy="645" r="1"/>
	<circle cx="340" cy="687" r="1"/>
	<circle cx="340" cy="730" r="1"/>
	<circle cx="340" cy="772" r="1"/>
	<circle cx="340" cy="815" r="1"/>
	<circle cx="340" cy="857" r="1"/>
	<circle cx="340" cy="900" r="1"/>
	<circle cx="340" cy="942" r="1"/>
	<circle cx="340" cy="985" r="1"/>
	<circle cx="340" cy="1027" r="1"/>
	<circle cx="340" cy="1070" r="1"/>
	<circle cx="340" cy="1113" r="1"/>
	<circle cx="340" cy="1155" r="1"/>
	<circle cx="340" cy="1198" r="1"/>
	<circle cx="340" cy="1240" r="1"/>
	<circle cx="340" cy="1283" r="1"/>
	<circle cx="340" cy="1325" r="1"/>
	<circle cx="340" cy="1368" r="1"/>
	<circle cx="340" cy="1410" r="1"/>
	<circle cx="340" cy="1453" r="1"/>
	<circle cx="340" cy="1495" r="1"/>
	<circle cx="340" cy="1538" r="1"/>
	<circle cx="340" cy="1580" r="1"/>
	<circle cx="340" cy="1623" r="1"/>
	<circle cx="340" cy="1665" r="1"/>
	<circle cx="340" cy="1708" r="1"/>
	<circle cx="340" cy="1750" r="1"/>
	<circle cx="340" cy="1793" r="1"/>
	<circle cx="340" cy="1835" r="1"/>
	<circle cx="383" cy="7" r="1"/>
	<circle cx="383" cy="50" r="1"/>
	<circle cx="383" cy="92" r="1"/>
	<circle cx="383" cy="135" r="1"/>
	<circle cx="383" cy="177" r="1"/>
	<circle cx="383" cy="220" r="1"/>
	<circle cx="383" cy="262" r="1"/>
	<circle cx="383" cy="305" r="1"/>
	<circle cx="383" cy="347" r="1"/>
	<circle cx="383" cy="390" r="1"/>
	<circle cx="383" cy="432" r="1"/>
	<circle cx="383" cy="475" r="1"/>
	<circle cx="383" cy="517" r="1"/>
	<circle cx="383" cy="560" r="1"/>
	<circle cx="383" cy="602" r="1"/>
	<circle cx="383" cy="645" r="1"/>
	<circle cx="383" cy="687" r="1"/>
	<circle cx="383" cy="730" r="1"/>
	<circle cx="383" cy="772" r="1"/>
	<circle cx="383" cy="815" r="1"/>
	<circle cx="383" cy="857" r="1"/>
	<circle cx="383" cy="900" r="1"/>
	<circle cx="383" cy="942" r="1"/>
	<circle cx="383" cy="985" r="1"/>
	<circle cx="383" cy="1027" r="1"/>
	<circle cx="383" cy="1070" r="1"/>
	<circle cx="383" cy="1113" r="1"/>
	<circle cx="383" cy="1155" r="1"/>
	<circle cx="383" cy="1198" r="1"/>
	<circle cx="383" cy="1240" r="1"/>
	<circle cx="383" cy="1283" r="1"/>
	<circle cx="383" cy="1325" r="1"/>
	<circle cx="383" cy="1368" r="1"/>
	<circle cx="383" cy="1410" r="1"/>
	<circle cx="383" cy="1453" r="1"/>
	<circle cx="383" cy="1495" r="1"/>
	<circle cx="383" cy="1538" r="1"/>
	<circle cx="383" cy="1580" r="1"/>
	<circle cx="383" cy="1623" r="1"/>
	<circle cx="383" cy="1665" r="1"/>
	<circle cx="383" cy="1708" r="1"/>
	<circle cx="383" cy="1750" r="1"/>
	<circle cx="383" cy="1793" r="1"/>
	<circle cx="383" cy="1835" r="1"/>
	<circle cx="425" cy="7" r="1"/>
	<circle cx="425" cy="50" r="1"/>
	<circle cx="425" cy="92" r="1"/>
	<circle cx="425" cy="135" r="1"/>
	<circle cx="425" cy="177" r="1"/>
	<circle cx="425" cy="220" r="1"/>
	<circle cx="425" cy="262" r="1"/>
	<circle cx="425" cy="305" r="1"/>
	<circle cx="425" cy="347" r="1"/>
	<circle cx="425" cy="390" r="1"/>
	<circle cx="425" cy="432" r="1"/>
	<circle cx="425" cy="475" r="1"/>
	<circle cx="425" cy="517" r="1"/>
	<circle cx="425" cy="560" r="1"/>
	<circle cx="425" cy="602" r="1"/>
	<circle cx="425" cy="645" r="1"/>
	<circle cx="425" cy="687" r="1"/>
	<circle cx="425" cy="730" r="1"/>
	<circle cx="425" cy="772" r="1"/>
	<circle cx="425" cy="815" r="1"/>
	<circle cx="425" cy="857" r="1"/>
	<circle cx="425" cy="900" r="1"/>
	<circle cx="425" cy="942" r="1"/>
	<circle cx="425" cy="985" r="1"/>
	<circle cx="425" cy="1027" r="1"/>
	<circle cx="425" cy="1070" r="1"/>
	<circle cx="425" cy="1113" r="1"/>
	<circle cx="425" cy="1155" r="1"/>
	<circle cx="425" cy="1198" r="1"/>
	<circle cx="425" cy="1240" r="1"/>
	<circle cx="425" cy="1283" r="1"/>
	<circle cx="425" cy="1325" r="1"/>
	<circle cx="425" cy="1368" r="1"/>
	<circle cx="425" cy="1410" r="1"/>
	<circle cx="425" cy="1453" r="1"/>
	<circle cx="425" cy="1495" r="1"/>
	<circle cx="425" cy="1538" r="1"/>
	<circle cx="425" cy="1580" r="1"/>
	<circle cx="425" cy="1623" r="1"/>
	<circle cx="425" cy="1665" r="1"/>
	<circle cx="425" cy="1708" r="1"/>
	<circle cx="425" cy="1750" r="1"/>
	<circle cx="425" cy="1793" r="1"/>
	<circle cx="425" cy="1835" r="1"/>
	<circle cx="468" cy="7" r="1"/>
	<circle cx="468" cy="50" r="1"/>
	<circle cx="468" cy="92" r="1"/>
	<circle cx="468" cy="135" r="1"/>
	<circle cx="468" cy="177" r="1"/>
	<circle cx="468" cy="220" r="1"/>
	<circle cx="468" cy="262" r="1"/>
	<circle cx="468" cy="305" r="1"/>
	<circle cx="468" cy="347" r="1"/>
	<circle cx="468" cy="390" r="1"/>
	<circle cx="468" cy="432" r="1"/>
	<circle cx="468" cy="475" r="1"/>
	<circle cx="468" cy="517" r="1"/>
	<circle cx="468" cy="560" r="1"/>
	<circle cx="468" cy="602" r="1"/>
	<circle cx="468" cy="645" r="1"/>
	<circle cx="468" cy="687" r="1"/>
	<circle cx="468" cy="730" r="1"/>
	<circle cx="468" cy="772" r="1"/>
	<circle cx="468" cy="815" r="1"/>
	<circle cx="468" cy="857" r="1"/>
	<circle cx="468" cy="900" r="1"/>
	<circle cx="468" cy="942" r="1"/>
	<circle cx="468" cy="985" r="1"/>
	<circle cx="468" cy="1027" r="1"/>
	<circle cx="468" cy="1070" r="1"/>
	<circle cx="468" cy="1113" r="1"/>
	<circle cx="468" cy="1155" r="1"/>
	<circle cx="468" cy="1198" r="1"/>
	<circle cx="468" cy="1240" r="1"/>
	<circle cx="468" cy="1283" r="1"/>
	<circle cx="468" cy="1325" r="1"/>
	<circle cx="468" cy="1368" r="1"/>
	<circle cx="468" cy="1410" r="1"/>
	<circle cx="468" cy="1453" r="1"/>
	<circle cx="468" cy="1495" r="1"/>
	<circle cx="468" cy="1538" r="1"/>
	<circle cx="468" cy="1580" r="1"/>
	<circle cx="468" cy="1623" r="1"/>
	<circle cx="468" cy="1665" r="1"/>
	<circle cx="468" cy="1708" r="1"/>
	<circle cx="468" cy="1750" r="1"/>
	<circle cx="468" cy="1793" r="1"/>
	<circle cx="468" cy="1835" r="1"/>
	<circle cx="510" cy="7" r="1"/>
	<circle cx="510" cy="50" r="1"/>
	<circle cx="510" cy="92" r="1"/>
	<circle cx="510" cy="135" r="1"/>
	<circle cx="510" cy="177" r="1"/>
	<circle cx="510" cy="220" r="1"/>
	<circle cx="510" cy="262" r="1"/>
	<circle cx="510" cy="305" r="1"/>
	<circle cx="510" cy="347" r="1"/>
	<circle cx="510" cy="390" r="1"/>
	<circle cx="510" cy="432" r="1"/>
	<circle cx="510" cy="475" r="1"/>
	<circle cx="510" cy="517" r="1"/>
	<circle cx="510" cy="560" r="1"/>
	<circle cx="510" cy="602" r="1"/>
	<circle cx="510" cy="645" r="1"/>
	<circle cx="510" cy="687" r="1"/>
	<circle cx="510" cy="730" r="1"/>
	<circle cx="510" cy="772" r="1"/>
	<circle cx="510" cy="815" r="1"/>
	<circle cx="510" cy="857" r="1"/>
	<circle cx="510" cy="900" r="1"/>
	<circle cx="510" cy="942" r="1"/>
	<circle cx="510" cy="985" r="1"/>
	<circle cx="510" cy="1027" r="1"/>
	<circle cx="510" cy="1070" r="1"/>
	<circle cx="510" cy="1113" r="1"/>
	<circle cx="510" cy="1155" r="1"/>
	<circle cx="510" cy="1198" r="1"/>
	<circle cx="510" cy="1240" r="1"/>
	<circle cx="510" cy="1283" r="1"/>
	<circle cx="510" cy="1325" r="1"/>
	<circle cx="510" cy="1368" r="1"/>
	<circle cx="510" cy="1410" r="1"/>
	<circle cx="510" cy="1453" r="1"/>
	<circle cx="510" cy="1495" r="1"/>
	<circle cx="510" cy="1538" r="1"/>
	<circle cx="510" cy="1580" r="1"/>
	<circle cx="510" cy="1623" r="1"/>
	<circle cx="510" cy="1665" r="1"/>
	<circle cx="510" cy="1708" r="1"/>
	<circle cx="510" cy="1750" r="1"/>
	<circle cx="510" cy="1793" r="1"/>
	<circle cx="510" cy="1835" r="1"/>
	<circle cx="553" cy="7" r="1"/>
	<circle cx="553" cy="50" r="1"/>
	<circle cx="553" cy="92" r="1"/>
	<circle cx="553" cy="135" r="1"/>
	<circle cx="553" cy="177" r="1"/>
	<circle cx="553" cy="220" r="1"/>
	<circle cx="553" cy="262" r="1"/>
	<circle cx="553" cy="305" r="1"/>
	<circle cx="553" cy="347" r="1"/>
	<circle cx="553" cy="390" r="1"/>
	<circle cx="553" cy="432" r="1"/>
	<circle cx="553" cy="475" r="1"/>
	<circle cx="553" cy="517" r="1"/>
	<circle cx="553" cy="560" r="1"/>
	<circle cx="553" cy="602" r="1"/>
	<circle cx="553" cy="645" r="1"/>
	<circle cx="553" cy="687" r="1"/>
	<circle cx="553" cy="730" r="1"/>
	<circle cx="553" cy="772" r="1"/>
	<circle cx="553" cy="815" r="1"/>
	<circle cx="553" cy="857" r="1"/>
	<circle cx="553" cy="900" r="1"/>
	<circle cx="553" cy="942" r="1"/>
	<circle cx="553" cy="985" r="1"/>
	<circle cx="553" cy="1027" r="1"/>
	<circle cx="553" cy="1070" r="1"/>
	<circle cx="553" cy="1113" r="1"/>
	<circle cx="553" cy="1155" r="1"/>
	<circle cx="553" cy="1198" r="1"/>
	<circle cx="553" cy="1240" r="1"/>
	<circle cx="553" cy="1283" r="1"/>
	<circle cx="553" cy="1325" r="1"/>
	<circle cx="553" cy="1368" r="1"/>
	<circle cx="553" cy="1410" r="1"/>
	<circle cx="553" cy="1453" r="1"/>
	<circle cx="553" cy="1495" r="1"/>
	<circle cx="553" cy="1538" r="1"/>
	<circle cx="553" cy="1580" r="1"/>
	<circle cx="553" cy="1623" r="1"/>
	<circle cx="553" cy="1665" r="1"/>
	<circle cx="553" cy="1708" r="1"/>
	<circle cx="553" cy="1750" r="1"/>
	<circle cx="553" cy="1793" r="1"/>
	<circle cx="553" cy="1835" r="1"/>
	<circle cx="595" cy="7" r="1"/>
	<circle cx="595" cy="50" r="1"/>
	<circle cx="595" cy="92" r="1"/>
	<circle cx="595" cy="135" r="1"/>
	<circle cx="595" cy="177" r="1"/>
	<circle cx="595" cy="220" r="1"/>
	<circle cx="595" cy="262" r="1"/>
	<circle cx="595" cy="305" r="1"/>
	<circle cx="595" cy="347" r="1"/>
	<circle cx="595" cy="390" r="1"/>
	<circle cx="595" cy="432" r="1"/>
	<circle cx="595" cy="475" r="1"/>
	<circle cx="595" cy="517" r="1"/>
	<circle cx="595" cy="560" r="1"/>
	<circle cx="595" cy="602" r="1"/>
	<circle cx="595" cy="645" r="1"/>
	<circle cx="595" cy="687" r="1"/>
	<circle cx="595" cy="730" r="1"/>
	<circle cx="595" cy="772" r="1"/>
	<circle cx="595" cy="815" r="1"/>
	<circle cx="595" cy="857" r="1"/>
	<circle cx="595" cy="900" r="1"/>
	<circle cx="595" cy="942" r="1"/>
	<circle cx="595" cy="985" r="1"/>
	<circle cx="595" cy="1027" r="1"/>
	<circle cx="595" cy="1070" r="1"/>
	<circle cx="595" cy="1113" r="1"/>
	<circle cx="595" cy="1155" r="1"/>
	<circle cx="595" cy="1198" r="1"/>
	<circle cx="595" cy="1240" r="1"/>
	<circle cx="595" cy="1283" r="1"/>
	<circle cx="595" cy="1325" r="1"/>
	<circle cx="595" cy="1368" r="1"/>
	<circle cx="595" cy="1410" r="1"/>
	<circle cx="595" cy="1453" r="1"/>
	<circle cx="595" cy="1495" r="1"/>
	<circle cx="595" cy="1538" r="1"/>
	<circle cx="595" cy="1580" r="1"/>
	<circle cx="595" cy="1623" r="1"/>
	<circle cx="595" cy="1665" r="1"/>
	<circle cx="595" cy="1708" r="1"/>
	<circle cx="595" cy="1750" r="1"/>
	<circle cx="595" cy="1793" r="1"/>
	<circle cx="595" cy="1835" r="1"/>
	<circle cx="638" cy="7" r="1"/>
	<circle cx="638" cy="50" r="1"/>
	<circle cx="638" cy="92" r="1"/>
	<circle cx="638" cy="135" r="1"/>
	<circle cx="638" cy="177" r="1"/>
	<circle cx="638" cy="220" r="1"/>
	<circle cx="638" cy="262" r="1"/>
	<circle cx="638" cy="305" r="1"/>
	<circle cx="638" cy="347" r="1"/>
	<circle cx="638" cy="390" r="1"/>
	<circle cx="638" cy="432" r="1"/>
	<circle cx="638" cy="475" r="1"/>
	<circle cx="638" cy="517" r="1"/>
	<circle cx="638" cy="560" r="1"/>
	<circle cx="638" cy="602" r="1"/>
	<circle cx="638" cy="645" r="1"/>
	<circle cx="638" cy="687" r="1"/>
	<circle cx="638" cy="730" r="1"/>
	<circle cx="638" cy="772" r="1"/>
	<circle cx="638" cy="815" r="1"/>
	<circle cx="638" cy="857" r="1"/>
	<circle cx="638" cy="900" r="1"/>
	<circle cx="638" cy="942" r="1"/>
	<circle cx="638" cy="985" r="1"/>
	<circle cx="638" cy="1027" r="1"/>
	<circle cx="638" cy="1070" r="1"/>
	<circle cx="638" cy="1113" r="1"/>
	<circle cx="638" cy="1155" r="1"/>
	<circle cx="638" cy="1198" r="1"/>
	<circle cx="638" cy="1240" r="1"/>
	<circle cx="638" cy="1283" r="1"/>
	<circle cx="638" cy="1325" r="1"/>
	<circle cx="638" cy="1368" r="1"/>
	<circle cx="638" cy="1410" r="1"/>
	<circle cx="638" cy="1453" r="1"/>
	<circle cx="638" cy="1495" r="1"/>
	<circle cx="638" cy="1538" r="1"/>
	<circle cx="638" cy="1580" r="1"/>
	<circle cx="638" cy="1623" r="1"/>
	<circle cx="638" cy="1665" r="1"/>
	<circle cx="638" cy="1708" r="1"/>
	<circle cx="638" cy="1750" r="1"/>
	<circle cx="638" cy="1793" r="1"/>
	<circle cx="638" cy="1835" r="1"/>
	<circle cx="680" cy="7" r="1"/>
	<circle cx="680" cy="50" r="1"/>
	<circle cx="680" cy="92" r="1"/>
	<circle cx="680" cy="135" r="1"/>
	<circle cx="680" cy="177" r="1"/>
	<circle cx="680" cy="220" r="1"/>
	<circle cx="680" cy="262" r="1"/>
	<circle cx="680" cy="305" r="1"/>
	<circle cx="680" cy="347" r="1"/>
	<circle cx="680" cy="390" r="1"/>
	<circle cx="680" cy="432" r="1"/>
	<circle cx="680" cy="475" r="1"/>
	<circle cx="680" cy="517" r="1"/>
	<circle cx="680" cy="560" r="1"/>
	<circle cx="680" cy="602" r="1"/>
	<circle cx="680" cy="645" r="1"/>
	<circle cx="680" cy="687" r="1"/>
	<circle cx="680" cy="730" r="1"/>
	<circle cx="680" cy="772" r="1"/>
	<circle cx="680" cy="815" r="1"/>
	<circle cx="680" cy="857" r="1"/>
	<circle cx="680" cy="900" r="1"/>
	<circle cx="680" cy="942" r="1"/>
	<circle cx="680" cy="985" r="1"/>
	<circle cx="680" cy="1027" r="1"/>
	<circle cx="680" cy="1070" r="1"/>
	<circle cx="680" cy="1113" r="1"/>
	<circle cx="680" cy="1155" r="1"/>
	<circle cx="680" cy="1198" r="1"/>
	<circle cx="680" cy="1240" r="1"/>
	<circle cx="680" cy="1283" r="1"/>
	<circle cx="680" cy="1325" r="1"/>
	<circle cx="680" cy="1368" r="1"/>
	<circle cx="680" cy="1410" r="1"/>
	<circle cx="680" cy="1453" r="1"/>
	<circle cx="680" cy="1495" r="1"/>
	<circle cx="680" cy="1538" r="1"/>
	<circle cx="680" cy="1580" r="1"/>
	<circle cx="680" cy="1623" r="1"/>
	<circle cx="680" cy="1665" r="1"/>
	<circle cx="680" cy="1708" r="1"/>
	<circle cx="680" cy="1750" r="1"/>
	<circle cx="680" cy="1793" r="1"/>
	<circle cx="680" cy="1835" r="1"/>
</g>
</svg>
