<?xml version="1.0" encoding="utf-8"?>
<!-- Generator: Adobe Illustrator 22.1.0, SVG Export Plug-In . SVG Version: 6.00 Build 0)  -->
<svg version="1.1" id="Layer_1" xmlns="http://www.w3.org/2000/svg" xmlns:xlink="http://www.w3.org/1999/xlink" x="0px" y="0px"
	 viewBox="0 0 1404 1872" style="enable-background:new 0 0 1404 1872;" xml:space="preserve">
<style type="text/css">
	.st0{fill:#FFFFFF;}
	.st1{fill:none;stroke:#000000;stroke-width:0.5;stroke-miterlimit:10;}
</style>
<title>templates_artboards_horisontal_turnt</title>
<g id="White_BG">
	<rect y="0" class="st0" width="1404" height="1872"/>
</g>
<g id="LINES">
	<rect x="58.5" y="970.5" class="st1" width="418" height="838"/>
	<line class="st1" x1="540.5" y1="1808" x2="540.5" y2="969"/>
	<line class="st1" x1="598.5" y1="1808" x2="598.5" y2="969"/>
	<line class="st1" x1="655.5" y1="1808" x2="655.5" y2="969"/>
	<rect x="58.5" y="56.5" class="st1" width="418" height="838"/>
	<line class="st1" x1="540.5" y1="895" x2="540.5" y2="57"/>
	<line class="st1" x1="598.5" y1="895" x2="598.5" y2="57"/>
	<line class="st1" x1="655.5" y1="895" x2="655.5" y2="57"/>
	<rect x="721.5" y="970.5" class="st1" width="418" height="838"/>
	<line class="st1" x1="1203.5" y1="1808" x2="1203.5" y2="969"/>
	<line class="st1" x1="1261.5" y1="1808" x2="1261.5" y2="969"/>
	<line class="st1" x1="1318.5" y1="1808" x2="1318.5" y2="969"/>
	<rect x="721.5" y="56.5" class="st1" width="418" height="838"/>
	<line class="st1" x1="1203.5" y1="895" x2="1203.5" y2="57"/>
	<line class="st1" x1="1261.5" y1="895" x2="1261.5" y2="57"/>
	<line class="st1" x1="1318.5" y1="895" x2="1318.5" y2="57"/>
</g>
</svg>
