<?xml version="1.0" encoding="utf-8"?>
<!-- Generator: Adobe Illustrator 22.1.0, SVG Export Plug-In . SVG Version: 6.00 Build 0)  -->
<svg version="1.1" id="Layer_1" xmlns="http://www.w3.org/2000/svg" xmlns:xlink="http://www.w3.org/1999/xlink" x="0px" y="0px"
	 viewBox="0 0 1404 1872" style="enable-background:new 0 0 1404 1872;" xml:space="preserve">
<style type="text/css">
	.st0{fill:#FFFFFF;}
	.st1{fill:none;stroke:#000000;stroke-width:0.5;stroke-miterlimit:10;}
</style>
<title>templates_artboards_horisontal_turnt</title>
<g id="White_BG">
	<rect y="0" class="st0" width="1404" height="1874"/>
</g>
<g id="LINES">
	<line class="st1" x1="1405" y1="1873.5" x2="700" y2="1870.5"/>
	<line class="st1" x1="1404" y1="1792.5" x2="704" y2="1792.5"/>
	<line class="st1" x1="1404" y1="1714.5" x2="704" y2="1714.5"/>
	<line class="st1" x1="1404" y1="1636.5" x2="704" y2="1636.5"/>
	<line class="st1" x1="1404" y1="1557.5" x2="704" y2="1557.5"/>
	<line class="st1" x1="1404" y1="1479.5" x2="704" y2="1479.5"/>
	<line class="st1" x1="1404" y1="1401.5" x2="704" y2="1401.5"/>
	<line class="st1" x1="1404" y1="1322.5" x2="704" y2="1322.5"/>
	<line class="st1" x1="1404" y1="1244.5" x2="704" y2="1244.5"/>
	<line class="st1" x1="1404" y1="1166.5" x2="704" y2="1166.5"/>
	<line class="st1" x1="1404" y1="1088.5" x2="704" y2="1088.5"/>
	<line class="st1" x1="1404" y1="1009.5" x2="704" y2="1009.5"/>
	<line class="st1" x1="1404" y1="931.5" x2="704" y2="931.5"/>
	<line class="st1" x1="1404" y1="853.5" x2="704" y2="853.5"/>
	<line class="st1" x1="1404" y1="774.5" x2="704" y2="774.5"/>
	<line class="st1" x1="1404" y1="696.5" x2="704" y2="696.5"/>
	<line class="st1" x1="1404" y1="618.5" x2="704" y2="618.5"/>
	<line class="st1" x1="1404" y1="539.5" x2="704" y2="539.5"/>
	<line class="st1" x1="1404" y1="461.5" x2="704" y2="461.5"/>
	<line class="st1" x1="1404" y1="383.5" x2="704" y2="383.5"/>
	<line class="st1" x1="1404" y1="305.5" x2="704" y2="305.5"/>
	<line class="st1" x1="1404" y1="226.5" x2="704" y2="226.5"/>
	<line class="st1" x1="1404" y1="148.5" x2="704" y2="148.5"/>
	<line class="st1" x1="1404" y1="70.5" x2="704" y2="70.5"/>
	<line class="st1" x1="777.5" y1="1874" x2="777.5" y2="0"/>
	<line class="st1" x1="705.5" y1="1874" x2="705.5" y2="0"/>
	<line class="st1" x1="856.5" y1="1874" x2="856.5" y2="0"/>
	<line class="st1" x1="934.5" y1="1874" x2="934.5" y2="0"/>
	<line class="st1" x1="1012.5" y1="1874" x2="1012.5" y2="0"/>
	<line class="st1" x1="1091.5" y1="1874" x2="1091.5" y2="0"/>
	<line class="st1" x1="1169.5" y1="1874" x2="1169.5" y2="0"/>
	<line class="st1" x1="1247.5" y1="1874" x2="1247.5" y2="0"/>
	<line class="st1" x1="1326.5" y1="1874" x2="1326.5" y2="0"/>
</g>
</svg>
