<?xml version="1.0" encoding="utf-8"?>
<!-- Generator: Adobe Illustrator 22.1.0, SVG Export Plug-In . SVG Version: 6.00 Build 0)  -->
<svg version="1.1" id="Layer_1" xmlns="http://www.w3.org/2000/svg" xmlns:xlink="http://www.w3.org/1999/xlink" x="0px" y="0px"
	 viewBox="0 0 1404 1872" style="enable-background:new 0 0 1404 1872;" xml:space="preserve">
<style type="text/css">
	.st0{fill:#FFFFFF;}
	.st1{fill:none;stroke:#000000;stroke-width:0.5;stroke-miterlimit:10;}
</style>
<title>templates_artboards_horisontal_turnt</title>
<g id="White_BG">
	<rect x="0" y="0" class="st0" width="1405" height="1872"/>
</g>
<g id="LINES">
	<line class="st1" x1="1405" y1="1559.5" x2="1" y2="1559.5"/>
	<line class="st1" x1="1405" y1="1455.5" x2="1" y2="1455.5"/>
	<line class="st1" x1="1405" y1="1351.5" x2="1" y2="1351.5"/>
	<line class="st1" x1="1405" y1="1247.5" x2="1" y2="1247.5"/>
	<line class="st1" x1="1405" y1="1143.5" x2="1" y2="1143.5"/>
	<line class="st1" x1="1405" y1="1039.5" x2="1" y2="1039.5"/>
	<line class="st1" x1="1405" y1="936.5" x2="1" y2="936.5"/>
	<line class="st1" x1="1405" y1="832.5" x2="1" y2="832.5"/>
	<line class="st1" x1="1405" y1="728.5" x2="1" y2="728.5"/>
	<line class="st1" x1="1405" y1="624.5" x2="1" y2="624.5"/>
	<line class="st1" x1="1405" y1="520.5" x2="1" y2="520.5"/>
	<line class="st1" x1="1405" y1="416.5" x2="1" y2="416.5"/>
	<line class="st1" x1="1405" y1="312.5" x2="1" y2="312.5"/>
	<line class="st1" x1="1405" y1="208.5" x2="1" y2="208.5"/>
	<line class="st1" x1="1405" y1="104.5" x2="1" y2="104.5"/>
	<line class="st1" x1="1144" y1="0.5" x2="1" y2="0.5"/>
	<line class="st1" x1="1.5" y1="1872" x2="1.5" y2="1"/>
	<line class="st1" x1="105.5" y1="1560" x2="105.5" y2="1"/>
	<line class="st1" x1="209.5" y1="1560" x2="209.5" y2="1"/>
	<line class="st1" x1="313.5" y1="1560" x2="313.5" y2="1"/>
	<line class="st1" x1="417.5" y1="1560" x2="417.5" y2="1"/>
	<line class="st1" x1="520.5" y1="1560" x2="520.5" y2="1"/>
	<line class="st1" x1="624.5" y1="1560" x2="624.5" y2="1"/>
	<line class="st1" x1="728.5" y1="1560" x2="728.5" y2="1"/>
	<line class="st1" x1="832.5" y1="1560" x2="832.5" y2="1"/>
	<line class="st1" x1="936.5" y1="1560" x2="936.5" y2="1"/>
	<line class="st1" x1="1040.5" y1="1560" x2="1040.5" y2="1"/>
	<line class="st1" x1="1144.5" y1="1560" x2="1144.5" y2="1"/>
	<line class="st1" x1="1248.5" y1="1560" x2="1248.5" y2="1"/>
	<line class="st1" x1="1352.5" y1="1560" x2="1352.5" y2="1"/>
</g>
</svg>
