<?xml version="1.0" encoding="utf-8"?>
<!-- Generator: Adobe Illustrator 22.1.0, SVG Export Plug-In . SVG Version: 6.00 Build 0)  -->
<svg version="1.1" id="Layer_1" xmlns="http://www.w3.org/2000/svg" xmlns:xlink="http://www.w3.org/1999/xlink" x="0px" y="0px"
	 viewBox="0 0 1404 1872" style="enable-background:new 0 0 1404 1872;" xml:space="preserve">
<style type="text/css">
	.st0{fill:#FFFFFF;}
	.st1{fill:none;stroke:#000000;stroke-width:0.5;stroke-miterlimit:10;}
</style>
<title>templates_artboards_horisontal_turnt</title>
<g id="White_BG">
	<rect y="0" class="st0" width="1404" height="1872"/>
</g>
<g id="LINES">
	<rect x="105.5" y="1033.5" class="st1" width="1200" height="765"/>
	<line class="st1" x1="105.5" y1="960" x2="105.5" y2="71"/>
	<line class="st1" x1="185.5" y1="960" x2="185.5" y2="71"/>
	<line class="st1" x1="265.5" y1="960" x2="265.5" y2="71"/>
	<line class="st1" x1="345.5" y1="960" x2="345.5" y2="71"/>
	<line class="st1" x1="425.5" y1="960" x2="425.5" y2="71"/>
	<line class="st1" x1="505.5" y1="960" x2="505.5" y2="71"/>
	<line class="st1" x1="585.5" y1="960" x2="585.5" y2="71"/>
	<line class="st1" x1="665.5" y1="960" x2="665.5" y2="71"/>
	<line class="st1" x1="745.5" y1="960" x2="745.5" y2="71"/>
	<line class="st1" x1="825.5" y1="960" x2="825.5" y2="71"/>
	<line class="st1" x1="905.5" y1="960" x2="905.5" y2="71"/>
	<line class="st1" x1="985.5" y1="960" x2="985.5" y2="71"/>
	<line class="st1" x1="1065.5" y1="960" x2="1065.5" y2="71"/>
	<line class="st1" x1="1145.5" y1="960" x2="1145.5" y2="71"/>
	<line class="st1" x1="1225.5" y1="960" x2="1225.5" y2="71"/>
	<line class="st1" x1="1305.5" y1="960" x2="1305.5" y2="71"/>
</g>
</svg>
