<?xml version="1.0" encoding="utf-8"?>
<!-- Generator: Adobe Illustrator 24.1.3, SVG Export Plug-In . SVG Version: 6.00 Build 0)  -->
<svg version="1.1" id="Layer_1" xmlns="http://www.w3.org/2000/svg" xmlns:xlink="http://www.w3.org/1999/xlink" x="0px" y="0px"
	 viewBox="0 0 1404 1872" style="enable-background:new 0 0 1404 1872;" xml:space="preserve">
<style type="text/css">
	.st0{fill:#FFFFFF;}
	.st1{fill:none;stroke:#000000;stroke-width:0.5;stroke-miterlimit:10;}
</style>
<g id="White_BG">
	<rect x="-0.5" y="-1.1" class="st0" width="1404" height="1872"/>
</g>
<line class="st1" x1="236.5" y1="1721.5" x2="236.5" y2="127.5"/>
<line class="st1" x1="258.5" y1="1721.5" x2="258.5" y2="127.5"/>
<line class="st1" x1="280.5" y1="1721.5" x2="280.5" y2="127.5"/>
<line class="st1" x1="302.5" y1="1721.5" x2="302.5" y2="127.5"/>
<line class="st1" x1="374.5" y1="1721.5" x2="374.5" y2="127.5"/>
<line class="st1" x1="396.5" y1="1721.5" x2="396.5" y2="127.5"/>
<line class="st1" x1="418.5" y1="1721.5" x2="418.5" y2="127.5"/>
<line class="st1" x1="440.5" y1="1721.5" x2="440.5" y2="127.5"/>
<polyline class="st1" points="214.5,127.5 214.5,1721.5 462.5,1721.5 462.5,127.5 "/>
<g>
	<g>
		<path d="M338.9,1744c1.5-2.3,3.8-4.1,6.1-5.6c2.4-1.5,5-2.6,7.6-3.6c5.3-1.9,10.7-3,16.2-3.7c5.5-0.6,11.1-0.8,16.5-0.7
			c5.5,0.1,10.9,0.5,16.3,1c10.8,0.9,21.4,2.1,31.8,1.4c1.3,0,2.6-0.2,3.9-0.4c0.6-0.1,1.3-0.1,1.9-0.2l1.9-0.3
			c2.6-0.4,5-1.1,7.4-1.9s4.8-1.8,7.3-2.9c2.4-1.1,4.9-2.3,7.4-3.3c-3.6,4.1-7.9,7.8-13.1,10.3c-2.5,1.2-5.3,2.2-8,2.8l-2,0.5
			c-0.7,0.2-1.4,0.3-2.1,0.4c-1.4,0.2-2.8,0.5-4.1,0.6c-11.1,1.5-22.2,0.6-32.9-0.2c-5.4-0.4-10.7-0.9-16-1.1
			c-2.6-0.1-5.3-0.2-7.9-0.2c-1.3,0-2.6,0-3.9,0.1c-1.3,0-2.6,0.1-3.9,0.2c-5.2,0.3-10.5,0.8-15.6,1.8c-2.6,0.5-5.1,1.1-7.6,1.9
			C343.7,1741.4,341.2,1742.4,338.9,1744z"/>
	</g>
	<g>
		<path d="M339.2,1744c-2.3-1.6-4.7-2.6-7.2-3.4c-2.5-0.8-5.1-1.4-7.6-1.9c-5.1-1-10.4-1.4-15.6-1.8c-1.3-0.1-2.6-0.1-3.9-0.2
			c-1.3,0-2.6-0.1-3.9-0.1c-2.6,0-5.3,0.1-7.9,0.2c-5.3,0.3-10.6,0.7-16,1.1c-10.7,0.8-21.8,1.7-32.9,0.2c-1.4-0.1-2.8-0.4-4.1-0.6
			c-0.7-0.1-1.4-0.2-2.1-0.4l-2-0.5c-2.7-0.6-5.5-1.5-8-2.8c-5.1-2.5-9.4-6.1-13.1-10.3c2.6,1,5,2.3,7.4,3.3
			c2.4,1.1,4.8,2.1,7.3,2.9c2.5,0.8,4.8,1.5,7.4,1.9l1.9,0.3c0.6,0.1,1.3,0.2,1.9,0.2c1.3,0.1,2.6,0.3,3.9,0.4
			c10.4,0.7,21-0.5,31.8-1.4c5.4-0.4,10.8-0.8,16.3-1c5.5-0.1,11,0.1,16.5,0.7c5.5,0.6,11,1.7,16.2,3.7c2.6,1,5.2,2.1,7.6,3.6
			C335.3,1739.9,337.7,1741.7,339.2,1744z"/>
	</g>
</g>
<line class="st1" x1="596.5" y1="1721.5" x2="596.5" y2="127.5"/>
<line class="st1" x1="618.5" y1="1721.5" x2="618.5" y2="127.5"/>
<line class="st1" x1="640.5" y1="1721.5" x2="640.5" y2="127.5"/>
<line class="st1" x1="662.5" y1="1721.5" x2="662.5" y2="127.5"/>
<line class="st1" x1="734.5" y1="1721.5" x2="734.5" y2="127.5"/>
<line class="st1" x1="756.5" y1="1721.5" x2="756.5" y2="127.5"/>
<line class="st1" x1="778.5" y1="1721.5" x2="778.5" y2="127.5"/>
<line class="st1" x1="800.5" y1="1721.5" x2="800.5" y2="127.5"/>
<polyline class="st1" points="574.5,127.5 574.5,1721.5 574.5,1721.5 822.5,1721.5 822.5,127.5 "/>
<g>
	<g>
		<path d="M698.9,1744c1.5-2.3,3.8-4.1,6.1-5.6c2.4-1.5,5-2.6,7.6-3.6c5.3-1.9,10.7-3,16.2-3.7c5.5-0.6,11.1-0.8,16.5-0.7
			c5.5,0.1,10.9,0.5,16.3,1c10.8,0.9,21.4,2.1,31.8,1.4c1.3,0,2.6-0.2,3.9-0.4c0.6-0.1,1.3-0.1,1.9-0.2l1.9-0.3
			c2.6-0.4,5-1.1,7.4-1.9s4.8-1.8,7.3-2.9c2.4-1.1,4.9-2.3,7.4-3.3c-3.6,4.1-7.9,7.8-13.1,10.3c-2.5,1.2-5.3,2.2-8,2.8l-2,0.5
			c-0.7,0.2-1.4,0.3-2.1,0.4c-1.4,0.2-2.8,0.5-4.1,0.6c-11.1,1.5-22.2,0.6-32.9-0.2c-5.4-0.4-10.7-0.9-16-1.1
			c-2.6-0.1-5.3-0.2-7.9-0.2c-1.3,0-2.6,0-3.9,0.1c-1.3,0-2.6,0.1-3.9,0.2c-5.2,0.3-10.5,0.8-15.6,1.8c-2.6,0.5-5.1,1.1-7.6,1.9
			C703.7,1741.4,701.2,1742.4,698.9,1744z"/>
	</g>
	<g>
		<path d="M699.2,1744c-2.3-1.6-4.7-2.6-7.2-3.4c-2.5-0.8-5.1-1.4-7.6-1.9c-5.1-1-10.4-1.4-15.6-1.8c-1.3-0.1-2.6-0.1-3.9-0.2
			c-1.3,0-2.6-0.1-3.9-0.1c-2.6,0-5.3,0.1-7.9,0.2c-5.3,0.3-10.6,0.7-16,1.1c-10.7,0.8-21.8,1.7-32.9,0.2c-1.4-0.1-2.8-0.4-4.1-0.6
			c-0.7-0.1-1.4-0.2-2.1-0.4l-2-0.5c-2.7-0.6-5.5-1.5-8-2.8c-5.1-2.5-9.4-6.1-13.1-10.3c2.6,1,5,2.3,7.4,3.3
			c2.4,1.1,4.8,2.1,7.3,2.9c2.5,0.8,4.8,1.5,7.4,1.9l1.9,0.3c0.6,0.1,1.3,0.2,1.9,0.2c1.3,0.1,2.6,0.3,3.9,0.4
			c10.4,0.7,21-0.5,31.8-1.4c5.4-0.4,10.8-0.8,16.3-1c5.5-0.1,11,0.1,16.5,0.7c5.5,0.6,11,1.7,16.2,3.7c2.6,1,5.2,2.1,7.6,3.6
			C695.3,1739.9,697.7,1741.7,699.2,1744z"/>
	</g>
</g>
<line class="st1" x1="956.5" y1="1721.5" x2="956.5" y2="127.5"/>
<line class="st1" x1="978.5" y1="1721.5" x2="978.5" y2="127.5"/>
<line class="st1" x1="1000.5" y1="1721.5" x2="1000.5" y2="127.5"/>
<line class="st1" x1="1022.5" y1="1721.5" x2="1022.5" y2="127.5"/>
<line class="st1" x1="1094.5" y1="1721.5" x2="1094.5" y2="127.5"/>
<line class="st1" x1="1116.5" y1="1721.5" x2="1116.5" y2="127.5"/>
<line class="st1" x1="1138.5" y1="1721.5" x2="1138.5" y2="127.5"/>
<line class="st1" x1="1160.5" y1="1721.5" x2="1160.5" y2="127.5"/>
<polyline class="st1" points="934.5,127.5 934.5,1721.5 1182.5,1721.5 1182.5,127.5 "/>
<g>
	<g>
		<path d="M1058.9,1744c1.5-2.3,3.8-4.1,6.1-5.6c2.4-1.5,5-2.6,7.6-3.6c5.3-1.9,10.7-3,16.2-3.7c5.5-0.6,11.1-0.8,16.5-0.7
			c5.5,0.1,10.9,0.5,16.3,1c10.8,0.9,21.4,2.1,31.8,1.4c1.3,0,2.6-0.2,3.9-0.4c0.6-0.1,1.3-0.1,1.9-0.2l1.9-0.3
			c2.6-0.4,5-1.1,7.4-1.9c2.4-0.8,4.8-1.8,7.3-2.9c2.4-1.1,4.9-2.3,7.4-3.3c-3.6,4.1-7.9,7.8-13.1,10.3c-2.5,1.2-5.3,2.2-8,2.8
			l-2,0.5c-0.7,0.2-1.4,0.3-2.1,0.4c-1.4,0.2-2.8,0.5-4.1,0.6c-11.1,1.5-22.2,0.6-32.9-0.2c-5.4-0.4-10.7-0.9-16-1.1
			c-2.6-0.1-5.3-0.2-7.9-0.2c-1.3,0-2.6,0-3.9,0.1c-1.3,0-2.6,0.1-3.9,0.2c-5.2,0.3-10.5,0.8-15.6,1.8c-2.6,0.5-5.1,1.1-7.6,1.9
			C1063.7,1741.4,1061.2,1742.4,1058.9,1744z"/>
	</g>
	<g>
		<path d="M1059.2,1744c-2.3-1.6-4.7-2.6-7.2-3.4c-2.5-0.8-5.1-1.4-7.6-1.9c-5.1-1-10.4-1.4-15.6-1.8c-1.3-0.1-2.6-0.1-3.9-0.2
			c-1.3,0-2.6-0.1-3.9-0.1c-2.6,0-5.3,0.1-7.9,0.2c-5.3,0.3-10.6,0.7-16,1.1c-10.7,0.8-21.8,1.7-32.9,0.2c-1.4-0.1-2.8-0.4-4.1-0.6
			c-0.7-0.1-1.4-0.2-2.1-0.4l-2-0.5c-2.7-0.6-5.5-1.5-8-2.8c-5.1-2.5-9.4-6.1-13.1-10.3c2.6,1,5,2.3,7.4,3.3
			c2.4,1.1,4.8,2.1,7.3,2.9c2.5,0.8,4.8,1.5,7.4,1.9l1.9,0.3c0.6,0.1,1.3,0.2,1.9,0.2c1.3,0.1,2.6,0.3,3.9,0.4
			c10.4,0.7,21-0.5,31.8-1.4c5.4-0.4,10.8-0.8,16.3-1c5.5-0.1,11,0.1,16.5,0.7c5.5,0.6,11,1.7,16.2,3.7c2.6,1,5.2,2.1,7.6,3.6
			C1055.3,1739.9,1057.7,1741.7,1059.2,1744z"/>
	</g>
</g>
</svg>
