<?xml version="1.0" encoding="utf-8"?>
<!-- Generator: Adobe Illustrator 22.1.0, SVG Export Plug-In . SVG Version: 6.00 Build 0)  -->
<svg version="1.1" id="Layer_1" xmlns="http://www.w3.org/2000/svg" xmlns:xlink="http://www.w3.org/1999/xlink" x="0px" y="0px"
	 viewBox="0 0 1404 1872" style="enable-background:new 0 0 1404 1872;" xml:space="preserve">
<style type="text/css">
	.st0{fill:#FFFFFF;}
	.st1{fill:none;stroke:#000000;stroke-width:0.5;stroke-miterlimit:10;}
</style>
<title>templates_artboards_horisontal_turnt</title>
<g id="White_BG">
	<rect y="0" class="st0" width="1404" height="1872"/>
</g>
<g id="LINES">
	<rect x="58.5" y="974.5" class="st1" width="663" height="838"/>
	<line class="st1" x1="788.5" y1="1812" x2="788.5" y2="973"/>
	<rect x="58.5" y="60.5" class="st1" width="663" height="838"/>
	<line class="st1" x1="788.5" y1="899" x2="788.5" y2="61"/>
	<line class="st1" x1="855.5" y1="1812" x2="855.5" y2="973"/>
	<line class="st1" x1="855.5" y1="899" x2="855.5" y2="61"/>
	<line class="st1" x1="922.5" y1="1812" x2="922.5" y2="973"/>
	<line class="st1" x1="922.5" y1="899" x2="922.5" y2="61"/>
	<line class="st1" x1="989.5" y1="1812" x2="989.5" y2="973"/>
	<line class="st1" x1="989.5" y1="899" x2="989.5" y2="61"/>
	<line class="st1" x1="1056.5" y1="1812" x2="1056.5" y2="973"/>
	<line class="st1" x1="1056.5" y1="899" x2="1056.5" y2="61"/>
	<line class="st1" x1="1123.5" y1="1812" x2="1123.5" y2="973"/>
	<line class="st1" x1="1123.5" y1="899" x2="1123.5" y2="61"/>
	<line class="st1" x1="1190.5" y1="1812" x2="1190.5" y2="973"/>
	<line class="st1" x1="1190.5" y1="899" x2="1190.5" y2="61"/>
	<line class="st1" x1="1257.5" y1="1812" x2="1257.5" y2="973"/>
	<line class="st1" x1="1257.5" y1="899" x2="1257.5" y2="61"/>
</g>
</svg>
