<?xml version="1.0" encoding="utf-8"?>
<!-- Generator: Adobe Illustrator 24.1.3, SVG Export Plug-In . SVG Version: 6.00 Build 0)  -->
<svg version="1.1" id="Layer_1" xmlns="http://www.w3.org/2000/svg" xmlns:xlink="http://www.w3.org/1999/xlink" x="0px" y="0px"
	 viewBox="0 0 1404 1872" style="enable-background:new 0 0 1404 1872;" xml:space="preserve">
<style type="text/css">
	.st0{fill:#FFFFFF;}
	.st1{fill:none;stroke:#000000;stroke-width:2;stroke-miterlimit:10;}
	.st2{fill:none;stroke:#000000;stroke-width:0.5;stroke-miterlimit:10;}
	.st3{fill:none;stroke:#000000;stroke-width:0.75;stroke-miterlimit:10;}
</style>
<g id="White_BG">
	<rect class="st0" width="1404" height="1872"/>
</g>
<g>
	<polygon class="st1" points="150,155 1253,155 1253,246 150,246 	"/>
	<line class="st2" x1="150" y1="185.5" x2="1253" y2="185.5"/>
	<line class="st3" x1="161.5" y1="155.5" x2="161.5" y2="245.5"/>
	<line class="st2" x1="150" y1="215.5" x2="1253" y2="215.5"/>
</g>
<g>
	<polygon class="st1" points="150,358 1253,358 1253,449 150,449 	"/>
	<line class="st2" x1="150" y1="388.5" x2="1253" y2="388.5"/>
	<line class="st3" x1="161.5" y1="358.5" x2="161.5" y2="448.5"/>
	<line class="st2" x1="150" y1="418.5" x2="1253" y2="418.5"/>
</g>
<g>
	<polygon class="st1" points="150,561 1253,561 1253,652 150,652 	"/>
	<line class="st2" x1="150" y1="591.5" x2="1253" y2="591.5"/>
	<line class="st3" x1="161.5" y1="561.5" x2="161.5" y2="651.5"/>
	<line class="st2" x1="150" y1="621.5" x2="1253" y2="621.5"/>
</g>
<g>
	<polygon class="st1" points="150,764 1253,764 1253,855 150,855 	"/>
	<line class="st2" x1="150" y1="794.5" x2="1253" y2="794.5"/>
	<line class="st3" x1="161.5" y1="764.5" x2="161.5" y2="854.5"/>
	<line class="st2" x1="150" y1="824.5" x2="1253" y2="824.5"/>
</g>
<g>
	<polygon class="st1" points="150,967 1253,967 1253,1058 150,1058 	"/>
	<line class="st2" x1="150" y1="997.5" x2="1253" y2="997.5"/>
	<line class="st3" x1="161.5" y1="967.5" x2="161.5" y2="1057.5"/>
	<line class="st2" x1="150" y1="1027.5" x2="1253" y2="1027.5"/>
</g>
<g>
	<polygon class="st1" points="150,1170 1253,1170 1253,1261 150,1261 	"/>
	<line class="st2" x1="150" y1="1200.5" x2="1253" y2="1200.5"/>
	<line class="st3" x1="161.5" y1="1170.5" x2="161.5" y2="1260.5"/>
	<line class="st2" x1="150" y1="1230.5" x2="1253" y2="1230.5"/>
</g>
<g>
	<polygon class="st1" points="150,1373 1253,1373 1253,1464 150,1464 	"/>
	<line class="st2" x1="150" y1="1403.5" x2="1253" y2="1403.5"/>
	<line class="st3" x1="161.5" y1="1373.5" x2="161.5" y2="1463.5"/>
	<line class="st2" x1="150" y1="1433.5" x2="1253" y2="1433.5"/>
</g>
<g>
	<polygon class="st1" points="150,1576 1253,1576 1253,1667 150,1667 	"/>
	<line class="st2" x1="150" y1="1606.5" x2="1253" y2="1606.5"/>
	<line class="st3" x1="161.5" y1="1576.5" x2="161.5" y2="1666.5"/>
	<line class="st2" x1="150" y1="1636.5" x2="1253" y2="1636.5"/>
</g>
</svg>
