<?xml version="1.0" encoding="utf-8"?>
<!-- Generator: Adobe Illustrator 24.1.2, SVG Export Plug-In . SVG Version: 6.00 Build 0)  -->
<svg version="1.1" id="Layer_1" xmlns="http://www.w3.org/2000/svg" xmlns:xlink="http://www.w3.org/1999/xlink" x="0px" y="0px"
	 viewBox="0 0 1404 1872" style="enable-background:new 0 0 1404 1872;" xml:space="preserve">
<style type="text/css">
	.st0{fill:#FFFFFF;}
	.st1{fill:none;stroke:#000000;stroke-width:0.5;stroke-miterlimit:10;}
	.st2{fill:none;stroke:#000000;stroke-width:0.5;stroke-miterlimit:10;stroke-dasharray:12,18;}
</style>
<g id="surface1">
	<rect class="st0" width="1404" height="1872"/>
	<path class="st1" d="M0,178.5h1404"/>
	<path class="st1" d="M0,335.5h1404"/>
	<path class="st1" d="M0,492.5h1404"/>
	<path class="st1" d="M0,650.5h1404"/>
	<path class="st1" d="M0,807.5h1404"/>
	<path class="st1" d="M0,965.5h1404"/>
	<path class="st1" d="M0,1123.5h1404"/>
	<path class="st1" d="M0,1280.5h1404"/>
	<path class="st1" d="M0,1438.5h1404"/>
	<path class="st1" d="M0,1595.5h1404"/>
	<path class="st1" d="M0,1753.5h1404"/>
</g>
<g id="Layer_2_11_">
	<line class="st2" x1="1.2" y1="1674.5" x2="1403" y2="1674.5"/>
	<line class="st2" x1="1.2" y1="1716.5" x2="1403" y2="1716.5"/>
	<line class="st2" x1="0" y1="1793.5" x2="1401.8" y2="1793.5"/>
	<line class="st1" x1="1.2" y1="1791" x2="59.1" y2="1675.5"/>
	<line class="st1" x1="45.2" y1="1791" x2="103.1" y2="1675.5"/>
	<line class="st1" x1="90.2" y1="1791" x2="148.1" y2="1675.5"/>
	<line class="st1" x1="134.2" y1="1791" x2="192.1" y2="1675.5"/>
	<line class="st1" x1="179.2" y1="1791" x2="237.1" y2="1675.5"/>
	<line class="st1" x1="223.2" y1="1791" x2="281.1" y2="1675.5"/>
	<line class="st1" x1="268.2" y1="1791" x2="326.1" y2="1675.5"/>
	<line class="st1" x1="312.2" y1="1791" x2="370.1" y2="1675.5"/>
	<line class="st1" x1="357.2" y1="1791" x2="415.1" y2="1675.5"/>
	<line class="st1" x1="401.2" y1="1791" x2="459.1" y2="1675.5"/>
	<line class="st1" x1="446.2" y1="1791" x2="504.1" y2="1675.5"/>
	<line class="st1" x1="490.2" y1="1791" x2="548.1" y2="1675.5"/>
	<line class="st1" x1="535.2" y1="1791" x2="593.1" y2="1675.5"/>
	<line class="st1" x1="579.2" y1="1791" x2="637.1" y2="1675.5"/>
	<line class="st1" x1="624.2" y1="1791" x2="682.1" y2="1675.5"/>
	<line class="st1" x1="668.2" y1="1791" x2="726.1" y2="1675.5"/>
	<line class="st1" x1="712.2" y1="1791" x2="770.1" y2="1675.5"/>
	<line class="st1" x1="757.2" y1="1791" x2="815.1" y2="1675.5"/>
	<line class="st1" x1="801.2" y1="1791" x2="859.1" y2="1675.5"/>
	<line class="st1" x1="846.2" y1="1791" x2="904.1" y2="1675.5"/>
	<line class="st1" x1="890.2" y1="1791" x2="948.1" y2="1675.5"/>
	<line class="st1" x1="935.2" y1="1791" x2="993.1" y2="1675.5"/>
	<line class="st1" x1="979.2" y1="1791" x2="1037.1" y2="1675.5"/>
	<line class="st1" x1="1024.2" y1="1791" x2="1082.1" y2="1675.5"/>
	<line class="st1" x1="1068.2" y1="1791" x2="1126.1" y2="1675.5"/>
	<line class="st1" x1="1113.2" y1="1791" x2="1171.1" y2="1675.5"/>
	<line class="st1" x1="1157.2" y1="1791" x2="1215.1" y2="1675.5"/>
	<line class="st1" x1="1202.2" y1="1791" x2="1260.1" y2="1675.5"/>
	<line class="st1" x1="1246.2" y1="1791" x2="1304.1" y2="1675.5"/>
	<line class="st1" x1="1291.2" y1="1791" x2="1349.1" y2="1675.5"/>
	<line class="st1" x1="1335.2" y1="1791" x2="1393.1" y2="1675.5"/>
</g>
<g id="Layer_2_1_">
	<line class="st2" x1="1.2" y1="1517.5" x2="1403" y2="1517.5"/>
	<line class="st2" x1="1.2" y1="1559.5" x2="1403" y2="1559.5"/>
	<line class="st2" x1="0" y1="1636.5" x2="1401.8" y2="1636.5"/>
	<line class="st1" x1="1.2" y1="1634" x2="59.1" y2="1518.5"/>
	<line class="st1" x1="45.2" y1="1634" x2="103.1" y2="1518.5"/>
	<line class="st1" x1="90.2" y1="1634" x2="148.1" y2="1518.5"/>
	<line class="st1" x1="134.2" y1="1634" x2="192.1" y2="1518.5"/>
	<line class="st1" x1="179.2" y1="1634" x2="237.1" y2="1518.5"/>
	<line class="st1" x1="223.2" y1="1634" x2="281.1" y2="1518.5"/>
	<line class="st1" x1="268.2" y1="1634" x2="326.1" y2="1518.5"/>
	<line class="st1" x1="312.2" y1="1634" x2="370.1" y2="1518.5"/>
	<line class="st1" x1="357.2" y1="1634" x2="415.1" y2="1518.5"/>
	<line class="st1" x1="401.2" y1="1634" x2="459.1" y2="1518.5"/>
	<line class="st1" x1="446.2" y1="1634" x2="504.1" y2="1518.5"/>
	<line class="st1" x1="490.2" y1="1634" x2="548.1" y2="1518.5"/>
	<line class="st1" x1="535.2" y1="1634" x2="593.1" y2="1518.5"/>
	<line class="st1" x1="579.2" y1="1634" x2="637.1" y2="1518.5"/>
	<line class="st1" x1="624.2" y1="1634" x2="682.1" y2="1518.5"/>
	<line class="st1" x1="668.2" y1="1634" x2="726.1" y2="1518.5"/>
	<line class="st1" x1="712.2" y1="1634" x2="770.1" y2="1518.5"/>
	<line class="st1" x1="757.2" y1="1634" x2="815.1" y2="1518.5"/>
	<line class="st1" x1="801.2" y1="1634" x2="859.1" y2="1518.5"/>
	<line class="st1" x1="846.2" y1="1634" x2="904.1" y2="1518.5"/>
	<line class="st1" x1="890.2" y1="1634" x2="948.1" y2="1518.5"/>
	<line class="st1" x1="935.2" y1="1634" x2="993.1" y2="1518.5"/>
	<line class="st1" x1="979.2" y1="1634" x2="1037.1" y2="1518.5"/>
	<line class="st1" x1="1024.2" y1="1634" x2="1082.1" y2="1518.5"/>
	<line class="st1" x1="1068.2" y1="1634" x2="1126.1" y2="1518.5"/>
	<line class="st1" x1="1113.2" y1="1634" x2="1171.1" y2="1518.5"/>
	<line class="st1" x1="1157.2" y1="1634" x2="1215.1" y2="1518.5"/>
	<line class="st1" x1="1202.2" y1="1634" x2="1260.1" y2="1518.5"/>
	<line class="st1" x1="1246.2" y1="1634" x2="1304.1" y2="1518.5"/>
	<line class="st1" x1="1291.2" y1="1634" x2="1349.1" y2="1518.5"/>
	<line class="st1" x1="1335.2" y1="1634" x2="1393.1" y2="1518.5"/>
</g>
<g id="Layer_2_2_">
	<line class="st2" x1="1.2" y1="1359.5" x2="1403" y2="1359.5"/>
	<line class="st2" x1="1.2" y1="1401.5" x2="1403" y2="1401.5"/>
	<line class="st2" x1="0" y1="1478.5" x2="1401.8" y2="1478.5"/>
	<line class="st1" x1="1.2" y1="1476" x2="59.1" y2="1360.5"/>
	<line class="st1" x1="45.2" y1="1476" x2="103.1" y2="1360.5"/>
	<line class="st1" x1="90.2" y1="1476" x2="148.1" y2="1360.5"/>
	<line class="st1" x1="134.2" y1="1476" x2="192.1" y2="1360.5"/>
	<line class="st1" x1="179.2" y1="1476" x2="237.1" y2="1360.5"/>
	<line class="st1" x1="223.2" y1="1476" x2="281.1" y2="1360.5"/>
	<line class="st1" x1="268.2" y1="1476" x2="326.1" y2="1360.5"/>
	<line class="st1" x1="312.2" y1="1476" x2="370.1" y2="1360.5"/>
	<line class="st1" x1="357.2" y1="1476" x2="415.1" y2="1360.5"/>
	<line class="st1" x1="401.2" y1="1476" x2="459.1" y2="1360.5"/>
	<line class="st1" x1="446.2" y1="1476" x2="504.1" y2="1360.5"/>
	<line class="st1" x1="490.2" y1="1476" x2="548.1" y2="1360.5"/>
	<line class="st1" x1="535.2" y1="1476" x2="593.1" y2="1360.5"/>
	<line class="st1" x1="579.2" y1="1476" x2="637.1" y2="1360.5"/>
	<line class="st1" x1="624.2" y1="1476" x2="682.1" y2="1360.5"/>
	<line class="st1" x1="668.2" y1="1476" x2="726.1" y2="1360.5"/>
	<line class="st1" x1="712.2" y1="1476" x2="770.1" y2="1360.5"/>
	<line class="st1" x1="757.2" y1="1476" x2="815.1" y2="1360.5"/>
	<line class="st1" x1="801.2" y1="1476" x2="859.1" y2="1360.5"/>
	<line class="st1" x1="846.2" y1="1476" x2="904.1" y2="1360.5"/>
	<line class="st1" x1="890.2" y1="1476" x2="948.1" y2="1360.5"/>
	<line class="st1" x1="935.2" y1="1476" x2="993.1" y2="1360.5"/>
	<line class="st1" x1="979.2" y1="1476" x2="1037.1" y2="1360.5"/>
	<line class="st1" x1="1024.2" y1="1476" x2="1082.1" y2="1360.5"/>
	<line class="st1" x1="1068.2" y1="1476" x2="1126.1" y2="1360.5"/>
	<line class="st1" x1="1113.2" y1="1476" x2="1171.1" y2="1360.5"/>
	<line class="st1" x1="1157.2" y1="1476" x2="1215.1" y2="1360.5"/>
	<line class="st1" x1="1202.2" y1="1476" x2="1260.1" y2="1360.5"/>
	<line class="st1" x1="1246.2" y1="1476" x2="1304.1" y2="1360.5"/>
	<line class="st1" x1="1291.2" y1="1476" x2="1349.1" y2="1360.5"/>
	<line class="st1" x1="1335.2" y1="1476" x2="1393.1" y2="1360.5"/>
</g>
<g id="Layer_2_3_">
	<line class="st2" x1="1.2" y1="1201.5" x2="1403" y2="1201.5"/>
	<line class="st2" x1="1.2" y1="1243.5" x2="1403" y2="1243.5"/>
	<line class="st2" x1="0" y1="1320.5" x2="1401.8" y2="1320.5"/>
	<line class="st1" x1="1.2" y1="1318" x2="59.1" y2="1202.5"/>
	<line class="st1" x1="45.2" y1="1318" x2="103.1" y2="1202.5"/>
	<line class="st1" x1="90.2" y1="1318" x2="148.1" y2="1202.5"/>
	<line class="st1" x1="134.2" y1="1318" x2="192.1" y2="1202.5"/>
	<line class="st1" x1="179.2" y1="1318" x2="237.1" y2="1202.5"/>
	<line class="st1" x1="223.2" y1="1318" x2="281.1" y2="1202.5"/>
	<line class="st1" x1="268.2" y1="1318" x2="326.1" y2="1202.5"/>
	<line class="st1" x1="312.2" y1="1318" x2="370.1" y2="1202.5"/>
	<line class="st1" x1="357.2" y1="1318" x2="415.1" y2="1202.5"/>
	<line class="st1" x1="401.2" y1="1318" x2="459.1" y2="1202.5"/>
	<line class="st1" x1="446.2" y1="1318" x2="504.1" y2="1202.5"/>
	<line class="st1" x1="490.2" y1="1318" x2="548.1" y2="1202.5"/>
	<line class="st1" x1="535.2" y1="1318" x2="593.1" y2="1202.5"/>
	<line class="st1" x1="579.2" y1="1318" x2="637.1" y2="1202.5"/>
	<line class="st1" x1="624.2" y1="1318" x2="682.1" y2="1202.5"/>
	<line class="st1" x1="668.2" y1="1318" x2="726.1" y2="1202.5"/>
	<line class="st1" x1="712.2" y1="1318" x2="770.1" y2="1202.5"/>
	<line class="st1" x1="757.2" y1="1318" x2="815.1" y2="1202.5"/>
	<line class="st1" x1="801.2" y1="1318" x2="859.1" y2="1202.5"/>
	<line class="st1" x1="846.2" y1="1318" x2="904.1" y2="1202.5"/>
	<line class="st1" x1="890.2" y1="1318" x2="948.1" y2="1202.5"/>
	<line class="st1" x1="935.2" y1="1318" x2="993.1" y2="1202.5"/>
	<line class="st1" x1="979.2" y1="1318" x2="1037.1" y2="1202.5"/>
	<line class="st1" x1="1024.2" y1="1318" x2="1082.1" y2="1202.5"/>
	<line class="st1" x1="1068.2" y1="1318" x2="1126.1" y2="1202.5"/>
	<line class="st1" x1="1113.2" y1="1318" x2="1171.1" y2="1202.5"/>
	<line class="st1" x1="1157.2" y1="1318" x2="1215.1" y2="1202.5"/>
	<line class="st1" x1="1202.2" y1="1318" x2="1260.1" y2="1202.5"/>
	<line class="st1" x1="1246.2" y1="1318" x2="1304.1" y2="1202.5"/>
	<line class="st1" x1="1291.2" y1="1318" x2="1349.1" y2="1202.5"/>
	<line class="st1" x1="1335.2" y1="1318" x2="1393.1" y2="1202.5"/>
</g>
<g id="Layer_2_4_">
	<line class="st2" x1="1.2" y1="1044.5" x2="1403" y2="1044.5"/>
	<line class="st2" x1="1.2" y1="1086.5" x2="1403" y2="1086.5"/>
	<line class="st2" x1="0" y1="1163.5" x2="1401.8" y2="1163.5"/>
	<line class="st1" x1="1.2" y1="1161" x2="59.1" y2="1045.5"/>
	<line class="st1" x1="45.2" y1="1161" x2="103.1" y2="1045.5"/>
	<line class="st1" x1="90.2" y1="1161" x2="148.1" y2="1045.5"/>
	<line class="st1" x1="134.2" y1="1161" x2="192.1" y2="1045.5"/>
	<line class="st1" x1="179.2" y1="1161" x2="237.1" y2="1045.5"/>
	<line class="st1" x1="223.2" y1="1161" x2="281.1" y2="1045.5"/>
	<line class="st1" x1="268.2" y1="1161" x2="326.1" y2="1045.5"/>
	<line class="st1" x1="312.2" y1="1161" x2="370.1" y2="1045.5"/>
	<line class="st1" x1="357.2" y1="1161" x2="415.1" y2="1045.5"/>
	<line class="st1" x1="401.2" y1="1161" x2="459.1" y2="1045.5"/>
	<line class="st1" x1="446.2" y1="1161" x2="504.1" y2="1045.5"/>
	<line class="st1" x1="490.2" y1="1161" x2="548.1" y2="1045.5"/>
	<line class="st1" x1="535.2" y1="1161" x2="593.1" y2="1045.5"/>
	<line class="st1" x1="579.2" y1="1161" x2="637.1" y2="1045.5"/>
	<line class="st1" x1="624.2" y1="1161" x2="682.1" y2="1045.5"/>
	<line class="st1" x1="668.2" y1="1161" x2="726.1" y2="1045.5"/>
	<line class="st1" x1="712.2" y1="1161" x2="770.1" y2="1045.5"/>
	<line class="st1" x1="757.2" y1="1161" x2="815.1" y2="1045.5"/>
	<line class="st1" x1="801.2" y1="1161" x2="859.1" y2="1045.5"/>
	<line class="st1" x1="846.2" y1="1161" x2="904.1" y2="1045.5"/>
	<line class="st1" x1="890.2" y1="1161" x2="948.1" y2="1045.5"/>
	<line class="st1" x1="935.2" y1="1161" x2="993.1" y2="1045.5"/>
	<line class="st1" x1="979.2" y1="1161" x2="1037.1" y2="1045.5"/>
	<line class="st1" x1="1024.2" y1="1161" x2="1082.1" y2="1045.5"/>
	<line class="st1" x1="1068.2" y1="1161" x2="1126.1" y2="1045.5"/>
	<line class="st1" x1="1113.2" y1="1161" x2="1171.1" y2="1045.5"/>
	<line class="st1" x1="1157.2" y1="1161" x2="1215.1" y2="1045.5"/>
	<line class="st1" x1="1202.2" y1="1161" x2="1260.1" y2="1045.5"/>
	<line class="st1" x1="1246.2" y1="1161" x2="1304.1" y2="1045.5"/>
	<line class="st1" x1="1291.2" y1="1161" x2="1349.1" y2="1045.5"/>
	<line class="st1" x1="1335.2" y1="1161" x2="1393.1" y2="1045.5"/>
</g>
<g id="Layer_2_5_">
	<line class="st2" x1="1.2" y1="886.5" x2="1403" y2="886.5"/>
	<line class="st2" x1="1.2" y1="928.5" x2="1403" y2="928.5"/>
	<line class="st2" x1="0" y1="1005.5" x2="1401.8" y2="1005.5"/>
	<line class="st1" x1="1.2" y1="1003" x2="59.1" y2="887.5"/>
	<line class="st1" x1="45.2" y1="1003" x2="103.1" y2="887.5"/>
	<line class="st1" x1="90.2" y1="1003" x2="148.1" y2="887.5"/>
	<line class="st1" x1="134.2" y1="1003" x2="192.1" y2="887.5"/>
	<line class="st1" x1="179.2" y1="1003" x2="237.1" y2="887.5"/>
	<line class="st1" x1="223.2" y1="1003" x2="281.1" y2="887.5"/>
	<line class="st1" x1="268.2" y1="1003" x2="326.1" y2="887.5"/>
	<line class="st1" x1="312.2" y1="1003" x2="370.1" y2="887.5"/>
	<line class="st1" x1="357.2" y1="1003" x2="415.1" y2="887.5"/>
	<line class="st1" x1="401.2" y1="1003" x2="459.1" y2="887.5"/>
	<line class="st1" x1="446.2" y1="1003" x2="504.1" y2="887.5"/>
	<line class="st1" x1="490.2" y1="1003" x2="548.1" y2="887.5"/>
	<line class="st1" x1="535.2" y1="1003" x2="593.1" y2="887.5"/>
	<line class="st1" x1="579.2" y1="1003" x2="637.1" y2="887.5"/>
	<line class="st1" x1="624.2" y1="1003" x2="682.1" y2="887.5"/>
	<line class="st1" x1="668.2" y1="1003" x2="726.1" y2="887.5"/>
	<line class="st1" x1="712.2" y1="1003" x2="770.1" y2="887.5"/>
	<line class="st1" x1="757.2" y1="1003" x2="815.1" y2="887.5"/>
	<line class="st1" x1="801.2" y1="1003" x2="859.1" y2="887.5"/>
	<line class="st1" x1="846.2" y1="1003" x2="904.1" y2="887.5"/>
	<line class="st1" x1="890.2" y1="1003" x2="948.1" y2="887.5"/>
	<line class="st1" x1="935.2" y1="1003" x2="993.1" y2="887.5"/>
	<line class="st1" x1="979.2" y1="1003" x2="1037.1" y2="887.5"/>
	<line class="st1" x1="1024.2" y1="1003" x2="1082.1" y2="887.5"/>
	<line class="st1" x1="1068.2" y1="1003" x2="1126.1" y2="887.5"/>
	<line class="st1" x1="1113.2" y1="1003" x2="1171.1" y2="887.5"/>
	<line class="st1" x1="1157.2" y1="1003" x2="1215.1" y2="887.5"/>
	<line class="st1" x1="1202.2" y1="1003" x2="1260.1" y2="887.5"/>
	<line class="st1" x1="1246.2" y1="1003" x2="1304.1" y2="887.5"/>
	<line class="st1" x1="1291.2" y1="1003" x2="1349.1" y2="887.5"/>
	<line class="st1" x1="1335.2" y1="1003" x2="1393.1" y2="887.5"/>
</g>
<g id="Layer_2_6_">
	<line class="st2" x1="1.2" y1="729.5" x2="1403" y2="729.5"/>
	<line class="st2" x1="1.2" y1="771.5" x2="1403" y2="771.5"/>
	<line class="st2" x1="0" y1="848.5" x2="1401.8" y2="848.5"/>
	<line class="st1" x1="1.2" y1="846" x2="59.1" y2="730.5"/>
	<line class="st1" x1="45.2" y1="846" x2="103.1" y2="730.5"/>
	<line class="st1" x1="90.2" y1="846" x2="148.1" y2="730.5"/>
	<line class="st1" x1="134.2" y1="846" x2="192.1" y2="730.5"/>
	<line class="st1" x1="179.2" y1="846" x2="237.1" y2="730.5"/>
	<line class="st1" x1="223.2" y1="846" x2="281.1" y2="730.5"/>
	<line class="st1" x1="268.2" y1="846" x2="326.1" y2="730.5"/>
	<line class="st1" x1="312.2" y1="846" x2="370.1" y2="730.5"/>
	<line class="st1" x1="357.2" y1="846" x2="415.1" y2="730.5"/>
	<line class="st1" x1="401.2" y1="846" x2="459.1" y2="730.5"/>
	<line class="st1" x1="446.2" y1="846" x2="504.1" y2="730.5"/>
	<line class="st1" x1="490.2" y1="846" x2="548.1" y2="730.5"/>
	<line class="st1" x1="535.2" y1="846" x2="593.1" y2="730.5"/>
	<line class="st1" x1="579.2" y1="846" x2="637.1" y2="730.5"/>
	<line class="st1" x1="624.2" y1="846" x2="682.1" y2="730.5"/>
	<line class="st1" x1="668.2" y1="846" x2="726.1" y2="730.5"/>
	<line class="st1" x1="712.2" y1="846" x2="770.1" y2="730.5"/>
	<line class="st1" x1="757.2" y1="846" x2="815.1" y2="730.5"/>
	<line class="st1" x1="801.2" y1="846" x2="859.1" y2="730.5"/>
	<line class="st1" x1="846.2" y1="846" x2="904.1" y2="730.5"/>
	<line class="st1" x1="890.2" y1="846" x2="948.1" y2="730.5"/>
	<line class="st1" x1="935.2" y1="846" x2="993.1" y2="730.5"/>
	<line class="st1" x1="979.2" y1="846" x2="1037.1" y2="730.5"/>
	<line class="st1" x1="1024.2" y1="846" x2="1082.1" y2="730.5"/>
	<line class="st1" x1="1068.2" y1="846" x2="1126.1" y2="730.5"/>
	<line class="st1" x1="1113.2" y1="846" x2="1171.1" y2="730.5"/>
	<line class="st1" x1="1157.2" y1="846" x2="1215.1" y2="730.5"/>
	<line class="st1" x1="1202.2" y1="846" x2="1260.1" y2="730.5"/>
	<line class="st1" x1="1246.2" y1="846" x2="1304.1" y2="730.5"/>
	<line class="st1" x1="1291.2" y1="846" x2="1349.1" y2="730.5"/>
	<line class="st1" x1="1335.2" y1="846" x2="1393.1" y2="730.5"/>
</g>
<g id="Layer_2_7_">
	<line class="st2" x1="1.2" y1="571.5" x2="1403" y2="571.5"/>
	<line class="st2" x1="1.2" y1="613.5" x2="1403" y2="613.5"/>
	<line class="st2" x1="0" y1="690.5" x2="1401.8" y2="690.5"/>
	<line class="st1" x1="1.2" y1="688" x2="59.1" y2="572.5"/>
	<line class="st1" x1="45.2" y1="688" x2="103.1" y2="572.5"/>
	<line class="st1" x1="90.2" y1="688" x2="148.1" y2="572.5"/>
	<line class="st1" x1="134.2" y1="688" x2="192.1" y2="572.5"/>
	<line class="st1" x1="179.2" y1="688" x2="237.1" y2="572.5"/>
	<line class="st1" x1="223.2" y1="688" x2="281.1" y2="572.5"/>
	<line class="st1" x1="268.2" y1="688" x2="326.1" y2="572.5"/>
	<line class="st1" x1="312.2" y1="688" x2="370.1" y2="572.5"/>
	<line class="st1" x1="357.2" y1="688" x2="415.1" y2="572.5"/>
	<line class="st1" x1="401.2" y1="688" x2="459.1" y2="572.5"/>
	<line class="st1" x1="446.2" y1="688" x2="504.1" y2="572.5"/>
	<line class="st1" x1="490.2" y1="688" x2="548.1" y2="572.5"/>
	<line class="st1" x1="535.2" y1="688" x2="593.1" y2="572.5"/>
	<line class="st1" x1="579.2" y1="688" x2="637.1" y2="572.5"/>
	<line class="st1" x1="624.2" y1="688" x2="682.1" y2="572.5"/>
	<line class="st1" x1="668.2" y1="688" x2="726.1" y2="572.5"/>
	<line class="st1" x1="712.2" y1="688" x2="770.1" y2="572.5"/>
	<line class="st1" x1="757.2" y1="688" x2="815.1" y2="572.5"/>
	<line class="st1" x1="801.2" y1="688" x2="859.1" y2="572.5"/>
	<line class="st1" x1="846.2" y1="688" x2="904.1" y2="572.5"/>
	<line class="st1" x1="890.2" y1="688" x2="948.1" y2="572.5"/>
	<line class="st1" x1="935.2" y1="688" x2="993.1" y2="572.5"/>
	<line class="st1" x1="979.2" y1="688" x2="1037.1" y2="572.5"/>
	<line class="st1" x1="1024.2" y1="688" x2="1082.1" y2="572.5"/>
	<line class="st1" x1="1068.2" y1="688" x2="1126.1" y2="572.5"/>
	<line class="st1" x1="1113.2" y1="688" x2="1171.1" y2="572.5"/>
	<line class="st1" x1="1157.2" y1="688" x2="1215.1" y2="572.5"/>
	<line class="st1" x1="1202.2" y1="688" x2="1260.1" y2="572.5"/>
	<line class="st1" x1="1246.2" y1="688" x2="1304.1" y2="572.5"/>
	<line class="st1" x1="1291.2" y1="688" x2="1349.1" y2="572.5"/>
	<line class="st1" x1="1335.2" y1="688" x2="1393.1" y2="572.5"/>
</g>
<g id="Layer_2_8_">
	<line class="st2" x1="1.2" y1="414.5" x2="1403" y2="414.5"/>
	<line class="st2" x1="1.2" y1="456.5" x2="1403" y2="456.5"/>
	<line class="st2" x1="0" y1="533.5" x2="1401.8" y2="533.5"/>
	<line class="st1" x1="1.2" y1="531" x2="59.1" y2="415.5"/>
	<line class="st1" x1="45.2" y1="531" x2="103.1" y2="415.5"/>
	<line class="st1" x1="90.2" y1="531" x2="148.1" y2="415.5"/>
	<line class="st1" x1="134.2" y1="531" x2="192.1" y2="415.5"/>
	<line class="st1" x1="179.2" y1="531" x2="237.1" y2="415.5"/>
	<line class="st1" x1="223.2" y1="531" x2="281.1" y2="415.5"/>
	<line class="st1" x1="268.2" y1="531" x2="326.1" y2="415.5"/>
	<line class="st1" x1="312.2" y1="531" x2="370.1" y2="415.5"/>
	<line class="st1" x1="357.2" y1="531" x2="415.1" y2="415.5"/>
	<line class="st1" x1="401.2" y1="531" x2="459.1" y2="415.5"/>
	<line class="st1" x1="446.2" y1="531" x2="504.1" y2="415.5"/>
	<line class="st1" x1="490.2" y1="531" x2="548.1" y2="415.5"/>
	<line class="st1" x1="535.2" y1="531" x2="593.1" y2="415.5"/>
	<line class="st1" x1="579.2" y1="531" x2="637.1" y2="415.5"/>
	<line class="st1" x1="624.2" y1="531" x2="682.1" y2="415.5"/>
	<line class="st1" x1="668.2" y1="531" x2="726.1" y2="415.5"/>
	<line class="st1" x1="712.2" y1="531" x2="770.1" y2="415.5"/>
	<line class="st1" x1="757.2" y1="531" x2="815.1" y2="415.5"/>
	<line class="st1" x1="801.2" y1="531" x2="859.1" y2="415.5"/>
	<line class="st1" x1="846.2" y1="531" x2="904.1" y2="415.5"/>
	<line class="st1" x1="890.2" y1="531" x2="948.1" y2="415.5"/>
	<line class="st1" x1="935.2" y1="531" x2="993.1" y2="415.5"/>
	<line class="st1" x1="979.2" y1="531" x2="1037.1" y2="415.5"/>
	<line class="st1" x1="1024.2" y1="531" x2="1082.1" y2="415.5"/>
	<line class="st1" x1="1068.2" y1="531" x2="1126.1" y2="415.5"/>
	<line class="st1" x1="1113.2" y1="531" x2="1171.1" y2="415.5"/>
	<line class="st1" x1="1157.2" y1="531" x2="1215.1" y2="415.5"/>
	<line class="st1" x1="1202.2" y1="531" x2="1260.1" y2="415.5"/>
	<line class="st1" x1="1246.2" y1="531" x2="1304.1" y2="415.5"/>
	<line class="st1" x1="1291.2" y1="531" x2="1349.1" y2="415.5"/>
	<line class="st1" x1="1335.2" y1="531" x2="1393.1" y2="415.5"/>
</g>
<g id="Layer_2_9_">
	<line class="st2" x1="1.2" y1="256.5" x2="1403" y2="256.5"/>
	<line class="st2" x1="1.2" y1="298.5" x2="1403" y2="298.5"/>
	<line class="st2" x1="0" y1="375.5" x2="1401.8" y2="375.5"/>
	<line class="st1" x1="1.2" y1="373" x2="59.1" y2="257.5"/>
	<line class="st1" x1="45.2" y1="373" x2="103.1" y2="257.5"/>
	<line class="st1" x1="90.2" y1="373" x2="148.1" y2="257.5"/>
	<line class="st1" x1="134.2" y1="373" x2="192.1" y2="257.5"/>
	<line class="st1" x1="179.2" y1="373" x2="237.1" y2="257.5"/>
	<line class="st1" x1="223.2" y1="373" x2="281.1" y2="257.5"/>
	<line class="st1" x1="268.2" y1="373" x2="326.1" y2="257.5"/>
	<line class="st1" x1="312.2" y1="373" x2="370.1" y2="257.5"/>
	<line class="st1" x1="357.2" y1="373" x2="415.1" y2="257.5"/>
	<line class="st1" x1="401.2" y1="373" x2="459.1" y2="257.5"/>
	<line class="st1" x1="446.2" y1="373" x2="504.1" y2="257.5"/>
	<line class="st1" x1="490.2" y1="373" x2="548.1" y2="257.5"/>
	<line class="st1" x1="535.2" y1="373" x2="593.1" y2="257.5"/>
	<line class="st1" x1="579.2" y1="373" x2="637.1" y2="257.5"/>
	<line class="st1" x1="624.2" y1="373" x2="682.1" y2="257.5"/>
	<line class="st1" x1="668.2" y1="373" x2="726.1" y2="257.5"/>
	<line class="st1" x1="712.2" y1="373" x2="770.1" y2="257.5"/>
	<line class="st1" x1="757.2" y1="373" x2="815.1" y2="257.5"/>
	<line class="st1" x1="801.2" y1="373" x2="859.1" y2="257.5"/>
	<line class="st1" x1="846.2" y1="373" x2="904.1" y2="257.5"/>
	<line class="st1" x1="890.2" y1="373" x2="948.1" y2="257.5"/>
	<line class="st1" x1="935.2" y1="373" x2="993.1" y2="257.5"/>
	<line class="st1" x1="979.2" y1="373" x2="1037.1" y2="257.5"/>
	<line class="st1" x1="1024.2" y1="373" x2="1082.1" y2="257.5"/>
	<line class="st1" x1="1068.2" y1="373" x2="1126.1" y2="257.5"/>
	<line class="st1" x1="1113.2" y1="373" x2="1171.1" y2="257.5"/>
	<line class="st1" x1="1157.2" y1="373" x2="1215.1" y2="257.5"/>
	<line class="st1" x1="1202.2" y1="373" x2="1260.1" y2="257.5"/>
	<line class="st1" x1="1246.2" y1="373" x2="1304.1" y2="257.5"/>
	<line class="st1" x1="1291.2" y1="373" x2="1349.1" y2="257.5"/>
	<line class="st1" x1="1335.2" y1="373" x2="1393.1" y2="257.5"/>
</g>
<g id="Layer_2_10_">
	<line class="st2" x1="1.2" y1="98.5" x2="1403" y2="98.5"/>
	<line class="st2" x1="1.2" y1="140.5" x2="1403" y2="140.5"/>
	<line class="st2" x1="0" y1="217.5" x2="1401.8" y2="217.5"/>
	<line class="st1" x1="1.2" y1="215" x2="59.1" y2="99.5"/>
	<line class="st1" x1="45.2" y1="215" x2="103.1" y2="99.5"/>
	<line class="st1" x1="90.2" y1="215" x2="148.1" y2="99.5"/>
	<line class="st1" x1="134.2" y1="215" x2="192.1" y2="99.5"/>
	<line class="st1" x1="179.2" y1="215" x2="237.1" y2="99.5"/>
	<line class="st1" x1="223.2" y1="215" x2="281.1" y2="99.5"/>
	<line class="st1" x1="268.2" y1="215" x2="326.1" y2="99.5"/>
	<line class="st1" x1="312.2" y1="215" x2="370.1" y2="99.5"/>
	<line class="st1" x1="357.2" y1="215" x2="415.1" y2="99.5"/>
	<line class="st1" x1="401.2" y1="215" x2="459.1" y2="99.5"/>
	<line class="st1" x1="446.2" y1="215" x2="504.1" y2="99.5"/>
	<line class="st1" x1="490.2" y1="215" x2="548.1" y2="99.5"/>
	<line class="st1" x1="535.2" y1="215" x2="593.1" y2="99.5"/>
	<line class="st1" x1="579.2" y1="215" x2="637.1" y2="99.5"/>
	<line class="st1" x1="624.2" y1="215" x2="682.1" y2="99.5"/>
	<line class="st1" x1="668.2" y1="215" x2="726.1" y2="99.5"/>
	<line class="st1" x1="712.2" y1="215" x2="770.1" y2="99.5"/>
	<line class="st1" x1="757.2" y1="215" x2="815.1" y2="99.5"/>
	<line class="st1" x1="801.2" y1="215" x2="859.1" y2="99.5"/>
	<line class="st1" x1="846.2" y1="215" x2="904.1" y2="99.5"/>
	<line class="st1" x1="890.2" y1="215" x2="948.1" y2="99.5"/>
	<line class="st1" x1="935.2" y1="215" x2="993.1" y2="99.5"/>
	<line class="st1" x1="979.2" y1="215" x2="1037.1" y2="99.5"/>
	<line class="st1" x1="1024.2" y1="215" x2="1082.1" y2="99.5"/>
	<line class="st1" x1="1068.2" y1="215" x2="1126.1" y2="99.5"/>
	<line class="st1" x1="1113.2" y1="215" x2="1171.1" y2="99.5"/>
	<line class="st1" x1="1157.2" y1="215" x2="1215.1" y2="99.5"/>
	<line class="st1" x1="1202.2" y1="215" x2="1260.1" y2="99.5"/>
	<line class="st1" x1="1246.2" y1="215" x2="1304.1" y2="99.5"/>
	<line class="st1" x1="1291.2" y1="215" x2="1349.1" y2="99.5"/>
	<line class="st1" x1="1335.2" y1="215" x2="1393.1" y2="99.5"/>
</g>
</svg>
