<?xml version="1.0" encoding="utf-8"?>
<!-- Generator: Adobe Illustrator 22.1.0, SVG Export Plug-In . SVG Version: 6.00 Build 0)  -->
<svg version="1.1" id="Layer_1" xmlns="http://www.w3.org/2000/svg" xmlns:xlink="http://www.w3.org/1999/xlink" x="0px" y="0px"
	 viewBox="0 0 1404 1872" style="enable-background:new 0 0 1404 1872;" xml:space="preserve">
<style type="text/css">
	.st0{fill:#FFFFFF;}
	.st1{fill:none;stroke:#000000;stroke-width:0.5;stroke-miterlimit:10;}
</style>
<path class="st0" d="M0,1872h1404V0H0V1872z"/>
<path class="st1" d="M212,325.2h1193"/>
<path class="st1" d="M212,422.2h1193"/>
<path class="st1" d="M212,520.2h1193"/>
<path class="st1" d="M212,617.2h1193"/>
<path class="st1" d="M212,715.2h1193"/>
<path class="st1" d="M212,812.2h1193"/>
<path class="st1" d="M212,909.2h1193"/>
<path class="st1" d="M212,1007.2h1193"/>
<path class="st1" d="M212,1104.2h1193"/>
<path class="st1" d="M212,1201.2h1193"/>
<path class="st1" d="M212,1299.2h1193"/>
<path class="st1" d="M212,1396.2h1193"/>
<path class="st1" d="M212,1494.2h1193"/>
<path class="st1" d="M212,1591.2h1193"/>
<path class="st1" d="M212,1688.2h1193"/>
<path class="st1" d="M212,1786.2h1193"/>
<path class="st1" d="M212,1871.2h1193"/>
<path class="st1" d="M0,191.7h1403"/>
<path d="M1228.7,135.6h2.9c1.5,0,2.6,0.5,3.5,1.6s1.3,2.6,1.3,4.6c0,2.2-0.4,3.8-1.3,4.8s-2.1,1.4-3.6,1.4h-2.7V135.6z
	 M1231.5,150.2c1,0,1.9-0.1,2.7-0.4c0.8-0.3,1.6-0.7,2.3-1.4c0.7-0.6,1.3-1.5,1.7-2.6c0.4-1.1,0.6-2.5,0.6-4c0-1.4-0.2-2.7-0.6-3.8
	c-0.4-1.1-1-2-1.6-2.6s-1.5-1.2-2.3-1.5s-1.8-0.5-2.7-0.5h-5.4v16.8H1231.5z"/>
<path d="M1250.1,146.8c-0.1,0.2-0.3,0.4-0.6,0.7c-0.3,0.3-0.6,0.5-1.1,0.7c-0.4,0.1-0.9,0.2-1.4,0.2c-1.1,0-2-0.4-2.6-1.1
	c-0.6-0.7-0.9-1.7-0.9-2.8h9.2v-0.7c0-2.1-0.5-3.7-1.6-4.9c-1.1-1.2-2.5-1.8-4.2-1.8s-3.1,0.6-4.2,1.8c-1.1,1.2-1.6,2.9-1.6,4.9
	s0.6,3.7,1.7,4.9c1.1,1.2,2.5,1.8,4.3,1.8c1.3,0,2.3-0.3,3.2-0.9c0.9-0.6,1.6-1.3,2.1-2.2l-1.8-1.3
	C1250.4,146.4,1250.2,146.7,1250.1,146.8z M1244.5,140.3c0.6-0.7,1.4-1.1,2.5-1.1c1.1,0,2,0.3,2.5,1c0.6,0.7,0.9,1.5,0.9,2.5h-6.9
	C1243.6,141.8,1243.9,141,1244.5,140.3z"/>
<path d="M1265.1,150.2v-8.4c0-1.6-0.5-2.8-1.4-3.5c-0.9-0.8-2.1-1.1-3.6-1.1c-1.4,0-2.5,0.3-3.3,1c-0.8,0.7-1.4,1.6-1.6,2.7l2,0.7
	c0.4-1.6,1.4-2.4,2.9-2.4c0.8,0,1.5,0.2,1.9,0.5c0.4,0.3,0.6,0.7,0.6,1.2s-0.2,0.9-0.7,1.1c-0.5,0.3-1.4,0.6-2.8,0.9
	c-1.6,0.4-2.7,0.9-3.3,1.5c-0.6,0.6-1,1.4-1,2.5c0,1.1,0.4,1.9,1.1,2.6c0.7,0.7,1.8,1,3.3,1c1,0,1.9-0.2,2.5-0.6
	c0.6-0.4,1.1-0.8,1.2-1.1h0.1v1.3H1265.1z M1261.6,144c0.5-0.2,0.8-0.3,0.9-0.4c0.1-0.1,0.2-0.2,0.3-0.4h0v2.9
	c0,0.7-0.3,1.2-0.9,1.7c-0.6,0.5-1.4,0.7-2.5,0.7c-1.5,0-2.3-0.6-2.3-1.8c0-0.5,0.2-0.9,0.5-1.2c0.3-0.3,1-0.6,2-0.9
	C1260.5,144.4,1261.1,144.2,1261.6,144z"/>
<path d="M1275.9,147.6c-0.6,0.6-1.3,0.8-2.2,0.8c-1.2,0-2-0.4-2.6-1.2s-0.9-1.9-0.9-3.4s0.3-2.6,0.9-3.4c0.6-0.8,1.5-1.2,2.6-1.2
	c0.9,0,1.7,0.3,2.3,0.9c0.6,0.6,0.8,1.3,0.8,2.1v3.4C1276.8,146.4,1276.5,147,1275.9,147.6z M1279.1,150.2v-17.5h-2.3v6h0
	c-0.9-1.1-2.1-1.6-3.4-1.6c-1.5,0-2.8,0.6-3.9,1.8c-1.1,1.2-1.6,2.9-1.6,4.9c0,2,0.5,3.7,1.5,4.9s2.3,1.8,4,1.8
	c1.5,0,2.7-0.5,3.6-1.6h0v1.2H1279.1z"/>
<path d="M1285.4,132.6h-2.4v17.5h2.4V132.6z"/>
<path d="M1291.6,137.4h-2.3v12.7h2.3V137.4z M1291.7,132.6h-2.5v2.5h2.5V132.6z"/>
<path d="M1297.9,150.2v-8c0-0.9,0.3-1.6,0.8-2.1c0.6-0.5,1.3-0.8,2.2-0.8c1.8,0,2.7,1.1,2.7,3.3v7.7h2.4v-8.3c0-1.5-0.4-2.6-1.2-3.5
	c-0.8-0.8-1.9-1.3-3.3-1.3c-0.7,0-1.4,0.2-2,0.5c-0.6,0.3-1.1,0.7-1.5,1.1h-0.1v-1.2h-2.3v12.7H1297.9z"/>
<path d="M1317.8,146.8c-0.1,0.2-0.3,0.4-0.6,0.7c-0.3,0.3-0.6,0.5-1.1,0.7c-0.4,0.1-0.9,0.2-1.4,0.2c-1.1,0-2-0.4-2.6-1.1
	c-0.6-0.7-0.9-1.7-0.9-2.8h9.2v-0.7c0-2.1-0.5-3.7-1.6-4.9c-1.1-1.2-2.5-1.8-4.2-1.8c-1.7,0-3.1,0.6-4.2,1.8
	c-1.1,1.2-1.6,2.9-1.6,4.9s0.6,3.7,1.7,4.9c1.1,1.2,2.5,1.8,4.3,1.8c1.3,0,2.3-0.3,3.2-0.9c0.9-0.6,1.6-1.3,2.1-2.2l-1.8-1.3
	C1318.1,146.4,1318,146.7,1317.8,146.8z M1312.2,140.3c0.6-0.7,1.4-1.1,2.5-1.1c1.1,0,2,0.3,2.5,1c0.6,0.7,0.9,1.5,0.9,2.5h-6.9
	C1311.3,141.8,1311.6,141,1312.2,140.3z"/>
<path class="st1" d="M139.5,270.7h-55v55h55V270.7z"/>
<path class="st1" d="M139.5,367.7h-55v55h55V367.7z"/>
<path class="st1" d="M139.5,464.7h-55v55h55V464.7z"/>
<path class="st1" d="M139.5,562.7h-55v55h55V562.7z"/>
<path class="st1" d="M139.5,659.7h-55v55h55V659.7z"/>
<path class="st1" d="M139.5,756.7h-55v55h55V756.7z"/>
<path class="st1" d="M139.5,854.7h-55v55h55V854.7z"/>
<path class="st1" d="M139.5,951.7h-55v55h55V951.7z"/>
<path class="st1" d="M139.5,1049.7h-55v55h55V1049.7z"/>
<path class="st1" d="M139.5,1146.7h-55v55h55V1146.7z"/>
<path class="st1" d="M139.5,1243.7h-55v55h55V1243.7z"/>
<path class="st1" d="M139.5,1341.7h-55v55h55V1341.7z"/>
<path class="st1" d="M139.5,1438.7h-55v55h55V1438.7z"/>
<path class="st1" d="M139.5,1535.7h-55v55h55V1535.7z"/>
<path class="st1" d="M139.5,1633.7h-55v55h55V1633.7z"/>
<path class="st1" d="M139.5,1730.7h-55v55h55V1730.7z"/>
</svg>
