<?xml version="1.0" encoding="utf-8"?>
<!-- Generator: Adobe Illustrator 22.1.0, SVG Export Plug-In . SVG Version: 6.00 Build 0)  -->
<svg version="1.1" id="Layer_1" xmlns="http://www.w3.org/2000/svg" xmlns:xlink="http://www.w3.org/1999/xlink" x="0px" y="0px"
	 viewBox="0 0 1404 1872" style="enable-background:new 0 0 1404 1872;" xml:space="preserve">
<style type="text/css">
	.st0{fill:#FFFFFF;}
	.st1{fill:none;stroke:#000000;stroke-width:0.5;stroke-miterlimit:10;}
</style>
<title>Cornell</title>
<g id="Paper_background">
	<rect y="0" class="st0" width="1404" height="1872"/>
</g>
<g id="LINES">
	<line class="st1" x1="450.5" y1="0.2" x2="450.5" y2="1399.2"/>
	<line class="st1" x1="0" y1="1399.7" x2="1404" y2="1399.7"/>
	<line class="st1" x1="450" y1="1322.7" x2="1404" y2="1322.7"/>
	<line class="st1" x1="450" y1="1246.7" x2="1404" y2="1246.7"/>
	<line class="st1" x1="450" y1="1170.7" x2="1404" y2="1170.7"/>
	<line class="st1" x1="450" y1="1093.7" x2="1404" y2="1093.7"/>
	<line class="st1" x1="450" y1="1017.7" x2="1404" y2="1017.7"/>
	<line class="st1" x1="450" y1="941.7" x2="1404" y2="941.7"/>
	<line class="st1" x1="450" y1="864.7" x2="1404" y2="864.7"/>
	<line class="st1" x1="450" y1="788.7" x2="1404" y2="788.7"/>
	<line class="st1" x1="450" y1="712.7" x2="1404" y2="712.7"/>
	<line class="st1" x1="450" y1="635.7" x2="1404" y2="635.7"/>
	<line class="st1" x1="450" y1="559.7" x2="1404" y2="559.7"/>
	<line class="st1" x1="450" y1="483.7" x2="1404" y2="483.7"/>
	<line class="st1" x1="450" y1="406.7" x2="1404" y2="406.7"/>
	<line class="st1" x1="450" y1="330.7" x2="1404" y2="330.7"/>
	<line class="st1" x1="450" y1="254.7" x2="1404" y2="254.7"/>
	<line class="st1" x1="450" y1="177.7" x2="1404" y2="177.7"/>
	<line class="st1" x1="450" y1="101.7" x2="1404" y2="101.7"/>
</g>
</svg>
