<?xml version="1.0" encoding="utf-8"?>
<!-- Generator: Adobe Illustrator 24.1.3, SVG Export Plug-In . SVG Version: 6.00 Build 0)  -->
<svg version="1.1" id="Layer_1" xmlns="http://www.w3.org/2000/svg" xmlns:xlink="http://www.w3.org/1999/xlink" x="0px" y="0px"
	 viewBox="0 0 1404 1872" style="enable-background:new 0 0 1404 1872;" xml:space="preserve">
<style type="text/css">
	.st0{fill:#FFFFFF;}
	.st1{fill:none;stroke:#000000;stroke-width:2;stroke-miterlimit:10;}
	.st2{fill:none;stroke:#000000;stroke-width:0.5;stroke-miterlimit:10;}
</style>
<g id="White_BG">
	<rect class="st0" width="1404" height="1872"/>
</g>
<g>
	<rect x="150" y="155" class="st1" width="1103" height="161"/>
	<line class="st2" x1="150" y1="187.5" x2="1253" y2="187.5"/>
	<line class="st2" x1="161.5" y1="155" x2="161.5" y2="316"/>
	<line class="st2" x1="150" y1="219.5" x2="1253" y2="219.5"/>
	<line class="st2" x1="150" y1="251.5" x2="1253" y2="251.5"/>
	<line class="st2" x1="150" y1="283.5" x2="1253" y2="283.5"/>
</g>
<g>
	<rect x="150" y="433" class="st1" width="1103" height="161"/>
	<line class="st2" x1="150" y1="465.5" x2="1253" y2="465.5"/>
	<line class="st2" x1="161.5" y1="433" x2="161.5" y2="594"/>
	<line class="st2" x1="150" y1="497.5" x2="1253" y2="497.5"/>
	<line class="st2" x1="150" y1="529.5" x2="1253" y2="529.5"/>
	<line class="st2" x1="150" y1="561.5" x2="1253" y2="561.5"/>
</g>
<g>
	<rect x="150" y="711" class="st1" width="1103" height="161"/>
	<line class="st2" x1="150" y1="743.5" x2="1253" y2="743.5"/>
	<line class="st2" x1="161.5" y1="711" x2="161.5" y2="872"/>
	<line class="st2" x1="150" y1="775.5" x2="1253" y2="775.5"/>
	<line class="st2" x1="150" y1="807.5" x2="1253" y2="807.5"/>
	<line class="st2" x1="150" y1="839.5" x2="1253" y2="839.5"/>
</g>
<g>
	<rect x="150" y="989" class="st1" width="1103" height="161"/>
	<line class="st2" x1="150" y1="1021.5" x2="1253" y2="1021.5"/>
	<line class="st2" x1="161.5" y1="989" x2="161.5" y2="1150"/>
	<line class="st2" x1="150" y1="1053.5" x2="1253" y2="1053.5"/>
	<line class="st2" x1="150" y1="1085.5" x2="1253" y2="1085.5"/>
	<line class="st2" x1="150" y1="1117.5" x2="1253" y2="1117.5"/>
</g>
<g>
	<rect x="150" y="1267" class="st1" width="1103" height="161"/>
	<line class="st2" x1="150" y1="1299.5" x2="1253" y2="1299.5"/>
	<line class="st2" x1="161.5" y1="1267" x2="161.5" y2="1428"/>
	<line class="st2" x1="150" y1="1331.5" x2="1253" y2="1331.5"/>
	<line class="st2" x1="150" y1="1363.5" x2="1253" y2="1363.5"/>
	<line class="st2" x1="150" y1="1395.5" x2="1253" y2="1395.5"/>
</g>
<g>
	<rect x="150" y="1545" class="st1" width="1103" height="161"/>
	<line class="st2" x1="150" y1="1577.5" x2="1253" y2="1577.5"/>
	<line class="st2" x1="161.5" y1="1545" x2="161.5" y2="1706"/>
	<line class="st2" x1="150" y1="1609.5" x2="1253" y2="1609.5"/>
	<line class="st2" x1="150" y1="1641.5" x2="1253" y2="1641.5"/>
	<line class="st2" x1="150" y1="1673.5" x2="1253" y2="1673.5"/>
</g>
</svg>
