<?xml version="1.0" encoding="utf-8"?>
<!-- Generator: Adobe Illustrator 24.1.3, SVG Export Plug-In . SVG Version: 6.00 Build 0)  -->
<svg version="1.1" id="Layer_1" xmlns="http://www.w3.org/2000/svg" xmlns:xlink="http://www.w3.org/1999/xlink" x="0px" y="0px"
	 viewBox="0 0 1404 1872" style="enable-background:new 0 0 1404 1872;" xml:space="preserve">
<style type="text/css">
	.st0{fill:#FFFFFF;}
	.st1{fill:none;stroke:#000000;stroke-width:0.5;stroke-miterlimit:10;}
</style>
<g id="White_BG">
	<rect y="0" class="st0" width="1404" height="1872"/>
</g>
<g>
	<polyline class="st1" points="112.3,0 112.3,47.2 168.5,79.7 224.6,47.2 	"/>
	<polyline class="st1" points="224.6,0 224.6,47.2 280.8,79.7 336.9,47.2 	"/>
	<polyline class="st1" points="336.9,0 336.9,47.2 393.1,79.7 449.2,47.2 	"/>
	<polyline class="st1" points="449.2,0 449.2,47.2 505.4,79.7 561.5,47.2 	"/>
	<polyline class="st1" points="561.5,0 561.5,47.2 617.7,79.7 673.9,47.2 	"/>
	<polyline class="st1" points="673.9,0 673.9,47.2 730,79.7 786.2,47.2 	"/>
	<polyline class="st1" points="786.2,0 786.2,47.2 842.3,79.7 898.5,47.2 	"/>
	<polyline class="st1" points="898.5,0 898.5,47.2 954.6,79.7 1010.8,47.2 	"/>
	<polyline class="st1" points="1010.8,0 1010.8,47.2 1066.9,79.7 1123.1,47.2 	"/>
	<polyline class="st1" points="1123.1,0 1123.1,47.2 1179.3,79.7 1235.4,47.2 	"/>
	<polyline class="st1" points="1235.4,0 1235.4,47.2 1291.6,79.7 1347.7,47.2 	"/>
	<polyline class="st1" points="1347.7,0 1347.7,47.2 1403.9,79.7 	"/>
	<polyline class="st1" points="0,0 0,47.2 56.3,79.7 112.3,47.2 	"/>
</g>
<g>
	<polyline class="st1" points="168.6,79.7 168.6,144.4 224.7,176.9 280.9,144.4 	"/>
	<polyline class="st1" points="280.9,79.7 280.9,144.4 337.1,176.9 393.2,144.4 	"/>
	<polyline class="st1" points="393.2,79.7 393.2,144.4 449.4,176.9 505.5,144.4 	"/>
	<polyline class="st1" points="505.5,79.7 505.5,144.4 561.7,176.9 617.8,144.4 	"/>
	<polyline class="st1" points="617.8,79.7 617.8,144.4 674,176.9 730.1,144.4 	"/>
	<polyline class="st1" points="730.1,79.7 730.1,144.4 786.3,176.9 842.5,144.4 	"/>
	<polyline class="st1" points="842.5,79.7 842.5,144.4 898.6,176.9 954.8,144.4 	"/>
	<polyline class="st1" points="954.8,79.7 954.8,144.4 1010.9,176.9 1067.1,144.4 	"/>
	<polyline class="st1" points="1067.1,79.7 1067.1,144.4 1123.2,176.9 1179.4,144.4 	"/>
	<polyline class="st1" points="1179.4,79.7 1179.4,144.4 1235.5,176.9 1291.7,144.4 	"/>
	<polyline class="st1" points="1291.7,79.7 1291.7,144.4 1347.8,176.9 1404,144.4 	"/>
	<line class="st1" x1="1404" y1="79.7" x2="1404" y2="144.4"/>
	<polyline class="st1" points="56.3,79.7 56.3,144.4 112.6,176.9 168.6,144.4 	"/>
	<line class="st1" x1="0.3" y1="176.9" x2="56.3" y2="144.4"/>
</g>
<g>
	<polyline class="st1" points="112.3,176.9 112.3,241.7 168.5,274.2 224.6,241.7 	"/>
	<polyline class="st1" points="224.6,176.9 224.6,241.7 280.8,274.2 336.9,241.7 	"/>
	<polyline class="st1" points="336.9,176.9 336.9,241.7 393.1,274.2 449.2,241.7 	"/>
	<polyline class="st1" points="449.2,176.9 449.2,241.7 505.4,274.2 561.5,241.7 	"/>
	<polyline class="st1" points="561.5,176.9 561.5,241.7 617.7,274.2 673.9,241.7 	"/>
	<polyline class="st1" points="673.9,176.9 673.9,241.7 730,274.2 786.2,241.7 	"/>
	<polyline class="st1" points="786.2,176.9 786.2,241.7 842.3,274.2 898.5,241.7 	"/>
	<polyline class="st1" points="898.5,176.9 898.5,241.7 954.6,274.2 1010.8,241.7 	"/>
	<polyline class="st1" points="1010.8,176.9 1010.8,241.7 1066.9,274.2 1123.1,241.7 	"/>
	<polyline class="st1" points="1123.1,176.9 1123.1,241.7 1179.3,274.2 1235.4,241.7 	"/>
	<polyline class="st1" points="1235.4,176.9 1235.4,241.7 1291.6,274.2 1347.7,241.7 	"/>
	<polyline class="st1" points="1347.7,176.9 1347.7,241.7 1403.9,274.2 	"/>
	<polyline class="st1" points="0,176.9 0,241.7 56.3,274.2 112.3,241.7 	"/>
</g>
<g>
	<polyline class="st1" points="168.6,274.2 168.6,338.9 224.7,371.4 280.9,338.9 	"/>
	<polyline class="st1" points="280.9,274.2 280.9,338.9 337.1,371.4 393.2,338.9 	"/>
	<polyline class="st1" points="393.2,274.2 393.2,338.9 449.4,371.4 505.5,338.9 	"/>
	<polyline class="st1" points="505.5,274.2 505.5,338.9 561.7,371.4 617.8,338.9 	"/>
	<polyline class="st1" points="617.8,274.2 617.8,338.9 674,371.4 730.1,338.9 	"/>
	<polyline class="st1" points="730.1,274.2 730.1,338.9 786.3,371.4 842.5,338.9 	"/>
	<polyline class="st1" points="842.5,274.2 842.5,338.9 898.6,371.4 954.8,338.9 	"/>
	<polyline class="st1" points="954.8,274.2 954.8,338.9 1010.9,371.4 1067.1,338.9 	"/>
	<polyline class="st1" points="1067.1,274.2 1067.1,338.9 1123.2,371.4 1179.4,338.9 	"/>
	<polyline class="st1" points="1179.4,274.2 1179.4,338.9 1235.5,371.4 1291.7,338.9 	"/>
	<polyline class="st1" points="1291.7,274.2 1291.7,338.9 1347.8,371.4 1404,338.9 	"/>
	<line class="st1" x1="1404" y1="274.2" x2="1404" y2="338.9"/>
	<polyline class="st1" points="56.3,274.2 56.3,338.9 112.6,371.4 168.6,338.9 	"/>
	<line class="st1" x1="0.3" y1="371.4" x2="56.3" y2="338.9"/>
</g>
<g>
	<polyline class="st1" points="112.3,371.4 112.3,436.1 168.5,468.6 224.6,436.1 	"/>
	<polyline class="st1" points="224.6,371.4 224.6,436.1 280.8,468.6 336.9,436.1 	"/>
	<polyline class="st1" points="336.9,371.4 336.9,436.1 393.1,468.6 449.2,436.1 	"/>
	<polyline class="st1" points="449.2,371.4 449.2,436.1 505.4,468.6 561.5,436.1 	"/>
	<polyline class="st1" points="561.5,371.4 561.5,436.1 617.7,468.6 673.9,436.1 	"/>
	<polyline class="st1" points="673.9,371.4 673.9,436.1 730,468.6 786.2,436.1 	"/>
	<polyline class="st1" points="786.2,371.4 786.2,436.1 842.3,468.6 898.5,436.1 	"/>
	<polyline class="st1" points="898.5,371.4 898.5,436.1 954.6,468.6 1010.8,436.1 	"/>
	<polyline class="st1" points="1010.8,371.4 1010.8,436.1 1066.9,468.6 1123.1,436.1 	"/>
	<polyline class="st1" points="1123.1,371.4 1123.1,436.1 1179.3,468.6 1235.4,436.1 	"/>
	<polyline class="st1" points="1235.4,371.4 1235.4,436.1 1291.6,468.6 1347.7,436.1 	"/>
	<polyline class="st1" points="1347.7,371.4 1347.7,436.1 1403.9,468.6 	"/>
	<polyline class="st1" points="0,371.4 0,436.1 56.3,468.6 112.3,436.1 	"/>
</g>
<g>
	<polyline class="st1" points="168.6,468.6 168.6,533.3 224.7,565.8 280.9,533.3 	"/>
	<polyline class="st1" points="280.9,468.6 280.9,533.3 337.1,565.8 393.2,533.3 	"/>
	<polyline class="st1" points="393.2,468.6 393.2,533.3 449.4,565.8 505.5,533.3 	"/>
	<polyline class="st1" points="505.5,468.6 505.5,533.3 561.7,565.8 617.8,533.3 	"/>
	<polyline class="st1" points="617.8,468.6 617.8,533.3 674,565.8 730.1,533.3 	"/>
	<polyline class="st1" points="730.1,468.6 730.1,533.3 786.3,565.8 842.5,533.3 	"/>
	<polyline class="st1" points="842.5,468.6 842.5,533.3 898.6,565.8 954.8,533.3 	"/>
	<polyline class="st1" points="954.8,468.6 954.8,533.3 1010.9,565.8 1067.1,533.3 	"/>
	<polyline class="st1" points="1067.1,468.6 1067.1,533.3 1123.2,565.8 1179.4,533.3 	"/>
	<polyline class="st1" points="1179.4,468.6 1179.4,533.3 1235.5,565.8 1291.7,533.3 	"/>
	<polyline class="st1" points="1291.7,468.6 1291.7,533.3 1347.8,565.8 1404,533.3 	"/>
	<line class="st1" x1="1404" y1="468.6" x2="1404" y2="533.3"/>
	<polyline class="st1" points="56.3,468.6 56.3,533.3 112.6,565.8 168.6,533.3 	"/>
	<line class="st1" x1="0.3" y1="565.8" x2="56.3" y2="533.3"/>
</g>
<g>
	<polyline class="st1" points="112.3,565.8 112.3,630.5 168.5,663 224.6,630.5 	"/>
	<polyline class="st1" points="224.6,565.8 224.6,630.5 280.8,663 336.9,630.5 	"/>
	<polyline class="st1" points="336.9,565.8 336.9,630.5 393.1,663 449.2,630.5 	"/>
	<polyline class="st1" points="449.2,565.8 449.2,630.5 505.4,663 561.5,630.5 	"/>
	<polyline class="st1" points="561.5,565.8 561.5,630.5 617.7,663 673.9,630.5 	"/>
	<polyline class="st1" points="673.9,565.8 673.9,630.5 730,663 786.2,630.5 	"/>
	<polyline class="st1" points="786.2,565.8 786.2,630.5 842.3,663 898.5,630.5 	"/>
	<polyline class="st1" points="898.5,565.8 898.5,630.5 954.6,663 1010.8,630.5 	"/>
	<polyline class="st1" points="1010.8,565.8 1010.8,630.5 1066.9,663 1123.1,630.5 	"/>
	<polyline class="st1" points="1123.1,565.8 1123.1,630.5 1179.3,663 1235.4,630.5 	"/>
	<polyline class="st1" points="1235.4,565.8 1235.4,630.5 1291.6,663 1347.7,630.5 	"/>
	<polyline class="st1" points="1347.7,565.8 1347.7,630.5 1403.9,663 	"/>
	<polyline class="st1" points="0,565.8 0,630.5 56.3,663 112.3,630.5 	"/>
</g>
<g>
	<polyline class="st1" points="168.6,663 168.6,727.7 224.7,760.2 280.9,727.7 	"/>
	<polyline class="st1" points="280.9,663 280.9,727.7 337.1,760.2 393.2,727.7 	"/>
	<polyline class="st1" points="393.2,663 393.2,727.7 449.4,760.2 505.5,727.7 	"/>
	<polyline class="st1" points="505.5,663 505.5,727.7 561.7,760.2 617.8,727.7 	"/>
	<polyline class="st1" points="617.8,663 617.8,727.7 674,760.2 730.1,727.7 	"/>
	<polyline class="st1" points="730.1,663 730.1,727.7 786.3,760.2 842.5,727.7 	"/>
	<polyline class="st1" points="842.5,663 842.5,727.7 898.6,760.2 954.8,727.7 	"/>
	<polyline class="st1" points="954.8,663 954.8,727.7 1010.9,760.2 1067.1,727.7 	"/>
	<polyline class="st1" points="1067.1,663 1067.1,727.7 1123.2,760.2 1179.4,727.7 	"/>
	<polyline class="st1" points="1179.4,663 1179.4,727.7 1235.5,760.2 1291.7,727.7 	"/>
	<polyline class="st1" points="1291.7,663 1291.7,727.7 1347.8,760.2 1404,727.7 	"/>
	<line class="st1" x1="1404" y1="663" x2="1404" y2="727.7"/>
	<polyline class="st1" points="56.3,663 56.3,727.7 112.6,760.2 168.6,727.7 	"/>
	<line class="st1" x1="0.3" y1="760.2" x2="56.3" y2="727.7"/>
</g>
<g>
	<polyline class="st1" points="112.3,760.2 112.3,825 168.5,857.4 224.6,825 	"/>
	<polyline class="st1" points="224.6,760.2 224.6,825 280.8,857.4 336.9,825 	"/>
	<polyline class="st1" points="336.9,760.2 336.9,825 393.1,857.4 449.2,825 	"/>
	<polyline class="st1" points="449.2,760.2 449.2,825 505.4,857.4 561.5,825 	"/>
	<polyline class="st1" points="561.5,760.2 561.5,825 617.7,857.4 673.9,825 	"/>
	<polyline class="st1" points="673.9,760.2 673.9,825 730,857.4 786.2,825 	"/>
	<polyline class="st1" points="786.2,760.2 786.2,825 842.3,857.4 898.5,825 	"/>
	<polyline class="st1" points="898.5,760.2 898.5,825 954.6,857.4 1010.8,825 	"/>
	<polyline class="st1" points="1010.8,760.2 1010.8,825 1066.9,857.4 1123.1,825 	"/>
	<polyline class="st1" points="1123.1,760.2 1123.1,825 1179.3,857.4 1235.4,825 	"/>
	<polyline class="st1" points="1235.4,760.2 1235.4,825 1291.6,857.4 1347.7,825 	"/>
	<polyline class="st1" points="1347.7,760.2 1347.7,825 1403.9,857.4 	"/>
	<polyline class="st1" points="0,760.2 0,825 56.3,857.4 112.3,825 	"/>
</g>
<g>
	<polyline class="st1" points="168.6,857.4 168.6,922.2 224.7,954.7 280.9,922.2 	"/>
	<polyline class="st1" points="280.9,857.4 280.9,922.2 337.1,954.7 393.2,922.2 	"/>
	<polyline class="st1" points="393.2,857.4 393.2,922.2 449.4,954.7 505.5,922.2 	"/>
	<polyline class="st1" points="505.5,857.4 505.5,922.2 561.7,954.7 617.8,922.2 	"/>
	<polyline class="st1" points="617.8,857.4 617.8,922.2 674,954.7 730.1,922.2 	"/>
	<polyline class="st1" points="730.1,857.4 730.1,922.2 786.3,954.7 842.5,922.2 	"/>
	<polyline class="st1" points="842.5,857.4 842.5,922.2 898.6,954.7 954.8,922.2 	"/>
	<polyline class="st1" points="954.8,857.4 954.8,922.2 1010.9,954.7 1067.1,922.2 	"/>
	<polyline class="st1" points="1067.1,857.4 1067.1,922.2 1123.2,954.7 1179.4,922.2 	"/>
	<polyline class="st1" points="1179.4,857.4 1179.4,922.2 1235.5,954.7 1291.7,922.2 	"/>
	<polyline class="st1" points="1291.7,857.4 1291.7,922.2 1347.8,954.7 1404,922.2 	"/>
	<line class="st1" x1="1404" y1="857.4" x2="1404" y2="922.2"/>
	<polyline class="st1" points="56.3,857.4 56.3,922.2 112.6,954.7 168.6,922.2 	"/>
	<line class="st1" x1="0.3" y1="954.7" x2="56.3" y2="922.2"/>
</g>
<g>
	<polyline class="st1" points="112.3,954.7 112.3,1019.4 168.5,1051.9 224.6,1019.4 	"/>
	<polyline class="st1" points="224.6,954.7 224.6,1019.4 280.8,1051.9 336.9,1019.4 	"/>
	<polyline class="st1" points="336.9,954.7 336.9,1019.4 393.1,1051.9 449.2,1019.4 	"/>
	<polyline class="st1" points="449.2,954.7 449.2,1019.4 505.4,1051.9 561.5,1019.4 	"/>
	<polyline class="st1" points="561.5,954.7 561.5,1019.4 617.7,1051.9 673.9,1019.4 	"/>
	<polyline class="st1" points="673.9,954.7 673.9,1019.4 730,1051.9 786.2,1019.4 	"/>
	<polyline class="st1" points="786.2,954.7 786.2,1019.4 842.3,1051.9 898.5,1019.4 	"/>
	<polyline class="st1" points="898.5,954.7 898.5,1019.4 954.6,1051.9 1010.8,1019.4 	"/>
	<polyline class="st1" points="1010.8,954.7 1010.8,1019.4 1066.9,1051.9 1123.1,1019.4 	"/>
	<polyline class="st1" points="1123.1,954.7 1123.1,1019.4 1179.3,1051.9 1235.4,1019.4 	"/>
	<polyline class="st1" points="1235.4,954.7 1235.4,1019.4 1291.6,1051.9 1347.7,1019.4 	"/>
	<polyline class="st1" points="1347.7,954.7 1347.7,1019.4 1403.9,1051.9 	"/>
	<polyline class="st1" points="0,954.7 0,1019.4 56.3,1051.9 112.3,1019.4 	"/>
</g>
<g>
	<polyline class="st1" points="168.6,1051.9 168.6,1116.6 224.7,1149.1 280.9,1116.6 	"/>
	<polyline class="st1" points="280.9,1051.9 280.9,1116.6 337.1,1149.1 393.2,1116.6 	"/>
	<polyline class="st1" points="393.2,1051.9 393.2,1116.6 449.4,1149.1 505.5,1116.6 	"/>
	<polyline class="st1" points="505.5,1051.9 505.5,1116.6 561.7,1149.1 617.8,1116.6 	"/>
	<polyline class="st1" points="617.8,1051.9 617.8,1116.6 674,1149.1 730.1,1116.6 	"/>
	<polyline class="st1" points="730.1,1051.9 730.1,1116.6 786.3,1149.1 842.5,1116.6 	"/>
	<polyline class="st1" points="842.5,1051.9 842.5,1116.6 898.6,1149.1 954.8,1116.6 	"/>
	<polyline class="st1" points="954.8,1051.9 954.8,1116.6 1010.9,1149.1 1067.1,1116.6 	"/>
	<polyline class="st1" points="1067.1,1051.9 1067.1,1116.6 1123.2,1149.1 1179.4,1116.6 	"/>
	<polyline class="st1" points="1179.4,1051.9 1179.4,1116.6 1235.5,1149.1 1291.7,1116.6 	"/>
	<polyline class="st1" points="1291.7,1051.9 1291.7,1116.6 1347.8,1149.1 1404,1116.6 	"/>
	<line class="st1" x1="1404" y1="1051.9" x2="1404" y2="1116.6"/>
	<polyline class="st1" points="56.3,1051.9 56.3,1116.6 112.6,1149.1 168.6,1116.6 	"/>
	<line class="st1" x1="0.3" y1="1149.1" x2="56.3" y2="1116.6"/>
</g>
<g>
	<polyline class="st1" points="112.3,1149.1 112.3,1213.8 168.5,1246.3 224.6,1213.8 	"/>
	<polyline class="st1" points="224.6,1149.1 224.6,1213.8 280.8,1246.3 336.9,1213.8 	"/>
	<polyline class="st1" points="336.9,1149.1 336.9,1213.8 393.1,1246.3 449.2,1213.8 	"/>
	<polyline class="st1" points="449.2,1149.1 449.2,1213.8 505.4,1246.3 561.5,1213.8 	"/>
	<polyline class="st1" points="561.5,1149.1 561.5,1213.8 617.7,1246.3 673.9,1213.8 	"/>
	<polyline class="st1" points="673.9,1149.1 673.9,1213.8 730,1246.3 786.2,1213.8 	"/>
	<polyline class="st1" points="786.2,1149.1 786.2,1213.8 842.3,1246.3 898.5,1213.8 	"/>
	<polyline class="st1" points="898.5,1149.1 898.5,1213.8 954.6,1246.3 1010.8,1213.8 	"/>
	<polyline class="st1" points="1010.8,1149.1 1010.8,1213.8 1066.9,1246.3 1123.1,1213.8 	"/>
	<polyline class="st1" points="1123.1,1149.1 1123.1,1213.8 1179.3,1246.3 1235.4,1213.8 	"/>
	<polyline class="st1" points="1235.4,1149.1 1235.4,1213.8 1291.6,1246.3 1347.7,1213.8 	"/>
	<polyline class="st1" points="1347.7,1149.1 1347.7,1213.8 1403.9,1246.3 	"/>
	<polyline class="st1" points="0,1149.1 0,1213.8 56.3,1246.3 112.3,1213.8 	"/>
</g>
<g>
	<polyline class="st1" points="168.6,1246.3 168.6,1311 224.7,1343.5 280.9,1311 	"/>
	<polyline class="st1" points="280.9,1246.3 280.9,1311 337.1,1343.5 393.2,1311 	"/>
	<polyline class="st1" points="393.2,1246.3 393.2,1311 449.4,1343.5 505.5,1311 	"/>
	<polyline class="st1" points="505.5,1246.3 505.5,1311 561.7,1343.5 617.8,1311 	"/>
	<polyline class="st1" points="617.8,1246.3 617.8,1311 674,1343.5 730.1,1311 	"/>
	<polyline class="st1" points="730.1,1246.3 730.1,1311 786.3,1343.5 842.5,1311 	"/>
	<polyline class="st1" points="842.5,1246.3 842.5,1311 898.6,1343.5 954.8,1311 	"/>
	<polyline class="st1" points="954.8,1246.3 954.8,1311 1010.9,1343.5 1067.1,1311 	"/>
	<polyline class="st1" points="1067.1,1246.3 1067.1,1311 1123.2,1343.5 1179.4,1311 	"/>
	<polyline class="st1" points="1179.4,1246.3 1179.4,1311 1235.5,1343.5 1291.7,1311 	"/>
	<polyline class="st1" points="1291.7,1246.3 1291.7,1311 1347.8,1343.5 1404,1311 	"/>
	<line class="st1" x1="1404" y1="1246.3" x2="1404" y2="1311"/>
	<polyline class="st1" points="56.3,1246.3 56.3,1311 112.6,1343.5 168.6,1311 	"/>
	<line class="st1" x1="0.3" y1="1343.5" x2="56.3" y2="1311"/>
</g>
<g>
	<polyline class="st1" points="112.3,1343.5 112.3,1408.3 168.5,1440.7 224.6,1408.3 	"/>
	<polyline class="st1" points="224.6,1343.5 224.6,1408.3 280.8,1440.7 336.9,1408.3 	"/>
	<polyline class="st1" points="336.9,1343.5 336.9,1408.3 393.1,1440.7 449.2,1408.3 	"/>
	<polyline class="st1" points="449.2,1343.5 449.2,1408.3 505.4,1440.7 561.5,1408.3 	"/>
	<polyline class="st1" points="561.5,1343.5 561.5,1408.3 617.7,1440.7 673.9,1408.3 	"/>
	<polyline class="st1" points="673.9,1343.5 673.9,1408.3 730,1440.7 786.2,1408.3 	"/>
	<polyline class="st1" points="786.2,1343.5 786.2,1408.3 842.3,1440.7 898.5,1408.3 	"/>
	<polyline class="st1" points="898.5,1343.5 898.5,1408.3 954.6,1440.7 1010.8,1408.3 	"/>
	<polyline class="st1" points="1010.8,1343.5 1010.8,1408.3 1066.9,1440.7 1123.1,1408.3 	"/>
	<polyline class="st1" points="1123.1,1343.5 1123.1,1408.3 1179.3,1440.7 1235.4,1408.3 	"/>
	<polyline class="st1" points="1235.4,1343.5 1235.4,1408.3 1291.6,1440.7 1347.7,1408.3 	"/>
	<polyline class="st1" points="1347.7,1343.5 1347.7,1408.3 1403.9,1440.7 	"/>
	<polyline class="st1" points="0,1343.5 0,1408.3 56.3,1440.7 112.3,1408.3 	"/>
</g>
<g>
	<polyline class="st1" points="168.6,1440.7 168.6,1505.5 224.7,1538 280.9,1505.5 	"/>
	<polyline class="st1" points="280.9,1440.7 280.9,1505.5 337.1,1538 393.2,1505.5 	"/>
	<polyline class="st1" points="393.2,1440.7 393.2,1505.5 449.4,1538 505.5,1505.5 	"/>
	<polyline class="st1" points="505.5,1440.7 505.5,1505.5 561.7,1538 617.8,1505.5 	"/>
	<polyline class="st1" points="617.8,1440.7 617.8,1505.5 674,1538 730.1,1505.5 	"/>
	<polyline class="st1" points="730.1,1440.7 730.1,1505.5 786.3,1538 842.5,1505.5 	"/>
	<polyline class="st1" points="842.5,1440.7 842.5,1505.5 898.6,1538 954.8,1505.5 	"/>
	<polyline class="st1" points="954.8,1440.7 954.8,1505.5 1010.9,1538 1067.1,1505.5 	"/>
	<polyline class="st1" points="1067.1,1440.7 1067.1,1505.5 1123.2,1538 1179.4,1505.5 	"/>
	<polyline class="st1" points="1179.4,1440.7 1179.4,1505.5 1235.5,1538 1291.7,1505.5 	"/>
	<polyline class="st1" points="1291.7,1440.7 1291.7,1505.5 1347.8,1538 1404,1505.5 	"/>
	<line class="st1" x1="1404" y1="1440.7" x2="1404" y2="1505.5"/>
	<polyline class="st1" points="56.3,1440.7 56.3,1505.5 112.6,1538 168.6,1505.5 	"/>
	<line class="st1" x1="0.3" y1="1538" x2="56.3" y2="1505.5"/>
</g>
<g>
	<polyline class="st1" points="112.3,1538 112.3,1602.7 168.5,1635.2 224.6,1602.7 	"/>
	<polyline class="st1" points="224.6,1538 224.6,1602.7 280.8,1635.2 336.9,1602.7 	"/>
	<polyline class="st1" points="336.9,1538 336.9,1602.7 393.1,1635.2 449.2,1602.7 	"/>
	<polyline class="st1" points="449.2,1538 449.2,1602.7 505.4,1635.2 561.5,1602.7 	"/>
	<polyline class="st1" points="561.5,1538 561.5,1602.7 617.7,1635.2 673.9,1602.7 	"/>
	<polyline class="st1" points="673.9,1538 673.9,1602.7 730,1635.2 786.2,1602.7 	"/>
	<polyline class="st1" points="786.2,1538 786.2,1602.7 842.3,1635.2 898.5,1602.7 	"/>
	<polyline class="st1" points="898.5,1538 898.5,1602.7 954.6,1635.2 1010.8,1602.7 	"/>
	<polyline class="st1" points="1010.8,1538 1010.8,1602.7 1066.9,1635.2 1123.1,1602.7 	"/>
	<polyline class="st1" points="1123.1,1538 1123.1,1602.7 1179.3,1635.2 1235.4,1602.7 	"/>
	<polyline class="st1" points="1235.4,1538 1235.4,1602.7 1291.6,1635.2 1347.7,1602.7 	"/>
	<polyline class="st1" points="1347.7,1538 1347.7,1602.7 1403.9,1635.2 	"/>
	<polyline class="st1" points="0,1538 0,1602.7 56.3,1635.2 112.3,1602.7 	"/>
</g>
<g>
	<polyline class="st1" points="168.6,1635.2 168.6,1699.9 224.7,1732.4 280.9,1699.9 	"/>
	<polyline class="st1" points="280.9,1635.2 280.9,1699.9 337.1,1732.4 393.2,1699.9 	"/>
	<polyline class="st1" points="393.2,1635.2 393.2,1699.9 449.4,1732.4 505.5,1699.9 	"/>
	<polyline class="st1" points="505.5,1635.2 505.5,1699.9 561.7,1732.4 617.8,1699.9 	"/>
	<polyline class="st1" points="617.8,1635.2 617.8,1699.9 674,1732.4 730.1,1699.9 	"/>
	<polyline class="st1" points="730.1,1635.2 730.1,1699.9 786.3,1732.4 842.5,1699.9 	"/>
	<polyline class="st1" points="842.5,1635.2 842.5,1699.9 898.6,1732.4 954.8,1699.9 	"/>
	<polyline class="st1" points="954.8,1635.2 954.8,1699.9 1010.9,1732.4 1067.1,1699.9 	"/>
	<polyline class="st1" points="1067.1,1635.2 1067.1,1699.9 1123.2,1732.4 1179.4,1699.9 	"/>
	<polyline class="st1" points="1179.4,1635.2 1179.4,1699.9 1235.5,1732.4 1291.7,1699.9 	"/>
	<polyline class="st1" points="1291.7,1635.2 1291.7,1699.9 1347.8,1732.4 1404,1699.9 	"/>
	<line class="st1" x1="1404" y1="1635.2" x2="1404" y2="1699.9"/>
	<polyline class="st1" points="56.3,1635.2 56.3,1699.9 112.6,1732.4 168.6,1699.9 	"/>
	<line class="st1" x1="0.3" y1="1732.4" x2="56.3" y2="1699.9"/>
</g>
<g>
	<polyline class="st1" points="112.3,1732.4 112.3,1797.1 168.5,1829.6 224.6,1797.1 	"/>
	<polyline class="st1" points="224.6,1732.4 224.6,1797.1 280.8,1829.6 336.9,1797.1 	"/>
	<polyline class="st1" points="336.9,1732.4 336.9,1797.1 393.1,1829.6 449.2,1797.1 	"/>
	<polyline class="st1" points="449.2,1732.4 449.2,1797.1 505.4,1829.6 561.5,1797.1 	"/>
	<polyline class="st1" points="561.5,1732.4 561.5,1797.1 617.7,1829.6 673.9,1797.1 	"/>
	<polyline class="st1" points="673.9,1732.4 673.9,1797.1 730,1829.6 786.2,1797.1 	"/>
	<polyline class="st1" points="786.2,1732.4 786.2,1797.1 842.3,1829.6 898.5,1797.1 	"/>
	<polyline class="st1" points="898.5,1732.4 898.5,1797.1 954.6,1829.6 1010.8,1797.1 	"/>
	<polyline class="st1" points="1010.8,1732.4 1010.8,1797.1 1066.9,1829.6 1123.1,1797.1 	"/>
	<polyline class="st1" points="1123.1,1732.4 1123.1,1797.1 1179.3,1829.6 1235.4,1797.1 	"/>
	<polyline class="st1" points="1235.4,1732.4 1235.4,1797.1 1291.6,1829.6 1347.7,1797.1 	"/>
	<polyline class="st1" points="1347.7,1732.4 1347.7,1797.1 1403.9,1829.6 	"/>
	<polyline class="st1" points="0,1732.4 0,1797.1 56.3,1829.6 112.3,1797.1 	"/>
</g>
<g>
	<path class="st1" d="M280.9,1872"/>
	<line class="st1" x1="168.6" y1="1829.6" x2="168.6" y2="1872"/>
	<path class="st1" d="M393.2,1872"/>
	<line class="st1" x1="280.9" y1="1829.6" x2="280.9" y2="1872"/>
	<path class="st1" d="M505.5,1872"/>
	<line class="st1" x1="393.2" y1="1829.6" x2="393.2" y2="1872"/>
	<path class="st1" d="M617.8,1872"/>
	<line class="st1" x1="505.5" y1="1829.6" x2="505.5" y2="1872"/>
	<path class="st1" d="M730.1,1872"/>
	<line class="st1" x1="617.8" y1="1829.6" x2="617.8" y2="1872"/>
	<path class="st1" d="M842.5,1872"/>
	<line class="st1" x1="730.1" y1="1829.6" x2="730.1" y2="1872"/>
	<path class="st1" d="M954.8,1872"/>
	<line class="st1" x1="842.5" y1="1829.6" x2="842.5" y2="1872"/>
	<path class="st1" d="M1067.1,1872"/>
	<line class="st1" x1="954.8" y1="1829.6" x2="954.8" y2="1872"/>
	<path class="st1" d="M1179.4,1872"/>
	<line class="st1" x1="1067.1" y1="1829.6" x2="1067.1" y2="1872"/>
	<path class="st1" d="M1291.7,1872"/>
	<line class="st1" x1="1179.4" y1="1829.6" x2="1179.4" y2="1872"/>
	<path class="st1" d="M1404,1872"/>
	<line class="st1" x1="1291.7" y1="1829.6" x2="1291.7" y2="1872"/>
	<line class="st1" x1="1404" y1="1829.6" x2="1404" y2="1872"/>
	<path class="st1" d="M168.6,1872"/>
	<line class="st1" x1="56.3" y1="1829.6" x2="56.3" y2="1872"/>
	<path class="st1" d="M56.3,1872"/>
</g>
</svg>
