<?xml version="1.0" encoding="utf-8"?>
<!-- Generator: Adobe Illustrator 24.1.3, SVG Export Plug-In . SVG Version: 6.00 Build 0)  -->
<svg version="1.1" id="Layer_1" xmlns="http://www.w3.org/2000/svg" xmlns:xlink="http://www.w3.org/1999/xlink" x="0px" y="0px"
	 viewBox="0 0 1404 1872" style="enable-background:new 0 0 1404 1872;" xml:space="preserve">
<style type="text/css">
	.st0{fill:#FFFFFF;}
	.st1{fill:none;stroke:#000000;stroke-width:0.5;stroke-miterlimit:10;}
</style>
<g id="White_BG">
	<rect y="0" class="st0" width="1404" height="1872"/>
</g>
<g>
	<line class="st1" x1="150.5" y1="154.8" x2="1253.5" y2="154.8"/>
	<line class="st1" x1="150.5" y1="176.8" x2="1253.5" y2="176.8"/>
	<line class="st1" x1="150.5" y1="198.8" x2="1253.5" y2="198.8"/>
	<line class="st1" x1="150.5" y1="220.8" x2="1253.5" y2="220.8"/>
	<line class="st1" x1="150.5" y1="242.8" x2="1253.5" y2="242.8"/>
	<line class="st1" x1="150.5" y1="314.8" x2="1253.5" y2="314.8"/>
	<line class="st1" x1="150.5" y1="336.8" x2="1253.5" y2="336.8"/>
	<line class="st1" x1="150.5" y1="358.8" x2="1253.5" y2="358.8"/>
	<line class="st1" x1="150.5" y1="380.8" x2="1253.5" y2="380.8"/>
	<line class="st1" x1="150.5" y1="402.8" x2="1253.5" y2="402.8"/>
	<line class="st1" x1="150.5" y1="154.5" x2="150.5" y2="403"/>
	<g>
		<g>
			<path d="M127.9,279.2c2.3,1.5,4.1,3.8,5.6,6.1c1.5,2.4,2.6,5,3.6,7.6c1.9,5.3,3,10.7,3.7,16.2c0.6,5.5,0.8,11.1,0.7,16.5
				c-0.1,5.5-0.5,10.9-1,16.3c-0.9,10.8-2.1,21.4-1.4,31.8c0,1.3,0.2,2.6,0.4,3.9c0.1,0.6,0.1,1.3,0.2,1.9l0.3,1.9
				c0.4,2.6,1.1,5,1.9,7.4s1.8,4.8,2.9,7.3c1.1,2.4,2.3,4.9,3.3,7.4c-4.1-3.6-7.8-7.9-10.3-13.1c-1.2-2.5-2.2-5.3-2.8-8l-0.5-2
				c-0.2-0.7-0.3-1.4-0.4-2.1c-0.2-1.4-0.5-2.8-0.6-4.1c-1.5-11.1-0.6-22.2,0.2-32.9c0.4-5.4,0.9-10.7,1.1-16
				c0.1-2.6,0.2-5.3,0.2-7.9c0-1.3,0-2.6-0.1-3.9c0-1.3-0.1-2.6-0.2-3.9c-0.3-5.2-0.8-10.5-1.8-15.6c-0.5-2.6-1.1-5.1-1.9-7.6
				C130.5,284,129.5,281.5,127.9,279.2z"/>
		</g>
		<g>
			<path d="M127.9,279.5c1.6-2.3,2.6-4.7,3.4-7.2s1.4-5.1,1.9-7.6c1-5.1,1.4-10.4,1.8-15.6c0.1-1.3,0.1-2.6,0.2-3.9
				c0-1.3,0.1-2.6,0.1-3.9c0-2.6-0.1-5.3-0.2-7.9c-0.3-5.3-0.7-10.6-1.1-16c-0.8-10.7-1.7-21.8-0.2-32.9c0.1-1.4,0.4-2.8,0.6-4.1
				c0.1-0.7,0.2-1.4,0.4-2.1l0.5-2c0.6-2.7,1.5-5.5,2.8-8c2.5-5.1,6.1-9.4,10.3-13.1c-1,2.6-2.3,5-3.3,7.4c-1.1,2.4-2.1,4.8-2.9,7.3
				s-1.5,4.8-1.9,7.4l-0.3,1.9c-0.1,0.6-0.2,1.3-0.2,1.9c-0.1,1.3-0.3,2.6-0.4,3.9c-0.7,10.4,0.5,21,1.4,31.8
				c0.4,5.4,0.8,10.8,1,16.3c0.1,5.5-0.1,11-0.7,16.5c-0.6,5.5-1.7,11-3.7,16.2c-1,2.6-2.1,5.2-3.6,7.6
				C132,275.6,130.2,278,127.9,279.5z"/>
		</g>
	</g>
</g>
<g>
	<line class="st1" x1="150.5" y1="494.8" x2="1253.5" y2="494.8"/>
	<line class="st1" x1="150.5" y1="516.8" x2="1253.5" y2="516.8"/>
	<line class="st1" x1="150.5" y1="538.8" x2="1253.5" y2="538.8"/>
	<line class="st1" x1="150.5" y1="560.8" x2="1253.5" y2="560.8"/>
	<line class="st1" x1="150.5" y1="582.8" x2="1253.5" y2="582.8"/>
	<line class="st1" x1="150.5" y1="654.8" x2="1253.5" y2="654.8"/>
	<line class="st1" x1="150.5" y1="676.8" x2="1253.5" y2="676.8"/>
	<line class="st1" x1="150.5" y1="698.8" x2="1253.5" y2="698.8"/>
	<line class="st1" x1="150.5" y1="720.8" x2="1253.5" y2="720.8"/>
	<line class="st1" x1="150.5" y1="742.8" x2="1253.5" y2="742.8"/>
	<line class="st1" x1="150.5" y1="494.5" x2="150.5" y2="743"/>
	<g>
		<g>
			<path d="M127.9,619.2c2.3,1.5,4.1,3.8,5.6,6.1c1.5,2.4,2.6,5,3.6,7.6c1.9,5.3,3,10.7,3.7,16.2c0.6,5.5,0.8,11.1,0.7,16.5
				c-0.1,5.5-0.5,10.9-1,16.3c-0.9,10.8-2.1,21.4-1.4,31.8c0,1.3,0.2,2.6,0.4,3.9c0.1,0.6,0.1,1.3,0.2,1.9l0.3,1.9
				c0.4,2.6,1.1,5,1.9,7.4c0.8,2.4,1.8,4.8,2.9,7.3c1.1,2.4,2.3,4.9,3.3,7.4c-4.1-3.6-7.8-7.9-10.3-13.1c-1.2-2.5-2.2-5.3-2.8-8
				l-0.5-2c-0.2-0.7-0.3-1.4-0.4-2.1c-0.2-1.4-0.5-2.8-0.6-4.1c-1.5-11.1-0.6-22.2,0.2-32.9c0.4-5.4,0.9-10.7,1.1-16
				c0.1-2.6,0.2-5.3,0.2-7.9c0-1.3,0-2.6-0.1-3.9c0-1.3-0.1-2.6-0.2-3.9c-0.3-5.2-0.8-10.5-1.8-15.6c-0.5-2.6-1.1-5.1-1.9-7.6
				C130.5,624,129.5,621.5,127.9,619.2z"/>
		</g>
		<g>
			<path d="M127.9,619.5c1.6-2.3,2.6-4.7,3.4-7.2s1.4-5.1,1.9-7.6c1-5.1,1.4-10.4,1.8-15.6c0.1-1.3,0.1-2.6,0.2-3.9
				c0-1.3,0.1-2.6,0.1-3.9c0-2.6-0.1-5.3-0.2-7.9c-0.3-5.3-0.7-10.6-1.1-16c-0.8-10.7-1.7-21.8-0.2-32.9c0.1-1.4,0.4-2.8,0.6-4.1
				c0.1-0.7,0.2-1.4,0.4-2.1l0.5-2c0.6-2.7,1.5-5.5,2.8-8c2.5-5.1,6.1-9.4,10.3-13.1c-1,2.6-2.3,5-3.3,7.4c-1.1,2.4-2.1,4.8-2.9,7.3
				s-1.5,4.8-1.9,7.4l-0.3,1.9c-0.1,0.6-0.2,1.3-0.2,1.9c-0.1,1.3-0.3,2.6-0.4,3.9c-0.7,10.4,0.5,21,1.4,31.8
				c0.4,5.4,0.8,10.8,1,16.3c0.1,5.5-0.1,11-0.7,16.5c-0.6,5.5-1.7,11-3.7,16.2c-1,2.6-2.1,5.2-3.6,7.6
				C132,615.6,130.2,618,127.9,619.5z"/>
		</g>
	</g>
</g>
<g>
	<line class="st1" x1="150.5" y1="834.8" x2="1253.5" y2="834.8"/>
	<line class="st1" x1="150.5" y1="856.8" x2="1253.5" y2="856.8"/>
	<line class="st1" x1="150.5" y1="878.8" x2="1253.5" y2="878.8"/>
	<line class="st1" x1="150.5" y1="900.8" x2="1253.5" y2="900.8"/>
	<line class="st1" x1="150.5" y1="922.8" x2="1253.5" y2="922.8"/>
	<line class="st1" x1="150.5" y1="994.8" x2="1253.5" y2="994.8"/>
	<line class="st1" x1="150.5" y1="1016.8" x2="1253.5" y2="1016.8"/>
	<line class="st1" x1="150.5" y1="1038.8" x2="1253.5" y2="1038.8"/>
	<line class="st1" x1="150.5" y1="1060.8" x2="1253.5" y2="1060.8"/>
	<line class="st1" x1="150.5" y1="1082.8" x2="1253.5" y2="1082.8"/>
	<line class="st1" x1="150.5" y1="834.5" x2="150.5" y2="1083"/>
	<g>
		<g>
			<path d="M127.9,959.2c2.3,1.5,4.1,3.8,5.6,6.1c1.5,2.4,2.6,5,3.6,7.6c1.9,5.3,3,10.7,3.7,16.2c0.6,5.5,0.8,11.1,0.7,16.5
				c-0.1,5.5-0.5,10.9-1,16.3c-0.9,10.8-2.1,21.4-1.4,31.8c0,1.3,0.2,2.6,0.4,3.9c0.1,0.6,0.1,1.3,0.2,1.9l0.3,1.9
				c0.4,2.6,1.1,5,1.9,7.4s1.8,4.8,2.9,7.3c1.1,2.4,2.3,4.9,3.3,7.4c-4.1-3.6-7.8-7.9-10.3-13.1c-1.2-2.5-2.2-5.3-2.8-8l-0.5-2
				c-0.2-0.7-0.3-1.4-0.4-2.1c-0.2-1.4-0.5-2.8-0.6-4.1c-1.5-11.1-0.6-22.2,0.2-32.9c0.4-5.4,0.9-10.7,1.1-16
				c0.1-2.6,0.2-5.3,0.2-7.9c0-1.3,0-2.6-0.1-3.9c0-1.3-0.1-2.6-0.2-3.9c-0.3-5.2-0.8-10.5-1.8-15.6c-0.5-2.6-1.1-5.1-1.9-7.6
				C130.5,964,129.5,961.5,127.9,959.2z"/>
		</g>
		<g>
			<path d="M127.9,959.5c1.6-2.3,2.6-4.7,3.4-7.2s1.4-5.1,1.9-7.6c1-5.1,1.4-10.4,1.8-15.6c0.1-1.3,0.1-2.6,0.2-3.9
				c0-1.3,0.1-2.6,0.1-3.9c0-2.6-0.1-5.3-0.2-7.9c-0.3-5.3-0.7-10.6-1.1-16c-0.8-10.7-1.7-21.8-0.2-32.9c0.1-1.4,0.4-2.8,0.6-4.1
				c0.1-0.7,0.2-1.4,0.4-2.1l0.5-2c0.6-2.7,1.5-5.5,2.8-8c2.5-5.1,6.1-9.4,10.3-13.1c-1,2.6-2.3,5-3.3,7.4c-1.1,2.4-2.1,4.8-2.9,7.3
				s-1.5,4.8-1.9,7.4l-0.3,1.9c-0.1,0.6-0.2,1.3-0.2,1.9c-0.1,1.3-0.3,2.6-0.4,3.9c-0.7,10.4,0.5,21,1.4,31.8
				c0.4,5.4,0.8,10.8,1,16.3c0.1,5.5-0.1,11-0.7,16.5c-0.6,5.5-1.7,11-3.7,16.2c-1,2.6-2.1,5.2-3.6,7.6
				C132,955.6,130.2,958,127.9,959.5z"/>
		</g>
	</g>
</g>
<g>
	<line class="st1" x1="150.5" y1="1174.8" x2="1253.5" y2="1174.8"/>
	<line class="st1" x1="150.5" y1="1196.8" x2="1253.5" y2="1196.8"/>
	<line class="st1" x1="150.5" y1="1218.8" x2="1253.5" y2="1218.8"/>
	<line class="st1" x1="150.5" y1="1240.8" x2="1253.5" y2="1240.8"/>
	<line class="st1" x1="150.5" y1="1262.8" x2="1253.5" y2="1262.8"/>
	<line class="st1" x1="150.5" y1="1334.8" x2="1253.5" y2="1334.8"/>
	<line class="st1" x1="150.5" y1="1356.8" x2="1253.5" y2="1356.8"/>
	<line class="st1" x1="150.5" y1="1378.8" x2="1253.5" y2="1378.8"/>
	<line class="st1" x1="150.5" y1="1400.8" x2="1253.5" y2="1400.8"/>
	<line class="st1" x1="150.5" y1="1422.8" x2="1253.5" y2="1422.8"/>
	<line class="st1" x1="150.5" y1="1174.5" x2="150.5" y2="1423"/>
	<g>
		<g>
			<path d="M127.9,1299.2c2.3,1.5,4.1,3.8,5.6,6.1c1.5,2.4,2.6,5,3.6,7.6c1.9,5.3,3,10.7,3.7,16.2c0.6,5.5,0.8,11.1,0.7,16.5
				c-0.1,5.5-0.5,10.9-1,16.3c-0.9,10.8-2.1,21.4-1.4,31.8c0,1.3,0.2,2.6,0.4,3.9c0.1,0.6,0.1,1.3,0.2,1.9l0.3,1.9
				c0.4,2.6,1.1,5,1.9,7.4s1.8,4.8,2.9,7.3c1.1,2.4,2.3,4.9,3.3,7.4c-4.1-3.6-7.8-7.9-10.3-13.1c-1.2-2.5-2.2-5.3-2.8-8l-0.5-2
				c-0.2-0.7-0.3-1.4-0.4-2.1c-0.2-1.4-0.5-2.8-0.6-4.1c-1.5-11.1-0.6-22.2,0.2-32.9c0.4-5.4,0.9-10.7,1.1-16
				c0.1-2.6,0.2-5.3,0.2-7.9c0-1.3,0-2.6-0.1-3.9c0-1.3-0.1-2.6-0.2-3.9c-0.3-5.2-0.8-10.5-1.8-15.6c-0.5-2.6-1.1-5.1-1.9-7.6
				C130.5,1303.9,129.5,1301.4,127.9,1299.2z"/>
		</g>
		<g>
			<path d="M127.9,1299.4c1.6-2.3,2.6-4.7,3.4-7.2s1.4-5.1,1.9-7.6c1-5.1,1.4-10.4,1.8-15.6c0.1-1.3,0.1-2.6,0.2-3.9
				c0-1.3,0.1-2.6,0.1-3.9c0-2.6-0.1-5.3-0.2-7.9c-0.3-5.3-0.7-10.6-1.1-16c-0.8-10.7-1.7-21.8-0.2-32.9c0.1-1.4,0.4-2.8,0.6-4.1
				c0.1-0.7,0.2-1.4,0.4-2.1l0.5-2c0.6-2.7,1.5-5.5,2.8-8c2.5-5.1,6.1-9.4,10.3-13.1c-1,2.6-2.3,5-3.3,7.4c-1.1,2.4-2.1,4.8-2.9,7.3
				s-1.5,4.8-1.9,7.4l-0.3,1.9c-0.1,0.6-0.2,1.3-0.2,1.9c-0.1,1.3-0.3,2.6-0.4,3.9c-0.7,10.4,0.5,21,1.4,31.8
				c0.4,5.4,0.8,10.8,1,16.3c0.1,5.5-0.1,11-0.7,16.5c-0.6,5.5-1.7,11-3.7,16.2c-1,2.6-2.1,5.2-3.6,7.6
				C132,1295.7,130.2,1297.9,127.9,1299.4z"/>
		</g>
	</g>
</g>
<g>
	<line class="st1" x1="150.5" y1="1514.8" x2="1253.5" y2="1514.8"/>
	<line class="st1" x1="150.5" y1="1536.8" x2="1253.5" y2="1536.8"/>
	<line class="st1" x1="150.5" y1="1558.8" x2="1253.5" y2="1558.8"/>
	<line class="st1" x1="150.5" y1="1580.8" x2="1253.5" y2="1580.8"/>
	<line class="st1" x1="150.5" y1="1602.8" x2="1253.5" y2="1602.8"/>
	<line class="st1" x1="150.5" y1="1674.8" x2="1253.5" y2="1674.8"/>
	<line class="st1" x1="150.5" y1="1696.8" x2="1253.5" y2="1696.8"/>
	<line class="st1" x1="150.5" y1="1718.8" x2="1253.5" y2="1718.8"/>
	<line class="st1" x1="150.5" y1="1740.8" x2="1253.5" y2="1740.8"/>
	<line class="st1" x1="150.5" y1="1762.8" x2="1253.5" y2="1762.8"/>
	<line class="st1" x1="150.5" y1="1514.5" x2="150.5" y2="1763"/>
	<g>
		<g>
			<path d="M127.9,1639.2c2.3,1.5,4.1,3.8,5.6,6.1c1.5,2.4,2.6,5,3.6,7.6c1.9,5.3,3,10.7,3.7,16.2c0.6,5.5,0.8,11.1,0.7,16.5
				c-0.1,5.5-0.5,10.9-1,16.3c-0.9,10.8-2.1,21.4-1.4,31.8c0,1.3,0.2,2.6,0.4,3.9c0.1,0.6,0.1,1.3,0.2,1.9l0.3,1.9
				c0.4,2.6,1.1,5,1.9,7.4s1.8,4.8,2.9,7.3c1.1,2.4,2.3,4.9,3.3,7.4c-4.1-3.6-7.8-7.9-10.3-13.1c-1.2-2.5-2.2-5.3-2.8-8l-0.5-2
				c-0.2-0.7-0.3-1.4-0.4-2.1c-0.2-1.4-0.5-2.8-0.6-4.1c-1.5-11.1-0.6-22.2,0.2-32.9c0.4-5.4,0.9-10.7,1.1-16
				c0.1-2.6,0.2-5.3,0.2-7.9c0-1.3,0-2.6-0.1-3.9c0-1.3-0.1-2.6-0.2-3.9c-0.3-5.2-0.8-10.5-1.8-15.6c-0.5-2.6-1.1-5.1-1.9-7.6
				C130.5,1643.9,129.5,1641.4,127.9,1639.2z"/>
		</g>
		<g>
			<path d="M127.9,1639.4c1.6-2.3,2.6-4.7,3.4-7.2s1.4-5.1,1.9-7.6c1-5.1,1.4-10.4,1.8-15.6c0.1-1.3,0.1-2.6,0.2-3.9
				c0-1.3,0.1-2.6,0.1-3.9c0-2.6-0.1-5.3-0.2-7.9c-0.3-5.3-0.7-10.6-1.1-16c-0.8-10.7-1.7-21.8-0.2-32.9c0.1-1.4,0.4-2.8,0.6-4.1
				c0.1-0.7,0.2-1.4,0.4-2.1l0.5-2c0.6-2.7,1.5-5.5,2.8-8c2.5-5.1,6.1-9.4,10.3-13.1c-1,2.6-2.3,5-3.3,7.4c-1.1,2.4-2.1,4.8-2.9,7.3
				s-1.5,4.8-1.9,7.4l-0.3,1.9c-0.1,0.6-0.2,1.3-0.2,1.9c-0.1,1.3-0.3,2.6-0.4,3.9c-0.7,10.4,0.5,21,1.4,31.8
				c0.4,5.4,0.8,10.8,1,16.3c0.1,5.5-0.1,11-0.7,16.5c-0.6,5.5-1.7,11-3.7,16.2c-1,2.6-2.1,5.2-3.6,7.6
				C132,1635.7,130.2,1637.9,127.9,1639.4z"/>
		</g>
	</g>
</g>
</svg>
