<?xml version="1.0" encoding="utf-8"?>
<!-- Generator: Adobe Illustrator 24.1.3, SVG Export Plug-In . SVG Version: 6.00 Build 0)  -->
<svg version="1.1" id="Layer_1" xmlns="http://www.w3.org/2000/svg" xmlns:xlink="http://www.w3.org/1999/xlink" x="0px" y="0px"
	 viewBox="0 0 1404 1872" style="enable-background:new 0 0 1404 1872;" xml:space="preserve">
<style type="text/css">
	.st0{fill:#FFFFFF;}
	.st1{fill:none;stroke:#000000;stroke-width:0.5;stroke-miterlimit:10;}
</style>
<g id="White_BG">
	<rect y="0" class="st0" width="1404" height="1872"/>
</g>
<line class="st1" x1="150.5" y1="263.5" x2="1253.5" y2="263.5"/>
<line class="st1" x1="150.5" y1="236.5" x2="1253.5" y2="236.5"/>
<line class="st1" x1="150.5" y1="209.5" x2="1253.5" y2="209.5"/>
<line class="st1" x1="150.5" y1="182.5" x2="1253.5" y2="182.5"/>
<polyline class="st1" points="1253.5,458.5 150.5,458.5 150.5,155.5 1253.5,155.5 "/>
<line class="st1" x1="150.5" y1="431.5" x2="1253.5" y2="431.5"/>
<line class="st1" x1="150.5" y1="404.5" x2="1253.5" y2="404.5"/>
<line class="st1" x1="150.5" y1="377.5" x2="1253.5" y2="377.5"/>
<line class="st1" x1="150.5" y1="350.5" x2="1253.5" y2="350.5"/>
<g>
	<g>
		<path d="M128,306.9c2.5,2.2,4.3,5.1,5.8,8.1s2.6,6.1,3.5,9.3c1,3.2,1.7,6.4,2.3,9.7c0.6,3.3,1,6.5,1.3,9.8
			c0.5,6.6,0.7,13.2,0.6,19.7c-0.1,6.6-0.5,13.1-0.9,19.6s-1,12.9-1.3,19.3s-0.4,12.8-0.1,19.1l0.1,2.4l0.2,2.4l0.2,2.4
			c0.1,0.8,0.2,1.6,0.3,2.3c0.4,3.2,1,6.2,1.8,9.2s1.8,6,2.9,9c1.1,3,2.4,6,3.5,9.1c-4.3-4.9-8.1-10.5-10.5-16.8
			c-1.3-3.1-2.1-6.5-2.6-9.7c-0.2-0.8-0.3-1.6-0.5-2.5l-0.4-2.5l-0.4-2.5l-0.1-2.3c-0.7-6.6-0.8-13.2-0.7-19.8
			c0.1-6.6,0.5-13.1,0.9-19.5c0.4-6.5,0.8-12.9,1.1-19.3s0.2-12.8,0-19.2c-0.1-3.2-0.4-6.4-0.6-9.5c-0.3-3.2-0.6-6.3-1.1-9.5
			c-0.5-3.1-1-6.3-1.8-9.4C130.7,312.9,129.7,309.9,128,306.9z"/>
	</g>
	<g>
		<path d="M128,307.3c1.7-2.8,2.7-5.8,3.5-8.9s1.4-6.2,1.8-9.4c0.4-3.2,0.8-6.3,1.1-9.5c0.2-3.2,0.5-6.4,0.6-9.5
			c0.3-6.4,0.3-12.8,0-19.2c-0.3-6.4-0.7-12.8-1.1-19.3c-0.4-6.5-0.8-13-0.9-19.5c-0.2-6.6,0-13.2,0.7-19.8l0.2-2.5l0.4-2.5l0.4-2.5
			c0.1-0.8,0.3-1.6,0.5-2.5c0.6-3.2,1.4-6.6,2.6-9.7c2.4-6.3,6.2-11.9,10.5-16.8c-1.1,3.1-2.4,6.1-3.5,9.1s-2.1,6-2.9,9
			s-1.4,6-1.8,9.2c-0.1,0.8-0.2,1.6-0.3,2.3l-0.2,2.4l-0.2,2.4l-0.1,2.4c-0.3,6.3-0.2,12.7,0.1,19.1c0.3,6.4,0.9,12.8,1.3,19.3
			c0.4,6.5,0.8,13,0.9,19.6c0.1,6.6-0.1,13.2-0.6,19.7c-0.3,3.3-0.7,6.6-1.3,9.8c-0.6,3.3-1.3,6.5-2.3,9.7c-0.9,3.2-2.1,6.3-3.5,9.3
			C132.3,302.1,130.5,305,128,307.3z"/>
	</g>
</g>
<line class="st1" x1="150.5" y1="696.5" x2="1253.5" y2="696.5"/>
<line class="st1" x1="150.5" y1="669.5" x2="1253.5" y2="669.5"/>
<line class="st1" x1="150.5" y1="642.5" x2="1253.5" y2="642.5"/>
<line class="st1" x1="150.5" y1="615.5" x2="1253.5" y2="615.5"/>
<polyline class="st1" points="1253.5,891.5 150.5,891.5 150.5,588.5 1253.5,588.5 "/>
<line class="st1" x1="150.5" y1="864.5" x2="1253.5" y2="864.5"/>
<line class="st1" x1="150.5" y1="837.5" x2="1253.5" y2="837.5"/>
<line class="st1" x1="150.5" y1="810.5" x2="1253.5" y2="810.5"/>
<line class="st1" x1="150.5" y1="783.5" x2="1253.5" y2="783.5"/>
<g>
	<g>
		<path d="M128,739.9c2.5,2.2,4.3,5.1,5.8,8.1s2.6,6.1,3.5,9.3c1,3.2,1.7,6.4,2.3,9.7s1,6.5,1.3,9.8c0.5,6.6,0.7,13.2,0.6,19.7
			c-0.1,6.6-0.5,13.1-0.9,19.6s-1,12.9-1.3,19.3c-0.3,6.4-0.4,12.8-0.1,19.1l0.1,2.4l0.2,2.4l0.2,2.4c0.1,0.8,0.2,1.6,0.3,2.3
			c0.4,3.2,1,6.2,1.8,9.2s1.8,6,2.9,9c1.1,3,2.4,6,3.5,9.1c-4.3-4.9-8.1-10.5-10.5-16.8c-1.3-3.1-2.1-6.5-2.6-9.7
			c-0.2-0.8-0.3-1.6-0.5-2.5l-0.4-2.5l-0.4-2.5l-0.1-2.3c-0.7-6.6-0.8-13.2-0.7-19.8s0.5-13.1,0.9-19.5c0.4-6.5,0.8-12.9,1.1-19.3
			c0.3-6.4,0.2-12.8,0-19.2c-0.1-3.2-0.4-6.4-0.6-9.5c-0.3-3.2-0.6-6.3-1.1-9.5c-0.5-3.1-1-6.3-1.8-9.4
			C130.7,745.9,129.7,742.9,128,739.9z"/>
	</g>
	<g>
		<path d="M128,740.3c1.7-2.8,2.7-5.8,3.5-8.9s1.4-6.2,1.8-9.4c0.4-3.2,0.8-6.3,1.1-9.5c0.2-3.2,0.5-6.4,0.6-9.5
			c0.3-6.4,0.3-12.8,0-19.2s-0.7-12.8-1.1-19.3c-0.4-6.5-0.8-13-0.9-19.5c-0.2-6.6,0-13.2,0.7-19.8l0.2-2.5l0.4-2.5l0.4-2.5
			c0.1-0.8,0.3-1.6,0.5-2.5c0.6-3.2,1.4-6.6,2.6-9.7c2.4-6.3,6.2-11.9,10.5-16.8c-1.1,3.1-2.4,6.1-3.5,9.1s-2.1,6-2.9,9
			c-0.8,3-1.4,6-1.8,9.2c-0.1,0.8-0.2,1.6-0.3,2.3l-0.2,2.4l-0.2,2.4l-0.1,2.4c-0.3,6.3-0.2,12.7,0.1,19.1
			c0.3,6.4,0.9,12.8,1.3,19.3c0.4,6.5,0.8,13,0.9,19.6c0.1,6.6-0.1,13.2-0.6,19.7c-0.3,3.3-0.7,6.6-1.3,9.8
			c-0.6,3.3-1.3,6.5-2.3,9.7c-0.9,3.2-2.1,6.3-3.5,9.3C132.3,735.1,130.5,738,128,740.3z"/>
	</g>
</g>
<line class="st1" x1="150.5" y1="1129.5" x2="1253.5" y2="1129.5"/>
<line class="st1" x1="150.5" y1="1102.5" x2="1253.5" y2="1102.5"/>
<line class="st1" x1="150.5" y1="1075.5" x2="1253.5" y2="1075.5"/>
<line class="st1" x1="150.5" y1="1048.5" x2="1253.5" y2="1048.5"/>
<polyline class="st1" points="1253.5,1324.5 150.5,1324.5 150.5,1021.5 1253.5,1021.5 "/>
<line class="st1" x1="150.5" y1="1297.5" x2="1253.5" y2="1297.5"/>
<line class="st1" x1="150.5" y1="1270.5" x2="1253.5" y2="1270.5"/>
<line class="st1" x1="150.5" y1="1243.5" x2="1253.5" y2="1243.5"/>
<line class="st1" x1="150.5" y1="1216.5" x2="1253.5" y2="1216.5"/>
<g>
	<g>
		<path d="M128,1172.9c2.5,2.2,4.3,5.1,5.8,8.1s2.6,6.1,3.5,9.3c1,3.2,1.7,6.4,2.3,9.7s1,6.5,1.3,9.8c0.5,6.6,0.7,13.2,0.6,19.7
			c-0.1,6.6-0.5,13.1-0.9,19.6s-1,12.9-1.3,19.3s-0.4,12.8-0.1,19.1l0.1,2.4l0.2,2.4l0.2,2.4c0.1,0.8,0.2,1.6,0.3,2.3
			c0.4,3.2,1,6.2,1.8,9.2s1.8,6,2.9,9c1.1,3,2.4,6,3.5,9.1c-4.3-4.9-8.1-10.5-10.5-16.8c-1.3-3.1-2.1-6.5-2.6-9.7
			c-0.2-0.8-0.3-1.6-0.5-2.5l-0.4-2.5l-0.4-2.5l-0.1-2.3c-0.7-6.6-0.8-13.2-0.7-19.8c0.1-6.6,0.5-13.1,0.9-19.5
			c0.4-6.5,0.8-12.9,1.1-19.3s0.2-12.8,0-19.2c-0.1-3.2-0.4-6.4-0.6-9.5c-0.3-3.2-0.6-6.3-1.1-9.5c-0.5-3.1-1-6.3-1.8-9.4
			C130.7,1178.9,129.7,1175.9,128,1172.9z"/>
	</g>
	<g>
		<path d="M128,1173.3c1.7-2.8,2.7-5.8,3.5-8.9s1.4-6.2,1.8-9.4c0.4-3.2,0.8-6.3,1.1-9.5c0.2-3.2,0.5-6.4,0.6-9.5
			c0.3-6.4,0.3-12.8,0-19.2c-0.3-6.4-0.7-12.8-1.1-19.3c-0.4-6.5-0.8-13-0.9-19.5c-0.2-6.6,0-13.2,0.7-19.8l0.2-2.5l0.4-2.5l0.4-2.5
			c0.1-0.8,0.3-1.6,0.5-2.5c0.6-3.2,1.4-6.6,2.6-9.7c2.4-6.3,6.2-11.9,10.5-16.8c-1.1,3.1-2.4,6.1-3.5,9.1s-2.1,6-2.9,9
			c-0.8,3-1.4,6-1.8,9.2c-0.1,0.8-0.2,1.6-0.3,2.3l-0.2,2.4l-0.2,2.4l-0.1,2.4c-0.3,6.3-0.2,12.7,0.1,19.1s0.9,12.8,1.3,19.3
			c0.4,6.5,0.8,13,0.9,19.6c0.1,6.6-0.1,13.2-0.6,19.7c-0.3,3.3-0.7,6.6-1.3,9.8c-0.6,3.3-1.3,6.5-2.3,9.7c-0.9,3.2-2.1,6.3-3.5,9.3
			C132.3,1168.1,130.5,1171,128,1173.3z"/>
	</g>
</g>
<line class="st1" x1="150.5" y1="1562.5" x2="1253.5" y2="1562.5"/>
<line class="st1" x1="150.5" y1="1535.5" x2="1253.5" y2="1535.5"/>
<line class="st1" x1="150.5" y1="1508.5" x2="1253.5" y2="1508.5"/>
<line class="st1" x1="150.5" y1="1481.5" x2="1253.5" y2="1481.5"/>
<polyline class="st1" points="1253.5,1757.5 150.5,1757.5 150.5,1454.5 1253.5,1454.5 "/>
<line class="st1" x1="150.5" y1="1730.5" x2="1253.5" y2="1730.5"/>
<line class="st1" x1="150.5" y1="1703.5" x2="1253.5" y2="1703.5"/>
<line class="st1" x1="150.5" y1="1676.5" x2="1253.5" y2="1676.5"/>
<line class="st1" x1="150.5" y1="1649.5" x2="1253.5" y2="1649.5"/>
<g>
	<g>
		<path d="M128,1605.9c2.5,2.2,4.3,5.1,5.8,8.1s2.6,6.1,3.5,9.3c1,3.2,1.7,6.4,2.3,9.7s1,6.5,1.3,9.8c0.5,6.6,0.7,13.2,0.6,19.7
			c-0.1,6.6-0.5,13.1-0.9,19.6s-1,12.9-1.3,19.3s-0.4,12.8-0.1,19.1l0.1,2.4l0.2,2.4l0.2,2.4c0.1,0.8,0.2,1.6,0.3,2.3
			c0.4,3.2,1,6.2,1.8,9.2s1.8,6,2.9,9c1.1,3,2.4,6,3.5,9.1c-4.3-4.9-8.1-10.5-10.5-16.8c-1.3-3.1-2.1-6.5-2.6-9.7
			c-0.2-0.8-0.3-1.6-0.5-2.5l-0.4-2.5l-0.4-2.5l-0.1-2.3c-0.7-6.6-0.8-13.2-0.7-19.8c0.1-6.6,0.5-13.1,0.9-19.5
			c0.4-6.5,0.8-12.9,1.1-19.3s0.2-12.8,0-19.2c-0.1-3.2-0.4-6.4-0.6-9.5c-0.3-3.2-0.6-6.3-1.1-9.5c-0.5-3.1-1-6.3-1.8-9.4
			C130.7,1611.9,129.7,1608.9,128,1605.9z"/>
	</g>
	<g>
		<path d="M128,1606.3c1.7-2.8,2.7-5.8,3.5-8.9s1.4-6.2,1.8-9.4c0.4-3.2,0.8-6.3,1.1-9.5c0.2-3.2,0.5-6.4,0.6-9.5
			c0.3-6.4,0.3-12.8,0-19.2c-0.3-6.4-0.7-12.8-1.1-19.3c-0.4-6.5-0.8-13-0.9-19.5c-0.2-6.6,0-13.2,0.7-19.8l0.2-2.5l0.4-2.5l0.4-2.5
			c0.1-0.8,0.3-1.6,0.5-2.5c0.6-3.2,1.4-6.6,2.6-9.7c2.4-6.3,6.2-11.9,10.5-16.8c-1.1,3.1-2.4,6.1-3.5,9.1s-2.1,6-2.9,9
			c-0.8,3-1.4,6-1.8,9.2c-0.1,0.8-0.2,1.6-0.3,2.3l-0.2,2.4l-0.2,2.4l-0.1,2.4c-0.3,6.3-0.2,12.7,0.1,19.1s0.9,12.8,1.3,19.3
			c0.4,6.5,0.8,13,0.9,19.6c0.1,6.6-0.1,13.2-0.6,19.7c-0.3,3.3-0.7,6.6-1.3,9.8c-0.6,3.3-1.3,6.5-2.3,9.7c-0.9,3.2-2.1,6.3-3.5,9.3
			C132.3,1601.1,130.5,1604,128,1606.3z"/>
	</g>
</g>
</svg>
