<?xml version="1.0" encoding="utf-8"?>
<!-- Generator: Adobe Illustrator 24.1.3, SVG Export Plug-In . SVG Version: 6.00 Build 0)  -->
<svg version="1.1" id="Layer_1" xmlns="http://www.w3.org/2000/svg" xmlns:xlink="http://www.w3.org/1999/xlink" x="0px" y="0px"
	 viewBox="0 0 1404 1872" style="enable-background:new 0 0 1404 1872;" xml:space="preserve">
<style type="text/css">
	.st0{fill:#FFFFFF;}
	.st1{fill:none;stroke:#000000;stroke-width:0.5;stroke-miterlimit:10;}
</style>
<g id="White_BG">
	<rect y="0" class="st0" width="1404" height="1872"/>
</g>
<line class="st1" x1="150.5" y1="438.5" x2="1253.5" y2="438.5"/>
<line class="st1" x1="150.5" y1="226.5" x2="1253.5" y2="226.5"/>
<line class="st1" x1="150.5" y1="208.5" x2="1253.5" y2="208.5"/>
<line class="st1" x1="150.5" y1="190.5" x2="1253.5" y2="190.5"/>
<line class="st1" x1="150.5" y1="172.5" x2="1253.5" y2="172.5"/>
<polyline class="st1" points="1253.5,154.5 150.5,154.5 150.5,358.5 1253.5,358.5 "/>
<line class="st1" x1="150.5" y1="340.5" x2="1253.5" y2="340.5"/>
<line class="st1" x1="150.5" y1="322.5" x2="1253.5" y2="322.5"/>
<line class="st1" x1="150.5" y1="304.5" x2="1253.5" y2="304.5"/>
<line class="st1" x1="150.5" y1="286.5" x2="1253.5" y2="286.5"/>
<line class="st1" x1="150.5" y1="510.5" x2="1253.5" y2="510.5"/>
<line class="st1" x1="150.5" y1="492.5" x2="1253.5" y2="492.5"/>
<line class="st1" x1="150.5" y1="474.5" x2="1253.5" y2="474.5"/>
<line class="st1" x1="150.5" y1="456.5" x2="1253.5" y2="456.5"/>
<polyline class="st1" points="1253.5,438.5 150.5,438.5 150.5,642.5 1253.5,642.5 "/>
<line class="st1" x1="150.5" y1="624.5" x2="1253.5" y2="624.5"/>
<line class="st1" x1="150.5" y1="606.5" x2="1253.5" y2="606.5"/>
<line class="st1" x1="150.5" y1="588.5" x2="1253.5" y2="588.5"/>
<line class="st1" x1="150.5" y1="570.5" x2="1253.5" y2="570.5"/>
<line class="st1" x1="150.5" y1="794.5" x2="1253.5" y2="794.5"/>
<line class="st1" x1="150.5" y1="776.5" x2="1253.5" y2="776.5"/>
<line class="st1" x1="150.5" y1="758.5" x2="1253.5" y2="758.5"/>
<line class="st1" x1="150.5" y1="740.5" x2="1253.5" y2="740.5"/>
<polyline class="st1" points="1253.5,722.5 150.5,722.5 150.5,926.5 1253.5,926.5 "/>
<line class="st1" x1="150.5" y1="908.5" x2="1253.5" y2="908.5"/>
<line class="st1" x1="150.5" y1="890.5" x2="1253.5" y2="890.5"/>
<line class="st1" x1="150.5" y1="872.5" x2="1253.5" y2="872.5"/>
<line class="st1" x1="150.5" y1="854.5" x2="1253.5" y2="854.5"/>
<line class="st1" x1="150.5" y1="1078.5" x2="1253.5" y2="1078.5"/>
<line class="st1" x1="150.5" y1="1060.5" x2="1253.5" y2="1060.5"/>
<line class="st1" x1="150.5" y1="1042.5" x2="1253.5" y2="1042.5"/>
<line class="st1" x1="150.5" y1="1024.5" x2="1253.5" y2="1024.5"/>
<polyline class="st1" points="1253.5,1006.5 150.5,1006.5 150.5,1210.5 1253.5,1210.5 "/>
<line class="st1" x1="150.5" y1="1192.5" x2="1253.5" y2="1192.5"/>
<line class="st1" x1="150.5" y1="1174.5" x2="1253.5" y2="1174.5"/>
<line class="st1" x1="150.5" y1="1156.5" x2="1253.5" y2="1156.5"/>
<line class="st1" x1="150.5" y1="1138.5" x2="1253.5" y2="1138.5"/>
<line class="st1" x1="150.5" y1="1362.5" x2="1253.5" y2="1362.5"/>
<line class="st1" x1="150.5" y1="1344.5" x2="1253.5" y2="1344.5"/>
<line class="st1" x1="150.5" y1="1326.5" x2="1253.5" y2="1326.5"/>
<line class="st1" x1="150.5" y1="1308.5" x2="1253.5" y2="1308.5"/>
<polyline class="st1" points="1253.5,1290.5 150.5,1290.5 150.5,1494.5 1253.5,1494.5 "/>
<line class="st1" x1="150.5" y1="1476.5" x2="1253.5" y2="1476.5"/>
<line class="st1" x1="150.5" y1="1458.5" x2="1253.5" y2="1458.5"/>
<line class="st1" x1="150.5" y1="1440.5" x2="1253.5" y2="1440.5"/>
<line class="st1" x1="150.5" y1="1422.5" x2="1253.5" y2="1422.5"/>
<line class="st1" x1="150.5" y1="1646.5" x2="1253.5" y2="1646.5"/>
<line class="st1" x1="150.5" y1="1628.5" x2="1253.5" y2="1628.5"/>
<line class="st1" x1="150.5" y1="1610.5" x2="1253.5" y2="1610.5"/>
<line class="st1" x1="150.5" y1="1592.5" x2="1253.5" y2="1592.5"/>
<polyline class="st1" points="1253.5,1574.5 150.5,1574.5 150.5,1778.5 1253.5,1778.5 "/>
<line class="st1" x1="150.5" y1="1760.5" x2="1253.5" y2="1760.5"/>
<line class="st1" x1="150.5" y1="1742.5" x2="1253.5" y2="1742.5"/>
<line class="st1" x1="150.5" y1="1724.5" x2="1253.5" y2="1724.5"/>
<line class="st1" x1="150.5" y1="1706.5" x2="1253.5" y2="1706.5"/>
<g>
	<path d="M128,256.5c2.1,1,3.9,2.7,5.4,4.5c1.5,1.9,2.7,3.9,3.7,6.1c2,4.3,3.1,8.9,3.8,13.6c0.6,4.7,0.8,9.3,0.7,14
		c-0.1,4.6-0.5,9.2-1,13.7c-0.9,9-2.1,17.6-1.3,26.2c0.2,2.1,0.5,4.2,1,6.3c0.4,2.1,1.1,4,1.9,5.9c0.8,1.9,1.8,3.9,2.9,5.8
		c1,2,2.2,3.9,3.2,6.1c-3.9-2.6-7.3-5.8-9.9-9.9c-1.3-2-2.3-4.3-2.9-6.6c-0.7-2.3-1.2-4.6-1.6-6.9c-0.8-4.7-1-9.4-0.8-14
		c0.1-4.6,0.5-9.2,1-13.7c0.4-4.5,0.9-8.9,1.1-13.3c0.3-4.4,0.3-8.7,0-13.1c-0.3-4.3-0.9-8.6-1.8-12.9
		C132.2,264.3,130.9,260.2,128,256.5z"/>
	<path d="M128,256.5c2.9-3.6,4.2-7.8,5.2-12s1.5-8.5,1.8-12.8s0.3-8.7,0-13c-0.3-4.4-0.7-8.8-1.1-13.2s-0.8-9-1-13.6
		c-0.1-4.6,0.1-9.3,0.8-13.9c0.4-2.3,0.9-4.7,1.6-6.9c0.6-2.3,1.7-4.6,2.9-6.6c2.6-4.1,6.1-7.3,9.9-9.9c-1,2.1-2.2,4.1-3.2,6.1
		c-1.1,2-2,3.9-2.9,5.8c-0.8,2-1.5,3.9-1.9,5.9c-0.5,2.1-0.8,4.2-1,6.3c-0.8,8.6,0.4,17.2,1.3,26.2c0.5,4.5,0.9,9.1,1,13.6
		s-0.1,9.3-0.7,13.9c-0.7,4.6-1.8,9.2-3.8,13.5c-1,2.2-2.2,4.2-3.7,6.1C131.9,253.8,130.1,255.5,128,256.5z"/>
</g>
<g>
	<path d="M128,540.5c2.1,1,3.9,2.7,5.4,4.5c1.5,1.9,2.7,3.9,3.7,6.1c2,4.3,3.1,8.9,3.8,13.6c0.6,4.7,0.8,9.3,0.7,14
		c-0.1,4.6-0.5,9.2-1,13.7c-0.9,9-2.1,17.6-1.3,26.2c0.2,2.1,0.5,4.2,1,6.3c0.4,2.1,1.1,4,1.9,5.9c0.8,1.9,1.8,3.9,2.9,5.8
		c1,2,2.2,3.9,3.2,6.1c-3.9-2.6-7.3-5.8-9.9-9.9c-1.3-2-2.3-4.3-2.9-6.6c-0.7-2.3-1.2-4.6-1.6-6.9c-0.8-4.7-1-9.4-0.8-14
		c0.1-4.6,0.5-9.2,1-13.7c0.4-4.5,0.9-8.9,1.1-13.3c0.3-4.4,0.3-8.7,0-13.1c-0.3-4.3-0.9-8.6-1.8-12.9
		C132.2,548.3,130.9,544.2,128,540.5z"/>
	<path d="M128,540.5c2.9-3.6,4.2-7.8,5.2-12s1.5-8.5,1.8-12.8s0.3-8.7,0-13c-0.3-4.4-0.7-8.8-1.1-13.2s-0.8-9-1-13.6
		c-0.1-4.6,0.1-9.3,0.8-13.9c0.4-2.3,0.9-4.7,1.6-6.9c0.6-2.3,1.7-4.6,2.9-6.6c2.6-4.1,6.1-7.3,9.9-9.9c-1,2.1-2.2,4.1-3.2,6.1
		c-1.1,2-2,3.9-2.9,5.8c-0.8,2-1.5,3.9-1.9,5.9c-0.5,2.1-0.8,4.2-1,6.3c-0.8,8.6,0.4,17.2,1.3,26.2c0.5,4.5,0.9,9.1,1,13.6
		s-0.1,9.3-0.7,13.9c-0.7,4.6-1.8,9.2-3.8,13.5c-1,2.2-2.2,4.2-3.7,6.1C131.9,537.8,130.1,539.5,128,540.5z"/>
</g>
<g>
	<path d="M128,824.5c2.1,1,3.9,2.7,5.4,4.5c1.5,1.9,2.7,3.9,3.7,6.1c2,4.3,3.1,8.9,3.8,13.6c0.6,4.7,0.8,9.3,0.7,14
		c-0.1,4.6-0.5,9.2-1,13.7c-0.9,9-2.1,17.6-1.3,26.2c0.2,2.1,0.5,4.2,1,6.3c0.4,2.1,1.1,4,1.9,5.9c0.8,1.9,1.8,3.9,2.9,5.8
		c1,2,2.2,3.9,3.2,6.1c-3.9-2.6-7.3-5.8-9.9-9.9c-1.3-2-2.3-4.3-2.9-6.6c-0.7-2.3-1.2-4.6-1.6-6.9c-0.8-4.7-1-9.4-0.8-14
		c0.1-4.6,0.5-9.2,1-13.7c0.4-4.5,0.9-8.9,1.1-13.3c0.3-4.4,0.3-8.7,0-13.1c-0.3-4.3-0.9-8.6-1.8-12.9
		C132.2,832.3,130.9,828.2,128,824.5z"/>
	<path d="M128,824.5c2.9-3.6,4.2-7.8,5.2-12s1.5-8.5,1.8-12.8s0.3-8.7,0-13c-0.3-4.4-0.7-8.8-1.1-13.2s-0.8-9-1-13.6
		c-0.1-4.6,0.1-9.3,0.8-13.9c0.4-2.3,0.9-4.7,1.6-6.9c0.6-2.3,1.7-4.6,2.9-6.6c2.6-4.1,6.1-7.3,9.9-9.9c-1,2.1-2.2,4.1-3.2,6.1
		c-1.1,2-2,3.9-2.9,5.8c-0.8,2-1.5,3.9-1.9,5.9c-0.5,2.1-0.8,4.2-1,6.3c-0.8,8.6,0.4,17.2,1.3,26.2c0.5,4.5,0.9,9.1,1,13.6
		s-0.1,9.3-0.7,13.9c-0.7,4.6-1.8,9.2-3.8,13.5c-1,2.2-2.2,4.2-3.7,6.1C131.9,821.8,130.1,823.5,128,824.5z"/>
</g>
<g>
	<path d="M128,1108.5c2.1,1,3.9,2.7,5.4,4.5c1.5,1.9,2.7,3.9,3.7,6.1c2,4.3,3.1,8.9,3.8,13.6c0.6,4.7,0.8,9.3,0.7,14
		c-0.1,4.6-0.5,9.2-1,13.7c-0.9,9-2.1,17.6-1.3,26.2c0.2,2.1,0.5,4.2,1,6.3c0.4,2.1,1.1,4,1.9,5.9c0.8,1.9,1.8,3.9,2.9,5.8
		c1,2,2.2,3.9,3.2,6.1c-3.9-2.6-7.3-5.8-9.9-9.9c-1.3-2-2.3-4.3-2.9-6.6c-0.7-2.3-1.2-4.6-1.6-6.9c-0.8-4.7-1-9.4-0.8-14
		c0.1-4.6,0.5-9.2,1-13.7c0.4-4.5,0.9-8.9,1.1-13.3c0.3-4.4,0.3-8.7,0-13.1c-0.3-4.3-0.9-8.6-1.8-12.9
		C132.2,1116.3,130.9,1112.2,128,1108.5z"/>
	<path d="M128,1108.5c2.9-3.6,4.2-7.8,5.2-12s1.5-8.5,1.8-12.8s0.3-8.7,0-13c-0.3-4.4-0.7-8.8-1.1-13.2s-0.8-9-1-13.6
		c-0.1-4.6,0.1-9.3,0.8-13.9c0.4-2.3,0.9-4.7,1.6-6.9c0.6-2.3,1.7-4.6,2.9-6.6c2.6-4.1,6.1-7.3,9.9-9.9c-1,2.1-2.2,4.1-3.2,6.1
		c-1.1,2-2,3.9-2.9,5.8c-0.8,2-1.5,3.9-1.9,5.9c-0.5,2.1-0.8,4.2-1,6.3c-0.8,8.6,0.4,17.2,1.3,26.2c0.5,4.5,0.9,9.1,1,13.6
		s-0.1,9.3-0.7,13.9c-0.7,4.6-1.8,9.2-3.8,13.5c-1,2.2-2.2,4.2-3.7,6.1C131.9,1105.8,130.1,1107.5,128,1108.5z"/>
</g>
<g>
	<path d="M128,1392.5c2.1,1,3.9,2.7,5.4,4.5c1.5,1.9,2.7,3.9,3.7,6.1c2,4.3,3.1,8.9,3.8,13.6c0.6,4.7,0.8,9.3,0.7,14
		c-0.1,4.6-0.5,9.2-1,13.7c-0.9,9-2.1,17.6-1.3,26.2c0.2,2.1,0.5,4.2,1,6.3c0.4,2.1,1.1,4,1.9,5.9c0.8,1.9,1.8,3.9,2.9,5.8
		c1,2,2.2,3.9,3.2,6.1c-3.9-2.6-7.3-5.8-9.9-9.9c-1.3-2-2.3-4.3-2.9-6.6c-0.7-2.3-1.2-4.6-1.6-6.9c-0.8-4.7-1-9.4-0.8-14
		c0.1-4.6,0.5-9.2,1-13.7c0.4-4.5,0.9-8.9,1.1-13.3c0.3-4.4,0.3-8.7,0-13.1c-0.3-4.3-0.9-8.6-1.8-12.9
		C132.2,1400.3,130.9,1396.2,128,1392.5z"/>
	<path d="M128,1392.5c2.9-3.6,4.2-7.8,5.2-12s1.5-8.5,1.8-12.8s0.3-8.7,0-13c-0.3-4.4-0.7-8.8-1.1-13.2s-0.8-9-1-13.6
		c-0.1-4.6,0.1-9.3,0.8-13.9c0.4-2.3,0.9-4.7,1.6-6.9c0.6-2.3,1.7-4.6,2.9-6.6c2.6-4.1,6.1-7.3,9.9-9.9c-1,2.1-2.2,4.1-3.2,6.1
		c-1.1,2-2,3.9-2.9,5.8c-0.8,2-1.5,3.9-1.9,5.9c-0.5,2.1-0.8,4.2-1,6.3c-0.8,8.6,0.4,17.2,1.3,26.2c0.5,4.5,0.9,9.1,1,13.6
		s-0.1,9.3-0.7,13.9c-0.7,4.6-1.8,9.2-3.8,13.5c-1,2.2-2.2,4.2-3.7,6.1C131.9,1389.8,130.1,1391.5,128,1392.5z"/>
</g>
<g>
	<path d="M128,1676.5c2.1,1,3.9,2.7,5.4,4.5c1.5,1.9,2.7,3.9,3.7,6.1c2,4.3,3.1,8.9,3.8,13.6c0.6,4.7,0.8,9.3,0.7,14
		c-0.1,4.6-0.5,9.2-1,13.7c-0.9,9-2.1,17.6-1.3,26.2c0.2,2.1,0.5,4.2,1,6.3c0.4,2.1,1.1,4,1.9,5.9c0.8,1.9,1.8,3.9,2.9,5.8
		c1,2,2.2,3.9,3.2,6.1c-3.9-2.6-7.3-5.8-9.9-9.9c-1.3-2-2.3-4.3-2.9-6.6c-0.7-2.3-1.2-4.6-1.6-6.9c-0.8-4.7-1-9.4-0.8-14
		c0.1-4.6,0.5-9.2,1-13.7c0.4-4.5,0.9-8.9,1.1-13.3c0.3-4.4,0.3-8.7,0-13.1c-0.3-4.3-0.9-8.6-1.8-12.9
		C132.2,1684.3,130.9,1680.2,128,1676.5z"/>
	<path d="M128,1676.5c2.9-3.6,4.2-7.8,5.2-12s1.5-8.5,1.8-12.8s0.3-8.7,0-13c-0.3-4.4-0.7-8.8-1.1-13.2s-0.8-9-1-13.6
		c-0.1-4.6,0.1-9.3,0.8-13.9c0.4-2.3,0.9-4.7,1.6-6.9c0.6-2.3,1.7-4.6,2.9-6.6c2.6-4.1,6.1-7.3,9.9-9.9c-1,2.1-2.2,4.1-3.2,6.1
		c-1.1,2-2,3.9-2.9,5.8c-0.8,2-1.5,3.9-1.9,5.9c-0.5,2.1-0.8,4.2-1,6.3c-0.8,8.6,0.4,17.2,1.3,26.2c0.5,4.5,0.9,9.1,1,13.6
		s-0.1,9.3-0.7,13.9c-0.7,4.6-1.8,9.2-3.8,13.5c-1,2.2-2.2,4.2-3.7,6.1C131.9,1673.8,130.1,1675.5,128,1676.5z"/>
</g>
</svg>
