<?xml version="1.0" encoding="utf-8"?>
<!-- Generator: Adobe Illustrator 22.1.0, SVG Export Plug-In . SVG Version: 6.00 Build 0)  -->
<svg version="1.1" id="Layer_1" xmlns="http://www.w3.org/2000/svg" xmlns:xlink="http://www.w3.org/1999/xlink" x="0px" y="0px"
	 viewBox="0 0 1404 1872" style="enable-background:new 0 0 1404 1872;" xml:space="preserve">
<style type="text/css">
	.st0{fill:#FFFFFF;}
	.st1{fill:none;stroke:#000000;stroke-width:0.5;stroke-miterlimit:10;}
</style>
<rect y="0" class="st0" width="1404" height="1872"/>
<path class="st1" d="M1,146.5h1403"/>
<path class="st1" d="M702.5,224v1648"/>
<path class="st1" d="M1053.5,1295v577"/>
<path d="M630,93.5l11.9-38.2h0.1l12.1,38.2h8.1l9.4-50.4h-7.2l-7.2,38.5H657l-12.2-38.5h-5.5l-12.2,38.5h-0.1l-7.2-38.5h-7.3
	l9.4,50.4H630z"/>
<path d="M702.5,83.6c-0.4,0.5-1,1.2-1.9,2.1c-0.9,0.9-1.9,1.6-3.2,2c-1.2,0.4-2.6,0.6-4.2,0.6c-3.4,0-5.9-1.1-7.7-3.3
	s-2.7-5.1-2.8-8.5h27.6v-2.1c0-6.2-1.6-11.1-4.8-14.7c-3.2-3.6-7.4-5.4-12.5-5.4c-5.1,0-9.3,1.8-12.6,5.5c-3.3,3.7-4.9,8.6-4.9,14.7
	c0,6.1,1.7,11,5,14.7s7.6,5.5,12.9,5.5c3.8,0,7-0.9,9.6-2.6c2.6-1.8,4.7-4,6.2-6.7l-5.3-4C703.4,82.3,702.9,83.1,702.5,83.6z
	 M685.5,63.8c1.8-2.2,4.3-3.3,7.5-3.3c3.4,0,5.9,1,7.6,3.1c1.7,2,2.6,4.5,2.7,7.4h-20.6C682.8,68.4,683.8,66,685.5,63.8z"/>
<path d="M743.8,83.6c-0.4,0.5-1,1.2-1.9,2.1c-0.9,0.9-1.9,1.6-3.2,2c-1.2,0.4-2.6,0.6-4.2,0.6c-3.4,0-5.9-1.1-7.7-3.3
	c-1.8-2.2-2.8-5.1-2.8-8.5h27.6v-2.1c0-6.2-1.6-11.1-4.8-14.7c-3.2-3.6-7.4-5.4-12.5-5.4c-5.1,0-9.3,1.8-12.6,5.5
	c-3.3,3.7-4.9,8.6-4.9,14.7c0,6.1,1.7,11,5,14.7c3.3,3.7,7.6,5.5,12.9,5.5c3.8,0,7-0.9,9.6-2.6c2.6-1.8,4.7-4,6.2-6.7l-5.3-4
	C744.7,82.3,744.2,83.1,743.8,83.6z M726.8,63.8c1.8-2.2,4.3-3.3,7.5-3.3c3.4,0,5.9,1,7.6,3.1c1.7,2,2.6,4.5,2.7,7.4H724
	C724.1,68.4,725,66,726.8,63.8z"/>
<path d="M767.6,93.5V80.6l5.4-5.8h0.1l12.6,18.7h8.1l-15.4-22.9l13.8-15.3h-9.1l-15.4,16.9h-0.1V41h-7v52.6H767.6z"/>
<path d="M35.8,193.5l4-12.7h0l4,12.7h2.7l3.1-16.8h-2.4l-2.4,12.8h0l-4.1-12.8h-1.9l-4.1,12.8h0l-2.4-12.8H30l3.1,16.8H35.8z"/>
<path d="M63.1,193.5v-2.2h-7.9v-5.4h7.2v-2.1h-7.2v-4.9h7.9v-2.2H52.8v16.8H63.1z"/>
<path d="M77.1,193.5v-2.2h-7.9v-5.4h7.2v-2.1h-7.2v-4.9h7.9v-2.2H66.8v16.8H77.1z"/>
<path d="M83,193.5v-5.6l1.7-2.1h0l5.6,7.7h2.9l-6.9-9.4l6.2-7.4h-3l-6.5,7.8H83v-7.8h-2.4v16.8H83z"/>
<path d="M103.3,193.5V181h0l7.3,12.5h2.4v-16.8h-2.4v12.5h-0.1l-7.2-12.5h-2.5v16.8H103.3z"/>
<path d="M118.6,192.4c1.1,1,2.6,1.5,4.5,1.5c1.9,0,3.4-0.5,4.5-1.5c1.1-1,1.6-2.4,1.6-4.3v-11.3h-2.4v11.2c0,1.2-0.3,2.1-0.9,2.7
	s-1.5,0.9-2.8,0.9c-1.2,0-2.1-0.3-2.8-1s-0.9-1.6-0.9-2.8v-11.2H117V188C117,189.9,117.6,191.4,118.6,192.4z"/>
<path d="M135.6,193.5v-12.8h0l5.4,12.8h0.6l5.4-12.8h0.1v12.8h2.4v-16.8h-3l-5.1,12.2h0l-5.1-12.2h-3v16.8H135.6z"/>
<path d="M160,193.5c4,0,6-1.7,6-5c0-1-0.3-1.9-0.8-2.6c-0.5-0.7-1.2-1.2-1.9-1.4v-0.1c1.4-0.7,2.1-1.8,2.1-3.3
	c0-1.3-0.4-2.3-1.3-3.2c-0.9-0.8-2.1-1.3-3.6-1.3h-6.7v16.8H160z M156.2,178.9h3.9c0.9,0,1.6,0.2,2.2,0.6c0.5,0.4,0.8,1,0.8,1.8
	c0,1.6-1,2.4-2.9,2.4h-3.9V178.9z M156.2,185.7h3.4c1.4,0,2.4,0.2,3,0.6s1,1.1,1,2.1c0,1.1-0.3,1.8-1,2.2s-1.7,0.6-3,0.6h-3.4V185.7
	z"/>
<path d="M179.7,193.5v-2.2h-7.9v-5.4h7.2v-2.1h-7.2v-4.9h7.9v-2.2h-10.3v16.8H179.7z"/>
<path d="M185.8,193.5v-6.6h3.4l3.6,6.6h2.6l-3.7-6.8c1.3-0.3,2.3-0.8,2.9-1.6c0.7-0.8,1-1.9,1-3.3c0-1.6-0.5-2.9-1.5-3.8
	c-1-0.9-2.4-1.3-4.1-1.3h-6.6v16.8H185.8z M185.8,178.9h4c2.3,0,3.5,1,3.5,2.9c0,1-0.3,1.7-0.9,2.2c-0.6,0.5-1.5,0.7-2.5,0.7h-4
	V178.9z"/>
<path d="M201.8,190.5h-3v3h3V190.5z M201.8,180.8h-3v3h3V180.8z"/>
<path class="st1" d="M1,847.5h1403"/>
<path class="st1" d="M1,758.5h1403"/>
<path d="M272,815.1l5.4-17.5h0.1l5.5,17.5h3.7l4.3-23.1h-3.3l-3.3,17.7h-0.1l-5.6-17.7h-2.5l-5.6,17.7h-0.1l-3.3-17.7h-3.4l4.3,23.1
	H272z"/>
<path d="M305.3,810.5c-0.2,0.2-0.5,0.6-0.9,1s-0.9,0.7-1.4,0.9c-0.6,0.2-1.2,0.3-1.9,0.3c-1.5,0-2.7-0.5-3.5-1.5s-1.3-2.3-1.3-3.9
	h12.7v-1c0-2.8-0.7-5.1-2.2-6.8c-1.5-1.7-3.4-2.5-5.7-2.5s-4.3,0.8-5.8,2.5c-1.5,1.7-2.3,3.9-2.3,6.7s0.8,5,2.3,6.7s3.5,2.5,5.9,2.5
	c1.7,0,3.2-0.4,4.4-1.2s2.2-1.8,2.8-3.1l-2.4-1.8C305.7,809.9,305.4,810.3,305.3,810.5z M297.5,801.4c0.8-1,2-1.5,3.4-1.5
	c1.5,0,2.7,0.5,3.5,1.4c0.8,0.9,1.2,2.1,1.3,3.4h-9.4C296.2,803.5,296.7,802.4,297.5,801.4z"/>
<path d="M322.9,811.5c-0.8,0.8-1.8,1.1-3.1,1.1c-1.6,0-2.8-0.6-3.6-1.6c-0.8-1.1-1.3-2.7-1.3-4.7s0.4-3.6,1.3-4.7
	c0.8-1.1,2.1-1.6,3.6-1.6c1.3,0,2.3,0.4,3.1,1.3s1.2,1.8,1.2,2.9v4.7C324.1,809.9,323.7,810.7,322.9,811.5z M327.3,815.1V791h-3.2
	v8.3h-0.1c-1.3-1.5-2.8-2.2-4.7-2.2c-2.1,0-3.9,0.8-5.4,2.5c-1.5,1.7-2.2,3.9-2.2,6.7c0,2.8,0.7,5.1,2.1,6.7s3.2,2.5,5.5,2.5
	c2,0,3.7-0.7,4.9-2.2h0.1v1.7H327.3z"/>
<path d="M335.8,815.1v-11c0-1.3,0.4-2.2,1.1-3c0.8-0.7,1.8-1.1,3-1.1c2.5,0,3.7,1.5,3.7,4.5v10.5h3.2v-11.5c0-2-0.6-3.6-1.7-4.8
	c-1.1-1.2-2.7-1.8-4.6-1.8c-1,0-1.9,0.2-2.8,0.6s-1.6,0.9-2,1.6h-0.1v-1.7h-3.1v17.5H335.8z"/>
<path d="M363.2,810.5c-0.2,0.2-0.5,0.6-0.9,1s-0.9,0.7-1.4,0.9c-0.6,0.2-1.2,0.3-1.9,0.3c-1.5,0-2.7-0.5-3.5-1.5
	c-0.8-1-1.3-2.3-1.3-3.9h12.7v-1c0-2.8-0.7-5.1-2.2-6.8c-1.5-1.7-3.4-2.5-5.7-2.5s-4.3,0.8-5.8,2.5c-1.5,1.7-2.3,3.9-2.3,6.7
	s0.8,5,2.3,6.7s3.5,2.5,5.9,2.5c1.7,0,3.2-0.4,4.4-1.2c1.2-0.8,2.2-1.8,2.8-3.1l-2.4-1.8C363.6,809.9,363.4,810.3,363.2,810.5z
	 M355.5,801.4c0.8-1,2-1.5,3.4-1.5c1.5,0,2.7,0.5,3.5,1.4c0.8,0.9,1.2,2.1,1.3,3.4h-9.4C354.2,803.5,354.6,802.4,355.5,801.4z"/>
<path d="M371.8,813.7c1.3,1.2,3.1,1.8,5.4,1.8c2.3,0,4-0.5,5.1-1.6c1.1-1,1.7-2.3,1.7-3.6c0-1.4-0.4-2.5-1.2-3.3
	c-0.8-0.8-2.3-1.5-4.5-2.2s-3.6-1.1-4.2-1.4c-0.6-0.3-0.9-0.8-0.9-1.5c0-0.6,0.3-1.1,0.9-1.5s1.4-0.6,2.4-0.6c2.1,0,3.5,1,4.2,3.1
	l2.8-0.8c-0.4-1.5-1.2-2.8-2.3-3.7c-1.1-0.9-2.7-1.4-4.7-1.4c-1.9,0-3.5,0.5-4.6,1.5c-1.1,1-1.7,2.2-1.7,3.5c0,1.3,0.4,2.3,1.4,3.1
	s2.4,1.4,4.5,2c2,0.6,3.4,1.1,4,1.4c0.6,0.4,1,1,1,1.7c0,0.8-0.3,1.4-1,1.8c-0.7,0.5-1.7,0.7-2.9,0.7c-2.7,0-4.2-1.4-4.5-4.3l-3,0.7
	C369.8,811,370.5,812.5,371.8,813.7z"/>
<path d="M398,811.5c-0.8,0.8-1.8,1.1-3.1,1.1c-1.6,0-2.8-0.6-3.6-1.6c-0.8-1.1-1.3-2.7-1.3-4.7s0.4-3.6,1.3-4.7
	c0.8-1.1,2.1-1.6,3.6-1.6c1.3,0,2.3,0.4,3.1,1.3s1.2,1.8,1.2,2.9v4.7C399.2,809.9,398.8,810.7,398,811.5z M402.4,815.1V791h-3.2v8.3
	h-0.1c-1.3-1.5-2.8-2.2-4.7-2.2c-2.1,0-3.9,0.8-5.4,2.5c-1.5,1.7-2.2,3.9-2.2,6.7c0,2.8,0.7,5.1,2.1,6.7s3.2,2.5,5.5,2.5
	c2,0,3.7-0.7,5-2.2h0.1v1.7H402.4z"/>
<path d="M420.5,815.1v-11.6c0-2.2-0.6-3.8-1.9-4.9c-1.2-1-2.9-1.6-4.9-1.6c-1.9,0-3.4,0.5-4.6,1.4c-1.2,0.9-1.9,2.2-2.2,3.7l2.8,1
	c0.5-2.2,1.9-3.3,4.1-3.3c1.1,0,2,0.2,2.6,0.7c0.6,0.4,0.9,1,0.9,1.7c0,0.7-0.3,1.2-1,1.6s-2,0.8-3.8,1.3c-2.1,0.5-3.6,1.2-4.5,2
	c-0.9,0.8-1.3,2-1.3,3.4c0,1.5,0.5,2.7,1.5,3.6s2.5,1.4,4.5,1.4c1.4,0,2.6-0.3,3.4-0.8c0.9-0.5,1.5-1.1,1.7-1.5h0.1v1.8H420.5z
	 M415.7,806.6c0.6-0.3,1-0.5,1.2-0.6c0.2-0.1,0.3-0.3,0.4-0.5h0.1v3.9c0,0.9-0.4,1.7-1.2,2.3c-0.8,0.6-1.9,1-3.4,1
	c-2.1,0-3.2-0.8-3.2-2.4c0-0.7,0.2-1.2,0.7-1.7c0.5-0.4,1.4-0.8,2.8-1.2C414.2,807.1,415.1,806.8,415.7,806.6z"/>
<path d="M429,822.5l9.8-24.9h-3.3l-4.8,12.5l-4.8-12.5h-3.4l6.6,16.3l-3.4,8.6H429z"/>
<path d="M994,815.1v-20h7V792h-17.3v3.1h7v20H994z"/>
<path d="M1007.5,815.1v-11c0-1.2,0.4-2.2,1.2-2.9s1.8-1.1,3-1.1c1.3,0,2.2,0.4,2.8,1.2c0.6,0.8,1,1.8,1,3.1v10.7h3.2v-11.5
	c0-2-0.6-3.6-1.7-4.8s-2.7-1.7-4.5-1.7c-1,0-2,0.2-2.9,0.6s-1.6,1-2,1.6h-0.1V791h-3.2v24.1H1007.5z"/>
<path d="M1025.2,813.8c1,1.1,2.5,1.7,4.5,1.7c2,0,3.6-0.7,4.7-2.2h0.1v1.7h3.1v-17.5h-3.2v10.8c0,1.3-0.4,2.4-1.1,3.1
	c-0.7,0.7-1.7,1.1-2.9,1.1c-1.3,0-2.2-0.3-2.7-0.9c-0.5-0.6-0.8-1.6-0.8-3.1v-10.9h-3.2v11.4
	C1023.6,811.1,1024.1,812.7,1025.2,813.8z"/>
<path d="M1046,815.1v-10.3c0-2.9,1.1-4.3,3.2-4.3c0.5,0,0.9,0.1,1.4,0.3l0.6-3.2c-0.4-0.2-1-0.3-1.6-0.3c-0.7,0-1.4,0.2-2.1,0.6
	c-0.7,0.4-1.2,0.9-1.5,1.6h-0.1v-1.9h-3.1v17.5H1046z"/>
<path d="M1055.4,813.7c1.3,1.2,3.1,1.8,5.4,1.8c2.3,0,4-0.5,5.1-1.6c1.1-1,1.7-2.3,1.7-3.6c0-1.4-0.4-2.5-1.2-3.3
	c-0.8-0.8-2.3-1.5-4.5-2.2c-2.2-0.6-3.6-1.1-4.2-1.4c-0.6-0.3-0.9-0.8-0.9-1.5c0-0.6,0.3-1.1,0.9-1.5c0.6-0.4,1.4-0.6,2.4-0.6
	c2.1,0,3.5,1,4.2,3.1l2.8-0.8c-0.4-1.5-1.2-2.8-2.3-3.7c-1.1-0.9-2.7-1.4-4.7-1.4c-1.9,0-3.5,0.5-4.6,1.5c-1.1,1-1.7,2.2-1.7,3.5
	c0,1.3,0.5,2.3,1.4,3.1s2.4,1.4,4.5,2c2,0.6,3.4,1.1,4,1.4c0.6,0.4,1,1,1,1.7c0,0.8-0.3,1.4-1,1.8c-0.7,0.5-1.7,0.7-2.9,0.7
	c-2.7,0-4.2-1.4-4.5-4.3l-3,0.7C1053.4,811,1054.1,812.5,1055.4,813.7z"/>
<path d="M1081.6,811.5c-0.8,0.8-1.8,1.1-3.1,1.1c-1.6,0-2.8-0.6-3.6-1.6c-0.8-1.1-1.3-2.7-1.3-4.7s0.4-3.6,1.3-4.7
	c0.8-1.1,2.1-1.6,3.6-1.6c1.3,0,2.3,0.4,3.1,1.3c0.8,0.8,1.2,1.8,1.2,2.9v4.7C1082.8,809.9,1082.4,810.7,1081.6,811.5z M1086,815.1
	V791h-3.2v8.3h-0.1c-1.3-1.5-2.8-2.2-4.7-2.2c-2.1,0-3.9,0.8-5.4,2.5c-1.5,1.7-2.2,3.9-2.2,6.7c0,2.8,0.7,5.1,2.1,6.7
	s3.2,2.5,5.5,2.5c2,0,3.7-0.7,4.9-2.2h0.1v1.7H1086z"/>
<path d="M1104.1,815.1v-11.6c0-2.2-0.6-3.8-1.9-4.9c-1.2-1-2.9-1.6-4.9-1.6c-1.9,0-3.4,0.5-4.6,1.4c-1.2,0.9-1.9,2.2-2.2,3.7l2.8,1
	c0.5-2.2,1.9-3.3,4.1-3.3c1.1,0,2,0.2,2.6,0.7c0.6,0.4,0.9,1,0.9,1.7c0,0.7-0.3,1.2-1,1.6c-0.7,0.4-2,0.8-3.8,1.3
	c-2.1,0.5-3.6,1.2-4.5,2c-0.9,0.8-1.3,2-1.3,3.4c0,1.5,0.5,2.7,1.5,3.6s2.5,1.4,4.5,1.4c1.4,0,2.6-0.3,3.4-0.8
	c0.9-0.5,1.5-1.1,1.7-1.5h0.1v1.8H1104.1z M1099.3,806.6c0.6-0.3,1-0.5,1.2-0.6c0.2-0.1,0.3-0.3,0.4-0.5h0.1v3.9
	c0,0.9-0.4,1.7-1.2,2.3c-0.8,0.6-1.9,1-3.4,1c-2.1,0-3.2-0.8-3.2-2.4c0-0.7,0.2-1.2,0.7-1.7c0.5-0.4,1.4-0.8,2.8-1.2
	C1097.8,807.1,1098.7,806.8,1099.3,806.6z"/>
<path d="M1112.6,822.5l9.8-24.9h-3.3l-4.8,12.5l-4.8-12.5h-3.4l6.6,16.3l-3.4,8.6H1112.6z"/>
<path class="st1" d="M1,312.5h1403"/>
<path class="st1" d="M1,223.5h1403"/>
<path d="M296.9,278.1v-17.6h0.1l7.5,17.6h0.8l7.5-17.6h0.1v17.6h3.3v-23.1h-4.2l-7.1,16.8h-0.1l-7-16.8h-4.2v23.1H296.9z"/>
<path d="M325.1,274c-0.9-1.1-1.4-2.7-1.4-4.7s0.4-3.6,1.3-4.7s2.1-1.6,3.5-1.6c1.4,0,2.6,0.6,3.4,1.7c0.9,1.1,1.3,2.7,1.3,4.6
	c0,2-0.4,3.6-1.3,4.7c-0.9,1.1-2,1.7-3.4,1.7C327.1,275.6,326,275.1,325.1,274z M334.3,276.1c1.5-1.6,2.2-3.9,2.2-6.8
	c0-2.9-0.8-5.1-2.3-6.8c-1.5-1.6-3.4-2.5-5.6-2.5c-2.3,0-4.2,0.8-5.7,2.5c-1.5,1.7-2.3,3.9-2.3,6.8c0,2.9,0.8,5.2,2.3,6.8
	c1.5,1.6,3.4,2.4,5.8,2.4C330.9,278.5,332.8,277.7,334.3,276.1z"/>
<path d="M343.8,278.1v-11c0-1.3,0.4-2.2,1.1-3s1.8-1.1,3-1.1c2.5,0,3.7,1.5,3.7,4.5v10.5h3.2v-11.5c0-2-0.6-3.6-1.7-4.8
	c-1.1-1.2-2.7-1.7-4.6-1.7c-1,0-1.9,0.2-2.8,0.6c-0.9,0.4-1.6,0.9-2,1.6h-0.1v-1.7h-3.1v17.5H343.8z"/>
<path d="M370,274.5c-0.8,0.8-1.8,1.1-3.1,1.1c-1.6,0-2.8-0.6-3.6-1.6c-0.8-1.1-1.3-2.7-1.3-4.7s0.4-3.6,1.3-4.7s2.1-1.6,3.6-1.6
	c1.3,0,2.3,0.4,3.1,1.3c0.8,0.8,1.2,1.8,1.2,2.9v4.7C371.2,272.8,370.8,273.7,370,274.5z M374.4,278.1V254h-3.2v8.3h-0.1
	c-1.3-1.4-2.8-2.2-4.7-2.2c-2.1,0-3.9,0.8-5.4,2.5c-1.5,1.7-2.2,3.9-2.2,6.7c0,2.8,0.7,5.1,2.1,6.7s3.2,2.5,5.5,2.5
	c2,0,3.7-0.7,4.9-2.2h0.1v1.7H374.4z"/>
<path d="M392.5,278.1v-11.6c0-2.2-0.6-3.8-1.9-4.9c-1.2-1-2.9-1.6-4.9-1.6c-1.9,0-3.4,0.5-4.6,1.4c-1.2,0.9-1.9,2.2-2.2,3.7l2.8,1
	c0.5-2.2,1.9-3.3,4.1-3.3c1.1,0,2,0.2,2.6,0.7c0.6,0.5,0.9,1,0.9,1.7s-0.3,1.2-1,1.6c-0.7,0.4-2,0.8-3.8,1.3c-2.1,0.5-3.6,1.2-4.5,2
	c-0.9,0.8-1.3,2-1.3,3.4c0,1.5,0.5,2.7,1.5,3.6s2.5,1.4,4.5,1.4c1.4,0,2.6-0.3,3.4-0.8c0.9-0.5,1.5-1.1,1.7-1.5h0.1v1.8H392.5z
	 M387.7,269.6c0.6-0.3,1-0.4,1.2-0.6s0.3-0.3,0.4-0.5h0.1v3.9c0,0.9-0.4,1.7-1.2,2.3s-1.9,1-3.4,1c-2.1,0-3.2-0.8-3.2-2.4
	c0-0.7,0.2-1.2,0.7-1.7c0.5-0.4,1.4-0.8,2.8-1.2C386.2,270.1,387.1,269.8,387.7,269.6z"/>
<path d="M401.1,285.5l9.8-24.9h-3.3l-4.8,12.5l-4.8-12.5h-3.4l6.6,16.3l-3.4,8.6H401.1z"/>
<path d="M1001,278.1v-20h7v-3.1h-17.3v3.1h7v20H1001z"/>
<path d="M1011,276.8c1,1.1,2.5,1.7,4.5,1.7c2,0,3.6-0.7,4.7-2.2h0.1v1.7h3.1v-17.5h-3.2v10.8c0,1.3-0.4,2.4-1.1,3.1
	c-0.7,0.7-1.7,1.1-2.9,1.1c-1.3,0-2.2-0.3-2.7-0.9c-0.5-0.6-0.8-1.6-0.8-3.1v-10.9h-3.2v11.4C1009.5,274.1,1010,275.7,1011,276.8z"
	/>
<path d="M1039.9,273.5c-0.2,0.2-0.5,0.6-0.9,1s-0.9,0.7-1.5,0.9c-0.6,0.2-1.2,0.3-1.9,0.3c-1.5,0-2.7-0.5-3.5-1.5s-1.3-2.3-1.3-3.9
	h12.7v-1c0-2.8-0.7-5.1-2.2-6.7c-1.5-1.7-3.4-2.5-5.7-2.5s-4.3,0.8-5.8,2.5c-1.5,1.7-2.3,3.9-2.3,6.7s0.8,5,2.3,6.7
	c1.5,1.7,3.5,2.5,5.9,2.5c1.7,0,3.2-0.4,4.4-1.2c1.2-0.8,2.2-1.8,2.8-3.1l-2.4-1.8C1040.3,272.9,1040,273.3,1039.9,273.5z
	 M1032.1,264.4c0.8-1,2-1.5,3.4-1.5c1.5,0,2.7,0.5,3.5,1.4c0.8,0.9,1.2,2.1,1.3,3.4h-9.4C1030.8,266.5,1031.3,265.4,1032.1,264.4z"
	/>
<path d="M1048.4,276.7c1.3,1.2,3.1,1.8,5.4,1.8c2.3,0,4-0.5,5.1-1.6c1.1-1,1.7-2.3,1.7-3.6c0-1.4-0.4-2.5-1.2-3.3
	c-0.8-0.8-2.3-1.5-4.5-2.2c-2.2-0.6-3.6-1.1-4.2-1.4c-0.6-0.3-0.9-0.8-0.9-1.5c0-0.6,0.3-1.1,0.9-1.5c0.6-0.4,1.4-0.6,2.4-0.6
	c2.1,0,3.5,1,4.2,3.1l2.8-0.8c-0.4-1.5-1.2-2.8-2.3-3.7c-1.1-0.9-2.7-1.4-4.7-1.4c-1.9,0-3.5,0.5-4.6,1.5c-1.1,1-1.7,2.2-1.7,3.5
	c0,1.3,0.4,2.3,1.4,3.1c0.9,0.8,2.4,1.4,4.5,2c2,0.6,3.4,1.1,4,1.4c0.6,0.4,1,1,1,1.7c0,0.8-0.3,1.4-1,1.8c-0.7,0.5-1.7,0.7-2.9,0.7
	c-2.7,0-4.2-1.4-4.5-4.3l-3,0.7C1046.4,274,1047.2,275.5,1048.4,276.7z"/>
<path d="M1074.6,274.5c-0.8,0.8-1.8,1.1-3.1,1.1c-1.6,0-2.8-0.6-3.6-1.6c-0.8-1.1-1.3-2.7-1.3-4.7s0.4-3.6,1.3-4.7
	c0.8-1.1,2.1-1.6,3.6-1.6c1.3,0,2.3,0.4,3.1,1.3s1.2,1.8,1.2,2.9v4.7C1075.8,272.8,1075.4,273.7,1074.6,274.5z M1079,278.1V254h-3.2
	v8.3h-0.1c-1.3-1.4-2.8-2.2-4.7-2.2c-2.1,0-3.9,0.8-5.4,2.5c-1.5,1.7-2.2,3.9-2.2,6.7c0,2.8,0.7,5.1,2.1,6.7
	c1.4,1.7,3.2,2.5,5.5,2.5c2,0,3.7-0.7,4.9-2.2h0.1v1.7H1079z"/>
<path d="M1097.2,278.1v-11.6c0-2.2-0.6-3.8-1.9-4.9s-2.9-1.6-4.9-1.6c-1.9,0-3.4,0.5-4.6,1.4c-1.2,0.9-1.9,2.2-2.2,3.7l2.8,1
	c0.5-2.2,1.9-3.3,4.1-3.3c1.1,0,2,0.2,2.6,0.7c0.6,0.4,0.9,1,0.9,1.7s-0.3,1.2-1,1.6s-2,0.8-3.8,1.3c-2.1,0.5-3.6,1.2-4.5,2
	c-0.9,0.8-1.3,2-1.3,3.4c0,1.5,0.5,2.7,1.5,3.6c1,1,2.5,1.4,4.5,1.4c1.4,0,2.6-0.3,3.4-0.8c0.9-0.5,1.5-1.1,1.7-1.5h0.1v1.8H1097.2z
	 M1092.3,269.6c0.6-0.3,1-0.4,1.2-0.6c0.2-0.1,0.3-0.3,0.4-0.5h0.1v3.9c0,0.9-0.4,1.7-1.2,2.3c-0.8,0.6-1.9,1-3.4,1
	c-2.1,0-3.2-0.8-3.2-2.4c0-0.7,0.2-1.2,0.7-1.7c0.5-0.4,1.4-0.8,2.8-1.2C1090.8,270.1,1091.7,269.8,1092.3,269.6z"/>
<path d="M1105.7,285.5l9.8-24.9h-3.3l-4.8,12.5l-4.8-12.5h-3.4l6.6,16.3l-3.4,8.6H1105.7z"/>
<path class="st1" d="M1,1383.5h1403"/>
<path class="st1" d="M1,1294.5h1403"/>
<path d="M310.7,1350.3v-9.5h9.9v-2.9h-9.9v-7.6h10.9v-3.1h-14.2v23.1H310.7z"/>
<path d="M328.9,1350.3V1340c0-2.9,1.1-4.3,3.2-4.3c0.5,0,0.9,0.1,1.4,0.3l0.6-3.2c-0.4-0.2-1-0.3-1.6-0.3c-0.7,0-1.4,0.2-2.1,0.6
	c-0.7,0.4-1.2,0.9-1.5,1.6h-0.1v-1.9h-3.1v17.5H328.9z"/>
<path d="M340.8,1332.8h-3.2v17.5h3.2V1332.8z M340.9,1326.2h-3.5v3.4h3.5V1326.2z"/>
<path d="M356.2,1346.7c-0.8,0.8-1.8,1.1-3.1,1.1c-1.6,0-2.8-0.6-3.6-1.7c-0.8-1.1-1.3-2.7-1.3-4.7c0-2,0.4-3.6,1.3-4.7
	c0.8-1.1,2.1-1.6,3.6-1.6c1.3,0,2.3,0.4,3.1,1.3s1.2,1.8,1.2,2.9v4.7C357.4,1345.1,357,1346,356.2,1346.7z M360.6,1350.3v-24.1h-3.2
	v8.3h-0.1c-1.3-1.5-2.8-2.2-4.7-2.2c-2.1,0-3.9,0.8-5.4,2.5c-1.5,1.7-2.2,3.9-2.2,6.7c0,2.8,0.7,5.1,2.1,6.7s3.2,2.5,5.5,2.5
	c2,0,3.7-0.7,4.9-2.2h0.1v1.7H360.6z"/>
<path d="M378.7,1350.3v-11.6c0-2.2-0.6-3.8-1.9-4.9c-1.2-1-2.9-1.6-4.9-1.6c-1.9,0-3.4,0.5-4.6,1.4c-1.2,0.9-1.9,2.2-2.2,3.7l2.8,1
	c0.5-2.2,1.9-3.3,4.1-3.3c1.1,0,2,0.2,2.6,0.7c0.6,0.5,0.9,1,0.9,1.7c0,0.7-0.3,1.2-1,1.6c-0.7,0.4-2,0.8-3.8,1.3
	c-2.1,0.5-3.6,1.2-4.5,2c-0.9,0.8-1.3,2-1.3,3.4c0,1.5,0.5,2.7,1.5,3.6c1,1,2.5,1.4,4.5,1.4c1.4,0,2.6-0.3,3.4-0.8s1.5-1.1,1.7-1.5
	h0.1v1.8H378.7z M373.9,1341.8c0.6-0.2,1-0.4,1.2-0.6c0.2-0.1,0.3-0.3,0.4-0.5h0.1v3.9c0,0.9-0.4,1.7-1.2,2.3c-0.8,0.6-1.9,1-3.4,1
	c-2.1,0-3.2-0.8-3.2-2.4c0-0.7,0.2-1.2,0.7-1.7s1.4-0.8,2.8-1.2C372.4,1342.3,373.3,1342.1,373.9,1341.8z"/>
<path d="M387.2,1357.7l9.8-24.9h-3.3l-4.8,12.5l-4.8-12.5h-3.4l6.6,16.3l-3.4,8.6H387.2z"/>
<path d="M814.4,1348.6c1.6,1.4,3.7,2.1,6.4,2.1c2.5,0,4.5-0.6,6-1.9c1.5-1.3,2.2-2.9,2.2-4.9c0-1.7-0.5-3.1-1.5-4.1s-3-2-5.9-3
	c-2.5-0.8-4-1.5-4.8-2c-0.7-0.5-1.1-1.1-1.1-2c0-0.9,0.4-1.7,1.1-2.2s1.7-0.9,3.1-0.9c1.5,0,2.6,0.3,3.4,1c0.7,0.7,1.3,1.7,1.6,3
	l3.3-0.7c-0.3-2.1-1.2-3.7-2.7-4.8s-3.3-1.6-5.5-1.6c-2.3,0-4.1,0.6-5.4,1.8c-1.3,1.2-2,2.7-2,4.4c0,1.6,0.5,2.9,1.6,3.9
	s2.9,1.9,5.4,2.7c2.6,0.8,4.3,1.6,5.1,2.1c0.8,0.6,1.2,1.4,1.2,2.4s-0.4,1.9-1.3,2.5c-0.8,0.7-2.1,1-3.6,1c-1.9,0-3.3-0.5-4.1-1.4
	s-1.4-2.5-1.7-4.6l-3.5,0.7C811.9,1345.1,812.8,1347.2,814.4,1348.6z"/>
<path d="M845.7,1350.3v-11.6c0-2.2-0.6-3.8-1.9-4.9c-1.2-1-2.9-1.6-4.9-1.6c-1.9,0-3.4,0.5-4.6,1.4c-1.2,0.9-1.9,2.2-2.2,3.7l2.8,1
	c0.5-2.2,1.9-3.3,4.1-3.3c1.1,0,2,0.2,2.6,0.7c0.6,0.5,0.9,1,0.9,1.7c0,0.7-0.3,1.2-1,1.6c-0.7,0.4-2,0.8-3.8,1.3
	c-2.1,0.5-3.6,1.2-4.5,2c-0.9,0.8-1.3,2-1.3,3.4c0,1.5,0.5,2.7,1.5,3.6s2.5,1.4,4.5,1.4c1.4,0,2.6-0.3,3.4-0.8s1.5-1.1,1.7-1.5h0.1
	v1.8H845.7z M840.8,1341.8c0.6-0.2,1-0.4,1.2-0.6c0.2-0.1,0.3-0.3,0.4-0.5h0.1v3.9c0,0.9-0.4,1.7-1.2,2.3c-0.8,0.6-1.9,1-3.4,1
	c-2.1,0-3.2-0.8-3.2-2.4c0-0.7,0.2-1.2,0.7-1.7c0.5-0.4,1.4-0.8,2.8-1.2C839.3,1342.3,840.2,1342.1,840.8,1341.8z"/>
<path d="M852.5,1348.9c0.8,0.9,2.1,1.4,4,1.4h1.6v-3.1h-1.3c-0.9,0-1.5-0.2-1.8-0.6s-0.4-1.1-0.4-2.1v-8.9h4.3v-2.8h-4.4v-4.3h-3.1
	v4.3h-2.6v2.8h2.6v9.2C851.4,1346.6,851.8,1348,852.5,1348.9z"/>
<path d="M864.2,1349.1c1,1.1,2.5,1.7,4.5,1.7c2,0,3.6-0.7,4.7-2.2h0.1v1.7h3.1v-17.5h-3.2v10.8c0,1.3-0.4,2.4-1.1,3.1
	s-1.7,1.1-2.9,1.1c-1.3,0-2.2-0.3-2.7-0.9c-0.5-0.6-0.8-1.6-0.8-3.1v-10.9h-3.2v11.4C862.6,1346.3,863.2,1347.9,864.2,1349.1z"/>
<path d="M885,1350.3V1340c0-2.9,1.1-4.3,3.2-4.3c0.5,0,0.9,0.1,1.4,0.3l0.6-3.2c-0.4-0.2-1-0.3-1.6-0.3c-0.7,0-1.4,0.2-2.1,0.6
	c-0.7,0.4-1.2,0.9-1.5,1.6h-0.1v-1.9h-3.1v17.5H885z"/>
<path d="M903.6,1346.7c-0.8,0.8-1.8,1.1-3.1,1.1c-1.6,0-2.8-0.6-3.6-1.7c-0.8-1.1-1.3-2.7-1.3-4.7c0-2,0.4-3.6,1.3-4.7
	s2.1-1.6,3.6-1.6c1.3,0,2.3,0.4,3.1,1.3s1.2,1.8,1.2,2.9v4.7C904.8,1345.1,904.4,1346,903.6,1346.7z M908,1350.3v-24.1h-3.2v8.3
	h-0.1c-1.3-1.5-2.8-2.2-4.7-2.2c-2.1,0-3.9,0.8-5.4,2.5c-1.5,1.7-2.2,3.9-2.2,6.7c0,2.8,0.7,5.1,2.1,6.7s3.2,2.5,5.5,2.5
	c2,0,3.7-0.7,5-2.2h0.1v1.7H908z"/>
<path d="M926.1,1350.3v-11.6c0-2.2-0.6-3.8-1.9-4.9c-1.2-1-2.9-1.6-4.9-1.6c-1.9,0-3.4,0.5-4.6,1.4c-1.2,0.9-1.9,2.2-2.2,3.7l2.8,1
	c0.5-2.2,1.9-3.3,4.1-3.3c1.1,0,2,0.2,2.6,0.7c0.6,0.5,0.9,1,0.9,1.7c0,0.7-0.3,1.2-1,1.6c-0.7,0.4-2,0.8-3.8,1.3
	c-2.1,0.5-3.6,1.2-4.5,2c-0.9,0.8-1.3,2-1.3,3.4c0,1.5,0.5,2.7,1.5,3.6s2.5,1.4,4.5,1.4c1.4,0,2.6-0.3,3.4-0.8s1.5-1.1,1.7-1.5h0.1
	v1.8H926.1z M921.3,1341.8c0.6-0.2,1-0.4,1.2-0.6c0.2-0.1,0.3-0.3,0.4-0.5h0.1v3.9c0,0.9-0.4,1.7-1.2,2.3c-0.8,0.6-1.9,1-3.4,1
	c-2.1,0-3.2-0.8-3.2-2.4c0-0.7,0.2-1.2,0.7-1.7c0.5-0.4,1.4-0.8,2.8-1.2C919.8,1342.3,920.7,1342.1,921.3,1341.8z"/>
<path d="M934.6,1357.7l9.8-24.9h-3.3l-4.8,12.5l-4.8-12.5h-3.4l6.6,16.3l-3.4,8.6H934.6z"/>
<path d="M1176.6,1348.6c1.6,1.4,3.7,2.1,6.4,2.1c2.5,0,4.5-0.6,6-1.9c1.5-1.3,2.2-2.9,2.2-4.9c0-1.7-0.5-3.1-1.5-4.1c-1-1-3-2-5.9-3
	c-2.5-0.8-4-1.5-4.8-2c-0.7-0.5-1.1-1.1-1.1-2c0-0.9,0.4-1.7,1.1-2.2c0.7-0.6,1.7-0.9,3.1-0.9c1.5,0,2.6,0.3,3.4,1
	c0.8,0.7,1.3,1.7,1.6,3l3.3-0.7c-0.3-2.1-1.2-3.7-2.7-4.8s-3.3-1.6-5.5-1.6c-2.3,0-4.1,0.6-5.4,1.8c-1.3,1.2-2,2.7-2,4.4
	c0,1.6,0.5,2.9,1.6,3.9s2.9,1.9,5.4,2.7c2.6,0.8,4.3,1.6,5.1,2.1c0.8,0.6,1.2,1.4,1.2,2.4s-0.4,1.9-1.3,2.5c-0.8,0.7-2.1,1-3.6,1
	c-1.9,0-3.3-0.5-4.1-1.4s-1.4-2.5-1.7-4.6l-3.5,0.7C1174.1,1345.1,1175,1347.2,1176.6,1348.6z"/>
<path d="M1196.4,1349.1c1,1.1,2.5,1.7,4.5,1.7c2,0,3.6-0.7,4.7-2.2h0.1v1.7h3.1v-17.5h-3.2v10.8c0,1.3-0.4,2.4-1.1,3.1
	s-1.7,1.1-2.9,1.1c-1.3,0-2.2-0.3-2.7-0.9c-0.5-0.6-0.8-1.6-0.8-3.1v-10.9h-3.2v11.4C1194.8,1346.3,1195.3,1347.9,1196.4,1349.1z"/>
<path d="M1217.2,1350.3v-11c0-1.3,0.4-2.2,1.1-3s1.8-1.1,3-1.1c2.5,0,3.7,1.5,3.7,4.5v10.5h3.2v-11.4c0-2-0.6-3.6-1.7-4.8
	c-1.1-1.2-2.7-1.8-4.6-1.8c-1,0-1.9,0.2-2.8,0.6c-0.9,0.4-1.6,0.9-2,1.6h-0.1v-1.7h-3.1v17.5H1217.2z"/>
<path d="M1243.4,1346.7c-0.8,0.8-1.8,1.1-3.1,1.1c-1.6,0-2.8-0.6-3.6-1.7c-0.8-1.1-1.3-2.7-1.3-4.7c0-2,0.4-3.6,1.3-4.7
	s2.1-1.6,3.6-1.6c1.3,0,2.3,0.4,3.1,1.3c0.8,0.8,1.2,1.8,1.2,2.9v4.7C1244.6,1345.1,1244.2,1346,1243.4,1346.7z M1247.8,1350.3
	v-24.1h-3.2v8.3h-0.1c-1.3-1.5-2.8-2.2-4.7-2.2c-2.1,0-3.9,0.8-5.4,2.5c-1.5,1.7-2.2,3.9-2.2,6.7c0,2.8,0.7,5.1,2.1,6.7
	s3.2,2.5,5.5,2.5c2,0,3.7-0.7,4.9-2.2h0.1v1.7H1247.8z"/>
<path d="M1265.9,1350.3v-11.6c0-2.2-0.6-3.8-1.9-4.9c-1.2-1-2.9-1.6-4.9-1.6c-1.9,0-3.4,0.5-4.6,1.4c-1.2,0.9-1.9,2.2-2.2,3.7l2.8,1
	c0.5-2.2,1.9-3.3,4.1-3.3c1.1,0,2,0.2,2.6,0.7c0.6,0.5,0.9,1,0.9,1.7c0,0.7-0.3,1.2-1,1.6c-0.7,0.4-2,0.8-3.8,1.3
	c-2.1,0.5-3.6,1.2-4.5,2c-0.9,0.8-1.3,2-1.3,3.4c0,1.5,0.5,2.7,1.5,3.6s2.5,1.4,4.5,1.4c1.4,0,2.6-0.3,3.4-0.8s1.5-1.1,1.7-1.5h0.1
	v1.8H1265.9z M1261.1,1341.8c0.6-0.2,1-0.4,1.2-0.6c0.2-0.1,0.3-0.3,0.4-0.5h0.1v3.9c0,0.9-0.4,1.7-1.2,2.3c-0.8,0.6-1.9,1-3.4,1
	c-2.1,0-3.2-0.8-3.2-2.4c0-0.7,0.2-1.2,0.7-1.7c0.5-0.4,1.4-0.8,2.8-1.2C1259.6,1342.3,1260.5,1342.1,1261.1,1341.8z"/>
<path d="M1274.4,1357.7l9.8-24.9h-3.3l-4.8,12.5l-4.8-12.5h-3.4l6.6,16.3l-3.4,8.6H1274.4z"/>
</svg>
