<?xml version="1.0" encoding="utf-8"?>
<!-- Generator: Adobe Illustrator 22.1.0, SVG Export Plug-In . SVG Version: 6.00 Build 0)  -->
<svg version="1.1" id="Layer_1" xmlns="http://www.w3.org/2000/svg" xmlns:xlink="http://www.w3.org/1999/xlink" x="0px" y="0px"
	 viewBox="0 0 1404 1872" style="enable-background:new 0 0 1404 1872;" xml:space="preserve">
<style type="text/css">
	.st0{fill:#FFFFFF;}
	.st1{fill:none;stroke:#000000;stroke-width:0.5;stroke-miterlimit:10;}
</style>
<rect y="0" class="st0" width="1404" height="1872"/>
<path class="st1" d="M1,146.5h1403"/>
<path class="st1" d="M1,312.5h1403"/>
<path class="st1" d="M1,223.5h1403"/>
<path class="st1" d="M200.5,224v1648"/>
<path class="st1" d="M401.5,224v1648"/>
<path class="st1" d="M602.5,224v1648"/>
<path class="st1" d="M802.5,224v1648"/>
<path class="st1" d="M1003.5,224v1648"/>
<path class="st1" d="M1203.5,224v1648"/>
<path d="M630,93.5l11.9-38.2h0.1l12.1,38.2h8.1l9.4-50.4h-7.2l-7.2,38.5H657l-12.2-38.5h-5.5l-12.2,38.5h-0.1l-7.2-38.5h-7.3
	l9.4,50.4H630z"/>
<path d="M702.5,83.6c-0.4,0.5-1,1.2-1.9,2.1c-0.9,0.9-1.9,1.6-3.2,2c-1.2,0.4-2.6,0.6-4.2,0.6c-3.4,0-5.9-1.1-7.7-3.3
	s-2.7-5.1-2.8-8.5h27.6v-2.1c0-6.2-1.6-11.1-4.8-14.7c-3.2-3.6-7.4-5.4-12.5-5.4c-5.1,0-9.3,1.8-12.6,5.5c-3.3,3.7-4.9,8.6-4.9,14.7
	c0,6.1,1.7,11,5,14.7s7.6,5.5,12.9,5.5c3.8,0,7-0.9,9.6-2.6c2.6-1.8,4.7-4,6.2-6.7l-5.3-4C703.4,82.3,702.9,83.1,702.5,83.6z
	 M685.5,63.8c1.8-2.2,4.3-3.3,7.5-3.3c3.4,0,5.9,1,7.6,3.1c1.7,2,2.6,4.5,2.7,7.4h-20.6C682.8,68.4,683.8,66,685.5,63.8z"/>
<path d="M743.8,83.6c-0.4,0.5-1,1.2-1.9,2.1c-0.9,0.9-1.9,1.6-3.2,2c-1.2,0.4-2.6,0.6-4.2,0.6c-3.4,0-5.9-1.1-7.7-3.3
	c-1.8-2.2-2.8-5.1-2.8-8.5h27.6v-2.1c0-6.2-1.6-11.1-4.8-14.7c-3.2-3.6-7.4-5.4-12.5-5.4c-5.1,0-9.3,1.8-12.6,5.5
	c-3.3,3.7-4.9,8.6-4.9,14.7c0,6.1,1.7,11,5,14.7c3.3,3.7,7.6,5.5,12.9,5.5c3.8,0,7-0.9,9.6-2.6c2.6-1.8,4.7-4,6.2-6.7l-5.3-4
	C744.7,82.3,744.2,83.1,743.8,83.6z M726.8,63.8c1.8-2.2,4.3-3.3,7.5-3.3c3.4,0,5.9,1,7.6,3.1c1.7,2,2.6,4.5,2.7,7.4H724
	C724.1,68.4,725,66,726.8,63.8z"/>
<path d="M767.6,93.5V80.6l5.4-5.8h0.1l12.6,18.7h8.1l-15.4-22.9l13.8-15.3h-9.1l-15.4,16.9h-0.1V41h-7v52.6H767.6z"/>
<path d="M35.8,193.5l4-12.7h0l4,12.7h2.7l3.1-16.8h-2.4l-2.4,12.8h0l-4.1-12.8h-1.9l-4.1,12.8h0l-2.4-12.8H30l3.1,16.8H35.8z"/>
<path d="M63.1,193.5v-2.2h-7.9v-5.4h7.2v-2.1h-7.2v-4.9h7.9v-2.2H52.8v16.8H63.1z"/>
<path d="M77.1,193.5v-2.2h-7.9v-5.4h7.2v-2.1h-7.2v-4.9h7.9v-2.2H66.8v16.8H77.1z"/>
<path d="M83,193.5v-5.6l1.7-2.1h0l5.6,7.7h2.9l-6.9-9.4l6.2-7.4h-3l-6.5,7.8H83v-7.8h-2.4v16.8H83z"/>
<path d="M103.3,193.5V181h0l7.3,12.5h2.4v-16.8h-2.4v12.5h-0.1l-7.2-12.5h-2.5v16.8H103.3z"/>
<path d="M118.6,192.4c1.1,1,2.6,1.5,4.5,1.5c1.9,0,3.4-0.5,4.5-1.5c1.1-1,1.6-2.4,1.6-4.3v-11.3h-2.4v11.2c0,1.2-0.3,2.1-0.9,2.7
	s-1.5,0.9-2.8,0.9c-1.2,0-2.1-0.3-2.8-1s-0.9-1.6-0.9-2.8v-11.2H117V188C117,189.9,117.6,191.4,118.6,192.4z"/>
<path d="M135.6,193.5v-12.8h0l5.4,12.8h0.6l5.4-12.8h0.1v12.8h2.4v-16.8h-3l-5.1,12.2h0l-5.1-12.2h-3v16.8H135.6z"/>
<path d="M160,193.5c4,0,6-1.7,6-5c0-1-0.3-1.9-0.8-2.6c-0.5-0.7-1.2-1.2-1.9-1.4v0c1.4-0.7,2.1-1.8,2.1-3.3c0-1.3-0.4-2.3-1.3-3.2
	c-0.9-0.8-2.1-1.3-3.6-1.3h-6.7v16.8H160z M156.2,178.9h3.9c0.9,0,1.6,0.2,2.2,0.6c0.5,0.4,0.8,1,0.8,1.8c0,1.6-1,2.4-2.9,2.4h-3.9
	V178.9z M156.2,185.7h3.4c1.4,0,2.4,0.2,3,0.6s1,1.1,1,2.1c0,1.1-0.3,1.8-1,2.2c-0.7,0.4-1.7,0.6-3,0.6h-3.4V185.7z"/>
<path d="M179.7,193.5v-2.2h-7.9v-5.4h7.2v-2.1h-7.2v-4.9h7.9v-2.2h-10.3v16.8H179.7z"/>
<path d="M185.8,193.5v-6.6h3.4l3.6,6.6h2.6l-3.7-6.8c1.3-0.3,2.3-0.8,2.9-1.6c0.7-0.8,1-1.9,1-3.3c0-1.6-0.5-2.9-1.5-3.8
	c-1-0.9-2.4-1.3-4.1-1.3h-6.6v16.8H185.8z M185.8,178.9h4c2.3,0,3.5,1,3.5,2.9c0,1-0.3,1.7-0.9,2.2c-0.6,0.5-1.5,0.7-2.5,0.7h-4
	V178.9z"/>
<path d="M201.8,190.5h-3v3h3V190.5z M201.8,180.8h-3v3h3V180.8z"/>
<path d="M247.2,278.1v-17.6h0.1l7.5,17.6h0.8l7.5-17.6h0.1v17.6h3.3v-23.1h-4.2l-7.1,16.8h-0.1l-7-16.8h-4.2v23.1H247.2z"/>
<path d="M275.4,274c-0.9-1.1-1.4-2.7-1.4-4.7s0.4-3.6,1.3-4.7c0.9-1.1,2.1-1.6,3.5-1.6c1.4,0,2.6,0.6,3.4,1.7
	c0.9,1.1,1.3,2.7,1.3,4.6c0,2-0.4,3.6-1.3,4.7c-0.9,1.1-2,1.7-3.4,1.7C277.5,275.6,276.3,275.1,275.4,274z M284.6,276.1
	c1.5-1.6,2.2-3.9,2.2-6.8c0-2.9-0.8-5.1-2.3-6.8c-1.5-1.6-3.4-2.5-5.6-2.5c-2.3,0-4.2,0.8-5.7,2.5c-1.5,1.7-2.3,3.9-2.3,6.8
	c0,2.9,0.8,5.2,2.3,6.8c1.5,1.6,3.4,2.4,5.8,2.4C281.2,278.5,283.1,277.7,284.6,276.1z"/>
<path d="M294.2,278.1v-11c0-1.3,0.4-2.2,1.1-3s1.8-1.1,3-1.1c2.5,0,3.7,1.5,3.7,4.5v10.5h3.2v-11.5c0-2-0.6-3.6-1.7-4.8
	c-1.1-1.2-2.7-1.7-4.6-1.7c-1,0-1.9,0.2-2.8,0.6c-0.9,0.4-1.6,0.9-2,1.6h-0.1v-1.7H291v17.5H294.2z"/>
<path d="M320.4,274.5c-0.8,0.8-1.8,1.1-3.1,1.1c-1.6,0-2.8-0.6-3.6-1.6c-0.8-1.1-1.3-2.7-1.3-4.7s0.4-3.6,1.3-4.7s2.1-1.6,3.6-1.6
	c1.3,0,2.3,0.4,3.1,1.3c0.8,0.8,1.2,1.8,1.2,2.9v4.7C321.6,272.8,321.2,273.7,320.4,274.5z M324.8,278.1V254h-3.2v8.3h-0.1
	c-1.3-1.4-2.8-2.2-4.7-2.2c-2.1,0-3.9,0.8-5.4,2.5c-1.5,1.7-2.2,3.9-2.2,6.7c0,2.8,0.7,5.1,2.1,6.7s3.2,2.5,5.5,2.5
	c2,0,3.7-0.7,4.9-2.2h0.1v1.7H324.8z"/>
<path d="M342.9,278.1v-11.6c0-2.2-0.6-3.8-1.9-4.9c-1.2-1-2.9-1.6-4.9-1.6c-1.9,0-3.4,0.5-4.6,1.4c-1.2,0.9-1.9,2.2-2.2,3.7l2.8,1
	c0.5-2.2,1.9-3.3,4.1-3.3c1.1,0,2,0.2,2.6,0.7c0.6,0.5,0.9,1,0.9,1.7s-0.3,1.2-1,1.6c-0.7,0.4-2,0.8-3.8,1.3c-2.1,0.5-3.6,1.2-4.5,2
	c-0.9,0.8-1.3,2-1.3,3.4c0,1.5,0.5,2.7,1.5,3.6s2.5,1.4,4.5,1.4c1.4,0,2.6-0.3,3.4-0.8c0.9-0.5,1.5-1.1,1.7-1.5h0.1v1.8H342.9z
	 M338.1,269.6c0.6-0.3,1-0.4,1.2-0.6s0.3-0.3,0.4-0.5h0.1v3.9c0,0.9-0.4,1.7-1.2,2.3s-1.9,1-3.4,1c-2.1,0-3.2-0.8-3.2-2.4
	c0-0.7,0.2-1.2,0.7-1.7c0.5-0.4,1.4-0.8,2.8-1.2C336.6,270.1,337.4,269.8,338.1,269.6z"/>
<path d="M351.4,285.5l9.8-24.9h-3.3l-4.8,12.5l-4.8-12.5H345l6.6,16.3l-3.4,8.6H351.4z"/>
<path d="M450.2,278.1v-20h7v-3.1h-17.3v3.1h7v20H450.2z"/>
<path d="M460.2,276.8c1,1.1,2.5,1.7,4.5,1.7c2,0,3.6-0.7,4.7-2.2h0.1v1.7h3.1v-17.5h-3.2v10.8c0,1.3-0.4,2.4-1.1,3.1
	s-1.7,1.1-2.9,1.1c-1.3,0-2.2-0.3-2.7-0.9s-0.8-1.6-0.8-3.1v-10.9h-3.2v11.4C458.7,274.1,459.2,275.7,460.2,276.8z"/>
<path d="M489.1,273.5c-0.2,0.2-0.5,0.6-0.9,1c-0.4,0.4-0.9,0.7-1.4,0.9c-0.6,0.2-1.2,0.3-1.9,0.3c-1.5,0-2.7-0.5-3.5-1.5
	s-1.3-2.3-1.3-3.9h12.7v-1c0-2.8-0.7-5.1-2.2-6.7c-1.5-1.7-3.4-2.5-5.7-2.5s-4.3,0.8-5.8,2.5c-1.5,1.7-2.3,3.9-2.3,6.7
	s0.8,5,2.3,6.7c1.5,1.7,3.5,2.5,5.9,2.5c1.7,0,3.2-0.4,4.4-1.2c1.2-0.8,2.2-1.8,2.8-3.1l-2.4-1.8
	C489.5,272.9,489.2,273.3,489.1,273.5z M481.3,264.4c0.8-1,2-1.5,3.4-1.5c1.5,0,2.7,0.5,3.5,1.4s1.2,2.1,1.3,3.4H480
	C480,266.5,480.5,265.4,481.3,264.4z"/>
<path d="M497.6,276.7c1.3,1.2,3.1,1.8,5.4,1.8c2.3,0,4-0.5,5.1-1.6c1.1-1,1.7-2.3,1.7-3.6c0-1.4-0.4-2.5-1.2-3.3
	c-0.8-0.8-2.3-1.5-4.5-2.2c-2.2-0.6-3.6-1.1-4.2-1.4c-0.6-0.3-0.9-0.8-0.9-1.5c0-0.6,0.3-1.1,0.9-1.5c0.6-0.4,1.4-0.6,2.4-0.6
	c2.1,0,3.5,1,4.2,3.1l2.8-0.8c-0.4-1.5-1.2-2.8-2.3-3.7c-1.1-0.9-2.7-1.4-4.7-1.4c-1.9,0-3.5,0.5-4.6,1.5c-1.1,1-1.7,2.2-1.7,3.5
	c0,1.3,0.4,2.3,1.4,3.1c0.9,0.8,2.4,1.4,4.5,2c2,0.6,3.4,1.1,4,1.4s1,1,1,1.7c0,0.8-0.3,1.4-1,1.8s-1.7,0.7-2.9,0.7
	c-2.7,0-4.2-1.4-4.5-4.3l-3,0.7C495.6,274,496.4,275.5,497.6,276.7z"/>
<path d="M523.8,274.5c-0.8,0.8-1.8,1.1-3.1,1.1c-1.6,0-2.8-0.6-3.6-1.6c-0.8-1.1-1.3-2.7-1.3-4.7s0.4-3.6,1.3-4.7s2.1-1.6,3.6-1.6
	c1.3,0,2.3,0.4,3.1,1.3s1.2,1.8,1.2,2.9v4.7C525,272.8,524.6,273.7,523.8,274.5z M528.2,278.1V254H525v8.3h-0.1
	c-1.3-1.4-2.8-2.2-4.7-2.2c-2.1,0-3.9,0.8-5.4,2.5s-2.2,3.9-2.2,6.7c0,2.8,0.7,5.1,2.1,6.7s3.2,2.5,5.5,2.5c2,0,3.7-0.7,5-2.2h0.1
	v1.7H528.2z"/>
<path d="M546.3,278.1v-11.6c0-2.2-0.6-3.8-1.9-4.9c-1.2-1-2.9-1.6-4.9-1.6c-1.9,0-3.4,0.5-4.6,1.4c-1.2,0.9-1.9,2.2-2.2,3.7l2.8,1
	c0.5-2.2,1.9-3.3,4.1-3.3c1.1,0,2,0.2,2.6,0.7c0.6,0.5,0.9,1,0.9,1.7s-0.3,1.2-1,1.6s-2,0.8-3.8,1.3c-2.1,0.5-3.6,1.2-4.5,2
	c-0.9,0.8-1.3,2-1.3,3.4c0,1.5,0.5,2.7,1.5,3.6c1,1,2.5,1.4,4.5,1.4c1.4,0,2.6-0.3,3.4-0.8c0.9-0.5,1.5-1.1,1.7-1.5h0.1v1.8H546.3z
	 M541.5,269.6c0.6-0.3,1-0.4,1.2-0.6s0.3-0.3,0.4-0.5h0.1v3.9c0,0.9-0.4,1.7-1.2,2.3s-1.9,1-3.4,1c-2.1,0-3.2-0.8-3.2-2.4
	c0-0.7,0.2-1.2,0.7-1.7c0.5-0.4,1.4-0.8,2.8-1.2C540,270.1,540.9,269.8,541.5,269.6z"/>
<path d="M554.9,285.5l9.8-24.9h-3.3l-4.8,12.5l-4.8-12.5h-3.4l6.6,16.3l-3.4,8.6H554.9z"/>
<path d="M624.1,278.1l5.4-17.5h0.1l5.5,17.5h3.7l4.3-23.1h-3.3l-3.3,17.7h-0.1l-5.6-17.7h-2.5l-5.6,17.7h-0.1l-3.3-17.7h-3.4
	l4.3,23.1H624.1z"/>
<path d="M657.4,273.5c-0.2,0.2-0.5,0.6-0.9,1c-0.4,0.4-0.9,0.7-1.4,0.9c-0.6,0.2-1.2,0.3-1.9,0.3c-1.5,0-2.7-0.5-3.5-1.5
	c-0.8-1-1.3-2.3-1.3-3.9H661v-1c0-2.8-0.7-5.1-2.2-6.7c-1.5-1.7-3.4-2.5-5.7-2.5s-4.2,0.8-5.8,2.5s-2.3,3.9-2.3,6.7s0.8,5,2.3,6.7
	c1.5,1.7,3.5,2.5,5.9,2.5c1.7,0,3.2-0.4,4.4-1.2c1.2-0.8,2.2-1.8,2.8-3.1l-2.4-1.8C657.8,272.9,657.6,273.3,657.4,273.5z
	 M649.6,264.4c0.8-1,2-1.5,3.4-1.5c1.5,0,2.7,0.5,3.5,1.4s1.2,2.1,1.3,3.4h-9.4C648.4,266.5,648.8,265.4,649.6,264.4z"/>
<path d="M675.1,274.5c-0.8,0.8-1.8,1.1-3.1,1.1c-1.6,0-2.8-0.6-3.6-1.6c-0.8-1.1-1.3-2.7-1.3-4.7s0.4-3.6,1.3-4.7
	c0.8-1.1,2.1-1.6,3.6-1.6c1.3,0,2.3,0.4,3.1,1.3s1.2,1.8,1.2,2.9v4.7C676.3,272.8,675.9,273.7,675.1,274.5z M679.5,278.1V254h-3.2
	v8.3h-0.1c-1.3-1.4-2.8-2.2-4.7-2.2c-2.1,0-3.9,0.8-5.4,2.5c-1.5,1.7-2.2,3.9-2.2,6.7c0,2.8,0.7,5.1,2.1,6.7s3.2,2.5,5.5,2.5
	c2,0,3.7-0.7,4.9-2.2h0.1v1.7H679.5z"/>
<path d="M687.9,278.1v-11c0-1.3,0.4-2.2,1.1-3c0.8-0.7,1.8-1.1,3-1.1c2.5,0,3.7,1.5,3.7,4.5v10.5h3.2v-11.5c0-2-0.6-3.6-1.7-4.8
	c-1.1-1.2-2.7-1.7-4.6-1.7c-1,0-1.9,0.2-2.8,0.6c-0.9,0.4-1.6,0.9-2,1.6h-0.1v-1.7h-3.1v17.5H687.9z"/>
<path d="M715.4,273.5c-0.2,0.2-0.5,0.6-0.9,1c-0.4,0.4-0.9,0.7-1.4,0.9c-0.6,0.2-1.2,0.3-1.9,0.3c-1.5,0-2.7-0.5-3.5-1.5
	c-0.8-1-1.3-2.3-1.3-3.9h12.7v-1c0-2.8-0.7-5.1-2.2-6.7c-1.5-1.7-3.4-2.5-5.7-2.5s-4.2,0.8-5.8,2.5s-2.3,3.9-2.3,6.7s0.8,5,2.3,6.7
	c1.5,1.7,3.5,2.5,5.9,2.5c1.7,0,3.2-0.4,4.4-1.2c1.2-0.8,2.2-1.8,2.8-3.1l-2.4-1.8C715.8,272.9,715.5,273.3,715.4,273.5z
	 M707.6,264.4c0.8-1,2-1.5,3.4-1.5c1.5,0,2.7,0.5,3.5,1.4s1.2,2.1,1.3,3.4h-9.4C706.3,266.5,706.8,265.4,707.6,264.4z"/>
<path d="M723.9,276.7c1.3,1.2,3.1,1.8,5.4,1.8c2.3,0,4-0.5,5.1-1.6c1.1-1,1.7-2.3,1.7-3.6c0-1.4-0.4-2.5-1.2-3.3
	c-0.8-0.8-2.3-1.5-4.5-2.2c-2.2-0.6-3.6-1.1-4.2-1.4c-0.6-0.3-0.9-0.8-0.9-1.5c0-0.6,0.3-1.1,0.9-1.5c0.6-0.4,1.4-0.6,2.4-0.6
	c2.1,0,3.5,1,4.2,3.1l2.8-0.8c-0.4-1.5-1.2-2.8-2.3-3.7c-1.1-0.9-2.7-1.4-4.7-1.4c-1.9,0-3.5,0.5-4.6,1.5c-1.1,1-1.7,2.2-1.7,3.5
	c0,1.3,0.5,2.3,1.4,3.1c0.9,0.8,2.4,1.4,4.5,2c2,0.6,3.4,1.1,4,1.4c0.6,0.4,1,1,1,1.7c0,0.8-0.3,1.4-1,1.8c-0.7,0.5-1.7,0.7-2.9,0.7
	c-2.7,0-4.2-1.4-4.5-4.3l-3,0.7C721.9,274,722.7,275.5,723.9,276.7z"/>
<path d="M750.1,274.5c-0.8,0.8-1.8,1.1-3.1,1.1c-1.6,0-2.8-0.6-3.6-1.6c-0.8-1.1-1.3-2.7-1.3-4.7s0.4-3.6,1.3-4.7s2.1-1.6,3.6-1.6
	c1.3,0,2.3,0.4,3.1,1.3c0.8,0.8,1.2,1.8,1.2,2.9v4.7C751.3,272.8,750.9,273.7,750.1,274.5z M754.5,278.1V254h-3.2v8.3h-0.1
	c-1.3-1.4-2.8-2.2-4.7-2.2c-2.1,0-3.9,0.8-5.4,2.5c-1.5,1.7-2.2,3.9-2.2,6.7c0,2.8,0.7,5.1,2.1,6.7s3.2,2.5,5.5,2.5
	c2,0,3.7-0.7,4.9-2.2h0.1v1.7H754.5z"/>
<path d="M772.7,278.1v-11.6c0-2.2-0.6-3.8-1.9-4.9c-1.2-1-2.9-1.6-4.9-1.6c-1.9,0-3.4,0.5-4.6,1.4c-1.2,0.9-1.9,2.2-2.2,3.7l2.8,1
	c0.5-2.2,1.9-3.3,4.1-3.3c1.1,0,2,0.2,2.6,0.7c0.6,0.5,0.9,1,0.9,1.7s-0.3,1.2-1,1.6c-0.7,0.4-2,0.8-3.8,1.3c-2.1,0.5-3.6,1.2-4.5,2
	c-0.9,0.8-1.3,2-1.3,3.4c0,1.5,0.5,2.7,1.5,3.6s2.5,1.4,4.5,1.4c1.4,0,2.6-0.3,3.4-0.8c0.9-0.5,1.5-1.1,1.7-1.5h0.1v1.8H772.7z
	 M767.8,269.6c0.6-0.3,1-0.4,1.2-0.6s0.3-0.3,0.4-0.5h0.1v3.9c0,0.9-0.4,1.7-1.2,2.3c-0.8,0.6-1.9,1-3.4,1c-2.1,0-3.2-0.8-3.2-2.4
	c0-0.7,0.2-1.2,0.7-1.7c0.5-0.4,1.4-0.8,2.8-1.2C766.3,270.1,767.2,269.8,767.8,269.6z"/>
<path d="M781.2,285.5l9.8-24.9h-3.3l-4.8,12.5l-4.8-12.5h-3.4l6.6,16.3l-3.4,8.6H781.2z"/>
<path d="M844.3,278.1v-20h7v-3.1h-17.3v3.1h7v20H844.3z"/>
<path d="M857.9,278.1v-11c0-1.2,0.4-2.2,1.2-2.9c0.8-0.7,1.8-1.1,3-1.1c1.3,0,2.2,0.4,2.8,1.2s1,1.8,1,3.2v10.7h3.2v-11.5
	c0-2-0.6-3.6-1.7-4.8s-2.7-1.7-4.5-1.7c-1,0-2,0.2-2.9,0.6c-0.9,0.4-1.6,1-2,1.6h-0.1V254h-3.2v24.1H857.9z"/>
<path d="M875.5,276.8c1,1.1,2.5,1.7,4.5,1.7c2,0,3.6-0.7,4.7-2.2h0.1v1.7h3.1v-17.5h-3.2v10.8c0,1.3-0.4,2.4-1.1,3.1
	s-1.7,1.1-2.9,1.1c-1.3,0-2.2-0.3-2.7-0.9s-0.8-1.6-0.8-3.1v-10.9H874v11.4C874,274.1,874.5,275.7,875.5,276.8z"/>
<path d="M896.4,278.1v-10.3c0-2.9,1.1-4.3,3.2-4.3c0.5,0,0.9,0.1,1.4,0.3l0.6-3.2c-0.4-0.2-1-0.3-1.6-0.3c-0.7,0-1.4,0.2-2.1,0.6
	c-0.7,0.4-1.2,0.9-1.5,1.6h-0.1v-1.9h-3.1v17.5H896.4z"/>
<path d="M905.8,276.7c1.3,1.2,3.1,1.8,5.4,1.8c2.3,0,4-0.5,5.1-1.6c1.1-1,1.7-2.3,1.7-3.6c0-1.4-0.4-2.5-1.2-3.3
	c-0.8-0.8-2.3-1.5-4.5-2.2c-2.2-0.6-3.6-1.1-4.2-1.4c-0.6-0.3-0.9-0.8-0.9-1.5c0-0.6,0.3-1.1,0.9-1.5c0.6-0.4,1.4-0.6,2.4-0.6
	c2.1,0,3.5,1,4.2,3.1l2.8-0.8c-0.4-1.5-1.2-2.8-2.3-3.7c-1.1-0.9-2.7-1.4-4.7-1.4c-1.9,0-3.5,0.5-4.6,1.5c-1.1,1-1.7,2.2-1.7,3.5
	c0,1.3,0.4,2.3,1.4,3.1c0.9,0.8,2.4,1.4,4.5,2c2,0.6,3.4,1.1,4,1.4c0.6,0.4,1,1,1,1.7c0,0.8-0.3,1.4-1,1.8c-0.7,0.5-1.7,0.7-2.9,0.7
	c-2.7,0-4.2-1.4-4.5-4.3l-3,0.7C903.8,274,904.5,275.5,905.8,276.7z"/>
<path d="M932,274.5c-0.8,0.8-1.8,1.1-3.1,1.1c-1.6,0-2.8-0.6-3.6-1.6c-0.8-1.1-1.3-2.7-1.3-4.7s0.4-3.6,1.3-4.7
	c0.8-1.1,2.1-1.6,3.6-1.6c1.3,0,2.3,0.4,3.1,1.3s1.2,1.8,1.2,2.9v4.7C933.1,272.8,932.8,273.7,932,274.5z M936.3,278.1V254h-3.2v8.3
	h-0.1c-1.3-1.4-2.8-2.2-4.7-2.2c-2.1,0-3.9,0.8-5.4,2.5c-1.5,1.7-2.2,3.9-2.2,6.7c0,2.8,0.7,5.1,2.1,6.7s3.2,2.5,5.5,2.5
	c2,0,3.7-0.7,4.9-2.2h0.1v1.7H936.3z"/>
<path d="M954.5,278.1v-11.6c0-2.2-0.6-3.8-1.9-4.9c-1.2-1-2.9-1.6-4.9-1.6c-1.9,0-3.4,0.5-4.6,1.4c-1.2,0.9-1.9,2.2-2.2,3.7l2.8,1
	c0.5-2.2,1.9-3.3,4.1-3.3c1.1,0,2,0.2,2.6,0.7c0.6,0.5,0.9,1,0.9,1.7s-0.3,1.2-1,1.6s-2,0.8-3.8,1.3c-2.1,0.5-3.6,1.2-4.5,2
	c-0.9,0.8-1.3,2-1.3,3.4c0,1.5,0.5,2.7,1.5,3.6c1,1,2.5,1.4,4.5,1.4c1.4,0,2.6-0.3,3.4-0.8c0.9-0.5,1.5-1.1,1.7-1.5h0.1v1.8H954.5z
	 M949.7,269.6c0.6-0.3,1-0.4,1.2-0.6c0.2-0.1,0.3-0.3,0.4-0.5h0.1v3.9c0,0.9-0.4,1.7-1.2,2.3c-0.8,0.6-1.9,1-3.4,1
	c-2.1,0-3.2-0.8-3.2-2.4c0-0.7,0.2-1.2,0.7-1.7c0.5-0.4,1.4-0.8,2.8-1.2C948.2,270.1,949,269.8,949.7,269.6z"/>
<path d="M963,285.5l9.8-24.9h-3.3l-4.8,12.5l-4.8-12.5h-3.4l6.6,16.3l-3.4,8.6H963z"/>
<path d="M1063.6,278.1v-9.5h9.9v-2.9h-9.9V258h10.9v-3.1h-14.2v23.1H1063.6z"/>
<path d="M1081.8,278.1v-10.3c0-2.9,1.1-4.3,3.2-4.3c0.5,0,0.9,0.1,1.4,0.3l0.6-3.2c-0.4-0.2-1-0.3-1.6-0.3c-0.7,0-1.4,0.2-2.1,0.6
	c-0.7,0.4-1.2,0.9-1.5,1.6h-0.1v-1.9h-3.1v17.5H1081.8z"/>
<path d="M1093.7,260.6h-3.2v17.5h3.2V260.6z M1093.8,254h-3.5v3.4h3.5V254z"/>
<path d="M1109.1,274.5c-0.8,0.8-1.8,1.1-3.1,1.1c-1.6,0-2.8-0.6-3.6-1.6c-0.8-1.1-1.3-2.7-1.3-4.7s0.4-3.6,1.3-4.7s2.1-1.6,3.6-1.6
	c1.3,0,2.3,0.4,3.1,1.3c0.8,0.8,1.2,1.8,1.2,2.9v4.7C1110.3,272.8,1109.9,273.7,1109.1,274.5z M1113.5,278.1V254h-3.2v8.3h-0.1
	c-1.3-1.4-2.8-2.2-4.7-2.2c-2.1,0-3.9,0.8-5.4,2.5c-1.5,1.7-2.2,3.9-2.2,6.7c0,2.8,0.7,5.1,2.1,6.7s3.2,2.5,5.5,2.5
	c2,0,3.7-0.7,4.9-2.2h0.1v1.7H1113.5z"/>
<path d="M1131.6,278.1v-11.6c0-2.2-0.6-3.8-1.9-4.9c-1.2-1-2.9-1.6-4.9-1.6c-1.9,0-3.4,0.5-4.6,1.4c-1.2,0.9-1.9,2.2-2.2,3.7l2.8,1
	c0.5-2.2,1.9-3.3,4.1-3.3c1.1,0,2,0.2,2.6,0.7c0.6,0.5,0.9,1,0.9,1.7s-0.3,1.2-1,1.6c-0.7,0.4-2,0.8-3.8,1.3c-2.1,0.5-3.6,1.2-4.5,2
	c-0.9,0.8-1.3,2-1.3,3.4c0,1.5,0.5,2.7,1.5,3.6s2.5,1.4,4.5,1.4c1.4,0,2.6-0.3,3.4-0.8c0.9-0.5,1.5-1.1,1.7-1.5h0.1v1.8H1131.6z
	 M1126.8,269.6c0.6-0.3,1-0.4,1.2-0.6s0.3-0.3,0.4-0.5h0.1v3.9c0,0.9-0.4,1.7-1.2,2.3s-1.9,1-3.4,1c-2.1,0-3.2-0.8-3.2-2.4
	c0-0.7,0.2-1.2,0.7-1.7c0.5-0.4,1.4-0.8,2.8-1.2C1125.3,270.1,1126.2,269.8,1126.8,269.6z"/>
<path d="M1140.2,285.5l9.8-24.9h-3.3l-4.8,12.5l-4.8-12.5h-3.4l6.6,16.3l-3.4,8.6H1140.2z"/>
<path d="M1241.4,276.4c1.6,1.4,3.7,2.1,6.4,2.1c2.5,0,4.5-0.6,6-1.9c1.5-1.3,2.2-2.9,2.2-4.9c0-1.7-0.5-3.1-1.5-4.1c-1-1-3-2-5.9-3
	c-2.5-0.8-4-1.5-4.8-2c-0.7-0.5-1.1-1.1-1.1-2c0-0.9,0.4-1.6,1.1-2.2c0.7-0.6,1.7-0.9,3.1-0.9c1.5,0,2.6,0.3,3.4,1
	c0.8,0.7,1.3,1.7,1.6,3l3.3-0.7c-0.3-2.1-1.2-3.7-2.7-4.8s-3.3-1.6-5.5-1.6c-2.3,0-4.1,0.6-5.4,1.8c-1.3,1.2-2,2.7-2,4.4
	c0,1.6,0.5,2.9,1.6,3.9s2.9,1.9,5.4,2.7c2.6,0.8,4.3,1.6,5.1,2.1c0.8,0.6,1.2,1.4,1.2,2.4c0,1-0.4,1.9-1.3,2.5s-2.1,1-3.6,1
	c-1.9,0-3.3-0.5-4.1-1.4s-1.4-2.5-1.7-4.6l-3.5,0.7C1238.9,272.9,1239.8,275,1241.4,276.4z"/>
<path d="M1272.7,278.1v-11.6c0-2.2-0.6-3.8-1.9-4.9c-1.2-1-2.9-1.6-4.9-1.6c-1.9,0-3.4,0.5-4.6,1.4c-1.2,0.9-1.9,2.2-2.2,3.7l2.8,1
	c0.5-2.2,1.9-3.3,4.1-3.3c1.1,0,2,0.2,2.6,0.7c0.6,0.5,0.9,1,0.9,1.7s-0.3,1.2-1,1.6s-2,0.8-3.8,1.3c-2.1,0.5-3.6,1.2-4.5,2
	c-0.9,0.8-1.3,2-1.3,3.4c0,1.5,0.5,2.7,1.5,3.6c1,1,2.5,1.4,4.5,1.4c1.4,0,2.6-0.3,3.4-0.8c0.9-0.5,1.5-1.1,1.7-1.5h0.1v1.8H1272.7z
	 M1267.8,269.6c0.6-0.3,1-0.4,1.2-0.6s0.3-0.3,0.4-0.5h0.1v3.9c0,0.9-0.4,1.7-1.2,2.3s-1.9,1-3.4,1c-2.1,0-3.2-0.8-3.2-2.4
	c0-0.7,0.2-1.2,0.7-1.7c0.5-0.4,1.4-0.8,2.8-1.2C1266.3,270.1,1267.2,269.8,1267.8,269.6z"/>
<path d="M1279.5,276.7c0.8,0.9,2.1,1.4,4,1.4h1.6v-3.1h-1.3c-0.9,0-1.5-0.2-1.8-0.6c-0.3-0.4-0.4-1.1-0.4-2.1v-8.9h4.3v-2.8h-4.4
	v-4.3h-3.1v4.3h-2.6v2.8h2.6v9.2C1278.4,274.4,1278.8,275.8,1279.5,276.7z"/>
<path d="M1291.2,276.8c1,1.1,2.5,1.7,4.5,1.7c2,0,3.6-0.7,4.7-2.2h0.1v1.7h3.1v-17.5h-3.2v10.8c0,1.3-0.4,2.4-1.1,3.1
	s-1.7,1.1-2.9,1.1c-1.3,0-2.2-0.3-2.7-0.9c-0.5-0.6-0.8-1.6-0.8-3.1v-10.9h-3.2v11.4C1289.7,274.1,1290.2,275.7,1291.2,276.8z"/>
<path d="M1312,278.1v-10.3c0-2.9,1.1-4.3,3.2-4.3c0.5,0,0.9,0.1,1.4,0.3l0.6-3.2c-0.4-0.2-1-0.3-1.6-0.3c-0.7,0-1.4,0.2-2.1,0.6
	c-0.7,0.4-1.2,0.9-1.5,1.6h-0.1v-1.9h-3.1v17.5H1312z"/>
<path d="M1330.6,274.5c-0.8,0.8-1.8,1.1-3.1,1.1c-1.6,0-2.8-0.6-3.6-1.6c-0.8-1.1-1.3-2.7-1.3-4.7s0.4-3.6,1.3-4.7s2.1-1.6,3.6-1.6
	c1.3,0,2.3,0.4,3.1,1.3s1.2,1.8,1.2,2.9v4.7C1331.8,272.8,1331.4,273.7,1330.6,274.5z M1335,278.1V254h-3.2v8.3h-0.1
	c-1.3-1.4-2.8-2.2-4.7-2.2c-2.1,0-3.9,0.8-5.4,2.5c-1.5,1.7-2.2,3.9-2.2,6.7c0,2.8,0.7,5.1,2.1,6.7s3.2,2.5,5.5,2.5
	c2,0,3.7-0.7,4.9-2.2h0.1v1.7H1335z"/>
<path d="M1353.1,278.1v-11.6c0-2.2-0.6-3.8-1.9-4.9c-1.2-1-2.9-1.6-4.9-1.6c-1.9,0-3.4,0.5-4.6,1.4c-1.2,0.9-1.9,2.2-2.2,3.7l2.8,1
	c0.5-2.2,1.9-3.3,4.1-3.3c1.1,0,2,0.2,2.6,0.7c0.6,0.5,0.9,1,0.9,1.7s-0.3,1.2-1,1.6s-2,0.8-3.8,1.3c-2.1,0.5-3.6,1.2-4.5,2
	c-0.9,0.8-1.3,2-1.3,3.4c0,1.5,0.5,2.7,1.5,3.6c1,1,2.5,1.4,4.5,1.4c1.4,0,2.6-0.3,3.4-0.8c0.9-0.5,1.5-1.1,1.7-1.5h0.1v1.8H1353.1z
	 M1348.3,269.6c0.6-0.3,1-0.4,1.2-0.6s0.3-0.3,0.4-0.5h0.1v3.9c0,0.9-0.4,1.7-1.2,2.3s-1.9,1-3.4,1c-2.1,0-3.2-0.8-3.2-2.4
	c0-0.7,0.2-1.2,0.7-1.7c0.5-0.4,1.4-0.8,2.8-1.2C1346.8,270.1,1347.7,269.8,1348.3,269.6z"/>
<path d="M1361.6,285.5l9.8-24.9h-3.3l-4.8,12.5l-4.8-12.5h-3.4l6.6,16.3l-3.4,8.6H1361.6z"/>
<path d="M48.2,276.4c1.6,1.4,3.7,2.1,6.4,2.1c2.5,0,4.5-0.6,6-1.9c1.5-1.3,2.2-2.9,2.2-4.9c0-1.7-0.5-3.1-1.5-4.1s-3-2-5.9-3
	c-2.5-0.8-4-1.5-4.8-2c-0.7-0.5-1.1-1.1-1.1-2c0-0.9,0.4-1.6,1.1-2.2c0.7-0.6,1.7-0.9,3.1-0.9c1.5,0,2.6,0.3,3.4,1
	c0.7,0.7,1.3,1.7,1.6,3l3.3-0.7c-0.3-2.1-1.2-3.7-2.7-4.8s-3.3-1.6-5.5-1.6c-2.3,0-4.1,0.6-5.4,1.8c-1.3,1.2-2,2.7-2,4.4
	c0,1.6,0.5,2.9,1.6,3.9s2.9,1.9,5.4,2.7c2.6,0.8,4.3,1.6,5.1,2.1c0.8,0.6,1.2,1.4,1.2,2.4c0,1-0.4,1.9-1.3,2.5s-2.1,1-3.6,1
	c-1.9,0-3.3-0.5-4.1-1.4s-1.4-2.5-1.7-4.6l-3.5,0.7C45.7,272.9,46.6,275,48.2,276.4z"/>
<path d="M68,276.8c1,1.1,2.5,1.7,4.5,1.7c2,0,3.6-0.7,4.7-2.2h0.1v1.7h3.1v-17.5h-3.2v10.8c0,1.3-0.4,2.4-1.1,3.1s-1.7,1.1-2.9,1.1
	c-1.3,0-2.2-0.3-2.7-0.9s-0.8-1.6-0.8-3.1v-10.9h-3.2v11.4C66.4,274.1,66.9,275.7,68,276.8z"/>
<path d="M88.8,278.1v-11c0-1.3,0.4-2.2,1.1-3s1.8-1.1,3-1.1c2.5,0,3.7,1.5,3.7,4.5v10.5h3.2v-11.5c0-2-0.6-3.6-1.7-4.8
	c-1.1-1.2-2.7-1.7-4.6-1.7c-1,0-1.9,0.2-2.8,0.6c-0.9,0.4-1.6,0.9-2,1.6h-0.1v-1.7h-3.1v17.5H88.8z"/>
<path d="M115,274.5c-0.8,0.8-1.8,1.1-3.1,1.1c-1.6,0-2.8-0.6-3.6-1.6c-0.8-1.1-1.3-2.7-1.3-4.7s0.4-3.6,1.3-4.7s2.1-1.6,3.6-1.6
	c1.3,0,2.3,0.4,3.1,1.3c0.8,0.8,1.2,1.8,1.2,2.9v4.7C116.2,272.8,115.8,273.7,115,274.5z M119.4,278.1V254h-3.2v8.3h-0.1
	c-1.3-1.4-2.8-2.2-4.7-2.2c-2.1,0-3.9,0.8-5.4,2.5c-1.5,1.7-2.2,3.9-2.2,6.7c0,2.8,0.7,5.1,2.1,6.7s3.2,2.5,5.5,2.5
	c2,0,3.7-0.7,4.9-2.2h0.1v1.7H119.4z"/>
<path d="M137.5,278.1v-11.6c0-2.2-0.6-3.8-1.9-4.9c-1.2-1-2.9-1.6-4.9-1.6c-1.9,0-3.4,0.5-4.6,1.4c-1.2,0.9-1.9,2.2-2.2,3.7l2.8,1
	c0.5-2.2,1.9-3.3,4.1-3.3c1.1,0,2,0.2,2.6,0.7c0.6,0.5,0.9,1,0.9,1.7s-0.3,1.2-1,1.6c-0.7,0.4-2,0.8-3.8,1.3c-2.1,0.5-3.6,1.2-4.5,2
	c-0.9,0.8-1.3,2-1.3,3.4c0,1.5,0.5,2.7,1.5,3.6s2.5,1.4,4.5,1.4c1.4,0,2.6-0.3,3.4-0.8c0.9-0.5,1.5-1.1,1.7-1.5h0.1v1.8H137.5z
	 M132.7,269.6c0.6-0.3,1-0.4,1.2-0.6s0.3-0.3,0.4-0.5h0.1v3.9c0,0.9-0.4,1.7-1.2,2.3c-0.8,0.6-1.9,1-3.4,1c-2.1,0-3.2-0.8-3.2-2.4
	c0-0.7,0.2-1.2,0.7-1.7c0.5-0.4,1.4-0.8,2.8-1.2C131.2,270.1,132.1,269.8,132.7,269.6z"/>
<path d="M146,285.5l9.8-24.9h-3.3l-4.8,12.5l-4.8-12.5h-3.4l6.6,16.3l-3.4,8.6H146z"/>
</svg>
