<?xml version="1.0" encoding="utf-8"?>
<!-- Generator: Adobe Illustrator 24.1.3, SVG Export Plug-In . SVG Version: 6.00 Build 0)  -->
<svg version="1.1" id="Layer_1" xmlns="http://www.w3.org/2000/svg" xmlns:xlink="http://www.w3.org/1999/xlink" x="0px" y="0px"
	 viewBox="0 0 1404 1872" style="enable-background:new 0 0 1404 1872;" xml:space="preserve">
<style type="text/css">
	.st0{fill:#FFFFFF;}
	.st1{fill:none;stroke:#000000;stroke-width:0.5;stroke-miterlimit:10;}
	.st2{fill:none;stroke:#000000;stroke-width:0.5;stroke-miterlimit:10;stroke-dasharray:12,18;}
</style>
<g id="White_BG">
	<rect class="st0" width="1404" height="1872"/>
</g>
<g>
	<line class="st1" x1="159.5" y1="1872" x2="159.5" y2="0"/>
	<line class="st2" x1="110.5" y1="1871.4" x2="110.5" y2="7.1"/>
	<line class="st1" x1="205.9" y1="1402.1" x2="62.4" y2="1330.1"/>
	<line class="st1" x1="205.9" y1="1330.1" x2="62.4" y2="1258.3"/>
	<line class="st1" x1="205.9" y1="1258.3" x2="62.4" y2="1186.3"/>
	<line class="st1" x1="205.9" y1="1186.3" x2="62.4" y2="1114.4"/>
	<line class="st1" x1="205.9" y1="1114.4" x2="62.4" y2="1042.5"/>
	<line class="st1" x1="205.9" y1="1042.5" x2="62.4" y2="970.5"/>
	<line class="st1" x1="205.9" y1="970.5" x2="62.4" y2="898.7"/>
	<line class="st1" x1="205.9" y1="898.7" x2="62.4" y2="826.8"/>
	<line class="st1" x1="205.9" y1="826.8" x2="62.4" y2="754.8"/>
	<line class="st1" x1="138" y1="1871.5" x2="62.4" y2="1833.6"/>
	<line class="st1" x1="205.9" y1="1833.6" x2="62.4" y2="1761.6"/>
	<line class="st1" x1="205.9" y1="1761.6" x2="62.4" y2="1689.7"/>
	<line class="st1" x1="205.9" y1="1689.7" x2="62.4" y2="1617.9"/>
	<line class="st1" x1="205.9" y1="1617.9" x2="62.4" y2="1545.9"/>
	<line class="st1" x1="205.9" y1="1545.9" x2="62.4" y2="1474"/>
	<line class="st1" x1="205.9" y1="1474" x2="62.4" y2="1402.1"/>
	<line class="st1" x1="205.9" y1="754.8" x2="62.4" y2="682.9"/>
	<line class="st1" x1="205.9" y1="682.9" x2="62.4" y2="611"/>
	<line class="st1" x1="205.9" y1="611" x2="62.4" y2="539.1"/>
	<line class="st1" x1="205.9" y1="539.1" x2="62.4" y2="467.2"/>
	<line class="st1" x1="205.9" y1="467.2" x2="62.4" y2="395.2"/>
	<line class="st1" x1="205.9" y1="395.2" x2="62.4" y2="323.3"/>
	<line class="st1" x1="205.9" y1="323.3" x2="62.4" y2="251.4"/>
	<line class="st1" x1="205.9" y1="251.4" x2="62.4" y2="179.5"/>
	<line class="st1" x1="205.9" y1="179.5" x2="62.4" y2="107.6"/>
	<line class="st1" x1="205.9" y1="107.6" x2="62.4" y2="35.7"/>
	<line class="st1" x1="205.9" y1="35.7" x2="134.7" y2="0"/>
	<line class="st2" x1="206.5" y1="1871.4" x2="206.5" y2="7.1"/>
	<line class="st2" x1="61.5" y1="1871.4" x2="61.5" y2="7.1"/>
</g>
<g>
	<line class="st1" x1="353.5" y1="1872" x2="353.5" y2="0"/>
	<line class="st2" x1="304.5" y1="1871.4" x2="304.5" y2="7.1"/>
	<line class="st1" x1="399.9" y1="1402.1" x2="256.4" y2="1330.1"/>
	<line class="st1" x1="399.9" y1="1330.1" x2="256.4" y2="1258.3"/>
	<line class="st1" x1="399.9" y1="1258.3" x2="256.4" y2="1186.3"/>
	<line class="st1" x1="399.9" y1="1186.3" x2="256.4" y2="1114.4"/>
	<line class="st1" x1="399.9" y1="1114.4" x2="256.4" y2="1042.5"/>
	<line class="st1" x1="399.9" y1="1042.5" x2="256.4" y2="970.5"/>
	<line class="st1" x1="399.9" y1="970.5" x2="256.4" y2="898.7"/>
	<line class="st1" x1="399.9" y1="898.7" x2="256.4" y2="826.8"/>
	<line class="st1" x1="399.9" y1="826.8" x2="256.4" y2="754.8"/>
	<line class="st1" x1="332" y1="1871.5" x2="256.4" y2="1833.6"/>
	<line class="st1" x1="399.9" y1="1833.6" x2="256.4" y2="1761.6"/>
	<line class="st1" x1="399.9" y1="1761.6" x2="256.4" y2="1689.7"/>
	<line class="st1" x1="399.9" y1="1689.7" x2="256.4" y2="1617.9"/>
	<line class="st1" x1="399.9" y1="1617.9" x2="256.4" y2="1545.9"/>
	<line class="st1" x1="399.9" y1="1545.9" x2="256.4" y2="1474"/>
	<line class="st1" x1="399.9" y1="1474" x2="256.4" y2="1402.1"/>
	<line class="st1" x1="399.9" y1="754.8" x2="256.4" y2="682.9"/>
	<line class="st1" x1="399.9" y1="682.9" x2="256.4" y2="611"/>
	<line class="st1" x1="399.9" y1="611" x2="256.4" y2="539.1"/>
	<line class="st1" x1="399.9" y1="539.1" x2="256.4" y2="467.2"/>
	<line class="st1" x1="399.9" y1="467.2" x2="256.4" y2="395.2"/>
	<line class="st1" x1="399.9" y1="395.2" x2="256.4" y2="323.3"/>
	<line class="st1" x1="399.9" y1="323.3" x2="256.4" y2="251.4"/>
	<line class="st1" x1="399.9" y1="251.4" x2="256.4" y2="179.5"/>
	<line class="st1" x1="399.9" y1="179.5" x2="256.4" y2="107.6"/>
	<line class="st1" x1="399.9" y1="107.6" x2="256.4" y2="35.7"/>
	<line class="st1" x1="399.9" y1="35.7" x2="328.7" y2="0"/>
	<line class="st2" x1="400.5" y1="1871.4" x2="400.5" y2="7.1"/>
	<line class="st2" x1="255.5" y1="1871.4" x2="255.5" y2="7.1"/>
</g>
<g>
	<line class="st1" x1="547.5" y1="1872" x2="547.5" y2="0"/>
	<line class="st2" x1="498.5" y1="1871.4" x2="498.5" y2="7.1"/>
	<line class="st1" x1="593.9" y1="1402.1" x2="450.4" y2="1330.1"/>
	<line class="st1" x1="593.9" y1="1330.1" x2="450.4" y2="1258.3"/>
	<line class="st1" x1="593.9" y1="1258.3" x2="450.4" y2="1186.3"/>
	<line class="st1" x1="593.9" y1="1186.3" x2="450.4" y2="1114.4"/>
	<line class="st1" x1="593.9" y1="1114.4" x2="450.4" y2="1042.5"/>
	<line class="st1" x1="593.9" y1="1042.5" x2="450.4" y2="970.5"/>
	<line class="st1" x1="593.9" y1="970.5" x2="450.4" y2="898.7"/>
	<line class="st1" x1="593.9" y1="898.7" x2="450.4" y2="826.8"/>
	<line class="st1" x1="593.9" y1="826.8" x2="450.4" y2="754.8"/>
	<line class="st1" x1="526" y1="1871.5" x2="450.4" y2="1833.6"/>
	<line class="st1" x1="593.9" y1="1833.6" x2="450.4" y2="1761.6"/>
	<line class="st1" x1="593.9" y1="1761.6" x2="450.4" y2="1689.7"/>
	<line class="st1" x1="593.9" y1="1689.7" x2="450.4" y2="1617.9"/>
	<line class="st1" x1="593.9" y1="1617.9" x2="450.4" y2="1545.9"/>
	<line class="st1" x1="593.9" y1="1545.9" x2="450.4" y2="1474"/>
	<line class="st1" x1="593.9" y1="1474" x2="450.4" y2="1402.1"/>
	<line class="st1" x1="593.9" y1="754.8" x2="450.4" y2="682.9"/>
	<line class="st1" x1="593.9" y1="682.9" x2="450.4" y2="611"/>
	<line class="st1" x1="593.9" y1="611" x2="450.4" y2="539.1"/>
	<line class="st1" x1="593.9" y1="539.1" x2="450.4" y2="467.2"/>
	<line class="st1" x1="593.9" y1="467.2" x2="450.4" y2="395.2"/>
	<line class="st1" x1="593.9" y1="395.2" x2="450.4" y2="323.3"/>
	<line class="st1" x1="593.9" y1="323.3" x2="450.4" y2="251.4"/>
	<line class="st1" x1="593.9" y1="251.4" x2="450.4" y2="179.5"/>
	<line class="st1" x1="593.9" y1="179.5" x2="450.4" y2="107.6"/>
	<line class="st1" x1="593.9" y1="107.6" x2="450.4" y2="35.7"/>
	<line class="st1" x1="593.9" y1="35.7" x2="522.7" y2="0"/>
	<line class="st2" x1="594.5" y1="1871.4" x2="594.5" y2="7.1"/>
	<line class="st2" x1="449.5" y1="1871.4" x2="449.5" y2="7.1"/>
</g>
<g>
	<line class="st1" x1="741.5" y1="1872" x2="741.5" y2="0"/>
	<line class="st2" x1="692.5" y1="1871.4" x2="692.5" y2="7.1"/>
	<line class="st1" x1="787.9" y1="1402.1" x2="644.4" y2="1330.1"/>
	<line class="st1" x1="787.9" y1="1330.1" x2="644.4" y2="1258.3"/>
	<line class="st1" x1="787.9" y1="1258.3" x2="644.4" y2="1186.3"/>
	<line class="st1" x1="787.9" y1="1186.3" x2="644.4" y2="1114.4"/>
	<line class="st1" x1="787.9" y1="1114.4" x2="644.4" y2="1042.5"/>
	<line class="st1" x1="787.9" y1="1042.5" x2="644.4" y2="970.5"/>
	<line class="st1" x1="787.9" y1="970.5" x2="644.4" y2="898.7"/>
	<line class="st1" x1="787.9" y1="898.7" x2="644.4" y2="826.8"/>
	<line class="st1" x1="787.9" y1="826.8" x2="644.4" y2="754.8"/>
	<line class="st1" x1="720" y1="1871.5" x2="644.4" y2="1833.6"/>
	<line class="st1" x1="787.9" y1="1833.6" x2="644.4" y2="1761.6"/>
	<line class="st1" x1="787.9" y1="1761.6" x2="644.4" y2="1689.7"/>
	<line class="st1" x1="787.9" y1="1689.7" x2="644.4" y2="1617.9"/>
	<line class="st1" x1="787.9" y1="1617.9" x2="644.4" y2="1545.9"/>
	<line class="st1" x1="787.9" y1="1545.9" x2="644.4" y2="1474"/>
	<line class="st1" x1="787.9" y1="1474" x2="644.4" y2="1402.1"/>
	<line class="st1" x1="787.9" y1="754.8" x2="644.4" y2="682.9"/>
	<line class="st1" x1="787.9" y1="682.9" x2="644.4" y2="611"/>
	<line class="st1" x1="787.9" y1="611" x2="644.4" y2="539.1"/>
	<line class="st1" x1="787.9" y1="539.1" x2="644.4" y2="467.2"/>
	<line class="st1" x1="787.9" y1="467.2" x2="644.4" y2="395.2"/>
	<line class="st1" x1="787.9" y1="395.2" x2="644.4" y2="323.3"/>
	<line class="st1" x1="787.9" y1="323.3" x2="644.4" y2="251.4"/>
	<line class="st1" x1="787.9" y1="251.4" x2="644.4" y2="179.5"/>
	<line class="st1" x1="787.9" y1="179.5" x2="644.4" y2="107.6"/>
	<line class="st1" x1="787.9" y1="107.6" x2="644.4" y2="35.7"/>
	<line class="st1" x1="787.9" y1="35.7" x2="716.7" y2="0"/>
	<line class="st2" x1="788.5" y1="1871.4" x2="788.5" y2="7.1"/>
	<line class="st2" x1="643.5" y1="1871.4" x2="643.5" y2="7.1"/>
</g>
<g>
	<line class="st1" x1="935.5" y1="1872" x2="935.5" y2="0"/>
	<line class="st2" x1="886.5" y1="1871.4" x2="886.5" y2="7.1"/>
	<line class="st1" x1="981.9" y1="1402.1" x2="838.4" y2="1330.1"/>
	<line class="st1" x1="981.9" y1="1330.1" x2="838.4" y2="1258.3"/>
	<line class="st1" x1="981.9" y1="1258.3" x2="838.4" y2="1186.3"/>
	<line class="st1" x1="981.9" y1="1186.3" x2="838.4" y2="1114.4"/>
	<line class="st1" x1="981.9" y1="1114.4" x2="838.4" y2="1042.5"/>
	<line class="st1" x1="981.9" y1="1042.5" x2="838.4" y2="970.5"/>
	<line class="st1" x1="981.9" y1="970.5" x2="838.4" y2="898.7"/>
	<line class="st1" x1="981.9" y1="898.7" x2="838.4" y2="826.8"/>
	<line class="st1" x1="981.9" y1="826.8" x2="838.4" y2="754.8"/>
	<line class="st1" x1="914" y1="1871.5" x2="838.4" y2="1833.6"/>
	<line class="st1" x1="981.9" y1="1833.6" x2="838.4" y2="1761.6"/>
	<line class="st1" x1="981.9" y1="1761.6" x2="838.4" y2="1689.7"/>
	<line class="st1" x1="981.9" y1="1689.7" x2="838.4" y2="1617.9"/>
	<line class="st1" x1="981.9" y1="1617.9" x2="838.4" y2="1545.9"/>
	<line class="st1" x1="981.9" y1="1545.9" x2="838.4" y2="1474"/>
	<line class="st1" x1="981.9" y1="1474" x2="838.4" y2="1402.1"/>
	<line class="st1" x1="981.9" y1="754.8" x2="838.4" y2="682.9"/>
	<line class="st1" x1="981.9" y1="682.9" x2="838.4" y2="611"/>
	<line class="st1" x1="981.9" y1="611" x2="838.4" y2="539.1"/>
	<line class="st1" x1="981.9" y1="539.1" x2="838.4" y2="467.2"/>
	<line class="st1" x1="981.9" y1="467.2" x2="838.4" y2="395.2"/>
	<line class="st1" x1="981.9" y1="395.2" x2="838.4" y2="323.3"/>
	<line class="st1" x1="981.9" y1="323.3" x2="838.4" y2="251.4"/>
	<line class="st1" x1="981.9" y1="251.4" x2="838.4" y2="179.5"/>
	<line class="st1" x1="981.9" y1="179.5" x2="838.4" y2="107.6"/>
	<line class="st1" x1="981.9" y1="107.6" x2="838.4" y2="35.7"/>
	<line class="st1" x1="981.9" y1="35.7" x2="910.7" y2="0"/>
	<line class="st2" x1="982.5" y1="1871.4" x2="982.5" y2="7.1"/>
	<line class="st2" x1="837.5" y1="1871.4" x2="837.5" y2="7.1"/>
</g>
<g>
	<line class="st1" x1="1129.5" y1="1872" x2="1129.5" y2="0"/>
	<line class="st2" x1="1080.5" y1="1871.4" x2="1080.5" y2="7.1"/>
	<line class="st1" x1="1175.9" y1="1402.1" x2="1032.4" y2="1330.1"/>
	<line class="st1" x1="1175.9" y1="1330.1" x2="1032.4" y2="1258.3"/>
	<line class="st1" x1="1175.9" y1="1258.3" x2="1032.4" y2="1186.3"/>
	<line class="st1" x1="1175.9" y1="1186.3" x2="1032.4" y2="1114.4"/>
	<line class="st1" x1="1175.9" y1="1114.4" x2="1032.4" y2="1042.5"/>
	<line class="st1" x1="1175.9" y1="1042.5" x2="1032.4" y2="970.5"/>
	<line class="st1" x1="1175.9" y1="970.5" x2="1032.4" y2="898.7"/>
	<line class="st1" x1="1175.9" y1="898.7" x2="1032.4" y2="826.8"/>
	<line class="st1" x1="1175.9" y1="826.8" x2="1032.4" y2="754.8"/>
	<line class="st1" x1="1108" y1="1871.5" x2="1032.4" y2="1833.6"/>
	<line class="st1" x1="1175.9" y1="1833.6" x2="1032.4" y2="1761.6"/>
	<line class="st1" x1="1175.9" y1="1761.6" x2="1032.4" y2="1689.7"/>
	<line class="st1" x1="1175.9" y1="1689.7" x2="1032.4" y2="1617.9"/>
	<line class="st1" x1="1175.9" y1="1617.9" x2="1032.4" y2="1545.9"/>
	<line class="st1" x1="1175.9" y1="1545.9" x2="1032.4" y2="1474"/>
	<line class="st1" x1="1175.9" y1="1474" x2="1032.4" y2="1402.1"/>
	<line class="st1" x1="1175.9" y1="754.8" x2="1032.4" y2="682.9"/>
	<line class="st1" x1="1175.9" y1="682.9" x2="1032.4" y2="611"/>
	<line class="st1" x1="1175.9" y1="611" x2="1032.4" y2="539.1"/>
	<line class="st1" x1="1175.9" y1="539.1" x2="1032.4" y2="467.2"/>
	<line class="st1" x1="1175.9" y1="467.2" x2="1032.4" y2="395.2"/>
	<line class="st1" x1="1175.9" y1="395.2" x2="1032.4" y2="323.3"/>
	<line class="st1" x1="1175.9" y1="323.3" x2="1032.4" y2="251.4"/>
	<line class="st1" x1="1175.9" y1="251.4" x2="1032.4" y2="179.5"/>
	<line class="st1" x1="1175.9" y1="179.5" x2="1032.4" y2="107.6"/>
	<line class="st1" x1="1175.9" y1="107.6" x2="1032.4" y2="35.7"/>
	<line class="st1" x1="1175.9" y1="35.7" x2="1104.7" y2="0"/>
	<line class="st2" x1="1176.5" y1="1871.4" x2="1176.5" y2="7.1"/>
	<line class="st2" x1="1031.5" y1="1871.4" x2="1031.5" y2="7.1"/>
</g>
<g>
	<line class="st1" x1="1323.5" y1="1872" x2="1323.5" y2="0"/>
	<line class="st2" x1="1274.5" y1="1871.4" x2="1274.5" y2="7.1"/>
	<line class="st1" x1="1369.9" y1="1402.1" x2="1226.4" y2="1330.1"/>
	<line class="st1" x1="1369.9" y1="1330.1" x2="1226.4" y2="1258.3"/>
	<line class="st1" x1="1369.9" y1="1258.3" x2="1226.4" y2="1186.3"/>
	<line class="st1" x1="1369.9" y1="1186.3" x2="1226.4" y2="1114.4"/>
	<line class="st1" x1="1369.9" y1="1114.4" x2="1226.4" y2="1042.5"/>
	<line class="st1" x1="1369.9" y1="1042.5" x2="1226.4" y2="970.5"/>
	<line class="st1" x1="1369.9" y1="970.5" x2="1226.4" y2="898.7"/>
	<line class="st1" x1="1369.9" y1="898.7" x2="1226.4" y2="826.8"/>
	<line class="st1" x1="1369.9" y1="826.8" x2="1226.4" y2="754.8"/>
	<line class="st1" x1="1302" y1="1871.5" x2="1226.4" y2="1833.6"/>
	<line class="st1" x1="1369.9" y1="1833.6" x2="1226.4" y2="1761.6"/>
	<line class="st1" x1="1369.9" y1="1761.6" x2="1226.4" y2="1689.7"/>
	<line class="st1" x1="1369.9" y1="1689.7" x2="1226.4" y2="1617.9"/>
	<line class="st1" x1="1369.9" y1="1617.9" x2="1226.4" y2="1545.9"/>
	<line class="st1" x1="1369.9" y1="1545.9" x2="1226.4" y2="1474"/>
	<line class="st1" x1="1369.9" y1="1474" x2="1226.4" y2="1402.1"/>
	<line class="st1" x1="1369.9" y1="754.8" x2="1226.4" y2="682.9"/>
	<line class="st1" x1="1369.9" y1="682.9" x2="1226.4" y2="611"/>
	<line class="st1" x1="1369.9" y1="611" x2="1226.4" y2="539.1"/>
	<line class="st1" x1="1369.9" y1="539.1" x2="1226.4" y2="467.2"/>
	<line class="st1" x1="1369.9" y1="467.2" x2="1226.4" y2="395.2"/>
	<line class="st1" x1="1369.9" y1="395.2" x2="1226.4" y2="323.3"/>
	<line class="st1" x1="1369.9" y1="323.3" x2="1226.4" y2="251.4"/>
	<line class="st1" x1="1369.9" y1="251.4" x2="1226.4" y2="179.5"/>
	<line class="st1" x1="1369.9" y1="179.5" x2="1226.4" y2="107.6"/>
	<line class="st1" x1="1369.9" y1="107.6" x2="1226.4" y2="35.7"/>
	<line class="st1" x1="1369.9" y1="35.7" x2="1298.7" y2="0"/>
	<line class="st2" x1="1370.5" y1="1871.4" x2="1370.5" y2="7.1"/>
	<line class="st2" x1="1225.5" y1="1871.4" x2="1225.5" y2="7.1"/>
</g>
</svg>
