<?xml version="1.0" encoding="utf-8"?>
<!-- Generator: Adobe Illustrator 22.1.0, SVG Export Plug-In . SVG Version: 6.00 Build 0)  -->
<svg version="1.1" id="Layer_1" xmlns="http://www.w3.org/2000/svg" xmlns:xlink="http://www.w3.org/1999/xlink" x="0px" y="0px"
	 viewBox="0 0 1404 1872" style="enable-background:new 0 0 1404 1872;" xml:space="preserve">
<style type="text/css">
	.st0{fill:#FFFFFF;}
	.st1{fill:none;stroke:#000000;stroke-width:0.5;stroke-miterlimit:10;}
	.st2{font-family:'MaisonNeue-Medium';}
	.st3{font-size:24px;}
</style>
<title>templates_artboards_horisontal_turnt</title>
<g id="White_BG">
	<rect y="1" class="st0" width="1404" height="1871"/>
</g>
<g id="LINES">
	<line class="st1" x1="283.5" y1="1661" x2="283.5" y2="1"/>
	<line class="st1" x1="380.5" y1="1661" x2="380.5" y2="1"/>
	<line class="st1" x1="478.5" y1="1661" x2="478.5" y2="1"/>
	<line class="st1" x1="575.5" y1="1661" x2="575.5" y2="1"/>
	<line class="st1" x1="672.5" y1="1661" x2="672.5" y2="1"/>
	<line class="st1" x1="770.5" y1="1661" x2="770.5" y2="1"/>
	<line class="st1" x1="867.5" y1="1661" x2="867.5" y2="1"/>
	<line class="st1" x1="965.5" y1="1661" x2="965.5" y2="1"/>
	<line class="st1" x1="1062.5" y1="1661" x2="1062.5" y2="1"/>
	<line class="st1" x1="1159.5" y1="1661" x2="1159.5" y2="1"/>
	<line class="st1" x1="1257.5" y1="1661" x2="1257.5" y2="1"/>
	<line class="st1" x1="1354.5" y1="1661" x2="1354.5" y2="1"/>
	<line class="st1" x1="149.5" y1="1872" x2="149.5" y2="0"/>
	<rect x="228.5" y="1733.5" class="st1" width="55" height="55"/>
	<rect x="325.5" y="1733.5" class="st1" width="55" height="55"/>
	<rect x="423.5" y="1733.5" class="st1" width="55" height="55"/>
	<rect x="520.5" y="1733.5" class="st1" width="55" height="55"/>
	<rect x="617.5" y="1733.5" class="st1" width="55" height="55"/>
	<rect x="715.5" y="1733.5" class="st1" width="55" height="55"/>
	<rect x="812.5" y="1733.5" class="st1" width="55" height="55"/>
	<rect x="910.5" y="1733.5" class="st1" width="55" height="55"/>
	<rect x="1007.5" y="1733.5" class="st1" width="55" height="55"/>
	<rect x="1104.5" y="1733.5" class="st1" width="55" height="55"/>
	<rect x="1202.5" y="1733.5" class="st1" width="55" height="55"/>
	<rect x="1299.5" y="1733.5" class="st1" width="55" height="55"/>
</g>
<g id="TEXT">
	<text transform="matrix(6.123234e-17 -1 1 6.123234e-17 108.34 186.6703)" class="st2 st3">Deadline</text>
</g>
</svg>
