<?xml version="1.0" encoding="utf-8"?>
<!-- Generator: Adobe Illustrator 22.1.0, SVG Export Plug-In . SVG Version: 6.00 Build 0)  -->
<svg version="1.1" id="Layer_1" xmlns="http://www.w3.org/2000/svg" xmlns:xlink="http://www.w3.org/1999/xlink" x="0px" y="0px"
	 viewBox="0 0 1404 1872" style="enable-background:new 0 0 1404 1872;" xml:space="preserve">
<style type="text/css">
	.st0{fill:#FFFFFF;}
	.st1{fill:none;stroke:#000000;stroke-width:0.5;stroke-miterlimit:10;}
	.st2{font-family:'MaisonNeue-Medium';}
	.st3{font-size:72px;}
	.st4{letter-spacing:-1;}
	.st5{font-size:24px;}
</style>
<title>weeeeektest</title>
<g id="White_BG">
	<rect class="st0" width="1404" height="1870"/>
</g>
<g id="LINES">
	<line class="st1" x1="146.5" y1="1870" x2="146.5" y2="1"/>
	<line class="st1" x1="243.5" y1="1873" x2="243.5" y2="4"/>
	<line class="st1" x1="379.5" y1="1684" x2="379.5" y2="4"/>
	<line class="st1" x1="496.5" y1="1684" x2="496.5" y2="4"/>
	<line class="st1" x1="613.5" y1="1684" x2="613.5" y2="4"/>
	<line class="st1" x1="730.5" y1="1684" x2="730.5" y2="4"/>
	<line class="st1" x1="846.5" y1="1684" x2="846.5" y2="4"/>
	<line class="st1" x1="963.5" y1="1684" x2="963.5" y2="4"/>
	<line class="st1" x1="1080.5" y1="1684" x2="1080.5" y2="4"/>
	<line class="st1" x1="1197.5" y1="1684" x2="1197.5" y2="4"/>
	<line class="st1" x1="1313.5" y1="1684" x2="1313.5" y2="4"/>
</g>
<g id="TEXT">
	<text transform="matrix(6.123234e-17 -1 1 6.123234e-17 93.72 1527.0209)" class="st2 st3">D</text>
	<text transform="matrix(6.123234e-17 -1 1 6.123234e-17 93.72 1479.3607)" class="st2 st3 st4">a</text>
	<text transform="matrix(6.123234e-17 -1 1 6.123234e-17 93.72 1441.9193)" class="st2 st3">y:</text>
	<text transform="matrix(6.123234e-17 -1 1 6.123234e-17 202.64 1843.1498)" class="st2 st5">TIME</text>
	<text transform="matrix(6.123234e-17 -1 1 6.123234e-17 202.64 218.1498)" class="st2 st5">Da</text>
	<text transform="matrix(6.123234e-17 -1 1 6.123234e-17 202.64 189.3002)" class="st2 st5">t</text>
	<text transform="matrix(6.123234e-17 -1 1 6.123234e-17 202.64 180.8998)" class="st2 st5">e:       /      /    </text>
</g>
</svg>
