<?xml version="1.0" encoding="utf-8"?>
<!-- Generator: Adobe Illustrator 22.1.0, SVG Export Plug-In . SVG Version: 6.00 Build 0)  -->
<svg version="1.1" id="Layer_1" xmlns="http://www.w3.org/2000/svg" xmlns:xlink="http://www.w3.org/1999/xlink" x="0px" y="0px"
	 viewBox="0 0 1404 1872" style="enable-background:new 0 0 1404 1872;" xml:space="preserve">
<style type="text/css">
	.st0{fill:#FFFFFF;}
</style>
<title>templates_artboards_horisontal_turnt</title>
<g id="White_BG">
	<rect y="0" class="st0" width="1404" height="1873"/>
</g>
<g id="DOTS">
	<circle cx="725" cy="1" r="1"/>
	<circle cx="725" cy="44" r="1"/>
	<circle cx="725" cy="86" r="1"/>
	<circle cx="725" cy="129" r="1"/>
	<circle cx="725" cy="171" r="1"/>
	<circle cx="725" cy="214" r="1"/>
	<circle cx="725" cy="256" r="1"/>
	<circle cx="725" cy="299" r="1"/>
	<circle cx="725" cy="341" r="1"/>
	<circle cx="725" cy="384" r="1"/>
	<circle cx="725" cy="426" r="1"/>
	<circle cx="725" cy="469" r="1"/>
	<circle cx="725" cy="511" r="1"/>
	<circle cx="725" cy="554" r="1"/>
	<circle cx="725" cy="596" r="1"/>
	<circle cx="725" cy="639" r="1"/>
	<circle cx="725" cy="681" r="1"/>
	<circle cx="725" cy="724" r="1"/>
	<circle cx="725" cy="766" r="1"/>
	<circle cx="725" cy="809" r="1"/>
	<circle cx="725" cy="851" r="1"/>
	<circle cx="725" cy="894" r="1"/>
	<circle cx="725" cy="936" r="1"/>
	<circle cx="725" cy="979" r="1"/>
	<circle cx="725" cy="1021" r="1"/>
	<circle cx="725" cy="1064" r="1"/>
	<circle cx="725" cy="1107" r="1"/>
	<circle cx="725" cy="1149" r="1"/>
	<circle cx="725" cy="1192" r="1"/>
	<circle cx="725" cy="1234" r="1"/>
	<circle cx="725" cy="1277" r="1"/>
	<circle cx="725" cy="1319" r="1"/>
	<circle cx="725" cy="1362" r="1"/>
	<circle cx="725" cy="1404" r="1"/>
	<circle cx="725" cy="1447" r="1"/>
	<circle cx="725" cy="1489" r="1"/>
	<circle cx="725" cy="1532" r="1"/>
	<circle cx="725" cy="1574" r="1"/>
	<circle cx="725" cy="1617" r="1"/>
	<circle cx="725" cy="1659" r="1"/>
	<circle cx="725" cy="1702" r="1"/>
	<circle cx="725" cy="1744" r="1"/>
	<circle cx="725" cy="1787" r="1"/>
	<circle cx="725" cy="1829" r="1"/>
	<circle cx="725" cy="1872" r="1"/>
	<circle cx="767" cy="1" r="1"/>
	<circle cx="767" cy="44" r="1"/>
	<circle cx="767" cy="86" r="1"/>
	<circle cx="767" cy="129" r="1"/>
	<circle cx="767" cy="171" r="1"/>
	<circle cx="767" cy="214" r="1"/>
	<circle cx="767" cy="256" r="1"/>
	<circle cx="767" cy="299" r="1"/>
	<circle cx="767" cy="341" r="1"/>
	<circle cx="767" cy="384" r="1"/>
	<circle cx="767" cy="426" r="1"/>
	<circle cx="767" cy="469" r="1"/>
	<circle cx="767" cy="511" r="1"/>
	<circle cx="767" cy="554" r="1"/>
	<circle cx="767" cy="596" r="1"/>
	<circle cx="767" cy="639" r="1"/>
	<circle cx="767" cy="681" r="1"/>
	<circle cx="767" cy="724" r="1"/>
	<circle cx="767" cy="766" r="1"/>
	<circle cx="767" cy="809" r="1"/>
	<circle cx="767" cy="851" r="1"/>
	<circle cx="767" cy="894" r="1"/>
	<circle cx="767" cy="936" r="1"/>
	<circle cx="767" cy="979" r="1"/>
	<circle cx="767" cy="1021" r="1"/>
	<circle cx="767" cy="1064" r="1"/>
	<circle cx="767" cy="1107" r="1"/>
	<circle cx="767" cy="1149" r="1"/>
	<circle cx="767" cy="1192" r="1"/>
	<circle cx="767" cy="1234" r="1"/>
	<circle cx="767" cy="1277" r="1"/>
	<circle cx="767" cy="1319" r="1"/>
	<circle cx="767" cy="1362" r="1"/>
	<circle cx="767" cy="1404" r="1"/>
	<circle cx="767" cy="1447" r="1"/>
	<circle cx="767" cy="1489" r="1"/>
	<circle cx="767" cy="1532" r="1"/>
	<circle cx="767" cy="1574" r="1"/>
	<circle cx="767" cy="1617" r="1"/>
	<circle cx="767" cy="1659" r="1"/>
	<circle cx="767" cy="1702" r="1"/>
	<circle cx="767" cy="1744" r="1"/>
	<circle cx="767" cy="1787" r="1"/>
	<circle cx="767" cy="1829" r="1"/>
	<circle cx="767" cy="1872" r="1"/>
	<circle cx="810" cy="1" r="1"/>
	<circle cx="810" cy="44" r="1"/>
	<circle cx="810" cy="86" r="1"/>
	<circle cx="810" cy="129" r="1"/>
	<circle cx="810" cy="171" r="1"/>
	<circle cx="810" cy="214" r="1"/>
	<circle cx="810" cy="256" r="1"/>
	<circle cx="810" cy="299" r="1"/>
	<circle cx="810" cy="341" r="1"/>
	<circle cx="810" cy="384" r="1"/>
	<circle cx="810" cy="426" r="1"/>
	<circle cx="810" cy="469" r="1"/>
	<circle cx="810" cy="511" r="1"/>
	<circle cx="810" cy="554" r="1"/>
	<circle cx="810" cy="596" r="1"/>
	<circle cx="810" cy="639" r="1"/>
	<circle cx="810" cy="681" r="1"/>
	<circle cx="810" cy="724" r="1"/>
	<circle cx="810" cy="766" r="1"/>
	<circle cx="810" cy="809" r="1"/>
	<circle cx="810" cy="851" r="1"/>
	<circle cx="810" cy="894" r="1"/>
	<circle cx="810" cy="936" r="1"/>
	<circle cx="810" cy="979" r="1"/>
	<circle cx="810" cy="1021" r="1"/>
	<circle cx="810" cy="1064" r="1"/>
	<circle cx="810" cy="1107" r="1"/>
	<circle cx="810" cy="1149" r="1"/>
	<circle cx="810" cy="1192" r="1"/>
	<circle cx="810" cy="1234" r="1"/>
	<circle cx="810" cy="1277" r="1"/>
	<circle cx="810" cy="1319" r="1"/>
	<circle cx="810" cy="1362" r="1"/>
	<circle cx="810" cy="1404" r="1"/>
	<circle cx="810" cy="1447" r="1"/>
	<circle cx="810" cy="1489" r="1"/>
	<circle cx="810" cy="1532" r="1"/>
	<circle cx="810" cy="1574" r="1"/>
	<circle cx="810" cy="1617" r="1"/>
	<circle cx="810" cy="1659" r="1"/>
	<circle cx="810" cy="1702" r="1"/>
	<circle cx="810" cy="1744" r="1"/>
	<circle cx="810" cy="1787" r="1"/>
	<circle cx="810" cy="1829" r="1"/>
	<circle cx="810" cy="1872" r="1"/>
	<circle cx="852" cy="1" r="1"/>
	<circle cx="852" cy="44" r="1"/>
	<circle cx="852" cy="86" r="1"/>
	<circle cx="852" cy="129" r="1"/>
	<circle cx="852" cy="171" r="1"/>
	<circle cx="852" cy="214" r="1"/>
	<circle cx="852" cy="256" r="1"/>
	<circle cx="852" cy="299" r="1"/>
	<circle cx="852" cy="341" r="1"/>
	<circle cx="852" cy="384" r="1"/>
	<circle cx="852" cy="426" r="1"/>
	<circle cx="852" cy="469" r="1"/>
	<circle cx="852" cy="511" r="1"/>
	<circle cx="852" cy="554" r="1"/>
	<circle cx="852" cy="596" r="1"/>
	<circle cx="852" cy="639" r="1"/>
	<circle cx="852" cy="681" r="1"/>
	<circle cx="852" cy="724" r="1"/>
	<circle cx="852" cy="766" r="1"/>
	<circle cx="852" cy="809" r="1"/>
	<circle cx="852" cy="851" r="1"/>
	<circle cx="852" cy="894" r="1"/>
	<circle cx="852" cy="936" r="1"/>
	<circle cx="852" cy="979" r="1"/>
	<circle cx="852" cy="1021" r="1"/>
	<circle cx="852" cy="1064" r="1"/>
	<circle cx="852" cy="1107" r="1"/>
	<circle cx="852" cy="1149" r="1"/>
	<circle cx="852" cy="1192" r="1"/>
	<circle cx="852" cy="1234" r="1"/>
	<circle cx="852" cy="1277" r="1"/>
	<circle cx="852" cy="1319" r="1"/>
	<circle cx="852" cy="1362" r="1"/>
	<circle cx="852" cy="1404" r="1"/>
	<circle cx="852" cy="1447" r="1"/>
	<circle cx="852" cy="1489" r="1"/>
	<circle cx="852" cy="1532" r="1"/>
	<circle cx="852" cy="1574" r="1"/>
	<circle cx="852" cy="1617" r="1"/>
	<circle cx="852" cy="1659" r="1"/>
	<circle cx="852" cy="1702" r="1"/>
	<circle cx="852" cy="1744" r="1"/>
	<circle cx="852" cy="1787" r="1"/>
	<circle cx="852" cy="1829" r="1"/>
	<circle cx="852" cy="1872" r="1"/>
	<circle cx="895" cy="1" r="1"/>
	<circle cx="895" cy="44" r="1"/>
	<circle cx="895" cy="86" r="1"/>
	<circle cx="895" cy="129" r="1"/>
	<circle cx="895" cy="171" r="1"/>
	<circle cx="895" cy="214" r="1"/>
	<circle cx="895" cy="256" r="1"/>
	<circle cx="895" cy="299" r="1"/>
	<circle cx="895" cy="341" r="1"/>
	<circle cx="895" cy="384" r="1"/>
	<circle cx="895" cy="426" r="1"/>
	<circle cx="895" cy="469" r="1"/>
	<circle cx="895" cy="511" r="1"/>
	<circle cx="895" cy="554" r="1"/>
	<circle cx="895" cy="596" r="1"/>
	<circle cx="895" cy="639" r="1"/>
	<circle cx="895" cy="681" r="1"/>
	<circle cx="895" cy="724" r="1"/>
	<circle cx="895" cy="766" r="1"/>
	<circle cx="895" cy="809" r="1"/>
	<circle cx="895" cy="851" r="1"/>
	<circle cx="895" cy="894" r="1"/>
	<circle cx="895" cy="936" r="1"/>
	<circle cx="895" cy="979" r="1"/>
	<circle cx="895" cy="1021" r="1"/>
	<circle cx="895" cy="1064" r="1"/>
	<circle cx="895" cy="1107" r="1"/>
	<circle cx="895" cy="1149" r="1"/>
	<circle cx="895" cy="1192" r="1"/>
	<circle cx="895" cy="1234" r="1"/>
	<circle cx="895" cy="1277" r="1"/>
	<circle cx="895" cy="1319" r="1"/>
	<circle cx="895" cy="1362" r="1"/>
	<circle cx="895" cy="1404" r="1"/>
	<circle cx="895" cy="1447" r="1"/>
	<circle cx="895" cy="1489" r="1"/>
	<circle cx="895" cy="1532" r="1"/>
	<circle cx="895" cy="1574" r="1"/>
	<circle cx="895" cy="1617" r="1"/>
	<circle cx="895" cy="1659" r="1"/>
	<circle cx="895" cy="1702" r="1"/>
	<circle cx="895" cy="1744" r="1"/>
	<circle cx="895" cy="1787" r="1"/>
	<circle cx="895" cy="1829" r="1"/>
	<circle cx="895" cy="1872" r="1"/>
	<circle cx="937" cy="1" r="1"/>
	<circle cx="937" cy="44" r="1"/>
	<circle cx="937" cy="86" r="1"/>
	<circle cx="937" cy="129" r="1"/>
	<circle cx="937" cy="171" r="1"/>
	<circle cx="937" cy="214" r="1"/>
	<circle cx="937" cy="256" r="1"/>
	<circle cx="937" cy="299" r="1"/>
	<circle cx="937" cy="341" r="1"/>
	<circle cx="937" cy="384" r="1"/>
	<circle cx="937" cy="426" r="1"/>
	<circle cx="937" cy="469" r="1"/>
	<circle cx="937" cy="511" r="1"/>
	<circle cx="937" cy="554" r="1"/>
	<circle cx="937" cy="596" r="1"/>
	<circle cx="937" cy="639" r="1"/>
	<circle cx="937" cy="681" r="1"/>
	<circle cx="937" cy="724" r="1"/>
	<circle cx="937" cy="766" r="1"/>
	<circle cx="937" cy="809" r="1"/>
	<circle cx="937" cy="851" r="1"/>
	<circle cx="937" cy="894" r="1"/>
	<circle cx="937" cy="936" r="1"/>
	<circle cx="937" cy="979" r="1"/>
	<circle cx="937" cy="1021" r="1"/>
	<circle cx="937" cy="1064" r="1"/>
	<circle cx="937" cy="1107" r="1"/>
	<circle cx="937" cy="1149" r="1"/>
	<circle cx="937" cy="1192" r="1"/>
	<circle cx="937" cy="1234" r="1"/>
	<circle cx="937" cy="1277" r="1"/>
	<circle cx="937" cy="1319" r="1"/>
	<circle cx="937" cy="1362" r="1"/>
	<circle cx="937" cy="1404" r="1"/>
	<circle cx="937" cy="1447" r="1"/>
	<circle cx="937" cy="1489" r="1"/>
	<circle cx="937" cy="1532" r="1"/>
	<circle cx="937" cy="1574" r="1"/>
	<circle cx="937" cy="1617" r="1"/>
	<circle cx="937" cy="1659" r="1"/>
	<circle cx="937" cy="1702" r="1"/>
	<circle cx="937" cy="1744" r="1"/>
	<circle cx="937" cy="1787" r="1"/>
	<circle cx="937" cy="1829" r="1"/>
	<circle cx="937" cy="1872" r="1"/>
	<circle cx="980" cy="1" r="1"/>
	<circle cx="980" cy="44" r="1"/>
	<circle cx="980" cy="86" r="1"/>
	<circle cx="980" cy="129" r="1"/>
	<circle cx="980" cy="171" r="1"/>
	<circle cx="980" cy="214" r="1"/>
	<circle cx="980" cy="256" r="1"/>
	<circle cx="980" cy="299" r="1"/>
	<circle cx="980" cy="341" r="1"/>
	<circle cx="980" cy="384" r="1"/>
	<circle cx="980" cy="426" r="1"/>
	<circle cx="980" cy="469" r="1"/>
	<circle cx="980" cy="511" r="1"/>
	<circle cx="980" cy="554" r="1"/>
	<circle cx="980" cy="596" r="1"/>
	<circle cx="980" cy="639" r="1"/>
	<circle cx="980" cy="681" r="1"/>
	<circle cx="980" cy="724" r="1"/>
	<circle cx="980" cy="766" r="1"/>
	<circle cx="980" cy="809" r="1"/>
	<circle cx="980" cy="851" r="1"/>
	<circle cx="980" cy="894" r="1"/>
	<circle cx="980" cy="936" r="1"/>
	<circle cx="980" cy="979" r="1"/>
	<circle cx="980" cy="1021" r="1"/>
	<circle cx="980" cy="1064" r="1"/>
	<circle cx="980" cy="1107" r="1"/>
	<circle cx="980" cy="1149" r="1"/>
	<circle cx="980" cy="1192" r="1"/>
	<circle cx="980" cy="1234" r="1"/>
	<circle cx="980" cy="1277" r="1"/>
	<circle cx="980" cy="1319" r="1"/>
	<circle cx="980" cy="1362" r="1"/>
	<circle cx="980" cy="1404" r="1"/>
	<circle cx="980" cy="1447" r="1"/>
	<circle cx="980" cy="1489" r="1"/>
	<circle cx="980" cy="1532" r="1"/>
	<circle cx="980" cy="1574" r="1"/>
	<circle cx="980" cy="1617" r="1"/>
	<circle cx="980" cy="1659" r="1"/>
	<circle cx="980" cy="1702" r="1"/>
	<circle cx="980" cy="1744" r="1"/>
	<circle cx="980" cy="1787" r="1"/>
	<circle cx="980" cy="1829" r="1"/>
	<circle cx="980" cy="1872" r="1"/>
	<circle cx="1022" cy="1" r="1"/>
	<circle cx="1022" cy="44" r="1"/>
	<circle cx="1022" cy="86" r="1"/>
	<circle cx="1022" cy="129" r="1"/>
	<circle cx="1022" cy="171" r="1"/>
	<circle cx="1022" cy="214" r="1"/>
	<circle cx="1022" cy="256" r="1"/>
	<circle cx="1022" cy="299" r="1"/>
	<circle cx="1022" cy="341" r="1"/>
	<circle cx="1022" cy="384" r="1"/>
	<circle cx="1022" cy="426" r="1"/>
	<circle cx="1022" cy="469" r="1"/>
	<circle cx="1022" cy="511" r="1"/>
	<circle cx="1022" cy="554" r="1"/>
	<circle cx="1022" cy="596" r="1"/>
	<circle cx="1022" cy="639" r="1"/>
	<circle cx="1022" cy="681" r="1"/>
	<circle cx="1022" cy="724" r="1"/>
	<circle cx="1022" cy="766" r="1"/>
	<circle cx="1022" cy="809" r="1"/>
	<circle cx="1022" cy="851" r="1"/>
	<circle cx="1022" cy="894" r="1"/>
	<circle cx="1022" cy="936" r="1"/>
	<circle cx="1022" cy="979" r="1"/>
	<circle cx="1022" cy="1021" r="1"/>
	<circle cx="1022" cy="1064" r="1"/>
	<circle cx="1022" cy="1107" r="1"/>
	<circle cx="1022" cy="1149" r="1"/>
	<circle cx="1022" cy="1192" r="1"/>
	<circle cx="1022" cy="1234" r="1"/>
	<circle cx="1022" cy="1277" r="1"/>
	<circle cx="1022" cy="1319" r="1"/>
	<circle cx="1022" cy="1362" r="1"/>
	<circle cx="1022" cy="1404" r="1"/>
	<circle cx="1022" cy="1447" r="1"/>
	<circle cx="1022" cy="1489" r="1"/>
	<circle cx="1022" cy="1532" r="1"/>
	<circle cx="1022" cy="1574" r="1"/>
	<circle cx="1022" cy="1617" r="1"/>
	<circle cx="1022" cy="1659" r="1"/>
	<circle cx="1022" cy="1702" r="1"/>
	<circle cx="1022" cy="1744" r="1"/>
	<circle cx="1022" cy="1787" r="1"/>
	<circle cx="1022" cy="1829" r="1"/>
	<circle cx="1022" cy="1872" r="1"/>
	<circle cx="1065" cy="1" r="1"/>
	<circle cx="1065" cy="44" r="1"/>
	<circle cx="1065" cy="86" r="1"/>
	<circle cx="1065" cy="129" r="1"/>
	<circle cx="1065" cy="171" r="1"/>
	<circle cx="1065" cy="214" r="1"/>
	<circle cx="1065" cy="256" r="1"/>
	<circle cx="1065" cy="299" r="1"/>
	<circle cx="1065" cy="341" r="1"/>
	<circle cx="1065" cy="384" r="1"/>
	<circle cx="1065" cy="426" r="1"/>
	<circle cx="1065" cy="469" r="1"/>
	<circle cx="1065" cy="511" r="1"/>
	<circle cx="1065" cy="554" r="1"/>
	<circle cx="1065" cy="596" r="1"/>
	<circle cx="1065" cy="639" r="1"/>
	<circle cx="1065" cy="681" r="1"/>
	<circle cx="1065" cy="724" r="1"/>
	<circle cx="1065" cy="766" r="1"/>
	<circle cx="1065" cy="809" r="1"/>
	<circle cx="1065" cy="851" r="1"/>
	<circle cx="1065" cy="894" r="1"/>
	<circle cx="1065" cy="936" r="1"/>
	<circle cx="1065" cy="979" r="1"/>
	<circle cx="1065" cy="1021" r="1"/>
	<circle cx="1065" cy="1064" r="1"/>
	<circle cx="1065" cy="1107" r="1"/>
	<circle cx="1065" cy="1149" r="1"/>
	<circle cx="1065" cy="1192" r="1"/>
	<circle cx="1065" cy="1234" r="1"/>
	<circle cx="1065" cy="1277" r="1"/>
	<circle cx="1065" cy="1319" r="1"/>
	<circle cx="1065" cy="1362" r="1"/>
	<circle cx="1065" cy="1404" r="1"/>
	<circle cx="1065" cy="1447" r="1"/>
	<circle cx="1065" cy="1489" r="1"/>
	<circle cx="1065" cy="1532" r="1"/>
	<circle cx="1065" cy="1574" r="1"/>
	<circle cx="1065" cy="1617" r="1"/>
	<circle cx="1065" cy="1659" r="1"/>
	<circle cx="1065" cy="1702" r="1"/>
	<circle cx="1065" cy="1744" r="1"/>
	<circle cx="1065" cy="1787" r="1"/>
	<circle cx="1065" cy="1829" r="1"/>
	<circle cx="1065" cy="1872" r="1"/>
	<circle cx="1107" cy="1" r="1"/>
	<circle cx="1107" cy="44" r="1"/>
	<circle cx="1107" cy="86" r="1"/>
	<circle cx="1107" cy="129" r="1"/>
	<circle cx="1107" cy="171" r="1"/>
	<circle cx="1107" cy="214" r="1"/>
	<circle cx="1107" cy="256" r="1"/>
	<circle cx="1107" cy="299" r="1"/>
	<circle cx="1107" cy="341" r="1"/>
	<circle cx="1107" cy="384" r="1"/>
	<circle cx="1107" cy="426" r="1"/>
	<circle cx="1107" cy="469" r="1"/>
	<circle cx="1107" cy="511" r="1"/>
	<circle cx="1107" cy="554" r="1"/>
	<circle cx="1107" cy="596" r="1"/>
	<circle cx="1107" cy="639" r="1"/>
	<circle cx="1107" cy="681" r="1"/>
	<circle cx="1107" cy="724" r="1"/>
	<circle cx="1107" cy="766" r="1"/>
	<circle cx="1107" cy="809" r="1"/>
	<circle cx="1107" cy="851" r="1"/>
	<circle cx="1107" cy="894" r="1"/>
	<circle cx="1107" cy="936" r="1"/>
	<circle cx="1107" cy="979" r="1"/>
	<circle cx="1107" cy="1021" r="1"/>
	<circle cx="1107" cy="1064" r="1"/>
	<circle cx="1107" cy="1107" r="1"/>
	<circle cx="1107" cy="1149" r="1"/>
	<circle cx="1107" cy="1192" r="1"/>
	<circle cx="1107" cy="1234" r="1"/>
	<circle cx="1107" cy="1277" r="1"/>
	<circle cx="1107" cy="1319" r="1"/>
	<circle cx="1107" cy="1362" r="1"/>
	<circle cx="1107" cy="1404" r="1"/>
	<circle cx="1107" cy="1447" r="1"/>
	<circle cx="1107" cy="1489" r="1"/>
	<circle cx="1107" cy="1532" r="1"/>
	<circle cx="1107" cy="1574" r="1"/>
	<circle cx="1107" cy="1617" r="1"/>
	<circle cx="1107" cy="1659" r="1"/>
	<circle cx="1107" cy="1702" r="1"/>
	<circle cx="1107" cy="1744" r="1"/>
	<circle cx="1107" cy="1787" r="1"/>
	<circle cx="1107" cy="1829" r="1"/>
	<circle cx="1107" cy="1872" r="1"/>
	<circle cx="1150" cy="1" r="1"/>
	<circle cx="1150" cy="44" r="1"/>
	<circle cx="1150" cy="86" r="1"/>
	<circle cx="1150" cy="129" r="1"/>
	<circle cx="1150" cy="171" r="1"/>
	<circle cx="1150" cy="214" r="1"/>
	<circle cx="1150" cy="256" r="1"/>
	<circle cx="1150" cy="299" r="1"/>
	<circle cx="1150" cy="341" r="1"/>
	<circle cx="1150" cy="384" r="1"/>
	<circle cx="1150" cy="426" r="1"/>
	<circle cx="1150" cy="469" r="1"/>
	<circle cx="1150" cy="511" r="1"/>
	<circle cx="1150" cy="554" r="1"/>
	<circle cx="1150" cy="596" r="1"/>
	<circle cx="1150" cy="639" r="1"/>
	<circle cx="1150" cy="681" r="1"/>
	<circle cx="1150" cy="724" r="1"/>
	<circle cx="1150" cy="766" r="1"/>
	<circle cx="1150" cy="809" r="1"/>
	<circle cx="1150" cy="851" r="1"/>
	<circle cx="1150" cy="894" r="1"/>
	<circle cx="1150" cy="936" r="1"/>
	<circle cx="1150" cy="979" r="1"/>
	<circle cx="1150" cy="1021" r="1"/>
	<circle cx="1150" cy="1064" r="1"/>
	<circle cx="1150" cy="1107" r="1"/>
	<circle cx="1150" cy="1149" r="1"/>
	<circle cx="1150" cy="1192" r="1"/>
	<circle cx="1150" cy="1234" r="1"/>
	<circle cx="1150" cy="1277" r="1"/>
	<circle cx="1150" cy="1319" r="1"/>
	<circle cx="1150" cy="1362" r="1"/>
	<circle cx="1150" cy="1404" r="1"/>
	<circle cx="1150" cy="1447" r="1"/>
	<circle cx="1150" cy="1489" r="1"/>
	<circle cx="1150" cy="1532" r="1"/>
	<circle cx="1150" cy="1574" r="1"/>
	<circle cx="1150" cy="1617" r="1"/>
	<circle cx="1150" cy="1659" r="1"/>
	<circle cx="1150" cy="1702" r="1"/>
	<circle cx="1150" cy="1744" r="1"/>
	<circle cx="1150" cy="1787" r="1"/>
	<circle cx="1150" cy="1829" r="1"/>
	<circle cx="1150" cy="1872" r="1"/>
	<circle cx="1192" cy="1" r="1"/>
	<circle cx="1192" cy="44" r="1"/>
	<circle cx="1192" cy="86" r="1"/>
	<circle cx="1192" cy="129" r="1"/>
	<circle cx="1192" cy="171" r="1"/>
	<circle cx="1192" cy="214" r="1"/>
	<circle cx="1192" cy="256" r="1"/>
	<circle cx="1192" cy="299" r="1"/>
	<circle cx="1192" cy="341" r="1"/>
	<circle cx="1192" cy="384" r="1"/>
	<circle cx="1192" cy="426" r="1"/>
	<circle cx="1192" cy="469" r="1"/>
	<circle cx="1192" cy="511" r="1"/>
	<circle cx="1192" cy="554" r="1"/>
	<circle cx="1192" cy="596" r="1"/>
	<circle cx="1192" cy="639" r="1"/>
	<circle cx="1192" cy="681" r="1"/>
	<circle cx="1192" cy="724" r="1"/>
	<circle cx="1192" cy="766" r="1"/>
	<circle cx="1192" cy="809" r="1"/>
	<circle cx="1192" cy="851" r="1"/>
	<circle cx="1192" cy="894" r="1"/>
	<circle cx="1192" cy="936" r="1"/>
	<circle cx="1192" cy="979" r="1"/>
	<circle cx="1192" cy="1021" r="1"/>
	<circle cx="1192" cy="1064" r="1"/>
	<circle cx="1192" cy="1107" r="1"/>
	<circle cx="1192" cy="1149" r="1"/>
	<circle cx="1192" cy="1192" r="1"/>
	<circle cx="1192" cy="1234" r="1"/>
	<circle cx="1192" cy="1277" r="1"/>
	<circle cx="1192" cy="1319" r="1"/>
	<circle cx="1192" cy="1362" r="1"/>
	<circle cx="1192" cy="1404" r="1"/>
	<circle cx="1192" cy="1447" r="1"/>
	<circle cx="1192" cy="1489" r="1"/>
	<circle cx="1192" cy="1532" r="1"/>
	<circle cx="1192" cy="1574" r="1"/>
	<circle cx="1192" cy="1617" r="1"/>
	<circle cx="1192" cy="1659" r="1"/>
	<circle cx="1192" cy="1702" r="1"/>
	<circle cx="1192" cy="1744" r="1"/>
	<circle cx="1192" cy="1787" r="1"/>
	<circle cx="1192" cy="1829" r="1"/>
	<circle cx="1192" cy="1872" r="1"/>
	<circle cx="1235" cy="1" r="1"/>
	<circle cx="1235" cy="44" r="1"/>
	<circle cx="1235" cy="86" r="1"/>
	<circle cx="1235" cy="129" r="1"/>
	<circle cx="1235" cy="171" r="1"/>
	<circle cx="1235" cy="214" r="1"/>
	<circle cx="1235" cy="256" r="1"/>
	<circle cx="1235" cy="299" r="1"/>
	<circle cx="1235" cy="341" r="1"/>
	<circle cx="1235" cy="384" r="1"/>
	<circle cx="1235" cy="426" r="1"/>
	<circle cx="1235" cy="469" r="1"/>
	<circle cx="1235" cy="511" r="1"/>
	<circle cx="1235" cy="554" r="1"/>
	<circle cx="1235" cy="596" r="1"/>
	<circle cx="1235" cy="639" r="1"/>
	<circle cx="1235" cy="681" r="1"/>
	<circle cx="1235" cy="724" r="1"/>
	<circle cx="1235" cy="766" r="1"/>
	<circle cx="1235" cy="809" r="1"/>
	<circle cx="1235" cy="851" r="1"/>
	<circle cx="1235" cy="894" r="1"/>
	<circle cx="1235" cy="936" r="1"/>
	<circle cx="1235" cy="979" r="1"/>
	<circle cx="1235" cy="1021" r="1"/>
	<circle cx="1235" cy="1064" r="1"/>
	<circle cx="1235" cy="1107" r="1"/>
	<circle cx="1235" cy="1149" r="1"/>
	<circle cx="1235" cy="1192" r="1"/>
	<circle cx="1235" cy="1234" r="1"/>
	<circle cx="1235" cy="1277" r="1"/>
	<circle cx="1235" cy="1319" r="1"/>
	<circle cx="1235" cy="1362" r="1"/>
	<circle cx="1235" cy="1404" r="1"/>
	<circle cx="1235" cy="1447" r="1"/>
	<circle cx="1235" cy="1489" r="1"/>
	<circle cx="1235" cy="1532" r="1"/>
	<circle cx="1235" cy="1574" r="1"/>
	<circle cx="1235" cy="1617" r="1"/>
	<circle cx="1235" cy="1659" r="1"/>
	<circle cx="1235" cy="1702" r="1"/>
	<circle cx="1235" cy="1744" r="1"/>
	<circle cx="1235" cy="1787" r="1"/>
	<circle cx="1235" cy="1829" r="1"/>
	<circle cx="1235" cy="1872" r="1"/>
	<circle cx="1277" cy="1" r="1"/>
	<circle cx="1277" cy="44" r="1"/>
	<circle cx="1277" cy="86" r="1"/>
	<circle cx="1277" cy="129" r="1"/>
	<circle cx="1277" cy="171" r="1"/>
	<circle cx="1277" cy="214" r="1"/>
	<circle cx="1277" cy="256" r="1"/>
	<circle cx="1277" cy="299" r="1"/>
	<circle cx="1277" cy="341" r="1"/>
	<circle cx="1277" cy="384" r="1"/>
	<circle cx="1277" cy="426" r="1"/>
	<circle cx="1277" cy="469" r="1"/>
	<circle cx="1277" cy="511" r="1"/>
	<circle cx="1277" cy="554" r="1"/>
	<circle cx="1277" cy="596" r="1"/>
	<circle cx="1277" cy="639" r="1"/>
	<circle cx="1277" cy="681" r="1"/>
	<circle cx="1277" cy="724" r="1"/>
	<circle cx="1277" cy="766" r="1"/>
	<circle cx="1277" cy="809" r="1"/>
	<circle cx="1277" cy="851" r="1"/>
	<circle cx="1277" cy="894" r="1"/>
	<circle cx="1277" cy="936" r="1"/>
	<circle cx="1277" cy="979" r="1"/>
	<circle cx="1277" cy="1021" r="1"/>
	<circle cx="1277" cy="1064" r="1"/>
	<circle cx="1277" cy="1107" r="1"/>
	<circle cx="1277" cy="1149" r="1"/>
	<circle cx="1277" cy="1192" r="1"/>
	<circle cx="1277" cy="1234" r="1"/>
	<circle cx="1277" cy="1277" r="1"/>
	<circle cx="1277" cy="1319" r="1"/>
	<circle cx="1277" cy="1362" r="1"/>
	<circle cx="1277" cy="1404" r="1"/>
	<circle cx="1277" cy="1447" r="1"/>
	<circle cx="1277" cy="1489" r="1"/>
	<circle cx="1277" cy="1532" r="1"/>
	<circle cx="1277" cy="1574" r="1"/>
	<circle cx="1277" cy="1617" r="1"/>
	<circle cx="1277" cy="1659" r="1"/>
	<circle cx="1277" cy="1702" r="1"/>
	<circle cx="1277" cy="1744" r="1"/>
	<circle cx="1277" cy="1787" r="1"/>
	<circle cx="1277" cy="1829" r="1"/>
	<circle cx="1277" cy="1872" r="1"/>
	<circle cx="1320" cy="1" r="1"/>
	<circle cx="1320" cy="44" r="1"/>
	<circle cx="1320" cy="86" r="1"/>
	<circle cx="1320" cy="129" r="1"/>
	<circle cx="1320" cy="171" r="1"/>
	<circle cx="1320" cy="214" r="1"/>
	<circle cx="1320" cy="256" r="1"/>
	<circle cx="1320" cy="299" r="1"/>
	<circle cx="1320" cy="341" r="1"/>
	<circle cx="1320" cy="384" r="1"/>
	<circle cx="1320" cy="426" r="1"/>
	<circle cx="1320" cy="469" r="1"/>
	<circle cx="1320" cy="511" r="1"/>
	<circle cx="1320" cy="554" r="1"/>
	<circle cx="1320" cy="596" r="1"/>
	<circle cx="1320" cy="639" r="1"/>
	<circle cx="1320" cy="681" r="1"/>
	<circle cx="1320" cy="724" r="1"/>
	<circle cx="1320" cy="766" r="1"/>
	<circle cx="1320" cy="809" r="1"/>
	<circle cx="1320" cy="851" r="1"/>
	<circle cx="1320" cy="894" r="1"/>
	<circle cx="1320" cy="936" r="1"/>
	<circle cx="1320" cy="979" r="1"/>
	<circle cx="1320" cy="1021" r="1"/>
	<circle cx="1320" cy="1064" r="1"/>
	<circle cx="1320" cy="1107" r="1"/>
	<circle cx="1320" cy="1149" r="1"/>
	<circle cx="1320" cy="1192" r="1"/>
	<circle cx="1320" cy="1234" r="1"/>
	<circle cx="1320" cy="1277" r="1"/>
	<circle cx="1320" cy="1319" r="1"/>
	<circle cx="1320" cy="1362" r="1"/>
	<circle cx="1320" cy="1404" r="1"/>
	<circle cx="1320" cy="1447" r="1"/>
	<circle cx="1320" cy="1489" r="1"/>
	<circle cx="1320" cy="1532" r="1"/>
	<circle cx="1320" cy="1574" r="1"/>
	<circle cx="1320" cy="1617" r="1"/>
	<circle cx="1320" cy="1659" r="1"/>
	<circle cx="1320" cy="1702" r="1"/>
	<circle cx="1320" cy="1744" r="1"/>
	<circle cx="1320" cy="1787" r="1"/>
	<circle cx="1320" cy="1829" r="1"/>
	<circle cx="1320" cy="1872" r="1"/>
	<circle cx="1362" cy="1" r="1"/>
	<circle cx="1362" cy="44" r="1"/>
	<circle cx="1362" cy="86" r="1"/>
	<circle cx="1362" cy="129" r="1"/>
	<circle cx="1362" cy="171" r="1"/>
	<circle cx="1362" cy="214" r="1"/>
	<circle cx="1362" cy="256" r="1"/>
	<circle cx="1362" cy="299" r="1"/>
	<circle cx="1362" cy="341" r="1"/>
	<circle cx="1362" cy="384" r="1"/>
	<circle cx="1362" cy="426" r="1"/>
	<circle cx="1362" cy="469" r="1"/>
	<circle cx="1362" cy="511" r="1"/>
	<circle cx="1362" cy="554" r="1"/>
	<circle cx="1362" cy="596" r="1"/>
	<circle cx="1362" cy="639" r="1"/>
	<circle cx="1362" cy="681" r="1"/>
	<circle cx="1362" cy="724" r="1"/>
	<circle cx="1362" cy="766" r="1"/>
	<circle cx="1362" cy="809" r="1"/>
	<circle cx="1362" cy="851" r="1"/>
	<circle cx="1362" cy="894" r="1"/>
	<circle cx="1362" cy="936" r="1"/>
	<circle cx="1362" cy="979" r="1"/>
	<circle cx="1362" cy="1021" r="1"/>
	<circle cx="1362" cy="1064" r="1"/>
	<circle cx="1362" cy="1107" r="1"/>
	<circle cx="1362" cy="1149" r="1"/>
	<circle cx="1362" cy="1192" r="1"/>
	<circle cx="1362" cy="1234" r="1"/>
	<circle cx="1362" cy="1277" r="1"/>
	<circle cx="1362" cy="1319" r="1"/>
	<circle cx="1362" cy="1362" r="1"/>
	<circle cx="1362" cy="1404" r="1"/>
	<circle cx="1362" cy="1447" r="1"/>
	<circle cx="1362" cy="1489" r="1"/>
	<circle cx="1362" cy="1532" r="1"/>
	<circle cx="1362" cy="1574" r="1"/>
	<circle cx="1362" cy="1617" r="1"/>
	<circle cx="1362" cy="1659" r="1"/>
	<circle cx="1362" cy="1702" r="1"/>
	<circle cx="1362" cy="1744" r="1"/>
	<circle cx="1362" cy="1787" r="1"/>
	<circle cx="1362" cy="1829" r="1"/>
	<circle cx="1362" cy="1872" r="1"/>
</g>
</svg>
