<?xml version="1.0" encoding="utf-8"?>
<!-- Generator: Adobe Illustrator 22.1.0, SVG Export Plug-In . SVG Version: 6.00 Build 0)  -->
<svg version="1.1" id="Layer_1" xmlns="http://www.w3.org/2000/svg" xmlns:xlink="http://www.w3.org/1999/xlink" x="0px" y="0px"
	 viewBox="0 0 1404 1872" style="enable-background:new 0 0 1404 1872;" xml:space="preserve">
<style type="text/css">
	.st0{fill:#FFFFFF;}
	.st1{fill:none;stroke:#000000;stroke-width:0.5;stroke-miterlimit:10;}
</style>
<title>templates_artboards_horisontal_turnt</title>
<g id="White_BG">
	<rect y="-1" class="st0" width="1404" height="1872"/>
</g>
<g id="LINES">
	<line class="st1" x1="1327.5" y1="-1" x2="1327.5" y2="1871"/>
	<line class="st1" x1="1248.5" y1="-1" x2="1248.5" y2="1871"/>
	<line class="st1" x1="1169.5" y1="-1" x2="1169.5" y2="1871"/>
	<line class="st1" x1="1091.5" y1="-1" x2="1091.5" y2="1871"/>
	<line class="st1" x1="1012.5" y1="-1" x2="1012.5" y2="1871"/>
	<line class="st1" x1="933.5" y1="-1" x2="933.5" y2="1871"/>
	<line class="st1" x1="854.5" y1="-1" x2="854.5" y2="1871"/>
	<line class="st1" x1="776.5" y1="-1" x2="776.5" y2="1871"/>
	<line class="st1" x1="697.5" y1="-1" x2="697.5" y2="1871"/>
	<line class="st1" x1="618.5" y1="-1" x2="618.5" y2="1871"/>
	<line class="st1" x1="539.5" y1="-1" x2="539.5" y2="1871"/>
	<line class="st1" x1="460.5" y1="-1" x2="460.5" y2="1871"/>
	<line class="st1" x1="382.5" y1="-1" x2="382.5" y2="1871"/>
	<line class="st1" x1="303.5" y1="-1" x2="303.5" y2="1871"/>
	<line class="st1" x1="224.5" y1="-1" x2="224.5" y2="1871"/>
	<line class="st1" x1="145.5" y1="-1" x2="145.5" y2="1871"/>
	<line class="st1" x1="66.5" y1="-1" x2="66.5" y2="1871"/>
</g>
</svg>
