<?xml version="1.0" encoding="utf-8"?>
<!-- Generator: Adobe Illustrator 22.1.0, SVG Export Plug-In . SVG Version: 6.00 Build 0)  -->
<svg version="1.1" id="Layer_1" xmlns="http://www.w3.org/2000/svg" xmlns:xlink="http://www.w3.org/1999/xlink" x="0px" y="0px"
	 viewBox="0 0 1404 1872" style="enable-background:new 0 0 1404 1872;" xml:space="preserve">
<style type="text/css">
	.st0{fill:#FFFFFF;}
	.st1{fill:none;stroke:#000000;stroke-width:0.5;stroke-miterlimit:10;}
</style>
<title>templates_artboards_horisontal_turnt</title>
<g id="White_BG">
	<rect x="0.5" y="0" class="st0" width="1403.5" height="1872"/>
</g>
<g id="LINES">
	<line class="st1" x1="0.5" y1="1872" x2="0.5" y2="0"/>
	<line class="st1" x1="52.5" y1="1872" x2="52.5" y2="0"/>
	<line class="st1" x1="104.5" y1="1872" x2="104.5" y2="0"/>
	<line class="st1" x1="156.5" y1="1872" x2="156.5" y2="0"/>
	<line class="st1" x1="208.5" y1="1872" x2="208.5" y2="0"/>
	<line class="st1" x1="260.5" y1="1872" x2="260.5" y2="0"/>
	<line class="st1" x1="312.5" y1="1872" x2="312.5" y2="0"/>
	<line class="st1" x1="364.5" y1="1872" x2="364.5" y2="0"/>
	<line class="st1" x1="416.5" y1="1872" x2="416.5" y2="0"/>
	<line class="st1" x1="468.5" y1="1872" x2="468.5" y2="0"/>
	<line class="st1" x1="520.5" y1="1872" x2="520.5" y2="0"/>
	<line class="st1" x1="572.5" y1="1872" x2="572.5" y2="0"/>
	<line class="st1" x1="624.5" y1="1872" x2="624.5" y2="0"/>
	<line class="st1" x1="676.5" y1="1872" x2="676.5" y2="0"/>
	<line class="st1" x1="728.5" y1="1872" x2="728.5" y2="0"/>
	<line class="st1" x1="780.5" y1="1872" x2="780.5" y2="0"/>
	<line class="st1" x1="832.5" y1="1872" x2="832.5" y2="0"/>
	<line class="st1" x1="884.5" y1="1872" x2="884.5" y2="0"/>
	<line class="st1" x1="936.5" y1="1872" x2="936.5" y2="0"/>
	<line class="st1" x1="988.5" y1="1872" x2="988.5" y2="0"/>
	<line class="st1" x1="1040.5" y1="1872" x2="1040.5" y2="0"/>
	<line class="st1" x1="1092.5" y1="1872" x2="1092.5" y2="0"/>
	<line class="st1" x1="1144.5" y1="1872" x2="1144.5" y2="0"/>
	<line class="st1" x1="1196.5" y1="1872" x2="1196.5" y2="0"/>
	<line class="st1" x1="1248.5" y1="1872" x2="1248.5" y2="0"/>
	<line class="st1" x1="1300.5" y1="1872" x2="1300.5" y2="0"/>
	<line class="st1" x1="1352.5" y1="1872" x2="1352.5" y2="0"/>
</g>
</svg>
