<?xml version="1.0" encoding="utf-8"?>
<!-- Generator: Adobe Illustrator 22.1.0, SVG Export Plug-In . SVG Version: 6.00 Build 0)  -->
<svg version="1.1" id="Layer_1" xmlns="http://www.w3.org/2000/svg" xmlns:xlink="http://www.w3.org/1999/xlink" x="0px" y="0px"
	 viewBox="0 0 1404 1872" style="enable-background:new 0 0 1404 1872;" xml:space="preserve">
<style type="text/css">
	.st0{fill:#FFFFFF;}
	.st1{fill:none;stroke:#000000;stroke-width:0.5;stroke-miterlimit:10;}
	.st2{fill:none;stroke:#000000;stroke-miterlimit:10;}
</style>
<title>templates_artboards_horisontal_turnt</title>
<g id="White_BG">
	<rect y="0" class="st0" width="1405" height="1872"/>
</g>
<g id="LINES">
	<line class="st1" x1="175.5" y1="1872" x2="175.5" y2="0"/>
	<line class="st1" x1="254.5" y1="1872" x2="254.5" y2="0"/>
	<line class="st1" x1="333.5" y1="1872" x2="333.5" y2="0"/>
	<line class="st1" x1="412.5" y1="1872" x2="412.5" y2="0"/>
	<line class="st1" x1="490.5" y1="1872" x2="490.5" y2="0"/>
	<line class="st1" x1="569.5" y1="1872" x2="569.5" y2="0"/>
	<line class="st1" x1="648.5" y1="1872" x2="648.5" y2="0"/>
	<line class="st1" x1="727.5" y1="1872" x2="727.5" y2="0"/>
	<line class="st1" x1="805.5" y1="1872" x2="805.5" y2="0"/>
	<line class="st1" x1="884.5" y1="1872" x2="884.5" y2="0"/>
	<line class="st1" x1="963.5" y1="1872" x2="963.5" y2="0"/>
	<line class="st1" x1="1042.5" y1="1872" x2="1042.5" y2="0"/>
	<line class="st1" x1="1121.5" y1="1872" x2="1121.5" y2="0"/>
	<line class="st1" x1="1199.5" y1="1872" x2="1199.5" y2="0"/>
	<line class="st1" x1="1278.5" y1="1872" x2="1278.5" y2="0"/>
	<line class="st1" x1="1357.5" y1="1872" x2="1357.5" y2="0"/>
	<line class="st1" x1="-1" y1="1626.5" x2="1405" y2="1626.5"/>
</g>
<g id="TEXT">
	<line class="st2" x1="317.5" y1="1863" x2="318.1" y2="3786"/>
</g>
</svg>
