<?xml version="1.0" encoding="utf-8"?>
<!-- Generator: Adobe Illustrator 22.1.0, SVG Export Plug-In . SVG Version: 6.00 Build 0)  -->
<svg version="1.1" id="Layer_1" xmlns="http://www.w3.org/2000/svg" xmlns:xlink="http://www.w3.org/1999/xlink" x="0px" y="0px"
	 viewBox="0 0 1404 1872" style="enable-background:new 0 0 1404 1872;" xml:space="preserve">
<style type="text/css">
	.st0{fill:#FFFFFF;}
	.st1{fill:none;stroke:#000000;stroke-width:0.5;stroke-miterlimit:10;}
</style>
<title>templates_artboards_horisontal_turnt</title>
<g id="White_BG">
	<rect x="-1" y="0" class="st0" width="1402.5" height="1872"/>
</g>
<g id="LINES">
	<line class="st1" x1="49.5" y1="1872" x2="49.5" y2="0"/>
	<line class="st1" x1="101.5" y1="1872" x2="101.5" y2="0"/>
	<line class="st1" x1="153.5" y1="1872" x2="153.5" y2="0"/>
	<line class="st1" x1="205.5" y1="1872" x2="205.5" y2="0"/>
	<line class="st1" x1="257.5" y1="1872" x2="257.5" y2="0"/>
	<line class="st1" x1="-1" y1="1627.5" x2="1403" y2="1627.5"/>
	<line class="st1" x1="309.5" y1="1872" x2="309.5" y2="0"/>
	<line class="st1" x1="361.5" y1="1872" x2="361.5" y2="0"/>
	<line class="st1" x1="413.5" y1="1872" x2="413.5" y2="0"/>
	<line class="st1" x1="465.5" y1="1872" x2="465.5" y2="0"/>
	<line class="st1" x1="517.5" y1="1872" x2="517.5" y2="0"/>
	<line class="st1" x1="569.5" y1="1872" x2="569.5" y2="0"/>
	<line class="st1" x1="621.5" y1="1872" x2="621.5" y2="0"/>
	<line class="st1" x1="673.5" y1="1872" x2="673.5" y2="0"/>
	<line class="st1" x1="725.5" y1="1872" x2="725.5" y2="0"/>
	<line class="st1" x1="777.5" y1="1872" x2="777.5" y2="0"/>
	<line class="st1" x1="829.5" y1="1872" x2="829.5" y2="0"/>
	<line class="st1" x1="881.5" y1="1872" x2="881.5" y2="0"/>
	<line class="st1" x1="933.5" y1="1872" x2="933.5" y2="0"/>
	<line class="st1" x1="985.5" y1="1872" x2="985.5" y2="0"/>
	<line class="st1" x1="1037.5" y1="1872" x2="1037.5" y2="0"/>
	<line class="st1" x1="1089.5" y1="1872" x2="1089.5" y2="0"/>
	<line class="st1" x1="1141.5" y1="1872" x2="1141.5" y2="0"/>
	<line class="st1" x1="1193.5" y1="1872" x2="1193.5" y2="0"/>
	<line class="st1" x1="1245.5" y1="1872" x2="1245.5" y2="0"/>
	<line class="st1" x1="1297.5" y1="1872" x2="1297.5" y2="0"/>
	<line class="st1" x1="1349.5" y1="1872" x2="1349.5" y2="0"/>
	<line class="st1" x1="1401.5" y1="1872" x2="1401.5" y2="0"/>
</g>
</svg>
