<?xml version="1.0" encoding="utf-8"?>
<!-- Generator: Adobe Illustrator 24.1.3, SVG Export Plug-In . SVG Version: 6.00 Build 0)  -->
<svg version="1.1" id="Layer_1" xmlns="http://www.w3.org/2000/svg" xmlns:xlink="http://www.w3.org/1999/xlink" x="0px" y="0px"
	 viewBox="0 0 1404 1872" style="enable-background:new 0 0 1404 1872;" xml:space="preserve">
<style type="text/css">
	.st0{fill:#FFFFFF;}
	.st1{fill:none;stroke:#000000;stroke-width:0.5;stroke-miterlimit:10;}
</style>
<g id="White_BG">
	<rect y="0" class="st0" width="1404" height="1872"/>
</g>
<line class="st1" x1="253" y1="1721.5" x2="253" y2="127.5"/>
<line class="st1" x1="226" y1="1721.5" x2="226" y2="127.5"/>
<line class="st1" x1="199" y1="1721.5" x2="199" y2="127.5"/>
<line class="st1" x1="172" y1="1721.5" x2="172" y2="127.5"/>
<polyline class="st1" points="448,127.5 448,1721.5 145,1721.5 145,127.5 "/>
<line class="st1" x1="421" y1="1721.5" x2="421" y2="127.5"/>
<line class="st1" x1="394" y1="1721.5" x2="394" y2="127.5"/>
<line class="st1" x1="367" y1="1721.5" x2="367" y2="127.5"/>
<line class="st1" x1="340" y1="1721.5" x2="340" y2="127.5"/>
<g>
	<g>
		<path d="M296.4,1744c2.2-2.5,5.1-4.3,8.1-5.8s6.1-2.6,9.3-3.5c3.2-1,6.4-1.7,9.7-2.3c3.3-0.6,6.5-1,9.8-1.3
			c6.6-0.5,13.2-0.7,19.7-0.6c6.6,0.1,13.1,0.5,19.6,0.9c6.5,0.4,12.9,1,19.3,1.3c6.4,0.3,12.8,0.4,19.1,0.1l2.4-0.1l2.4-0.2
			l2.4-0.2c0.8-0.1,1.6-0.2,2.3-0.3c3.2-0.4,6.2-1,9.2-1.8c3-0.8,6-1.8,9-2.9c3-1.1,6-2.4,9.1-3.5c-4.9,4.3-10.5,8.1-16.8,10.5
			c-3.1,1.3-6.5,2.1-9.7,2.6c-0.8,0.2-1.6,0.3-2.5,0.5l-2.5,0.4l-2.5,0.4l-2.3,0.1c-6.6,0.7-13.2,0.8-19.8,0.7s-13.1-0.5-19.5-0.9
			c-6.5-0.4-12.9-0.8-19.3-1.1s-12.8-0.2-19.2,0c-3.2,0.1-6.4,0.4-9.5,0.6c-3.2,0.3-6.3,0.6-9.5,1.1c-3.1,0.5-6.3,1-9.4,1.8
			C302.4,1741.3,299.4,1742.3,296.4,1744z"/>
	</g>
	<g>
		<path d="M296.8,1744c-2.8-1.7-5.8-2.7-8.9-3.5s-6.2-1.4-9.4-1.8c-3.2-0.4-6.3-0.8-9.5-1.1c-3.2-0.2-6.4-0.5-9.5-0.6
			c-6.4-0.3-12.8-0.3-19.2,0c-6.4,0.3-12.8,0.7-19.3,1.1s-13,0.8-19.5,0.9c-6.6,0.2-13.2,0-19.8-0.7l-2.5-0.2l-2.5-0.4l-2.5-0.4
			c-0.8-0.1-1.6-0.3-2.5-0.5c-3.2-0.6-6.6-1.4-9.7-2.6c-6.3-2.4-11.9-6.2-16.8-10.5c3.1,1.1,6.1,2.4,9.1,3.5c3,1.1,6,2.1,9,2.9
			c3,0.8,6,1.4,9.2,1.8c0.8,0.1,1.6,0.2,2.3,0.3l2.4,0.2l2.4,0.2l2.4,0.1c6.3,0.3,12.7,0.2,19.1-0.1c6.4-0.3,12.8-0.9,19.3-1.3
			c6.5-0.4,13-0.8,19.6-0.9s13.2,0.1,19.7,0.6c3.3,0.3,6.6,0.7,9.8,1.3c3.3,0.6,6.5,1.3,9.7,2.3c3.2,0.9,6.3,2.1,9.3,3.5
			C291.6,1739.7,294.5,1741.5,296.8,1744z"/>
	</g>
</g>
<line class="st1" x1="686" y1="1721.5" x2="686" y2="127.5"/>
<line class="st1" x1="659" y1="1721.5" x2="659" y2="127.5"/>
<line class="st1" x1="632" y1="1721.5" x2="632" y2="127.5"/>
<line class="st1" x1="605" y1="1721.5" x2="605" y2="127.5"/>
<polyline class="st1" points="881,127.5 881,1721.5 578,1721.5 578,127.5 "/>
<line class="st1" x1="854" y1="1721.5" x2="854" y2="127.5"/>
<line class="st1" x1="827" y1="1721.5" x2="827" y2="127.5"/>
<line class="st1" x1="800" y1="1721.5" x2="800" y2="127.5"/>
<line class="st1" x1="773" y1="1721.5" x2="773" y2="127.5"/>
<g>
	<g>
		<path d="M729.4,1744c2.2-2.5,5.1-4.3,8.1-5.8s6.1-2.6,9.3-3.5c3.2-1,6.4-1.7,9.7-2.3s6.5-1,9.8-1.3c6.6-0.5,13.2-0.7,19.7-0.6
			c6.6,0.1,13.1,0.5,19.6,0.9c6.5,0.4,12.9,1,19.3,1.3c6.4,0.3,12.8,0.4,19.1,0.1l2.4-0.1l2.4-0.2l2.4-0.2c0.8-0.1,1.6-0.2,2.3-0.3
			c3.2-0.4,6.2-1,9.2-1.8c3-0.8,6-1.8,9-2.9c3-1.1,6-2.4,9.1-3.5c-4.9,4.3-10.5,8.1-16.8,10.5c-3.1,1.3-6.5,2.1-9.7,2.6
			c-0.8,0.2-1.6,0.3-2.5,0.5l-2.5,0.4l-2.5,0.4l-2.3,0.1c-6.6,0.7-13.2,0.8-19.8,0.7s-13.1-0.5-19.5-0.9c-6.5-0.4-12.9-0.8-19.3-1.1
			c-6.4-0.3-12.8-0.2-19.2,0c-3.2,0.1-6.4,0.4-9.5,0.6c-3.2,0.3-6.3,0.6-9.5,1.1c-3.1,0.5-6.3,1-9.4,1.8
			C735.4,1741.3,732.4,1742.3,729.4,1744z"/>
	</g>
	<g>
		<path d="M729.8,1744c-2.8-1.7-5.8-2.7-8.9-3.5s-6.2-1.4-9.4-1.8c-3.2-0.4-6.3-0.8-9.5-1.1c-3.2-0.2-6.4-0.5-9.5-0.6
			c-6.4-0.3-12.8-0.3-19.2,0s-12.8,0.7-19.3,1.1s-13,0.8-19.5,0.9c-6.6,0.2-13.2,0-19.8-0.7l-2.5-0.2l-2.5-0.4l-2.5-0.4
			c-0.8-0.1-1.6-0.3-2.5-0.5c-3.2-0.6-6.6-1.4-9.7-2.6c-6.3-2.4-11.9-6.2-16.8-10.5c3.1,1.1,6.1,2.4,9.1,3.5c3,1.1,6,2.1,9,2.9
			c3,0.8,6,1.4,9.2,1.8c0.8,0.1,1.6,0.2,2.3,0.3l2.4,0.2l2.4,0.2l2.4,0.1c6.3,0.3,12.7,0.2,19.1-0.1c6.4-0.3,12.8-0.9,19.3-1.3
			c6.5-0.4,13-0.8,19.6-0.9s13.2,0.1,19.7,0.6c3.3,0.3,6.6,0.7,9.8,1.3c3.3,0.6,6.5,1.3,9.7,2.3c3.2,0.9,6.3,2.1,9.3,3.5
			C724.6,1739.7,727.5,1741.5,729.8,1744z"/>
	</g>
</g>
<line class="st1" x1="1119" y1="1721.5" x2="1119" y2="127.5"/>
<line class="st1" x1="1092" y1="1721.5" x2="1092" y2="127.5"/>
<line class="st1" x1="1065" y1="1721.5" x2="1065" y2="127.5"/>
<line class="st1" x1="1038" y1="1721.5" x2="1038" y2="127.5"/>
<polyline class="st1" points="1314,127.5 1314,1721.5 1011,1721.5 1011,127.5 "/>
<line class="st1" x1="1287" y1="1721.5" x2="1287" y2="127.5"/>
<line class="st1" x1="1260" y1="1721.5" x2="1260" y2="127.5"/>
<line class="st1" x1="1233" y1="1721.5" x2="1233" y2="127.5"/>
<line class="st1" x1="1206" y1="1721.5" x2="1206" y2="127.5"/>
<g>
	<g>
		<path d="M1162.4,1744c2.2-2.5,5.1-4.3,8.1-5.8s6.1-2.6,9.3-3.5c3.2-1,6.4-1.7,9.7-2.3s6.5-1,9.8-1.3c6.6-0.5,13.2-0.7,19.7-0.6
			c6.6,0.1,13.1,0.5,19.6,0.9c6.5,0.4,12.9,1,19.3,1.3c6.4,0.3,12.8,0.4,19.1,0.1l2.4-0.1l2.4-0.2l2.4-0.2c0.8-0.1,1.6-0.2,2.3-0.3
			c3.2-0.4,6.2-1,9.2-1.8c3-0.8,6-1.8,9-2.9c3-1.1,6-2.4,9.1-3.5c-4.9,4.3-10.5,8.1-16.8,10.5c-3.1,1.3-6.5,2.1-9.7,2.6
			c-0.8,0.2-1.6,0.3-2.5,0.5l-2.5,0.4l-2.5,0.4l-2.3,0.1c-6.6,0.7-13.2,0.8-19.8,0.7c-6.6-0.1-13.1-0.5-19.5-0.9
			c-6.5-0.4-12.9-0.8-19.3-1.1s-12.8-0.2-19.2,0c-3.2,0.1-6.4,0.4-9.5,0.6c-3.2,0.3-6.3,0.6-9.5,1.1c-3.1,0.5-6.3,1-9.4,1.8
			C1168.4,1741.3,1165.4,1742.3,1162.4,1744z"/>
	</g>
	<g>
		<path d="M1162.8,1744c-2.8-1.7-5.8-2.7-8.9-3.5s-6.2-1.4-9.4-1.8c-3.2-0.4-6.3-0.8-9.5-1.1c-3.2-0.2-6.4-0.5-9.5-0.6
			c-6.4-0.3-12.8-0.3-19.2,0c-6.4,0.3-12.8,0.7-19.3,1.1s-13,0.8-19.5,0.9c-6.6,0.2-13.2,0-19.8-0.7l-2.5-0.2l-2.5-0.4l-2.5-0.4
			c-0.8-0.1-1.6-0.3-2.5-0.5c-3.2-0.6-6.6-1.4-9.7-2.6c-6.3-2.4-11.9-6.2-16.8-10.5c3.1,1.1,6.1,2.4,9.1,3.5c3,1.1,6,2.1,9,2.9
			c3,0.8,6,1.4,9.2,1.8c0.8,0.1,1.6,0.2,2.3,0.3l2.4,0.2l2.4,0.2l2.4,0.1c6.3,0.3,12.7,0.2,19.1-0.1c6.4-0.3,12.8-0.9,19.3-1.3
			c6.5-0.4,13-0.8,19.6-0.9s13.2,0.1,19.7,0.6c3.3,0.3,6.6,0.7,9.8,1.3c3.3,0.6,6.5,1.3,9.7,2.3c3.2,0.9,6.3,2.1,9.3,3.5
			C1157.6,1739.7,1160.5,1741.5,1162.8,1744z"/>
	</g>
</g>
</svg>
