<?xml version="1.0" encoding="utf-8"?>
<!-- Generator: Adobe Illustrator 24.1.3, SVG Export Plug-In . SVG Version: 6.00 Build 0)  -->
<svg version="1.1" id="Layer_1" xmlns="http://www.w3.org/2000/svg" xmlns:xlink="http://www.w3.org/1999/xlink" x="0px" y="0px"
	 viewBox="0 0 1404 1872" style="enable-background:new 0 0 1404 1872;" xml:space="preserve">
<style type="text/css">
	.st0{fill:#FFFFFF;}
	.st1{fill:none;stroke:#000000;stroke-width:0.5;stroke-miterlimit:10;}
</style>
<g id="White_BG">
	<rect y="0" class="st0" width="1404" height="1872"/>
</g>
<line class="st1" x1="469.5" y1="1721.5" x2="469.5" y2="127.5"/>
<line class="st1" x1="257.5" y1="1721.5" x2="257.5" y2="127.5"/>
<line class="st1" x1="239.5" y1="1721.5" x2="239.5" y2="127.5"/>
<line class="st1" x1="221.5" y1="1721.5" x2="221.5" y2="127.5"/>
<line class="st1" x1="203.5" y1="1721.5" x2="203.5" y2="127.5"/>
<polyline class="st1" points="185.5,127.5 185.5,1721.5 389.5,1721.5 389.5,127.5 "/>
<line class="st1" x1="371.5" y1="1721.5" x2="371.5" y2="127.5"/>
<line class="st1" x1="353.5" y1="1721.5" x2="353.5" y2="127.5"/>
<line class="st1" x1="335.5" y1="1721.5" x2="335.5" y2="127.5"/>
<line class="st1" x1="317.5" y1="1721.5" x2="317.5" y2="127.5"/>
<line class="st1" x1="541.5" y1="1721.5" x2="541.5" y2="127.5"/>
<line class="st1" x1="523.5" y1="1721.5" x2="523.5" y2="127.5"/>
<line class="st1" x1="505.5" y1="1721.5" x2="505.5" y2="127.5"/>
<line class="st1" x1="487.5" y1="1721.5" x2="487.5" y2="127.5"/>
<polyline class="st1" points="469.5,127.5 469.5,1721.5 673.5,1721.5 673.5,127.5 "/>
<line class="st1" x1="655.5" y1="1721.5" x2="655.5" y2="127.5"/>
<line class="st1" x1="637.5" y1="1721.5" x2="637.5" y2="127.5"/>
<line class="st1" x1="619.5" y1="1721.5" x2="619.5" y2="127.5"/>
<line class="st1" x1="601.5" y1="1721.5" x2="601.5" y2="127.5"/>
<line class="st1" x1="825.5" y1="1721.5" x2="825.5" y2="127.5"/>
<line class="st1" x1="807.5" y1="1721.5" x2="807.5" y2="127.5"/>
<line class="st1" x1="789.5" y1="1721.5" x2="789.5" y2="127.5"/>
<line class="st1" x1="771.5" y1="1721.5" x2="771.5" y2="127.5"/>
<polyline class="st1" points="753.5,127.5 753.5,1721.5 957.5,1721.5 957.5,127.5 "/>
<line class="st1" x1="939.5" y1="1721.5" x2="939.5" y2="127.5"/>
<line class="st1" x1="921.5" y1="1721.5" x2="921.5" y2="127.5"/>
<line class="st1" x1="903.5" y1="1721.5" x2="903.5" y2="127.5"/>
<line class="st1" x1="885.5" y1="1721.5" x2="885.5" y2="127.5"/>
<line class="st1" x1="1109.5" y1="1721.5" x2="1109.5" y2="127.5"/>
<line class="st1" x1="1091.5" y1="1721.5" x2="1091.5" y2="127.5"/>
<line class="st1" x1="1073.5" y1="1721.5" x2="1073.5" y2="127.5"/>
<line class="st1" x1="1055.5" y1="1721.5" x2="1055.5" y2="127.5"/>
<polyline class="st1" points="1037.5,127.5 1037.5,1721.5 1241.5,1721.5 1241.5,127.5 "/>
<line class="st1" x1="1223.5" y1="1721.5" x2="1223.5" y2="127.5"/>
<line class="st1" x1="1205.5" y1="1721.5" x2="1205.5" y2="127.5"/>
<line class="st1" x1="1187.5" y1="1721.5" x2="1187.5" y2="127.5"/>
<line class="st1" x1="1169.5" y1="1721.5" x2="1169.5" y2="127.5"/>
<g>
	<path d="M287.5,1744c1-2.1,2.7-3.9,4.5-5.4c1.9-1.5,3.9-2.7,6.1-3.7c4.3-2,8.9-3.1,13.6-3.8c4.7-0.6,9.3-0.8,14-0.7
		c4.6,0.1,9.2,0.5,13.7,1c9,0.9,17.6,2.1,26.2,1.3c2.1-0.2,4.2-0.5,6.3-1c2.1-0.4,4-1.1,5.9-1.9c1.9-0.8,3.9-1.8,5.8-2.9
		c2-1,3.9-2.2,6.1-3.2c-2.6,3.9-5.8,7.3-9.9,9.9c-2,1.3-4.3,2.3-6.6,2.9c-2.3,0.7-4.6,1.2-6.9,1.6c-4.7,0.8-9.4,1-14,0.8
		c-4.6-0.1-9.2-0.5-13.7-1c-4.5-0.4-8.9-0.9-13.3-1.1c-4.4-0.3-8.7-0.3-13.1,0c-4.3,0.3-8.6,0.9-12.9,1.8
		C295.3,1739.8,291.2,1741.1,287.5,1744z"/>
	<path d="M287.5,1744c-3.6-2.9-7.8-4.2-12-5.2s-8.5-1.5-12.8-1.8s-8.7-0.3-13,0c-4.4,0.3-8.8,0.7-13.2,1.1s-9,0.8-13.6,1
		c-4.6,0.1-9.3-0.1-13.9-0.8c-2.3-0.4-4.7-0.9-6.9-1.6c-2.3-0.6-4.6-1.7-6.6-2.9c-4.1-2.6-7.3-6.1-9.9-9.9c2.1,1,4.1,2.2,6.1,3.2
		c2,1.1,3.9,2,5.8,2.9c2,0.8,3.9,1.5,5.9,1.9c2.1,0.5,4.2,0.8,6.3,1c8.6,0.8,17.2-0.4,26.2-1.3c4.5-0.5,9.1-0.9,13.6-1
		s9.3,0.1,13.9,0.7c4.6,0.7,9.2,1.8,13.5,3.8c2.2,1,4.2,2.2,6.1,3.7C284.8,1740.1,286.5,1741.9,287.5,1744z"/>
</g>
<g>
	<path d="M571.5,1744c1-2.1,2.7-3.9,4.5-5.4c1.9-1.5,3.9-2.7,6.1-3.7c4.3-2,8.9-3.1,13.6-3.8c4.7-0.6,9.3-0.8,14-0.7
		c4.6,0.1,9.2,0.5,13.7,1c9,0.9,17.6,2.1,26.2,1.3c2.1-0.2,4.2-0.5,6.3-1c2.1-0.4,4-1.1,5.9-1.9c1.9-0.8,3.9-1.8,5.8-2.9
		c2-1,3.9-2.2,6.1-3.2c-2.6,3.9-5.8,7.3-9.9,9.9c-2,1.3-4.3,2.3-6.6,2.9c-2.3,0.7-4.6,1.2-6.9,1.6c-4.7,0.8-9.4,1-14,0.8
		c-4.6-0.1-9.2-0.5-13.7-1c-4.5-0.4-8.9-0.9-13.3-1.1c-4.4-0.3-8.7-0.3-13.1,0c-4.3,0.3-8.6,0.9-12.9,1.8
		C579.3,1739.8,575.2,1741.1,571.5,1744z"/>
	<path d="M571.5,1744c-3.6-2.9-7.8-4.2-12-5.2s-8.5-1.5-12.8-1.8s-8.7-0.3-13,0c-4.4,0.3-8.8,0.7-13.2,1.1s-9,0.8-13.6,1
		c-4.6,0.1-9.3-0.1-13.9-0.8c-2.3-0.4-4.7-0.9-6.9-1.6c-2.3-0.6-4.6-1.7-6.6-2.9c-4.1-2.6-7.3-6.1-9.9-9.9c2.1,1,4.1,2.2,6.1,3.2
		c2,1.1,3.9,2,5.8,2.9c2,0.8,3.9,1.5,5.9,1.9c2.1,0.5,4.2,0.8,6.3,1c8.6,0.8,17.2-0.4,26.2-1.3c4.5-0.5,9.1-0.9,13.6-1
		s9.3,0.1,13.9,0.7c4.6,0.7,9.2,1.8,13.5,3.8c2.2,1,4.2,2.2,6.1,3.7C568.8,1740.1,570.5,1741.9,571.5,1744z"/>
</g>
<g>
	<path d="M855.5,1744c1-2.1,2.7-3.9,4.5-5.4c1.9-1.5,3.9-2.7,6.1-3.7c4.3-2,8.9-3.1,13.6-3.8c4.7-0.6,9.3-0.8,14-0.7
		c4.6,0.1,9.2,0.5,13.7,1c9,0.9,17.6,2.1,26.2,1.3c2.1-0.2,4.2-0.5,6.3-1c2.1-0.4,4-1.1,5.9-1.9c1.9-0.8,3.9-1.8,5.8-2.9
		c2-1,3.9-2.2,6.1-3.2c-2.6,3.9-5.8,7.3-9.9,9.9c-2,1.3-4.3,2.3-6.6,2.9c-2.3,0.7-4.6,1.2-6.9,1.6c-4.7,0.8-9.4,1-14,0.8
		c-4.6-0.1-9.2-0.5-13.7-1c-4.5-0.4-8.9-0.9-13.3-1.1c-4.4-0.3-8.7-0.3-13.1,0c-4.3,0.3-8.6,0.9-12.9,1.8
		C863.3,1739.8,859.2,1741.1,855.5,1744z"/>
	<path d="M855.5,1744c-3.6-2.9-7.8-4.2-12-5.2s-8.5-1.5-12.8-1.8s-8.7-0.3-13,0c-4.4,0.3-8.8,0.7-13.2,1.1s-9,0.8-13.6,1
		c-4.6,0.1-9.3-0.1-13.9-0.8c-2.3-0.4-4.7-0.9-6.9-1.6c-2.3-0.6-4.6-1.7-6.6-2.9c-4.1-2.6-7.3-6.1-9.9-9.9c2.1,1,4.1,2.2,6.1,3.2
		c2,1.1,3.9,2,5.8,2.9c2,0.8,3.9,1.5,5.9,1.9c2.1,0.5,4.2,0.8,6.3,1c8.6,0.8,17.2-0.4,26.2-1.3c4.5-0.5,9.1-0.9,13.6-1
		s9.3,0.1,13.9,0.7c4.6,0.7,9.2,1.8,13.5,3.8c2.2,1,4.2,2.2,6.1,3.7C852.8,1740.1,854.5,1741.9,855.5,1744z"/>
</g>
<g>
	<path d="M1139.5,1744c1-2.1,2.7-3.9,4.5-5.4c1.9-1.5,3.9-2.7,6.1-3.7c4.3-2,8.9-3.1,13.6-3.8c4.7-0.6,9.3-0.8,14-0.7
		c4.6,0.1,9.2,0.5,13.7,1c9,0.9,17.6,2.1,26.2,1.3c2.1-0.2,4.2-0.5,6.3-1c2.1-0.4,4-1.1,5.9-1.9c1.9-0.8,3.9-1.8,5.8-2.9
		c2-1,3.9-2.2,6.1-3.2c-2.6,3.9-5.8,7.3-9.9,9.9c-2,1.3-4.3,2.3-6.6,2.9c-2.3,0.7-4.6,1.2-6.9,1.6c-4.7,0.8-9.4,1-14,0.8
		c-4.6-0.1-9.2-0.5-13.7-1c-4.5-0.4-8.9-0.9-13.3-1.1c-4.4-0.3-8.7-0.3-13.1,0c-4.3,0.3-8.6,0.9-12.9,1.8
		C1147.3,1739.8,1143.2,1741.1,1139.5,1744z"/>
	<path d="M1139.5,1744c-3.6-2.9-7.8-4.2-12-5.2s-8.5-1.5-12.8-1.8c-4.3-0.3-8.7-0.3-13,0c-4.4,0.3-8.8,0.7-13.2,1.1s-9,0.8-13.6,1
		c-4.6,0.1-9.3-0.1-13.9-0.8c-2.3-0.4-4.7-0.9-6.9-1.6c-2.3-0.6-4.6-1.7-6.6-2.9c-4.1-2.6-7.3-6.1-9.9-9.9c2.1,1,4.1,2.2,6.1,3.2
		c2,1.1,3.9,2,5.8,2.9c2,0.8,3.9,1.5,5.9,1.9c2.1,0.5,4.2,0.8,6.3,1c8.6,0.8,17.2-0.4,26.2-1.3c4.5-0.5,9.1-0.9,13.6-1
		s9.3,0.1,13.9,0.7c4.6,0.7,9.2,1.8,13.5,3.8c2.2,1,4.2,2.2,6.1,3.7C1136.8,1740.1,1138.5,1741.9,1139.5,1744z"/>
</g>
</svg>
