<?xml version="1.0" encoding="utf-8"?>
<!-- Generator: Adobe Illustrator 22.1.0, SVG Export Plug-In . SVG Version: 6.00 Build 0)  -->
<svg version="1.1" id="Layer_1" xmlns="http://www.w3.org/2000/svg" xmlns:xlink="http://www.w3.org/1999/xlink" x="0px" y="0px"
	 viewBox="0 0 1404 1872" style="enable-background:new 0 0 1404 1872;" xml:space="preserve">
<style type="text/css">
	.st0{fill:#FFFFFF;}
	.st1{fill:none;stroke:#000000;stroke-miterlimit:10;}
	.st2{fill:none;stroke:#000000;stroke-miterlimit:10;stroke-dasharray:1,1;}
	.st3{font-family:'MaisonNeue-Medium';}
	.st4{font-size:72px;}
	.st5{letter-spacing:-2;}
	.st6{font-size:24px;}
	.st7{font-size:33px;}
	.st8{letter-spacing:-1;}
</style>
<title>templates_artboards_horisontal_turnt</title>
<g id="White_BG">
	<rect y="0" class="st0" width="1404" height="1872"/>
</g>
<line class="st1" x1="152.5" y1="1872" x2="152.5" y2="0"/>
<line class="st1" x1="317.5" y1="0" x2="318.1" y2="1872"/>
<line class="st1" x1="229.5" y1="1872" x2="229.5" y2="0"/>
<line class="st1" x1="230" y1="1484.5" x2="1410" y2="1484.5"/>
<line class="st1" x1="230" y1="1732.5" x2="230.5" y2="1732.5"/>
<line class="st2" x1="231.5" y1="1732.5" x2="1409" y2="1732.5"/>
<line class="st1" x1="230" y1="1237.5" x2="1410" y2="1237.5"/>
<line class="st1" x1="230" y1="989.5" x2="1410" y2="989.5"/>
<line class="st1" x1="230" y1="742.5" x2="1410" y2="742.5"/>
<line class="st1" x1="230" y1="495.5" x2="1410" y2="495.5"/>
<line class="st1" x1="230" y1="247.5" x2="1410" y2="247.5"/>
<text transform="matrix(6.123234e-17 -1 1 6.123234e-17 99.35 1292.89)" class="st3 st4 st5">W</text>
<text transform="matrix(6.123234e-17 -1 1 6.123234e-17 99.35 1230.1107)" class="st3 st4">eek:</text>
<text transform="matrix(6.123234e-17 -1 1 6.123234e-17 199.31 1843.9896)" class="st3 st6">WEE</text>
<text transform="matrix(6.123234e-17 -1 1 6.123234e-17 199.31 1794.3607)" class="st3 st6">K</text>
<text transform="matrix(6.123234e-17 -1 1 6.123234e-17 199.31 1780.2494)" class="st3 st6"> NUMBER:</text>
<text transform="matrix(6.123234e-17 -1 1 6.123234e-17 282.31 1829.89)" class="st3 st6">TIME</text>
<text transform="matrix(6.123234e-17 -1 1 6.123234e-17 283.88 1421.1791)" class="st3 st7">Mond</text>
<text transform="matrix(6.123234e-17 -1 1 6.123234e-17 283.88 1334.7494)" class="st3 st7">a</text>
<text transform="matrix(6.123234e-17 -1 1 6.123234e-17 283.88 1317.5892)" class="st3 st7">y</text>
<text transform="matrix(6.123234e-17 -1 1 6.123234e-17 283.88 1176.2904)" class="st3 st7 st8">T</text>
<text transform="matrix(6.123234e-17 -1 1 6.123234e-17 283.88 1159.2904)" class="st3 st7">uesd</text>
<text transform="matrix(6.123234e-17 -1 1 6.123234e-17 283.88 1084.6498)" class="st3 st7">a</text>
<text transform="matrix(6.123234e-17 -1 1 6.123234e-17 283.88 1067.4896)" class="st3 st7">y</text>
<text transform="matrix(6.123234e-17 -1 1 6.123234e-17 283.88 954.1595)" class="st3 st7">W</text>
<text transform="matrix(6.123234e-17 -1 1 6.123234e-17 283.88 925.3802)" class="st3 st7">ednesd</text>
<text transform="matrix(6.123234e-17 -1 1 6.123234e-17 283.88 811.7699)" class="st3 st7">a</text>
<text transform="matrix(6.123234e-17 -1 1 6.123234e-17 283.88 794.6097)" class="st3 st7">y</text>
<text transform="matrix(6.123234e-17 -1 1 6.123234e-17 283.88 688.2699)" class="st3 st7">Thursd</text>
<text transform="matrix(6.123234e-17 -1 1 6.123234e-17 283.88 582.6703)" class="st3 st7">a</text>
<text transform="matrix(6.123234e-17 -1 1 6.123234e-17 283.88 565.5101)" class="st3 st7">y</text>
<text transform="matrix(6.123234e-17 -1 1 6.123234e-17 283.88 417.35)" class="st3 st7">Frid</text>
<text transform="matrix(6.123234e-17 -1 1 6.123234e-17 283.88 358.5804)" class="st3 st7">a</text>
<text transform="matrix(6.123234e-17 -1 1 6.123234e-17 283.88 341.4203)" class="st3 st7">y</text>
<text transform="matrix(6.123234e-17 -1 1 6.123234e-17 283.88 190.7396)" class="st3 st7">Saturd</text>
<text transform="matrix(6.123234e-17 -1 1 6.123234e-17 283.88 90.1898)" class="st3 st7">a</text>
<text transform="matrix(6.123234e-17 -1 1 6.123234e-17 283.88 73.0296)" class="st3 st7">y</text>
<text transform="matrix(6.123234e-17 -1 1 6.123234e-17 283.88 1665.0502)" class="st3 st7">Sund</text>
<text transform="matrix(6.123234e-17 -1 1 6.123234e-17 283.88 1586.8705)" class="st3 st7">a</text>
<text transform="matrix(6.123234e-17 -1 1 6.123234e-17 283.88 1569.7103)" class="st3 st7">y</text>
</svg>
