<?xml version="1.0" encoding="utf-8"?>
<!-- Generator: Adobe Illustrator 22.1.0, SVG Export Plug-In . SVG Version: 6.00 Build 0)  -->
<svg version="1.1" id="Layer_1" xmlns="http://www.w3.org/2000/svg" xmlns:xlink="http://www.w3.org/1999/xlink" x="0px" y="0px"
	 viewBox="0 0 1404 1872" style="enable-background:new 0 0 1404 1872;" xml:space="preserve">
<style type="text/css">
	.st0{fill:#FFFFFF;}
	.st1{fill:none;stroke:#000000;stroke-width:0.5;stroke-miterlimit:10;}
</style>
<title>praytolords</title>
<g id="Paper_background">
	<rect y="0" class="st0" width="1404" height="1872"/>
</g>
<g>
	<line class="st1" x1="39" y1="347.7" x2="1364" y2="347.7"/>
	<line class="st1" x1="39" y1="321" x2="1364" y2="321"/>
	<line class="st1" x1="39" y1="294.2" x2="1364" y2="294.2"/>
	<line class="st1" x1="39" y1="267.5" x2="1364" y2="267.5"/>
	<line class="st1" x1="39" y1="240.7" x2="1364" y2="240.7"/>
	<line class="st1" x1="39" y1="563" x2="1364" y2="563"/>
	<line class="st1" x1="39" y1="536.2" x2="1364" y2="536.2"/>
	<line class="st1" x1="39" y1="509.5" x2="1364" y2="509.5"/>
	<line class="st1" x1="39" y1="482.8" x2="1364" y2="482.8"/>
	<line class="st1" x1="39" y1="456" x2="1364" y2="456"/>
	<line class="st1" x1="39" y1="778.3" x2="1364" y2="778.3"/>
	<line class="st1" x1="39" y1="751.5" x2="1364" y2="751.5"/>
	<line class="st1" x1="39" y1="724.8" x2="1364" y2="724.8"/>
	<line class="st1" x1="39" y1="698" x2="1364" y2="698"/>
	<line class="st1" x1="39" y1="671.3" x2="1364" y2="671.3"/>
	<line class="st1" x1="39" y1="992.5" x2="1364" y2="992.5"/>
	<line class="st1" x1="39" y1="965.8" x2="1364" y2="965.8"/>
	<line class="st1" x1="39" y1="939" x2="1364" y2="939"/>
	<line class="st1" x1="39" y1="912.3" x2="1364" y2="912.3"/>
	<line class="st1" x1="39" y1="885.5" x2="1364" y2="885.5"/>
	<line class="st1" x1="39" y1="1205.8" x2="1364" y2="1205.8"/>
	<line class="st1" x1="39" y1="1179" x2="1364" y2="1179"/>
	<line class="st1" x1="39" y1="1152.3" x2="1364" y2="1152.3"/>
	<line class="st1" x1="39" y1="1125.5" x2="1364" y2="1125.5"/>
	<line class="st1" x1="39" y1="1098.8" x2="1364" y2="1098.8"/>
	<line class="st1" x1="39" y1="1420" x2="1364" y2="1420"/>
	<line class="st1" x1="39" y1="1393.3" x2="1364" y2="1393.3"/>
	<line class="st1" x1="39" y1="1366.5" x2="1364" y2="1366.5"/>
	<line class="st1" x1="39" y1="1339.8" x2="1364" y2="1339.8"/>
	<line class="st1" x1="39" y1="1313" x2="1364" y2="1313"/>
	<line class="st1" x1="39" y1="1634.3" x2="1364" y2="1634.3"/>
	<line class="st1" x1="39" y1="1607.5" x2="1364" y2="1607.5"/>
	<line class="st1" x1="39" y1="1580.8" x2="1364" y2="1580.8"/>
	<line class="st1" x1="39" y1="1554" x2="1364" y2="1554"/>
	<line class="st1" x1="39" y1="1527.3" x2="1364" y2="1527.3"/>
</g>
</svg>
