<?xml version="1.0" encoding="UTF-8"?>
<svg xmlns="http://www.w3.org/2000/svg" xmlns:xlink="http://www.w3.org/1999/xlink" width="1404pt" height="1872pt" viewBox="0 0 1404 1872" version="1.1">
<g id="surface1">
<rect x="0" y="0" width="1404" height="1872" style="fill:rgb(100%,100%,100%);fill-opacity:1;stroke:none;"/>
<path style=" stroke:none;fill-rule:nonzero;fill:rgb(0%,0%,0%);fill-opacity:1;" d="M 0 1872 L 1404 1872 L 1404 0.238281 L 0 0.238281 Z M 0 1872 "/>
<path style="fill:none;stroke-width:1;stroke-linecap:butt;stroke-linejoin:miter;stroke:rgb(94.902039%,94.902039%,94.902039%);stroke-opacity:1;stroke-miterlimit:10;" d="M 0 -0.0016875 L 1404 -0.0016875 " transform="matrix(1,0,0,-1,3,3.7405)"/>
<path style="fill:none;stroke-width:1;stroke-linecap:butt;stroke-linejoin:miter;stroke:rgb(94.902039%,94.902039%,94.902039%);stroke-opacity:1;stroke-miterlimit:10;" d="M 0 -0.0016875 L 1404 -0.0016875 " transform="matrix(1,0,0,-1,-2,81.7405)"/>
<path style="fill:none;stroke-width:1;stroke-linecap:butt;stroke-linejoin:miter;stroke:rgb(94.902039%,94.902039%,94.902039%);stroke-opacity:1;stroke-miterlimit:10;" d="M 0 -0.0016875 L 1404 -0.0016875 " transform="matrix(1,0,0,-1,-2,159.7405)"/>
<path style="fill:none;stroke-width:1;stroke-linecap:butt;stroke-linejoin:miter;stroke:rgb(94.902039%,94.902039%,94.902039%);stroke-opacity:1;stroke-miterlimit:10;" d="M 0 -0.0016875 L 1404 -0.0016875 " transform="matrix(1,0,0,-1,-2,237.7405)"/>
<path style="fill:none;stroke-width:1;stroke-linecap:butt;stroke-linejoin:miter;stroke:rgb(94.902039%,94.902039%,94.902039%);stroke-opacity:1;stroke-miterlimit:10;" d="M 0 -0.0016875 L 1404 -0.0016875 " transform="matrix(1,0,0,-1,-2,316.7405)"/>
<path style="fill:none;stroke-width:1;stroke-linecap:butt;stroke-linejoin:miter;stroke:rgb(94.902039%,94.902039%,94.902039%);stroke-opacity:1;stroke-miterlimit:10;" d="M 0 -0.0016875 L 1404 -0.0016875 " transform="matrix(1,0,0,-1,-2,394.7405)"/>
<path style="fill:none;stroke-width:1;stroke-linecap:butt;stroke-linejoin:miter;stroke:rgb(94.902039%,94.902039%,94.902039%);stroke-opacity:1;stroke-miterlimit:10;" d="M 0 -0.0016875 L 1404 -0.0016875 " transform="matrix(1,0,0,-1,-2,472.7405)"/>
<path style="fill:none;stroke-width:1;stroke-linecap:butt;stroke-linejoin:miter;stroke:rgb(94.902039%,94.902039%,94.902039%);stroke-opacity:1;stroke-miterlimit:10;" d="M 0 -0.0016875 L 1404 -0.0016875 " transform="matrix(1,0,0,-1,-2,551.7405)"/>
<path style="fill:none;stroke-width:1;stroke-linecap:butt;stroke-linejoin:miter;stroke:rgb(94.902039%,94.902039%,94.902039%);stroke-opacity:1;stroke-miterlimit:10;" d="M 0 -0.0016875 L 1404 -0.0016875 " transform="matrix(1,0,0,-1,-2,629.7405)"/>
<path style="fill:none;stroke-width:1;stroke-linecap:butt;stroke-linejoin:miter;stroke:rgb(94.902039%,94.902039%,94.902039%);stroke-opacity:1;stroke-miterlimit:10;" d="M 0 -0.0016875 L 1404 -0.0016875 " transform="matrix(1,0,0,-1,-2,707.7405)"/>
<path style="fill:none;stroke-width:1;stroke-linecap:butt;stroke-linejoin:miter;stroke:rgb(94.902039%,94.902039%,94.902039%);stroke-opacity:1;stroke-miterlimit:10;" d="M 0 -0.0016875 L 1404 -0.0016875 " transform="matrix(1,0,0,-1,-2,785.7405)"/>
<path style="fill:none;stroke-width:1;stroke-linecap:butt;stroke-linejoin:miter;stroke:rgb(94.902039%,94.902039%,94.902039%);stroke-opacity:1;stroke-miterlimit:10;" d="M 0 -0.0016875 L 1404 -0.0016875 " transform="matrix(1,0,0,-1,-2,864.7405)"/>
<path style="fill:none;stroke-width:1;stroke-linecap:butt;stroke-linejoin:miter;stroke:rgb(94.902039%,94.902039%,94.902039%);stroke-opacity:1;stroke-miterlimit:10;" d="M 0 -0.0016875 L 1404 -0.0016875 " transform="matrix(1,0,0,-1,-2,942.7405)"/>
<path style="fill:none;stroke-width:1;stroke-linecap:butt;stroke-linejoin:miter;stroke:rgb(94.902039%,94.902039%,94.902039%);stroke-opacity:1;stroke-miterlimit:10;" d="M 0 -0.0016875 L 1404 -0.0016875 " transform="matrix(1,0,0,-1,-2,1020.7405)"/>
<path style="fill:none;stroke-width:1;stroke-linecap:butt;stroke-linejoin:miter;stroke:rgb(94.902039%,94.902039%,94.902039%);stroke-opacity:1;stroke-miterlimit:10;" d="M 0 -0.0016875 L 1404 -0.0016875 " transform="matrix(1,0,0,-1,-2,1099.7405)"/>
<path style="fill:none;stroke-width:1;stroke-linecap:butt;stroke-linejoin:miter;stroke:rgb(94.902039%,94.902039%,94.902039%);stroke-opacity:1;stroke-miterlimit:10;" d="M 0 -0.0016875 L 1404 -0.0016875 " transform="matrix(1,0,0,-1,-2,1177.7405)"/>
<path style="fill:none;stroke-width:1;stroke-linecap:butt;stroke-linejoin:miter;stroke:rgb(94.902039%,94.902039%,94.902039%);stroke-opacity:1;stroke-miterlimit:10;" d="M 0 -0.0016875 L 1404 -0.0016875 " transform="matrix(1,0,0,-1,-2,1255.7405)"/>
<path style="fill:none;stroke-width:1;stroke-linecap:butt;stroke-linejoin:miter;stroke:rgb(94.902039%,94.902039%,94.902039%);stroke-opacity:1;stroke-miterlimit:10;" d="M 0 -0.0016875 L 1404 -0.0016875 " transform="matrix(1,0,0,-1,-2,1334.7405)"/>
<path style="fill:none;stroke-width:1;stroke-linecap:butt;stroke-linejoin:miter;stroke:rgb(94.902039%,94.902039%,94.902039%);stroke-opacity:1;stroke-miterlimit:10;" d="M 0 -0.0016875 L 1404 -0.0016875 " transform="matrix(1,0,0,-1,-2,1412.7405)"/>
<path style="fill:none;stroke-width:1;stroke-linecap:butt;stroke-linejoin:miter;stroke:rgb(94.902039%,94.902039%,94.902039%);stroke-opacity:1;stroke-miterlimit:10;" d="M 0 -0.0016875 L 1404 -0.0016875 " transform="matrix(1,0,0,-1,-2,1490.7405)"/>
<path style="fill:none;stroke-width:1;stroke-linecap:butt;stroke-linejoin:miter;stroke:rgb(94.902039%,94.902039%,94.902039%);stroke-opacity:1;stroke-miterlimit:10;" d="M 0 -0.0016875 L 1404 -0.0016875 " transform="matrix(1,0,0,-1,-2,1568.7405)"/>
<path style="fill:none;stroke-width:1;stroke-linecap:butt;stroke-linejoin:miter;stroke:rgb(94.902039%,94.902039%,94.902039%);stroke-opacity:1;stroke-miterlimit:10;" d="M 0 -0.0016875 L 1404 -0.0016875 " transform="matrix(1,0,0,-1,-2,1647.7405)"/>
<path style="fill:none;stroke-width:1;stroke-linecap:butt;stroke-linejoin:miter;stroke:rgb(94.902039%,94.902039%,94.902039%);stroke-opacity:1;stroke-miterlimit:10;" d="M 0 -0.0016875 L 1404 -0.0016875 " transform="matrix(1,0,0,-1,-2,1725.7405)"/>
<path style="fill:none;stroke-width:1;stroke-linecap:butt;stroke-linejoin:miter;stroke:rgb(94.902039%,94.902039%,94.902039%);stroke-opacity:1;stroke-miterlimit:10;" d="M 0 -0.0016875 L 1404 -0.0016875 " transform="matrix(1,0,0,-1,-2,1803.7405)"/>
<path style="fill:none;stroke-width:1;stroke-linecap:butt;stroke-linejoin:miter;stroke:rgb(94.902039%,94.902039%,94.902039%);stroke-opacity:1;stroke-miterlimit:10;" d="M 0 -0.0016875 L 0 -1871.001688 " transform="matrix(1,0,0,-1,1329.5,4.2405)"/>
<path style="fill:none;stroke-width:1;stroke-linecap:butt;stroke-linejoin:miter;stroke:rgb(94.902039%,94.902039%,94.902039%);stroke-opacity:1;stroke-miterlimit:10;" d="M 0 -0.0016875 L 0 -1871.001688 " transform="matrix(1,0,0,-1,1250.5,4.2405)"/>
<path style="fill:none;stroke-width:1;stroke-linecap:butt;stroke-linejoin:miter;stroke:rgb(94.902039%,94.902039%,94.902039%);stroke-opacity:1;stroke-miterlimit:10;" d="M 0 -0.0016875 L 0 -1871.001688 " transform="matrix(1,0,0,-1,1172.5,4.2405)"/>
<path style="fill:none;stroke-width:1;stroke-linecap:butt;stroke-linejoin:miter;stroke:rgb(94.902039%,94.902039%,94.902039%);stroke-opacity:1;stroke-miterlimit:10;" d="M 0 -0.0016875 L 0 -1871.001688 " transform="matrix(1,0,0,-1,1094.5,4.2405)"/>
<path style="fill:none;stroke-width:1;stroke-linecap:butt;stroke-linejoin:miter;stroke:rgb(94.902039%,94.902039%,94.902039%);stroke-opacity:1;stroke-miterlimit:10;" d="M 0 -0.0016875 L 0 -1871.001688 " transform="matrix(1,0,0,-1,1015.5,4.2405)"/>
<path style="fill:none;stroke-width:1;stroke-linecap:butt;stroke-linejoin:miter;stroke:rgb(94.902039%,94.902039%,94.902039%);stroke-opacity:1;stroke-miterlimit:10;" d="M 0 -0.0016875 L 0 -1871.001688 " transform="matrix(1,0,0,-1,937.5,4.2405)"/>
<path style="fill:none;stroke-width:1;stroke-linecap:butt;stroke-linejoin:miter;stroke:rgb(94.902039%,94.902039%,94.902039%);stroke-opacity:1;stroke-miterlimit:10;" d="M 0 -0.0016875 L 0 -1871.001688 " transform="matrix(1,0,0,-1,859.5,4.2405)"/>
<path style="fill:none;stroke-width:1;stroke-linecap:butt;stroke-linejoin:miter;stroke:rgb(94.902039%,94.902039%,94.902039%);stroke-opacity:1;stroke-miterlimit:10;" d="M 0 -0.0016875 L 0 -1871.001688 " transform="matrix(1,0,0,-1,780.5,4.2405)"/>
<path style="fill:none;stroke-width:1;stroke-linecap:butt;stroke-linejoin:miter;stroke:rgb(94.902039%,94.902039%,94.902039%);stroke-opacity:1;stroke-miterlimit:10;" d="M 0 -0.0016875 L 0 -1871.001688 " transform="matrix(1,0,0,-1,702.5,4.2405)"/>
<path style="fill:none;stroke-width:1;stroke-linecap:butt;stroke-linejoin:miter;stroke:rgb(94.902039%,94.902039%,94.902039%);stroke-opacity:1;stroke-miterlimit:10;" d="M 0 -0.0016875 L 0 -1871.001688 " transform="matrix(1,0,0,-1,624.5,4.2405)"/>
<path style="fill:none;stroke-width:1;stroke-linecap:butt;stroke-linejoin:miter;stroke:rgb(94.902039%,94.902039%,94.902039%);stroke-opacity:1;stroke-miterlimit:10;" d="M 0 -0.0016875 L 0 -1871.001688 " transform="matrix(1,0,0,-1,546.5,4.2405)"/>
<path style="fill:none;stroke-width:1;stroke-linecap:butt;stroke-linejoin:miter;stroke:rgb(94.902039%,94.902039%,94.902039%);stroke-opacity:1;stroke-miterlimit:10;" d="M 0 -0.0016875 L 0 -1871.001688 " transform="matrix(1,0,0,-1,467.5,4.2405)"/>
<path style="fill:none;stroke-width:1;stroke-linecap:butt;stroke-linejoin:miter;stroke:rgb(94.902039%,94.902039%,94.902039%);stroke-opacity:1;stroke-miterlimit:10;" d="M 0 -0.0016875 L 0 -1871.001688 " transform="matrix(1,0,0,-1,389.5,4.2405)"/>
<path style="fill:none;stroke-width:1;stroke-linecap:butt;stroke-linejoin:miter;stroke:rgb(94.902039%,94.902039%,94.902039%);stroke-opacity:1;stroke-miterlimit:10;" d="M 0 -0.0016875 L 0 -1871.001688 " transform="matrix(1,0,0,-1,311.5,4.2405)"/>
<path style="fill:none;stroke-width:1;stroke-linecap:butt;stroke-linejoin:miter;stroke:rgb(94.902039%,94.902039%,94.902039%);stroke-opacity:1;stroke-miterlimit:10;" d="M 0 -0.0016875 L 0 -1871.001688 " transform="matrix(1,0,0,-1,232.5,4.2405)"/>
<path style="fill:none;stroke-width:1;stroke-linecap:butt;stroke-linejoin:miter;stroke:rgb(94.902039%,94.902039%,94.902039%);stroke-opacity:1;stroke-miterlimit:10;" d="M 0 -0.0016875 L 0 -1871.001688 " transform="matrix(1,0,0,-1,154.5,4.2405)"/>
<path style="fill:none;stroke-width:1;stroke-linecap:butt;stroke-linejoin:miter;stroke:rgb(94.902039%,94.902039%,94.902039%);stroke-opacity:1;stroke-miterlimit:10;" d="M 0 -0.0016875 L 0 -1871.001688 " transform="matrix(1,0,0,-1,76.5,4.2405)"/>
</g>
</svg>
