<?xml version="1.0" encoding="UTF-8"?>
<svg xmlns="http://www.w3.org/2000/svg" xmlns:xlink="http://www.w3.org/1999/xlink" width="1404pt" height="1872pt" viewBox="0 0 1404 1872" version="1.1">
<g id="surface1">
<rect x="0" y="0" width="1404" height="1872" style="fill:rgb(100%,100%,100%);fill-opacity:1;stroke:none;"/>
<path style=" stroke:none;fill-rule:nonzero;fill:rgb(0%,0%,0%);fill-opacity:1;" d="M 0 1872 L 1404 1872 L 1404 0.238281 L 0 0.238281 Z M 0 1872 "/>
<path style="fill:none;stroke-width:1;stroke-linecap:butt;stroke-linejoin:miter;stroke:rgb(100%,100%,100%);stroke-opacity:1;stroke-miterlimit:10;" d="M 0 -0.0016875 L 0 -1872.001688 " transform="matrix(1,0,0,-1,245.5,0.2405)"/>
<path style="fill:none;stroke-width:1;stroke-linecap:butt;stroke-linejoin:miter;stroke:rgb(100%,100%,100%);stroke-opacity:1;stroke-miterlimit:10;" d="M 1403.5 0.257812 L 0.5 0.257812 L 0.5 1872.257812 L 1403.5 1872.257812 Z M 1403.5 0.257812 " transform="matrix(1,0,0,-1,0,1872)"/>
<path style="fill:none;stroke-width:1;stroke-linecap:butt;stroke-linejoin:miter;stroke:rgb(100%,100%,100%);stroke-opacity:1;stroke-miterlimit:10;" d="M 0 -0.0016875 L 1402 -0.0016875 " transform="matrix(1,0,0,-1,1,161.7405)"/>
<path style="fill:none;stroke-width:1;stroke-linecap:butt;stroke-linejoin:miter;stroke:rgb(100%,100%,100%);stroke-opacity:1;stroke-miterlimit:10;" d="M 0 -0.0016875 L 1402 -0.0016875 " transform="matrix(1,0,0,-1,1,258.7405)"/>
<path style="fill:none;stroke-width:1;stroke-linecap:butt;stroke-linejoin:miter;stroke:rgb(100%,100%,100%);stroke-opacity:1;stroke-miterlimit:10;" d="M 0 -0.0016875 L 1402 -0.0016875 " transform="matrix(1,0,0,-1,1,355.7405)"/>
<path style="fill:none;stroke-width:1;stroke-linecap:butt;stroke-linejoin:miter;stroke:rgb(100%,100%,100%);stroke-opacity:1;stroke-miterlimit:10;" d="M 0 -0.0016875 L 1402 -0.0016875 " transform="matrix(1,0,0,-1,1,451.7405)"/>
<path style="fill:none;stroke-width:1;stroke-linecap:butt;stroke-linejoin:miter;stroke:rgb(100%,100%,100%);stroke-opacity:1;stroke-miterlimit:10;" d="M 0 -0.0016875 L 1402 -0.0016875 " transform="matrix(1,0,0,-1,1,548.7405)"/>
<path style="fill:none;stroke-width:1;stroke-linecap:butt;stroke-linejoin:miter;stroke:rgb(100%,100%,100%);stroke-opacity:1;stroke-miterlimit:10;" d="M 0 -0.0016875 L 1402 -0.0016875 " transform="matrix(1,0,0,-1,1,645.7405)"/>
<path style="fill:none;stroke-width:1;stroke-linecap:butt;stroke-linejoin:miter;stroke:rgb(100%,100%,100%);stroke-opacity:1;stroke-miterlimit:10;" d="M 0 -0.0016875 L 1402 -0.0016875 " transform="matrix(1,0,0,-1,1,742.7405)"/>
<path style="fill:none;stroke-width:1;stroke-linecap:butt;stroke-linejoin:miter;stroke:rgb(100%,100%,100%);stroke-opacity:1;stroke-miterlimit:10;" d="M 0 -0.0016875 L 1402 -0.0016875 " transform="matrix(1,0,0,-1,1,839.7405)"/>
<path style="fill:none;stroke-width:1;stroke-linecap:butt;stroke-linejoin:miter;stroke:rgb(100%,100%,100%);stroke-opacity:1;stroke-miterlimit:10;" d="M 0 -0.0016875 L 1402 -0.0016875 " transform="matrix(1,0,0,-1,1,936.7405)"/>
<path style="fill:none;stroke-width:1;stroke-linecap:butt;stroke-linejoin:miter;stroke:rgb(100%,100%,100%);stroke-opacity:1;stroke-miterlimit:10;" d="M 0 -0.0016875 L 1402 -0.0016875 " transform="matrix(1,0,0,-1,1,1033.7405)"/>
<path style="fill:none;stroke-width:1;stroke-linecap:butt;stroke-linejoin:miter;stroke:rgb(100%,100%,100%);stroke-opacity:1;stroke-miterlimit:10;" d="M 0 -0.0016875 L 1402 -0.0016875 " transform="matrix(1,0,0,-1,1,1130.7405)"/>
<path style="fill:none;stroke-width:1;stroke-linecap:butt;stroke-linejoin:miter;stroke:rgb(100%,100%,100%);stroke-opacity:1;stroke-miterlimit:10;" d="M 0 -0.0016875 L 1402 -0.0016875 " transform="matrix(1,0,0,-1,1,1227.7405)"/>
<path style="fill:none;stroke-width:1;stroke-linecap:butt;stroke-linejoin:miter;stroke:rgb(100%,100%,100%);stroke-opacity:1;stroke-miterlimit:10;" d="M 0 -0.0016875 L 1402 -0.0016875 " transform="matrix(1,0,0,-1,1,1324.7405)"/>
<path style="fill:none;stroke-width:1;stroke-linecap:butt;stroke-linejoin:miter;stroke:rgb(100%,100%,100%);stroke-opacity:1;stroke-miterlimit:10;" d="M 0 -0.0016875 L 1402 -0.0016875 " transform="matrix(1,0,0,-1,1,1421.7405)"/>
<path style="fill:none;stroke-width:1;stroke-linecap:butt;stroke-linejoin:miter;stroke:rgb(100%,100%,100%);stroke-opacity:1;stroke-miterlimit:10;" d="M 0 -0.0016875 L 1402 -0.0016875 " transform="matrix(1,0,0,-1,1,1518.7405)"/>
<path style="fill:none;stroke-width:1;stroke-linecap:butt;stroke-linejoin:miter;stroke:rgb(100%,100%,100%);stroke-opacity:1;stroke-miterlimit:10;" d="M 0 -0.0016875 L 1402 -0.0016875 " transform="matrix(1,0,0,-1,1,1615.7405)"/>
<path style="fill:none;stroke-width:1;stroke-linecap:butt;stroke-linejoin:miter;stroke:rgb(100%,100%,100%);stroke-opacity:1;stroke-miterlimit:10;" d="M 0 -0.0016875 L 1402 -0.0016875 " transform="matrix(1,0,0,-1,1,1712.7405)"/>
<path style="fill:none;stroke-width:1;stroke-linecap:butt;stroke-linejoin:miter;stroke:rgb(100%,100%,100%);stroke-opacity:1;stroke-miterlimit:10;" d="M 0 -0.0016875 L 1402 -0.0016875 " transform="matrix(1,0,0,-1,1,1809.7405)"/>
</g>
</svg>
