<?xml version="1.0" encoding="UTF-8"?>
<svg xmlns="http://www.w3.org/2000/svg" xmlns:xlink="http://www.w3.org/1999/xlink" width="1404pt" height="1872pt" viewBox="0 0 1404 1872" version="1.1">
<g id="surface1">
<rect x="0" y="0" width="1404" height="1872" style="fill:rgb(100%,100%,100%);fill-opacity:1;stroke:none;"/>
<path style="fill:none;stroke-width:0.5;stroke-linecap:butt;stroke-linejoin:miter;stroke:rgb(0%,0%,0%);stroke-opacity:1;stroke-miterlimit:10;" d="M -0.0002 -0.001 L 1405.9998 -0.001 " transform="matrix(1,0,0,-1,-1.9998,1011.499)"/>
<path style="fill:none;stroke-width:0.5;stroke-linecap:butt;stroke-linejoin:miter;stroke:rgb(0%,0%,0%);stroke-opacity:1;stroke-miterlimit:10;" d="M -0.0002 -0.001 L 1405.9998 -0.001 " transform="matrix(1,0,0,-1,-1.9998,1089.499)"/>
<path style="fill:none;stroke-width:0.5;stroke-linecap:butt;stroke-linejoin:miter;stroke:rgb(0%,0%,0%);stroke-opacity:1;stroke-miterlimit:10;" d="M -0.0002 -0.001 L 1405.9998 -0.001 " transform="matrix(1,0,0,-1,-1.9998,1167.499)"/>
<path style="fill:none;stroke-width:0.5;stroke-linecap:butt;stroke-linejoin:miter;stroke:rgb(0%,0%,0%);stroke-opacity:1;stroke-miterlimit:10;" d="M -0.0002 -0.001 L 1405.9998 -0.001 " transform="matrix(1,0,0,-1,-1.9998,1246.499)"/>
<path style="fill:none;stroke-width:0.5;stroke-linecap:butt;stroke-linejoin:miter;stroke:rgb(0%,0%,0%);stroke-opacity:1;stroke-miterlimit:10;" d="M -0.0002 -0.001 L 1405.9998 -0.001 " transform="matrix(1,0,0,-1,-1.9998,1324.499)"/>
<path style="fill:none;stroke-width:0.5;stroke-linecap:butt;stroke-linejoin:miter;stroke:rgb(0%,0%,0%);stroke-opacity:1;stroke-miterlimit:10;" d="M -0.0002 -0.001 L 1405.9998 -0.001 " transform="matrix(1,0,0,-1,-1.9998,1402.499)"/>
<path style="fill:none;stroke-width:0.5;stroke-linecap:butt;stroke-linejoin:miter;stroke:rgb(0%,0%,0%);stroke-opacity:1;stroke-miterlimit:10;" d="M -0.0002 -0.001 L 1405.9998 -0.001 " transform="matrix(1,0,0,-1,-1.9998,1481.499)"/>
<path style="fill:none;stroke-width:0.5;stroke-linecap:butt;stroke-linejoin:miter;stroke:rgb(0%,0%,0%);stroke-opacity:1;stroke-miterlimit:10;" d="M -0.0002 -0.001 L 1405.9998 -0.001 " transform="matrix(1,0,0,-1,-1.9998,1559.499)"/>
<path style="fill:none;stroke-width:0.5;stroke-linecap:butt;stroke-linejoin:miter;stroke:rgb(0%,0%,0%);stroke-opacity:1;stroke-miterlimit:10;" d="M -0.0002 -0.001 L 1405.9998 -0.001 " transform="matrix(1,0,0,-1,-1.9998,1637.499)"/>
<path style="fill:none;stroke-width:0.5;stroke-linecap:butt;stroke-linejoin:miter;stroke:rgb(0%,0%,0%);stroke-opacity:1;stroke-miterlimit:10;" d="M -0.0002 -0.001 L 1405.9998 -0.001 " transform="matrix(1,0,0,-1,-1.9998,1715.499)"/>
<path style="fill:none;stroke-width:0.5;stroke-linecap:butt;stroke-linejoin:miter;stroke:rgb(0%,0%,0%);stroke-opacity:1;stroke-miterlimit:10;" d="M -0.0002 -0.001 L 1405.9998 -0.001 " transform="matrix(1,0,0,-1,-1.9998,1794.499)"/>
<path style="fill:none;stroke-width:0.5;stroke-linecap:butt;stroke-linejoin:miter;stroke:rgb(0%,0%,0%);stroke-opacity:1;stroke-miterlimit:10;" d="M 0.0005 -0.001 L 0.0005 -860.001 " transform="matrix(1,0,0,-1,1329.4995,1011.999)"/>
<path style="fill:none;stroke-width:0.5;stroke-linecap:butt;stroke-linejoin:miter;stroke:rgb(0%,0%,0%);stroke-opacity:1;stroke-miterlimit:10;" d="M 0.0005 -0.001 L 0.0005 -860.001 " transform="matrix(1,0,0,-1,1250.4995,1011.999)"/>
<path style="fill:none;stroke-width:0.5;stroke-linecap:butt;stroke-linejoin:miter;stroke:rgb(0%,0%,0%);stroke-opacity:1;stroke-miterlimit:10;" d="M 0.0005 -0.001 L 0.0005 -860.001 " transform="matrix(1,0,0,-1,1172.4995,1011.999)"/>
<path style="fill:none;stroke-width:0.5;stroke-linecap:butt;stroke-linejoin:miter;stroke:rgb(0%,0%,0%);stroke-opacity:1;stroke-miterlimit:10;" d="M 0.0005 -0.001 L 0.0005 -860.001 " transform="matrix(1,0,0,-1,1094.4995,1011.999)"/>
<path style="fill:none;stroke-width:0.5;stroke-linecap:butt;stroke-linejoin:miter;stroke:rgb(0%,0%,0%);stroke-opacity:1;stroke-miterlimit:10;" d="M 0.0005 -0.001 L 0.0005 -860.001 " transform="matrix(1,0,0,-1,1015.4995,1011.999)"/>
<path style="fill:none;stroke-width:0.5;stroke-linecap:butt;stroke-linejoin:miter;stroke:rgb(0%,0%,0%);stroke-opacity:1;stroke-miterlimit:10;" d="M 0.0005 -0.001 L 0.0005 -860.001 " transform="matrix(1,0,0,-1,937.4995,1011.999)"/>
<path style="fill:none;stroke-width:0.5;stroke-linecap:butt;stroke-linejoin:miter;stroke:rgb(0%,0%,0%);stroke-opacity:1;stroke-miterlimit:10;" d="M 0.0005 -0.001 L 0.0005 -860.001 " transform="matrix(1,0,0,-1,859.4995,1011.999)"/>
<path style="fill:none;stroke-width:0.5;stroke-linecap:butt;stroke-linejoin:miter;stroke:rgb(0%,0%,0%);stroke-opacity:1;stroke-miterlimit:10;" d="M 0.0005 -0.001 L 0.0005 -860.001 " transform="matrix(1,0,0,-1,780.4995,1011.999)"/>
<path style="fill:none;stroke-width:0.5;stroke-linecap:butt;stroke-linejoin:miter;stroke:rgb(0%,0%,0%);stroke-opacity:1;stroke-miterlimit:10;" d="M 0.0005 -0.001 L 0.0005 -860.001 " transform="matrix(1,0,0,-1,702.4995,1011.999)"/>
<path style="fill:none;stroke-width:0.5;stroke-linecap:butt;stroke-linejoin:miter;stroke:rgb(0%,0%,0%);stroke-opacity:1;stroke-miterlimit:10;" d="M 0.0005 -0.001 L 0.0005 -860.001 " transform="matrix(1,0,0,-1,624.4995,1011.999)"/>
<path style="fill:none;stroke-width:0.5;stroke-linecap:butt;stroke-linejoin:miter;stroke:rgb(0%,0%,0%);stroke-opacity:1;stroke-miterlimit:10;" d="M 0.0005 -0.001 L 0.0005 -860.001 " transform="matrix(1,0,0,-1,546.4995,1011.999)"/>
<path style="fill:none;stroke-width:0.5;stroke-linecap:butt;stroke-linejoin:miter;stroke:rgb(0%,0%,0%);stroke-opacity:1;stroke-miterlimit:10;" d="M 0.0005 -0.001 L 0.0005 -860.001 " transform="matrix(1,0,0,-1,467.4995,1011.999)"/>
<path style="fill:none;stroke-width:0.5;stroke-linecap:butt;stroke-linejoin:miter;stroke:rgb(0%,0%,0%);stroke-opacity:1;stroke-miterlimit:10;" d="M 0.0005 -0.001 L 0.0005 -860.001 " transform="matrix(1,0,0,-1,389.4995,1011.999)"/>
<path style="fill:none;stroke-width:0.5;stroke-linecap:butt;stroke-linejoin:miter;stroke:rgb(0%,0%,0%);stroke-opacity:1;stroke-miterlimit:10;" d="M 0.0005 -0.001 L 0.0005 -860.001 " transform="matrix(1,0,0,-1,311.4995,1011.999)"/>
<path style="fill:none;stroke-width:0.5;stroke-linecap:butt;stroke-linejoin:miter;stroke:rgb(0%,0%,0%);stroke-opacity:1;stroke-miterlimit:10;" d="M 0.0005 -0.001 L 0.0005 -860.001 " transform="matrix(1,0,0,-1,232.4995,1011.999)"/>
<path style="fill:none;stroke-width:0.5;stroke-linecap:butt;stroke-linejoin:miter;stroke:rgb(0%,0%,0%);stroke-opacity:1;stroke-miterlimit:10;" d="M 0.0005 -0.001 L 0.0005 -860.001 " transform="matrix(1,0,0,-1,154.4995,1011.999)"/>
<path style="fill:none;stroke-width:0.5;stroke-linecap:butt;stroke-linejoin:miter;stroke:rgb(0%,0%,0%);stroke-opacity:1;stroke-miterlimit:10;" d="M 0.0005 -0.001 L 0.0005 -860.001 " transform="matrix(1,0,0,-1,76.4995,1011.999)"/>
<path style="fill:none;stroke-width:0.5;stroke-linecap:butt;stroke-linejoin:miter;stroke:rgb(0%,0%,0%);stroke-opacity:1;stroke-miterlimit:10;" d="M 0 -0.001 L 0 -860.001 " transform="matrix(1,0,0,-1,0.5,1011.999)"/>
</g>
</svg>
