<?xml version="1.0" encoding="utf-8"?>
<!-- Generator: Adobe Illustrator 24.1.3, SVG Export Plug-In . SVG Version: 6.00 Build 0)  -->
<svg version="1.1" id="Layer_1" xmlns="http://www.w3.org/2000/svg" xmlns:xlink="http://www.w3.org/1999/xlink" x="0px" y="0px"
	 viewBox="0 0 1404 1872" style="enable-background:new 0 0 1404 1872;" xml:space="preserve">
<style type="text/css">
	.st0{fill:#FFFFFF;}
	.st1{fill:none;stroke:#000000;stroke-width:2;stroke-miterlimit:10;}
	.st2{fill:none;stroke:#000000;stroke-width:0.5;stroke-miterlimit:10;}
</style>
<g id="White_BG">
	<rect class="st0" width="1404" height="1872"/>
</g>
<g>
	<rect x="151" y="154" class="st1" width="208" height="238"/>
	<line class="st2" x1="192.5" y1="154" x2="192.5" y2="392"/>
	<line class="st2" x1="234" y1="154" x2="234" y2="392"/>
	<line class="st2" x1="275.5" y1="154" x2="275.5" y2="392"/>
	<line class="st2" x1="317" y1="154" x2="317" y2="392"/>
	<line class="st2" x1="359" y1="166.5" x2="151" y2="166.5"/>
</g>
<g>
	<rect x="1042.5" y="154" class="st1" width="208" height="238"/>
	<line class="st2" x1="1084" y1="154" x2="1084" y2="392"/>
	<line class="st2" x1="1125.5" y1="154" x2="1125.5" y2="392"/>
	<line class="st2" x1="1167" y1="154" x2="1167" y2="392"/>
	<line class="st2" x1="1208.5" y1="154" x2="1208.5" y2="392"/>
	<line class="st2" x1="1250.5" y1="166.5" x2="1042.5" y2="166.5"/>
</g>
<g>
	<rect x="448" y="154" class="st1" width="208" height="238"/>
	<line class="st2" x1="489.5" y1="154" x2="489.5" y2="392"/>
	<line class="st2" x1="531" y1="154" x2="531" y2="392"/>
	<line class="st2" x1="572.5" y1="154" x2="572.5" y2="392"/>
	<line class="st2" x1="614" y1="154" x2="614" y2="392"/>
	<line class="st2" x1="656" y1="166.5" x2="448" y2="166.5"/>
</g>
<g>
	<rect x="746" y="154" class="st1" width="208" height="238"/>
	<line class="st2" x1="787.5" y1="154" x2="787.5" y2="392"/>
	<line class="st2" x1="829" y1="154" x2="829" y2="392"/>
	<line class="st2" x1="870.5" y1="154" x2="870.5" y2="392"/>
	<line class="st2" x1="912" y1="154" x2="912" y2="392"/>
	<line class="st2" x1="954" y1="166.5" x2="746" y2="166.5"/>
</g>
<g>
	<rect x="151" y="493" class="st1" width="208" height="238"/>
	<line class="st2" x1="192.5" y1="493" x2="192.5" y2="731"/>
	<line class="st2" x1="234" y1="493" x2="234" y2="731"/>
	<line class="st2" x1="275.5" y1="493" x2="275.5" y2="731"/>
	<line class="st2" x1="317" y1="493" x2="317" y2="731"/>
	<line class="st2" x1="359" y1="505.5" x2="151" y2="505.5"/>
</g>
<g>
	<rect x="1042.5" y="493" class="st1" width="208" height="238"/>
	<line class="st2" x1="1084" y1="493" x2="1084" y2="731"/>
	<line class="st2" x1="1125.5" y1="493" x2="1125.5" y2="731"/>
	<line class="st2" x1="1167" y1="493" x2="1167" y2="731"/>
	<line class="st2" x1="1208.5" y1="493" x2="1208.5" y2="731"/>
	<line class="st2" x1="1250.5" y1="505.5" x2="1042.5" y2="505.5"/>
</g>
<g>
	<rect x="448" y="493" class="st1" width="208" height="238"/>
	<line class="st2" x1="489.5" y1="493" x2="489.5" y2="731"/>
	<line class="st2" x1="531" y1="493" x2="531" y2="731"/>
	<line class="st2" x1="572.5" y1="493" x2="572.5" y2="731"/>
	<line class="st2" x1="614" y1="493" x2="614" y2="731"/>
	<line class="st2" x1="656" y1="505.5" x2="448" y2="505.5"/>
</g>
<g>
	<rect x="746" y="493" class="st1" width="208" height="238"/>
	<line class="st2" x1="787.5" y1="493" x2="787.5" y2="731"/>
	<line class="st2" x1="829" y1="493" x2="829" y2="731"/>
	<line class="st2" x1="870.5" y1="493" x2="870.5" y2="731"/>
	<line class="st2" x1="912" y1="493" x2="912" y2="731"/>
	<line class="st2" x1="954" y1="505.5" x2="746" y2="505.5"/>
</g>
<g>
	<rect x="151" y="832" class="st1" width="208" height="238"/>
	<line class="st2" x1="192.5" y1="832" x2="192.5" y2="1070"/>
	<line class="st2" x1="234" y1="832" x2="234" y2="1070"/>
	<line class="st2" x1="275.5" y1="832" x2="275.5" y2="1070"/>
	<line class="st2" x1="317" y1="832" x2="317" y2="1070"/>
	<line class="st2" x1="359" y1="844.5" x2="151" y2="844.5"/>
</g>
<g>
	<rect x="1042.5" y="832" class="st1" width="208" height="238"/>
	<line class="st2" x1="1084" y1="832" x2="1084" y2="1070"/>
	<line class="st2" x1="1125.5" y1="832" x2="1125.5" y2="1070"/>
	<line class="st2" x1="1167" y1="832" x2="1167" y2="1070"/>
	<line class="st2" x1="1208.5" y1="832" x2="1208.5" y2="1070"/>
	<line class="st2" x1="1250.5" y1="844.5" x2="1042.5" y2="844.5"/>
</g>
<g>
	<rect x="448" y="832" class="st1" width="208" height="238"/>
	<line class="st2" x1="489.5" y1="832" x2="489.5" y2="1070"/>
	<line class="st2" x1="531" y1="832" x2="531" y2="1070"/>
	<line class="st2" x1="572.5" y1="832" x2="572.5" y2="1070"/>
	<line class="st2" x1="614" y1="832" x2="614" y2="1070"/>
	<line class="st2" x1="656" y1="844.5" x2="448" y2="844.5"/>
</g>
<g>
	<rect x="746" y="832" class="st1" width="208" height="238"/>
	<line class="st2" x1="787.5" y1="832" x2="787.5" y2="1070"/>
	<line class="st2" x1="829" y1="832" x2="829" y2="1070"/>
	<line class="st2" x1="870.5" y1="832" x2="870.5" y2="1070"/>
	<line class="st2" x1="912" y1="832" x2="912" y2="1070"/>
	<line class="st2" x1="954" y1="844.5" x2="746" y2="844.5"/>
</g>
<g>
	<rect x="151" y="1171" class="st1" width="208" height="238"/>
	<line class="st2" x1="192.5" y1="1171" x2="192.5" y2="1409"/>
	<line class="st2" x1="234" y1="1171" x2="234" y2="1409"/>
	<line class="st2" x1="275.5" y1="1171" x2="275.5" y2="1409"/>
	<line class="st2" x1="317" y1="1171" x2="317" y2="1409"/>
	<line class="st2" x1="359" y1="1183.5" x2="151" y2="1183.5"/>
</g>
<g>
	<rect x="1042.5" y="1171" class="st1" width="208" height="238"/>
	<line class="st2" x1="1084" y1="1171" x2="1084" y2="1409"/>
	<line class="st2" x1="1125.5" y1="1171" x2="1125.5" y2="1409"/>
	<line class="st2" x1="1167" y1="1171" x2="1167" y2="1409"/>
	<line class="st2" x1="1208.5" y1="1171" x2="1208.5" y2="1409"/>
	<line class="st2" x1="1250.5" y1="1183.5" x2="1042.5" y2="1183.5"/>
</g>
<g>
	<rect x="448" y="1171" class="st1" width="208" height="238"/>
	<line class="st2" x1="489.5" y1="1171" x2="489.5" y2="1409"/>
	<line class="st2" x1="531" y1="1171" x2="531" y2="1409"/>
	<line class="st2" x1="572.5" y1="1171" x2="572.5" y2="1409"/>
	<line class="st2" x1="614" y1="1171" x2="614" y2="1409"/>
	<line class="st2" x1="656" y1="1183.5" x2="448" y2="1183.5"/>
</g>
<g>
	<rect x="746" y="1171" class="st1" width="208" height="238"/>
	<line class="st2" x1="787.5" y1="1171" x2="787.5" y2="1409"/>
	<line class="st2" x1="829" y1="1171" x2="829" y2="1409"/>
	<line class="st2" x1="870.5" y1="1171" x2="870.5" y2="1409"/>
	<line class="st2" x1="912" y1="1171" x2="912" y2="1409"/>
	<line class="st2" x1="954" y1="1183.5" x2="746" y2="1183.5"/>
</g>
<g>
	<rect x="151" y="1510" class="st1" width="208" height="238"/>
	<line class="st2" x1="192.5" y1="1510" x2="192.5" y2="1748"/>
	<line class="st2" x1="234" y1="1510" x2="234" y2="1748"/>
	<line class="st2" x1="275.5" y1="1510" x2="275.5" y2="1748"/>
	<line class="st2" x1="317" y1="1510" x2="317" y2="1748"/>
	<line class="st2" x1="359" y1="1522.5" x2="151" y2="1522.5"/>
</g>
<g>
	<rect x="1042.5" y="1510" class="st1" width="208" height="238"/>
	<line class="st2" x1="1084" y1="1510" x2="1084" y2="1748"/>
	<line class="st2" x1="1125.5" y1="1510" x2="1125.5" y2="1748"/>
	<line class="st2" x1="1167" y1="1510" x2="1167" y2="1748"/>
	<line class="st2" x1="1208.5" y1="1510" x2="1208.5" y2="1748"/>
	<line class="st2" x1="1250.5" y1="1522.5" x2="1042.5" y2="1522.5"/>
</g>
<g>
	<rect x="448" y="1510" class="st1" width="208" height="238"/>
	<line class="st2" x1="489.5" y1="1510" x2="489.5" y2="1748"/>
	<line class="st2" x1="531" y1="1510" x2="531" y2="1748"/>
	<line class="st2" x1="572.5" y1="1510" x2="572.5" y2="1748"/>
	<line class="st2" x1="614" y1="1510" x2="614" y2="1748"/>
	<line class="st2" x1="656" y1="1522.5" x2="448" y2="1522.5"/>
</g>
<g>
	<rect x="746" y="1510" class="st1" width="208" height="238"/>
	<line class="st2" x1="787.5" y1="1510" x2="787.5" y2="1748"/>
	<line class="st2" x1="829" y1="1510" x2="829" y2="1748"/>
	<line class="st2" x1="870.5" y1="1510" x2="870.5" y2="1748"/>
	<line class="st2" x1="912" y1="1510" x2="912" y2="1748"/>
	<line class="st2" x1="954" y1="1522.5" x2="746" y2="1522.5"/>
</g>
</svg>
