<?xml version="1.0" encoding="utf-8"?>
<!-- Generator: Adobe Illustrator 24.1.3, SVG Export Plug-In . SVG Version: 6.00 Build 0)  -->
<svg version="1.1" id="Layer_1" xmlns="http://www.w3.org/2000/svg" xmlns:xlink="http://www.w3.org/1999/xlink" x="0px" y="0px"
	 viewBox="0 0 1404 1872" style="enable-background:new 0 0 1404 1872;" xml:space="preserve">
<style type="text/css">
	.st0{fill:#FFFFFF;}
	.st1{fill:none;stroke:#000000;stroke-width:0.5;stroke-miterlimit:10;}
</style>
<g id="White_BG">
	<rect y="0" class="st0" width="1404" height="1872"/>
</g>
<g>
	<polyline class="st1" points="87.7,0 87.7,13.5 131.6,38.9 175.5,13.5 	"/>
	<polyline class="st1" points="175.5,0 175.5,13.5 219.4,38.9 263.2,13.5 	"/>
	<polyline class="st1" points="263.2,0 263.2,13.5 307.1,38.9 351,13.5 	"/>
	<polyline class="st1" points="351,0 351,13.5 394.8,38.9 438.7,13.5 	"/>
	<polyline class="st1" points="438.7,0 438.7,13.5 482.6,38.9 526.5,13.5 	"/>
	<polyline class="st1" points="526.5,0 526.5,13.5 570.3,38.9 614.2,13.5 	"/>
	<polyline class="st1" points="614.2,0 614.2,13.5 658.1,38.9 702,13.5 	"/>
	<polyline class="st1" points="702,0 702,13.5 745.8,38.9 789.7,13.5 	"/>
	<polyline class="st1" points="789.7,0 789.7,13.5 833.6,38.9 877.4,13.5 	"/>
	<polyline class="st1" points="877.4,0 877.4,13.5 921.3,38.9 965.2,13.5 	"/>
	<polyline class="st1" points="965.2,0 965.2,13.5 1009.1,38.9 1052.9,13.5 	"/>
	<polyline class="st1" points="1052.9,0 1052.9,13.5 1096.8,38.9 1140.7,13.5 	"/>
	<polyline class="st1" points="1140.7,0 1140.7,13.5 1184.5,38.9 1228.4,13.5 	"/>
	<polyline class="st1" points="1228.4,0 1228.4,13.5 1272.3,38.9 1316.2,13.5 	"/>
	<polyline class="st1" points="1316.2,0 1316.2,13.5 1360,38.9 1403.9,13.5 	"/>
	<line class="st1" x1="1403.9" y1="0" x2="1403.9" y2="13.5"/>
	<polyline class="st1" points="0,0 0,13.5 44,38.9 87.7,13.5 	"/>
</g>
<g>
	<polyline class="st1" points="131.7,38.9 131.7,89.5 175.6,114.9 219.5,89.5 	"/>
	<polyline class="st1" points="219.5,38.9 219.5,89.5 263.3,114.9 307.2,89.5 	"/>
	<polyline class="st1" points="307.2,38.9 307.2,89.5 351.1,114.9 394.9,89.5 	"/>
	<polyline class="st1" points="394.9,38.9 394.9,89.5 438.8,114.9 482.7,89.5 	"/>
	<polyline class="st1" points="482.7,38.9 482.7,89.5 526.6,114.9 570.4,89.5 	"/>
	<polyline class="st1" points="570.4,38.9 570.4,89.5 614.3,114.9 658.2,89.5 	"/>
	<polyline class="st1" points="658.2,38.9 658.2,89.5 702,114.9 745.9,89.5 	"/>
	<polyline class="st1" points="745.9,38.9 745.9,89.5 789.8,114.9 833.7,89.5 	"/>
	<polyline class="st1" points="833.7,38.9 833.7,89.5 877.5,114.9 921.4,89.5 	"/>
	<polyline class="st1" points="921.4,38.9 921.4,89.5 965.3,114.9 1009.2,89.5 	"/>
	<polyline class="st1" points="1009.2,38.9 1009.2,89.5 1053,114.9 1096.9,89.5 	"/>
	<polyline class="st1" points="1096.9,38.9 1096.9,89.5 1140.8,114.9 1184.6,89.5 	"/>
	<polyline class="st1" points="1184.6,38.9 1184.6,89.5 1228.5,114.9 1272.4,89.5 	"/>
	<polyline class="st1" points="1272.4,38.9 1272.4,89.5 1316.3,114.9 1360.1,89.5 	"/>
	<polyline class="st1" points="1360.1,38.9 1360.1,89.5 1404,114.9 	"/>
	<polyline class="st1" points="44,38.9 44,89.5 87.9,114.9 131.7,89.5 	"/>
	<line class="st1" x1="0.2" y1="114.9" x2="44" y2="89.5"/>
</g>
<g>
	<polyline class="st1" points="87.7,114.9 87.7,165.4 131.6,190.8 175.5,165.4 	"/>
	<polyline class="st1" points="175.5,114.9 175.5,165.4 219.4,190.8 263.2,165.4 	"/>
	<polyline class="st1" points="263.2,114.9 263.2,165.4 307.1,190.8 351,165.4 	"/>
	<polyline class="st1" points="351,114.9 351,165.4 394.8,190.8 438.7,165.4 	"/>
	<polyline class="st1" points="438.7,114.9 438.7,165.4 482.6,190.8 526.5,165.4 	"/>
	<polyline class="st1" points="526.5,114.9 526.5,165.4 570.3,190.8 614.2,165.4 	"/>
	<polyline class="st1" points="614.2,114.9 614.2,165.4 658.1,190.8 702,165.4 	"/>
	<polyline class="st1" points="702,114.9 702,165.4 745.8,190.8 789.7,165.4 	"/>
	<polyline class="st1" points="789.7,114.9 789.7,165.4 833.6,190.8 877.4,165.4 	"/>
	<polyline class="st1" points="877.4,114.9 877.4,165.4 921.3,190.8 965.2,165.4 	"/>
	<polyline class="st1" points="965.2,114.9 965.2,165.4 1009.1,190.8 1052.9,165.4 	"/>
	<polyline class="st1" points="1052.9,114.9 1052.9,165.4 1096.8,190.8 1140.7,165.4 	"/>
	<polyline class="st1" points="1140.7,114.9 1140.7,165.4 1184.5,190.8 1228.4,165.4 	"/>
	<polyline class="st1" points="1228.4,114.9 1228.4,165.4 1272.3,190.8 1316.2,165.4 	"/>
	<polyline class="st1" points="1316.2,114.9 1316.2,165.4 1360,190.8 1403.9,165.4 	"/>
	<line class="st1" x1="1404" y1="114.9" x2="1403.9" y2="165.4"/>
	<polyline class="st1" points="0,114.9 0,165.4 44,190.8 87.7,165.4 	"/>
</g>
<g>
	<polyline class="st1" points="131.7,190.8 131.7,241.4 175.6,266.8 219.5,241.4 	"/>
	<polyline class="st1" points="219.5,190.8 219.5,241.4 263.3,266.8 307.2,241.4 	"/>
	<polyline class="st1" points="307.2,190.8 307.2,241.4 351.1,266.8 394.9,241.4 	"/>
	<polyline class="st1" points="394.9,190.8 394.9,241.4 438.8,266.8 482.7,241.4 	"/>
	<polyline class="st1" points="482.7,190.8 482.7,241.4 526.6,266.8 570.4,241.4 	"/>
	<polyline class="st1" points="570.4,190.8 570.4,241.4 614.3,266.8 658.2,241.4 	"/>
	<polyline class="st1" points="658.2,190.8 658.2,241.4 702,266.8 745.9,241.4 	"/>
	<polyline class="st1" points="745.9,190.8 745.9,241.4 789.8,266.8 833.7,241.4 	"/>
	<polyline class="st1" points="833.7,190.8 833.7,241.4 877.5,266.8 921.4,241.4 	"/>
	<polyline class="st1" points="921.4,190.8 921.4,241.4 965.3,266.8 1009.2,241.4 	"/>
	<polyline class="st1" points="1009.2,190.8 1009.2,241.4 1053,266.8 1096.9,241.4 	"/>
	<polyline class="st1" points="1096.9,190.8 1096.9,241.4 1140.8,266.8 1184.6,241.4 	"/>
	<polyline class="st1" points="1184.6,190.8 1184.6,241.4 1228.5,266.8 1272.4,241.4 	"/>
	<polyline class="st1" points="1272.4,190.8 1272.4,241.4 1316.3,266.8 1360.1,241.4 	"/>
	<polyline class="st1" points="1360.1,190.8 1360.1,241.4 1404,266.8 	"/>
	<polyline class="st1" points="44,190.8 44,241.4 87.9,266.8 131.7,241.4 	"/>
	<line class="st1" x1="0.2" y1="266.8" x2="44" y2="241.4"/>
</g>
<g>
	<polyline class="st1" points="87.7,266.8 87.7,317.3 131.6,342.7 175.5,317.3 	"/>
	<polyline class="st1" points="175.5,266.8 175.5,317.3 219.4,342.7 263.2,317.3 	"/>
	<polyline class="st1" points="263.2,266.8 263.2,317.3 307.1,342.7 351,317.3 	"/>
	<polyline class="st1" points="351,266.8 351,317.3 394.8,342.7 438.7,317.3 	"/>
	<polyline class="st1" points="438.7,266.8 438.7,317.3 482.6,342.7 526.5,317.3 	"/>
	<polyline class="st1" points="526.5,266.8 526.5,317.3 570.3,342.7 614.2,317.3 	"/>
	<polyline class="st1" points="614.2,266.8 614.2,317.3 658.1,342.7 702,317.3 	"/>
	<polyline class="st1" points="702,266.8 702,317.3 745.8,342.7 789.7,317.3 	"/>
	<polyline class="st1" points="789.7,266.8 789.7,317.3 833.6,342.7 877.4,317.3 	"/>
	<polyline class="st1" points="877.4,266.8 877.4,317.3 921.3,342.7 965.2,317.3 	"/>
	<polyline class="st1" points="965.2,266.8 965.2,317.3 1009.1,342.7 1052.9,317.3 	"/>
	<polyline class="st1" points="1052.9,266.8 1052.9,317.3 1096.8,342.7 1140.7,317.3 	"/>
	<polyline class="st1" points="1140.7,266.8 1140.7,317.3 1184.5,342.7 1228.4,317.3 	"/>
	<polyline class="st1" points="1228.4,266.8 1228.4,317.3 1272.3,342.7 1316.2,317.3 	"/>
	<polyline class="st1" points="1316.2,266.8 1316.2,317.3 1360,342.7 1403.9,317.3 	"/>
	<line class="st1" x1="1404" y1="266.8" x2="1403.9" y2="317.3"/>
	<polyline class="st1" points="0,266.8 0,317.3 44,342.7 87.7,317.3 	"/>
</g>
<g>
	<polyline class="st1" points="131.7,342.7 131.7,393.3 175.6,418.7 219.5,393.3 	"/>
	<polyline class="st1" points="219.5,342.7 219.5,393.3 263.3,418.7 307.2,393.3 	"/>
	<polyline class="st1" points="307.2,342.7 307.2,393.3 351.1,418.7 394.9,393.3 	"/>
	<polyline class="st1" points="394.9,342.7 394.9,393.3 438.8,418.7 482.7,393.3 	"/>
	<polyline class="st1" points="482.7,342.7 482.7,393.3 526.6,418.7 570.4,393.3 	"/>
	<polyline class="st1" points="570.4,342.7 570.4,393.3 614.3,418.7 658.2,393.3 	"/>
	<polyline class="st1" points="658.2,342.7 658.2,393.3 702,418.7 745.9,393.3 	"/>
	<polyline class="st1" points="745.9,342.7 745.9,393.3 789.8,418.7 833.7,393.3 	"/>
	<polyline class="st1" points="833.7,342.7 833.7,393.3 877.5,418.7 921.4,393.3 	"/>
	<polyline class="st1" points="921.4,342.7 921.4,393.3 965.3,418.7 1009.2,393.3 	"/>
	<polyline class="st1" points="1009.2,342.7 1009.2,393.3 1053,418.7 1096.9,393.3 	"/>
	<polyline class="st1" points="1096.9,342.7 1096.9,393.3 1140.8,418.7 1184.6,393.3 	"/>
	<polyline class="st1" points="1184.6,342.7 1184.6,393.3 1228.5,418.7 1272.4,393.3 	"/>
	<polyline class="st1" points="1272.4,342.7 1272.4,393.3 1316.3,418.7 1360.1,393.3 	"/>
	<polyline class="st1" points="1360.1,342.7 1360.1,393.3 1404,418.7 	"/>
	<polyline class="st1" points="44,342.7 44,393.3 87.9,418.7 131.7,393.3 	"/>
	<line class="st1" x1="0.2" y1="418.7" x2="44" y2="393.3"/>
</g>
<g>
	<polyline class="st1" points="87.7,418.7 87.7,469.2 131.6,494.6 175.5,469.2 	"/>
	<polyline class="st1" points="175.5,418.7 175.5,469.2 219.4,494.6 263.2,469.2 	"/>
	<polyline class="st1" points="263.2,418.7 263.2,469.2 307.1,494.6 351,469.2 	"/>
	<polyline class="st1" points="351,418.7 351,469.2 394.8,494.6 438.7,469.2 	"/>
	<polyline class="st1" points="438.7,418.7 438.7,469.2 482.6,494.6 526.5,469.2 	"/>
	<polyline class="st1" points="526.5,418.7 526.5,469.2 570.3,494.6 614.2,469.2 	"/>
	<polyline class="st1" points="614.2,418.7 614.2,469.2 658.1,494.6 702,469.2 	"/>
	<polyline class="st1" points="702,418.7 702,469.2 745.8,494.6 789.7,469.2 	"/>
	<polyline class="st1" points="789.7,418.7 789.7,469.2 833.6,494.6 877.4,469.2 	"/>
	<polyline class="st1" points="877.4,418.7 877.4,469.2 921.3,494.6 965.2,469.2 	"/>
	<polyline class="st1" points="965.2,418.7 965.2,469.2 1009.1,494.6 1052.9,469.2 	"/>
	<polyline class="st1" points="1052.9,418.7 1052.9,469.2 1096.8,494.6 1140.7,469.2 	"/>
	<polyline class="st1" points="1140.7,418.7 1140.7,469.2 1184.5,494.6 1228.4,469.2 	"/>
	<polyline class="st1" points="1228.4,418.7 1228.4,469.2 1272.3,494.6 1316.2,469.2 	"/>
	<polyline class="st1" points="1316.2,418.7 1316.2,469.2 1360,494.6 1403.9,469.2 	"/>
	<line class="st1" x1="1404" y1="418.7" x2="1403.9" y2="469.2"/>
	<polyline class="st1" points="0,418.7 0,469.2 44,494.6 87.7,469.2 	"/>
</g>
<g>
	<polyline class="st1" points="131.7,494.6 131.7,545.2 175.6,570.6 219.5,545.2 	"/>
	<polyline class="st1" points="219.5,494.6 219.5,545.2 263.3,570.6 307.2,545.2 	"/>
	<polyline class="st1" points="307.2,494.6 307.2,545.2 351.1,570.6 394.9,545.2 	"/>
	<polyline class="st1" points="394.9,494.6 394.9,545.2 438.8,570.6 482.7,545.2 	"/>
	<polyline class="st1" points="482.7,494.6 482.7,545.2 526.6,570.6 570.4,545.2 	"/>
	<polyline class="st1" points="570.4,494.6 570.4,545.2 614.3,570.6 658.2,545.2 	"/>
	<polyline class="st1" points="658.2,494.6 658.2,545.2 702,570.6 745.9,545.2 	"/>
	<polyline class="st1" points="745.9,494.6 745.9,545.2 789.8,570.6 833.7,545.2 	"/>
	<polyline class="st1" points="833.7,494.6 833.7,545.2 877.5,570.6 921.4,545.2 	"/>
	<polyline class="st1" points="921.4,494.6 921.4,545.2 965.3,570.6 1009.2,545.2 	"/>
	<polyline class="st1" points="1009.2,494.6 1009.2,545.2 1053,570.6 1096.9,545.2 	"/>
	<polyline class="st1" points="1096.9,494.6 1096.9,545.2 1140.8,570.6 1184.6,545.2 	"/>
	<polyline class="st1" points="1184.6,494.6 1184.6,545.2 1228.5,570.6 1272.4,545.2 	"/>
	<polyline class="st1" points="1272.4,494.6 1272.4,545.2 1316.3,570.6 1360.1,545.2 	"/>
	<polyline class="st1" points="1360.1,494.6 1360.1,545.2 1404,570.6 	"/>
	<polyline class="st1" points="44,494.6 44,545.2 87.9,570.6 131.7,545.2 	"/>
	<line class="st1" x1="0.2" y1="570.6" x2="44" y2="545.2"/>
</g>
<g>
	<polyline class="st1" points="87.7,570.6 87.7,621.1 131.6,646.5 175.5,621.1 	"/>
	<polyline class="st1" points="175.5,570.6 175.5,621.1 219.4,646.5 263.2,621.1 	"/>
	<polyline class="st1" points="263.2,570.6 263.2,621.1 307.1,646.5 351,621.1 	"/>
	<polyline class="st1" points="351,570.6 351,621.1 394.8,646.5 438.7,621.1 	"/>
	<polyline class="st1" points="438.7,570.6 438.7,621.1 482.6,646.5 526.5,621.1 	"/>
	<polyline class="st1" points="526.5,570.6 526.5,621.1 570.3,646.5 614.2,621.1 	"/>
	<polyline class="st1" points="614.2,570.6 614.2,621.1 658.1,646.5 702,621.1 	"/>
	<polyline class="st1" points="702,570.6 702,621.1 745.8,646.5 789.7,621.1 	"/>
	<polyline class="st1" points="789.7,570.6 789.7,621.1 833.6,646.5 877.4,621.1 	"/>
	<polyline class="st1" points="877.4,570.6 877.4,621.1 921.3,646.5 965.2,621.1 	"/>
	<polyline class="st1" points="965.2,570.6 965.2,621.1 1009.1,646.5 1052.9,621.1 	"/>
	<polyline class="st1" points="1052.9,570.6 1052.9,621.1 1096.8,646.5 1140.7,621.1 	"/>
	<polyline class="st1" points="1140.7,570.6 1140.7,621.1 1184.5,646.5 1228.4,621.1 	"/>
	<polyline class="st1" points="1228.4,570.6 1228.4,621.1 1272.3,646.5 1316.2,621.1 	"/>
	<polyline class="st1" points="1316.2,570.6 1316.2,621.1 1360,646.5 1403.9,621.1 	"/>
	<line class="st1" x1="1404" y1="570.6" x2="1403.9" y2="621.1"/>
	<polyline class="st1" points="0,570.6 0,621.1 44,646.5 87.7,621.1 	"/>
</g>
<g>
	<polyline class="st1" points="131.7,646.5 131.7,697.1 175.6,722.5 219.5,697.1 	"/>
	<polyline class="st1" points="219.5,646.5 219.5,697.1 263.3,722.5 307.2,697.1 	"/>
	<polyline class="st1" points="307.2,646.5 307.2,697.1 351.1,722.5 394.9,697.1 	"/>
	<polyline class="st1" points="394.9,646.5 394.9,697.1 438.8,722.5 482.7,697.1 	"/>
	<polyline class="st1" points="482.7,646.5 482.7,697.1 526.6,722.5 570.4,697.1 	"/>
	<polyline class="st1" points="570.4,646.5 570.4,697.1 614.3,722.5 658.2,697.1 	"/>
	<polyline class="st1" points="658.2,646.5 658.2,697.1 702,722.5 745.9,697.1 	"/>
	<polyline class="st1" points="745.9,646.5 745.9,697.1 789.8,722.5 833.7,697.1 	"/>
	<polyline class="st1" points="833.7,646.5 833.7,697.1 877.5,722.5 921.4,697.1 	"/>
	<polyline class="st1" points="921.4,646.5 921.4,697.1 965.3,722.5 1009.2,697.1 	"/>
	<polyline class="st1" points="1009.2,646.5 1009.2,697.1 1053,722.5 1096.9,697.1 	"/>
	<polyline class="st1" points="1096.9,646.5 1096.9,697.1 1140.8,722.5 1184.6,697.1 	"/>
	<polyline class="st1" points="1184.6,646.5 1184.6,697.1 1228.5,722.5 1272.4,697.1 	"/>
	<polyline class="st1" points="1272.4,646.5 1272.4,697.1 1316.3,722.5 1360.1,697.1 	"/>
	<polyline class="st1" points="1360.1,646.5 1360.1,697.1 1404,722.5 	"/>
	<polyline class="st1" points="44,646.5 44,697.1 87.9,722.5 131.7,697.1 	"/>
	<line class="st1" x1="0.2" y1="722.5" x2="44" y2="697.1"/>
</g>
<g>
	<polyline class="st1" points="87.7,722.5 87.7,773 131.6,798.4 175.5,773 	"/>
	<polyline class="st1" points="175.5,722.5 175.5,773 219.4,798.4 263.2,773 	"/>
	<polyline class="st1" points="263.2,722.5 263.2,773 307.1,798.4 351,773 	"/>
	<polyline class="st1" points="351,722.5 351,773 394.8,798.4 438.7,773 	"/>
	<polyline class="st1" points="438.7,722.5 438.7,773 482.6,798.4 526.5,773 	"/>
	<polyline class="st1" points="526.5,722.5 526.5,773 570.3,798.4 614.2,773 	"/>
	<polyline class="st1" points="614.2,722.5 614.2,773 658.1,798.4 702,773 	"/>
	<polyline class="st1" points="702,722.5 702,773 745.8,798.4 789.7,773 	"/>
	<polyline class="st1" points="789.7,722.5 789.7,773 833.6,798.4 877.4,773 	"/>
	<polyline class="st1" points="877.4,722.5 877.4,773 921.3,798.4 965.2,773 	"/>
	<polyline class="st1" points="965.2,722.5 965.2,773 1009.1,798.4 1052.9,773 	"/>
	<polyline class="st1" points="1052.9,722.5 1052.9,773 1096.8,798.4 1140.7,773 	"/>
	<polyline class="st1" points="1140.7,722.5 1140.7,773 1184.5,798.4 1228.4,773 	"/>
	<polyline class="st1" points="1228.4,722.5 1228.4,773 1272.3,798.4 1316.2,773 	"/>
	<polyline class="st1" points="1316.2,722.5 1316.2,773 1360,798.4 1403.9,773 	"/>
	<line class="st1" x1="1404" y1="722.5" x2="1403.9" y2="773"/>
	<polyline class="st1" points="0,722.5 0,773 44,798.4 87.7,773 	"/>
</g>
<g>
	<polyline class="st1" points="131.7,798.4 131.7,849 175.6,874.4 219.5,849 	"/>
	<polyline class="st1" points="219.5,798.4 219.5,849 263.3,874.4 307.2,849 	"/>
	<polyline class="st1" points="307.2,798.4 307.2,849 351.1,874.4 394.9,849 	"/>
	<polyline class="st1" points="394.9,798.4 394.9,849 438.8,874.4 482.7,849 	"/>
	<polyline class="st1" points="482.7,798.4 482.7,849 526.6,874.4 570.4,849 	"/>
	<polyline class="st1" points="570.4,798.4 570.4,849 614.3,874.4 658.2,849 	"/>
	<polyline class="st1" points="658.2,798.4 658.2,849 702,874.4 745.9,849 	"/>
	<polyline class="st1" points="745.9,798.4 745.9,849 789.8,874.4 833.7,849 	"/>
	<polyline class="st1" points="833.7,798.4 833.7,849 877.5,874.4 921.4,849 	"/>
	<polyline class="st1" points="921.4,798.4 921.4,849 965.3,874.4 1009.2,849 	"/>
	<polyline class="st1" points="1009.2,798.4 1009.2,849 1053,874.4 1096.9,849 	"/>
	<polyline class="st1" points="1096.9,798.4 1096.9,849 1140.8,874.4 1184.6,849 	"/>
	<polyline class="st1" points="1184.6,798.4 1184.6,849 1228.5,874.4 1272.4,849 	"/>
	<polyline class="st1" points="1272.4,798.4 1272.4,849 1316.3,874.4 1360.1,849 	"/>
	<polyline class="st1" points="1360.1,798.4 1360.1,849 1404,874.4 	"/>
	<polyline class="st1" points="44,798.4 44,849 87.9,874.4 131.7,849 	"/>
	<line class="st1" x1="0.2" y1="874.4" x2="44" y2="849"/>
</g>
<g>
	<polyline class="st1" points="87.7,874.4 87.7,925 131.6,950.3 175.5,925 	"/>
	<polyline class="st1" points="175.5,874.4 175.5,925 219.4,950.3 263.2,925 	"/>
	<polyline class="st1" points="263.2,874.4 263.2,925 307.1,950.3 351,925 	"/>
	<polyline class="st1" points="351,874.4 351,925 394.8,950.3 438.7,925 	"/>
	<polyline class="st1" points="438.7,874.4 438.7,925 482.6,950.3 526.5,925 	"/>
	<polyline class="st1" points="526.5,874.4 526.5,925 570.3,950.3 614.2,925 	"/>
	<polyline class="st1" points="614.2,874.4 614.2,925 658.1,950.3 702,925 	"/>
	<polyline class="st1" points="702,874.4 702,925 745.8,950.3 789.7,925 	"/>
	<polyline class="st1" points="789.7,874.4 789.7,925 833.6,950.3 877.4,925 	"/>
	<polyline class="st1" points="877.4,874.4 877.4,925 921.3,950.3 965.2,925 	"/>
	<polyline class="st1" points="965.2,874.4 965.2,925 1009.1,950.3 1052.9,925 	"/>
	<polyline class="st1" points="1052.9,874.4 1052.9,925 1096.8,950.3 1140.7,925 	"/>
	<polyline class="st1" points="1140.7,874.4 1140.7,925 1184.5,950.3 1228.4,925 	"/>
	<polyline class="st1" points="1228.4,874.4 1228.4,925 1272.3,950.3 1316.2,925 	"/>
	<polyline class="st1" points="1316.2,874.4 1316.2,925 1360,950.3 1403.9,925 	"/>
	<line class="st1" x1="1404" y1="874.4" x2="1403.9" y2="925"/>
	<polyline class="st1" points="0,874.4 0,925 44,950.3 87.7,925 	"/>
</g>
<g>
	<polyline class="st1" points="131.7,950.3 131.7,1000.9 175.6,1026.3 219.5,1000.9 	"/>
	<polyline class="st1" points="219.5,950.3 219.5,1000.9 263.3,1026.3 307.2,1000.9 	"/>
	<polyline class="st1" points="307.2,950.3 307.2,1000.9 351.1,1026.3 394.9,1000.9 	"/>
	<polyline class="st1" points="394.9,950.3 394.9,1000.9 438.8,1026.3 482.7,1000.9 	"/>
	<polyline class="st1" points="482.7,950.3 482.7,1000.9 526.6,1026.3 570.4,1000.9 	"/>
	<polyline class="st1" points="570.4,950.3 570.4,1000.9 614.3,1026.3 658.2,1000.9 	"/>
	<polyline class="st1" points="658.2,950.3 658.2,1000.9 702,1026.3 745.9,1000.9 	"/>
	<polyline class="st1" points="745.9,950.3 745.9,1000.9 789.8,1026.3 833.7,1000.9 	"/>
	<polyline class="st1" points="833.7,950.3 833.7,1000.9 877.5,1026.3 921.4,1000.9 	"/>
	<polyline class="st1" points="921.4,950.3 921.4,1000.9 965.3,1026.3 1009.2,1000.9 	"/>
	<polyline class="st1" points="1009.2,950.3 1009.2,1000.9 1053,1026.3 1096.9,1000.9 	"/>
	<polyline class="st1" points="1096.9,950.3 1096.9,1000.9 1140.8,1026.3 1184.6,1000.9 	"/>
	<polyline class="st1" points="1184.6,950.3 1184.6,1000.9 1228.5,1026.3 1272.4,1000.9 	"/>
	<polyline class="st1" points="1272.4,950.3 1272.4,1000.9 1316.3,1026.3 1360.1,1000.9 	"/>
	<polyline class="st1" points="1360.1,950.3 1360.1,1000.9 1404,1026.3 	"/>
	<polyline class="st1" points="44,950.3 44,1000.9 87.9,1026.3 131.7,1000.9 	"/>
	<line class="st1" x1="0.2" y1="1026.3" x2="44" y2="1000.9"/>
</g>
<g>
	<polyline class="st1" points="87.7,1026.3 87.7,1076.9 131.6,1102.2 175.5,1076.9 	"/>
	<polyline class="st1" points="175.5,1026.3 175.5,1076.9 219.4,1102.2 263.2,1076.9 	"/>
	<polyline class="st1" points="263.2,1026.3 263.2,1076.9 307.1,1102.2 351,1076.9 	"/>
	<polyline class="st1" points="351,1026.3 351,1076.9 394.8,1102.2 438.7,1076.9 	"/>
	<polyline class="st1" points="438.7,1026.3 438.7,1076.9 482.6,1102.2 526.5,1076.9 	"/>
	<polyline class="st1" points="526.5,1026.3 526.5,1076.9 570.3,1102.2 614.2,1076.9 	"/>
	<polyline class="st1" points="614.2,1026.3 614.2,1076.9 658.1,1102.2 702,1076.9 	"/>
	<polyline class="st1" points="702,1026.3 702,1076.9 745.8,1102.2 789.7,1076.9 	"/>
	<polyline class="st1" points="789.7,1026.3 789.7,1076.9 833.6,1102.2 877.4,1076.9 	"/>
	<polyline class="st1" points="877.4,1026.3 877.4,1076.9 921.3,1102.2 965.2,1076.9 	"/>
	<polyline class="st1" points="965.2,1026.3 965.2,1076.9 1009.1,1102.2 1052.9,1076.9 	"/>
	<polyline class="st1" points="1052.9,1026.3 1052.9,1076.9 1096.8,1102.2 1140.7,1076.9 	"/>
	<polyline class="st1" points="1140.7,1026.3 1140.7,1076.9 1184.5,1102.2 1228.4,1076.9 	"/>
	<polyline class="st1" points="1228.4,1026.3 1228.4,1076.9 1272.3,1102.2 1316.2,1076.9 	"/>
	<polyline class="st1" points="1316.2,1026.3 1316.2,1076.9 1360,1102.2 1403.9,1076.9 	"/>
	<line class="st1" x1="1404" y1="1026.3" x2="1403.9" y2="1076.9"/>
	<polyline class="st1" points="0,1026.3 0,1076.9 44,1102.2 87.7,1076.9 	"/>
</g>
<g>
	<polyline class="st1" points="131.7,1102.2 131.7,1152.8 175.6,1178.2 219.5,1152.8 	"/>
	<polyline class="st1" points="219.5,1102.2 219.5,1152.8 263.3,1178.2 307.2,1152.8 	"/>
	<polyline class="st1" points="307.2,1102.2 307.2,1152.8 351.1,1178.2 394.9,1152.8 	"/>
	<polyline class="st1" points="394.9,1102.2 394.9,1152.8 438.8,1178.2 482.7,1152.8 	"/>
	<polyline class="st1" points="482.7,1102.2 482.7,1152.8 526.6,1178.2 570.4,1152.8 	"/>
	<polyline class="st1" points="570.4,1102.2 570.4,1152.8 614.3,1178.2 658.2,1152.8 	"/>
	<polyline class="st1" points="658.2,1102.2 658.2,1152.8 702,1178.2 745.9,1152.8 	"/>
	<polyline class="st1" points="745.9,1102.2 745.9,1152.8 789.8,1178.2 833.7,1152.8 	"/>
	<polyline class="st1" points="833.7,1102.2 833.7,1152.8 877.5,1178.2 921.4,1152.8 	"/>
	<polyline class="st1" points="921.4,1102.2 921.4,1152.8 965.3,1178.2 1009.2,1152.8 	"/>
	<polyline class="st1" points="1009.2,1102.2 1009.2,1152.8 1053,1178.2 1096.9,1152.8 	"/>
	<polyline class="st1" points="1096.9,1102.2 1096.9,1152.8 1140.8,1178.2 1184.6,1152.8 	"/>
	<polyline class="st1" points="1184.6,1102.2 1184.6,1152.8 1228.5,1178.2 1272.4,1152.8 	"/>
	<polyline class="st1" points="1272.4,1102.2 1272.4,1152.8 1316.3,1178.2 1360.1,1152.8 	"/>
	<polyline class="st1" points="1360.1,1102.2 1360.1,1152.8 1404,1178.2 	"/>
	<polyline class="st1" points="44,1102.2 44,1152.8 87.9,1178.2 131.7,1152.8 	"/>
	<line class="st1" x1="0.2" y1="1178.2" x2="44" y2="1152.8"/>
</g>
<g>
	<polyline class="st1" points="87.7,1178.2 87.7,1228.8 131.6,1254.1 175.5,1228.8 	"/>
	<polyline class="st1" points="175.5,1178.2 175.5,1228.8 219.4,1254.1 263.2,1228.8 	"/>
	<polyline class="st1" points="263.2,1178.2 263.2,1228.8 307.1,1254.1 351,1228.8 	"/>
	<polyline class="st1" points="351,1178.2 351,1228.8 394.8,1254.1 438.7,1228.8 	"/>
	<polyline class="st1" points="438.7,1178.2 438.7,1228.8 482.6,1254.1 526.5,1228.8 	"/>
	<polyline class="st1" points="526.5,1178.2 526.5,1228.8 570.3,1254.1 614.2,1228.8 	"/>
	<polyline class="st1" points="614.2,1178.2 614.2,1228.8 658.1,1254.1 702,1228.8 	"/>
	<polyline class="st1" points="702,1178.2 702,1228.8 745.8,1254.1 789.7,1228.8 	"/>
	<polyline class="st1" points="789.7,1178.2 789.7,1228.8 833.6,1254.1 877.4,1228.8 	"/>
	<polyline class="st1" points="877.4,1178.2 877.4,1228.8 921.3,1254.1 965.2,1228.8 	"/>
	<polyline class="st1" points="965.2,1178.2 965.2,1228.8 1009.1,1254.1 1052.9,1228.8 	"/>
	<polyline class="st1" points="1052.9,1178.2 1052.9,1228.8 1096.8,1254.1 1140.7,1228.8 	"/>
	<polyline class="st1" points="1140.7,1178.2 1140.7,1228.8 1184.5,1254.1 1228.4,1228.8 	"/>
	<polyline class="st1" points="1228.4,1178.2 1228.4,1228.8 1272.3,1254.1 1316.2,1228.8 	"/>
	<polyline class="st1" points="1316.2,1178.2 1316.2,1228.8 1360,1254.1 1403.9,1228.8 	"/>
	<line class="st1" x1="1404" y1="1178.2" x2="1403.9" y2="1228.8"/>
	<polyline class="st1" points="0,1178.2 0,1228.8 44,1254.1 87.7,1228.8 	"/>
</g>
<g>
	<polyline class="st1" points="131.7,1254.1 131.7,1304.7 175.6,1330.1 219.5,1304.7 	"/>
	<polyline class="st1" points="219.5,1254.1 219.5,1304.7 263.3,1330.1 307.2,1304.7 	"/>
	<polyline class="st1" points="307.2,1254.1 307.2,1304.7 351.1,1330.1 394.9,1304.7 	"/>
	<polyline class="st1" points="394.9,1254.1 394.9,1304.7 438.8,1330.1 482.7,1304.7 	"/>
	<polyline class="st1" points="482.7,1254.1 482.7,1304.7 526.6,1330.1 570.4,1304.7 	"/>
	<polyline class="st1" points="570.4,1254.1 570.4,1304.7 614.3,1330.1 658.2,1304.7 	"/>
	<polyline class="st1" points="658.2,1254.1 658.2,1304.7 702,1330.1 745.9,1304.7 	"/>
	<polyline class="st1" points="745.9,1254.1 745.9,1304.7 789.8,1330.1 833.7,1304.7 	"/>
	<polyline class="st1" points="833.7,1254.1 833.7,1304.7 877.5,1330.1 921.4,1304.7 	"/>
	<polyline class="st1" points="921.4,1254.1 921.4,1304.7 965.3,1330.1 1009.2,1304.7 	"/>
	<polyline class="st1" points="1009.2,1254.1 1009.2,1304.7 1053,1330.1 1096.9,1304.7 	"/>
	<polyline class="st1" points="1096.9,1254.1 1096.9,1304.7 1140.8,1330.1 1184.6,1304.7 	"/>
	<polyline class="st1" points="1184.6,1254.1 1184.6,1304.7 1228.5,1330.1 1272.4,1304.7 	"/>
	<polyline class="st1" points="1272.4,1254.1 1272.4,1304.7 1316.3,1330.1 1360.1,1304.7 	"/>
	<polyline class="st1" points="1360.1,1254.1 1360.1,1304.7 1404,1330.1 	"/>
	<polyline class="st1" points="44,1254.1 44,1304.7 87.9,1330.1 131.7,1304.7 	"/>
	<line class="st1" x1="0.2" y1="1330.1" x2="44" y2="1304.7"/>
</g>
<g>
	<polyline class="st1" points="87.7,1330.1 87.7,1380.7 131.6,1406 175.5,1380.7 	"/>
	<polyline class="st1" points="175.5,1330.1 175.5,1380.7 219.4,1406 263.2,1380.7 	"/>
	<polyline class="st1" points="263.2,1330.1 263.2,1380.7 307.1,1406 351,1380.7 	"/>
	<polyline class="st1" points="351,1330.1 351,1380.7 394.8,1406 438.7,1380.7 	"/>
	<polyline class="st1" points="438.7,1330.1 438.7,1380.7 482.6,1406 526.5,1380.7 	"/>
	<polyline class="st1" points="526.5,1330.1 526.5,1380.7 570.3,1406 614.2,1380.7 	"/>
	<polyline class="st1" points="614.2,1330.1 614.2,1380.7 658.1,1406 702,1380.7 	"/>
	<polyline class="st1" points="702,1330.1 702,1380.7 745.8,1406 789.7,1380.7 	"/>
	<polyline class="st1" points="789.7,1330.1 789.7,1380.7 833.6,1406 877.4,1380.7 	"/>
	<polyline class="st1" points="877.4,1330.1 877.4,1380.7 921.3,1406 965.2,1380.7 	"/>
	<polyline class="st1" points="965.2,1330.1 965.2,1380.7 1009.1,1406 1052.9,1380.7 	"/>
	<polyline class="st1" points="1052.9,1330.1 1052.9,1380.7 1096.8,1406 1140.7,1380.7 	"/>
	<polyline class="st1" points="1140.7,1330.1 1140.7,1380.7 1184.5,1406 1228.4,1380.7 	"/>
	<polyline class="st1" points="1228.4,1330.1 1228.4,1380.7 1272.3,1406 1316.2,1380.7 	"/>
	<polyline class="st1" points="1316.2,1330.1 1316.2,1380.7 1360,1406 1403.9,1380.7 	"/>
	<line class="st1" x1="1404" y1="1330.1" x2="1403.9" y2="1380.7"/>
	<polyline class="st1" points="0,1330.1 0,1380.7 44,1406 87.7,1380.7 	"/>
</g>
<g>
	<polyline class="st1" points="131.7,1406 131.7,1456.6 175.6,1482 219.5,1456.6 	"/>
	<polyline class="st1" points="219.5,1406 219.5,1456.6 263.3,1482 307.2,1456.6 	"/>
	<polyline class="st1" points="307.2,1406 307.2,1456.6 351.1,1482 394.9,1456.6 	"/>
	<polyline class="st1" points="394.9,1406 394.9,1456.6 438.8,1482 482.7,1456.6 	"/>
	<polyline class="st1" points="482.7,1406 482.7,1456.6 526.6,1482 570.4,1456.6 	"/>
	<polyline class="st1" points="570.4,1406 570.4,1456.6 614.3,1482 658.2,1456.6 	"/>
	<polyline class="st1" points="658.2,1406 658.2,1456.6 702,1482 745.9,1456.6 	"/>
	<polyline class="st1" points="745.9,1406 745.9,1456.6 789.8,1482 833.7,1456.6 	"/>
	<polyline class="st1" points="833.7,1406 833.7,1456.6 877.5,1482 921.4,1456.6 	"/>
	<polyline class="st1" points="921.4,1406 921.4,1456.6 965.3,1482 1009.2,1456.6 	"/>
	<polyline class="st1" points="1009.2,1406 1009.2,1456.6 1053,1482 1096.9,1456.6 	"/>
	<polyline class="st1" points="1096.9,1406 1096.9,1456.6 1140.8,1482 1184.6,1456.6 	"/>
	<polyline class="st1" points="1184.6,1406 1184.6,1456.6 1228.5,1482 1272.4,1456.6 	"/>
	<polyline class="st1" points="1272.4,1406 1272.4,1456.6 1316.3,1482 1360.1,1456.6 	"/>
	<polyline class="st1" points="1360.1,1406 1360.1,1456.6 1404,1482 	"/>
	<polyline class="st1" points="44,1406 44,1456.6 87.9,1482 131.7,1456.6 	"/>
	<line class="st1" x1="0.2" y1="1482" x2="44" y2="1456.6"/>
</g>
<g>
	<polyline class="st1" points="87.7,1482 87.7,1532.6 131.6,1557.9 175.5,1532.6 	"/>
	<polyline class="st1" points="175.5,1482 175.5,1532.6 219.4,1557.9 263.2,1532.6 	"/>
	<polyline class="st1" points="263.2,1482 263.2,1532.6 307.1,1557.9 351,1532.6 	"/>
	<polyline class="st1" points="351,1482 351,1532.6 394.8,1557.9 438.7,1532.6 	"/>
	<polyline class="st1" points="438.7,1482 438.7,1532.6 482.6,1557.9 526.5,1532.6 	"/>
	<polyline class="st1" points="526.5,1482 526.5,1532.6 570.3,1557.9 614.2,1532.6 	"/>
	<polyline class="st1" points="614.2,1482 614.2,1532.6 658.1,1557.9 702,1532.6 	"/>
	<polyline class="st1" points="702,1482 702,1532.6 745.8,1557.9 789.7,1532.6 	"/>
	<polyline class="st1" points="789.7,1482 789.7,1532.6 833.6,1557.9 877.4,1532.6 	"/>
	<polyline class="st1" points="877.4,1482 877.4,1532.6 921.3,1557.9 965.2,1532.6 	"/>
	<polyline class="st1" points="965.2,1482 965.2,1532.6 1009.1,1557.9 1052.9,1532.6 	"/>
	<polyline class="st1" points="1052.9,1482 1052.9,1532.6 1096.8,1557.9 1140.7,1532.6 	"/>
	<polyline class="st1" points="1140.7,1482 1140.7,1532.6 1184.5,1557.9 1228.4,1532.6 	"/>
	<polyline class="st1" points="1228.4,1482 1228.4,1532.6 1272.3,1557.9 1316.2,1532.6 	"/>
	<polyline class="st1" points="1316.2,1482 1316.2,1532.6 1360,1557.9 1403.9,1532.6 	"/>
	<line class="st1" x1="1404" y1="1482" x2="1403.9" y2="1532.6"/>
	<polyline class="st1" points="0,1482 0,1532.6 44,1557.9 87.7,1532.6 	"/>
</g>
<g>
	<polyline class="st1" points="131.7,1557.9 131.7,1608.5 175.6,1633.9 219.5,1608.5 	"/>
	<polyline class="st1" points="219.5,1557.9 219.5,1608.5 263.3,1633.9 307.2,1608.5 	"/>
	<polyline class="st1" points="307.2,1557.9 307.2,1608.5 351.1,1633.9 394.9,1608.5 	"/>
	<polyline class="st1" points="394.9,1557.9 394.9,1608.5 438.8,1633.9 482.7,1608.5 	"/>
	<polyline class="st1" points="482.7,1557.9 482.7,1608.5 526.6,1633.9 570.4,1608.5 	"/>
	<polyline class="st1" points="570.4,1557.9 570.4,1608.5 614.3,1633.9 658.2,1608.5 	"/>
	<polyline class="st1" points="658.2,1557.9 658.2,1608.5 702,1633.9 745.9,1608.5 	"/>
	<polyline class="st1" points="745.9,1557.9 745.9,1608.5 789.8,1633.9 833.7,1608.5 	"/>
	<polyline class="st1" points="833.7,1557.9 833.7,1608.5 877.5,1633.9 921.4,1608.5 	"/>
	<polyline class="st1" points="921.4,1557.9 921.4,1608.5 965.3,1633.9 1009.2,1608.5 	"/>
	<polyline class="st1" points="1009.2,1557.9 1009.2,1608.5 1053,1633.9 1096.9,1608.5 	"/>
	<polyline class="st1" points="1096.9,1557.9 1096.9,1608.5 1140.8,1633.9 1184.6,1608.5 	"/>
	<polyline class="st1" points="1184.6,1557.9 1184.6,1608.5 1228.5,1633.9 1272.4,1608.5 	"/>
	<polyline class="st1" points="1272.4,1557.9 1272.4,1608.5 1316.3,1633.9 1360.1,1608.5 	"/>
	<polyline class="st1" points="1360.1,1557.9 1360.1,1608.5 1404,1633.9 	"/>
	<polyline class="st1" points="44,1557.9 44,1608.5 87.9,1633.9 131.7,1608.5 	"/>
	<line class="st1" x1="0.2" y1="1633.9" x2="44" y2="1608.5"/>
</g>
<g>
	<polyline class="st1" points="87.7,1633.9 87.7,1684.5 131.6,1709.8 175.5,1684.5 	"/>
	<polyline class="st1" points="175.5,1633.9 175.5,1684.5 219.4,1709.8 263.2,1684.5 	"/>
	<polyline class="st1" points="263.2,1633.9 263.2,1684.5 307.1,1709.8 351,1684.5 	"/>
	<polyline class="st1" points="351,1633.9 351,1684.5 394.8,1709.8 438.7,1684.5 	"/>
	<polyline class="st1" points="438.7,1633.9 438.7,1684.5 482.6,1709.8 526.5,1684.5 	"/>
	<polyline class="st1" points="526.5,1633.9 526.5,1684.5 570.3,1709.8 614.2,1684.5 	"/>
	<polyline class="st1" points="614.2,1633.9 614.2,1684.5 658.1,1709.8 702,1684.5 	"/>
	<polyline class="st1" points="702,1633.9 702,1684.5 745.8,1709.8 789.7,1684.5 	"/>
	<polyline class="st1" points="789.7,1633.9 789.7,1684.5 833.6,1709.8 877.4,1684.5 	"/>
	<polyline class="st1" points="877.4,1633.9 877.4,1684.5 921.3,1709.8 965.2,1684.5 	"/>
	<polyline class="st1" points="965.2,1633.9 965.2,1684.5 1009.1,1709.8 1052.9,1684.5 	"/>
	<polyline class="st1" points="1052.9,1633.9 1052.9,1684.5 1096.8,1709.8 1140.7,1684.5 	"/>
	<polyline class="st1" points="1140.7,1633.9 1140.7,1684.5 1184.5,1709.8 1228.4,1684.5 	"/>
	<polyline class="st1" points="1228.4,1633.9 1228.4,1684.5 1272.3,1709.8 1316.2,1684.5 	"/>
	<polyline class="st1" points="1316.2,1633.9 1316.2,1684.5 1360,1709.8 1403.9,1684.5 	"/>
	<line class="st1" x1="1404" y1="1633.9" x2="1403.9" y2="1684.5"/>
	<polyline class="st1" points="0,1633.9 0,1684.5 44,1709.8 87.7,1684.5 	"/>
</g>
<g>
	<polyline class="st1" points="131.7,1709.8 131.7,1760.4 175.6,1785.8 219.5,1760.4 	"/>
	<polyline class="st1" points="219.5,1709.8 219.5,1760.4 263.3,1785.8 307.2,1760.4 	"/>
	<polyline class="st1" points="307.2,1709.8 307.2,1760.4 351.1,1785.8 394.9,1760.4 	"/>
	<polyline class="st1" points="394.9,1709.8 394.9,1760.4 438.8,1785.8 482.7,1760.4 	"/>
	<polyline class="st1" points="482.7,1709.8 482.7,1760.4 526.6,1785.8 570.4,1760.4 	"/>
	<polyline class="st1" points="570.4,1709.8 570.4,1760.4 614.3,1785.8 658.2,1760.4 	"/>
	<polyline class="st1" points="658.2,1709.8 658.2,1760.4 702,1785.8 745.9,1760.4 	"/>
	<polyline class="st1" points="745.9,1709.8 745.9,1760.4 789.8,1785.8 833.7,1760.4 	"/>
	<polyline class="st1" points="833.7,1709.8 833.7,1760.4 877.5,1785.8 921.4,1760.4 	"/>
	<polyline class="st1" points="921.4,1709.8 921.4,1760.4 965.3,1785.8 1009.2,1760.4 	"/>
	<polyline class="st1" points="1009.2,1709.8 1009.2,1760.4 1053,1785.8 1096.9,1760.4 	"/>
	<polyline class="st1" points="1096.9,1709.8 1096.9,1760.4 1140.8,1785.8 1184.6,1760.4 	"/>
	<polyline class="st1" points="1184.6,1709.8 1184.6,1760.4 1228.5,1785.8 1272.4,1760.4 	"/>
	<polyline class="st1" points="1272.4,1709.8 1272.4,1760.4 1316.3,1785.8 1360.1,1760.4 	"/>
	<polyline class="st1" points="1360.1,1709.8 1360.1,1760.4 1404,1785.8 	"/>
	<polyline class="st1" points="44,1709.8 44,1760.4 87.9,1785.8 131.7,1760.4 	"/>
	<line class="st1" x1="0.2" y1="1785.8" x2="44" y2="1760.4"/>
</g>
<g>
	<polyline class="st1" points="87.7,1785.8 87.7,1836.4 131.6,1861.8 175.5,1836.4 	"/>
	<polyline class="st1" points="175.5,1785.8 175.5,1836.4 219.4,1861.8 263.2,1836.4 	"/>
	<polyline class="st1" points="263.2,1785.8 263.2,1836.4 307.1,1861.8 351,1836.4 	"/>
	<polyline class="st1" points="351,1785.8 351,1836.4 394.8,1861.8 438.7,1836.4 	"/>
	<polyline class="st1" points="438.7,1785.8 438.7,1836.4 482.6,1861.8 526.5,1836.4 	"/>
	<polyline class="st1" points="526.5,1785.8 526.5,1836.4 570.3,1861.8 614.2,1836.4 	"/>
	<polyline class="st1" points="614.2,1785.8 614.2,1836.4 658.1,1861.8 702,1836.4 	"/>
	<polyline class="st1" points="702,1785.8 702,1836.4 745.8,1861.8 789.7,1836.4 	"/>
	<polyline class="st1" points="789.7,1785.8 789.7,1836.4 833.6,1861.8 877.4,1836.4 	"/>
	<polyline class="st1" points="877.4,1785.8 877.4,1836.4 921.3,1861.8 965.2,1836.4 	"/>
	<polyline class="st1" points="965.2,1785.8 965.2,1836.4 1009.1,1861.8 1052.9,1836.4 	"/>
	<polyline class="st1" points="1052.9,1785.8 1052.9,1836.4 1096.8,1861.8 1140.7,1836.4 	"/>
	<polyline class="st1" points="1140.7,1785.8 1140.7,1836.4 1184.5,1861.8 1228.4,1836.4 	"/>
	<polyline class="st1" points="1228.4,1785.8 1228.4,1836.4 1272.3,1861.8 1316.2,1836.4 	"/>
	<polyline class="st1" points="1316.2,1785.8 1316.2,1836.4 1360,1861.8 1403.9,1836.4 	"/>
	<line class="st1" x1="1404" y1="1785.8" x2="1403.9" y2="1836.4"/>
	<polyline class="st1" points="0,1785.8 0,1836.4 44,1861.8 87.7,1836.4 	"/>
</g>
<g>
	<path class="st1" d="M219.5,1872"/>
	<line class="st1" x1="131.7" y1="1861.8" x2="131.7" y2="1872"/>
	<path class="st1" d="M307.2,1872"/>
	<line class="st1" x1="219.5" y1="1861.8" x2="219.5" y2="1872"/>
	<path class="st1" d="M394.9,1872"/>
	<line class="st1" x1="307.2" y1="1861.8" x2="307.2" y2="1872"/>
	<path class="st1" d="M482.7,1872"/>
	<line class="st1" x1="394.9" y1="1861.8" x2="394.9" y2="1872"/>
	<path class="st1" d="M570.4,1872"/>
	<line class="st1" x1="482.7" y1="1861.8" x2="482.7" y2="1872"/>
	<path class="st1" d="M658.2,1872"/>
	<line class="st1" x1="570.4" y1="1861.8" x2="570.4" y2="1872"/>
	<path class="st1" d="M745.9,1872"/>
	<line class="st1" x1="658.2" y1="1861.8" x2="658.2" y2="1872"/>
	<path class="st1" d="M833.7,1872"/>
	<line class="st1" x1="745.9" y1="1861.8" x2="745.9" y2="1872"/>
	<path class="st1" d="M921.4,1872"/>
	<line class="st1" x1="833.7" y1="1861.8" x2="833.7" y2="1872"/>
	<path class="st1" d="M1009.2,1872"/>
	<line class="st1" x1="921.4" y1="1861.8" x2="921.4" y2="1872"/>
	<path class="st1" d="M1096.9,1872"/>
	<line class="st1" x1="1009.2" y1="1861.8" x2="1009.2" y2="1872"/>
	<path class="st1" d="M1184.6,1872"/>
	<line class="st1" x1="1096.9" y1="1861.8" x2="1096.9" y2="1872"/>
	<path class="st1" d="M1272.4,1872"/>
	<line class="st1" x1="1184.6" y1="1861.8" x2="1184.6" y2="1872"/>
	<path class="st1" d="M1360.1,1872"/>
	<line class="st1" x1="1272.4" y1="1861.8" x2="1272.4" y2="1872"/>
	<line class="st1" x1="1360.1" y1="1861.8" x2="1360.1" y2="1872"/>
	<path class="st1" d="M131.7,1872"/>
	<line class="st1" x1="44" y1="1861.8" x2="44" y2="1872"/>
	<path class="st1" d="M44,1872"/>
</g>
</svg>
