<?xml version="1.0" encoding="utf-8"?>
<!-- Generator: Adobe Illustrator 22.1.0, SVG Export Plug-In . SVG Version: 6.00 Build 0)  -->
<svg version="1.1" id="Layer_1" xmlns="http://www.w3.org/2000/svg" xmlns:xlink="http://www.w3.org/1999/xlink" x="0px" y="0px"
	 viewBox="0 0 1404 1872" style="enable-background:new 0 0 1404 1872;" xml:space="preserve">
<style type="text/css">
	.st0{fill:#FFFFFF;}
	.st1{fill:none;stroke:#000000;stroke-width:0.5;stroke-miterlimit:10;}
</style>
<rect y="0" class="st0" width="1404" height="1872"/>
<path class="st1" d="M1,146.5h1403"/>
<path class="st1" d="M1,312.5h1403"/>
<path class="st1" d="M1,223.5h1403"/>
<path class="st1" d="M200.5,224v1648"/>
<path class="st1" d="M401.5,224v1648"/>
<path class="st1" d="M602.5,224v1648"/>
<path class="st1" d="M802.5,224v1648"/>
<path class="st1" d="M1003.5,224v1648"/>
<path class="st1" d="M1203.5,224v1648"/>
<path d="M630,93.5l11.9-38.2h0.1l12.1,38.2h8.1l9.4-50.4h-7.2l-7.2,38.5H657l-12.2-38.5h-5.5l-12.2,38.5h-0.1l-7.2-38.5h-7.3
	l9.4,50.4H630z"/>
<path d="M702.5,83.6c-0.4,0.5-1,1.2-1.9,2.1c-0.9,0.9-1.9,1.6-3.2,2c-1.2,0.4-2.6,0.6-4.2,0.6c-3.4,0-5.9-1.1-7.7-3.3
	s-2.7-5.1-2.8-8.5h27.6v-2.1c0-6.2-1.6-11.1-4.8-14.7c-3.2-3.6-7.4-5.4-12.5-5.4c-5.1,0-9.3,1.8-12.6,5.5c-3.3,3.7-4.9,8.6-4.9,14.7
	c0,6.1,1.7,11,5,14.7s7.6,5.5,12.9,5.5c3.8,0,7-0.9,9.6-2.6c2.6-1.8,4.7-4,6.2-6.7l-5.3-4C703.4,82.3,702.9,83.1,702.5,83.6z
	 M685.5,63.8c1.8-2.2,4.3-3.3,7.5-3.3c3.4,0,5.9,1,7.6,3.1c1.7,2,2.6,4.5,2.7,7.4h-20.6C682.8,68.4,683.8,66,685.5,63.8z"/>
<path d="M743.8,83.6c-0.4,0.5-1,1.2-1.9,2.1c-0.9,0.9-1.9,1.6-3.2,2c-1.2,0.4-2.6,0.6-4.2,0.6c-3.4,0-5.9-1.1-7.7-3.3
	c-1.8-2.2-2.8-5.1-2.8-8.5h27.6v-2.1c0-6.2-1.6-11.1-4.8-14.7c-3.2-3.6-7.4-5.4-12.5-5.4c-5.1,0-9.3,1.8-12.6,5.5
	c-3.3,3.7-4.9,8.6-4.9,14.7c0,6.1,1.7,11,5,14.7c3.3,3.7,7.6,5.5,12.9,5.5c3.8,0,7-0.9,9.6-2.6c2.6-1.8,4.7-4,6.2-6.7l-5.3-4
	C744.7,82.3,744.2,83.1,743.8,83.6z M726.8,63.8c1.8-2.2,4.3-3.3,7.5-3.3c3.4,0,5.9,1,7.6,3.1c1.7,2,2.6,4.5,2.7,7.4H724
	C724.1,68.4,725,66,726.8,63.8z"/>
<path d="M767.6,93.5V80.6l5.4-5.8h0.1l12.6,18.7h8.1l-15.4-22.9l13.8-15.3h-9.1l-15.4,16.9h-0.1V41h-7v52.6H767.6z"/>
<path d="M35.8,193.5l4-12.7h0l4,12.7h2.7l3.1-16.8h-2.4l-2.4,12.8h0l-4.1-12.8h-1.9l-4.1,12.8h0l-2.4-12.8H30l3.1,16.8H35.8z"/>
<path d="M63.1,193.5v-2.2h-7.9v-5.4h7.2v-2.1h-7.2v-4.9h7.9v-2.2H52.8v16.8H63.1z"/>
<path d="M77.1,193.5v-2.2h-7.9v-5.4h7.2v-2.1h-7.2v-4.9h7.9v-2.2H66.8v16.8H77.1z"/>
<path d="M83,193.5v-5.6l1.7-2.1h0l5.6,7.7h2.9l-6.9-9.4l6.2-7.4h-3l-6.5,7.8H83v-7.8h-2.4v16.8H83z"/>
<path d="M103.3,193.5V181h0l7.3,12.5h2.4v-16.8h-2.4v12.5h-0.1l-7.2-12.5h-2.5v16.8H103.3z"/>
<path d="M118.6,192.4c1.1,1,2.6,1.5,4.5,1.5c1.9,0,3.4-0.5,4.5-1.5c1.1-1,1.6-2.4,1.6-4.3v-11.3h-2.4v11.2c0,1.2-0.3,2.1-0.9,2.7
	s-1.5,0.9-2.8,0.9c-1.2,0-2.1-0.3-2.8-1s-0.9-1.6-0.9-2.8v-11.2H117V188C117,189.9,117.6,191.4,118.6,192.4z"/>
<path d="M135.6,193.5v-12.8h0l5.4,12.8h0.6l5.4-12.8h0.1v12.8h2.4v-16.8h-3l-5.1,12.2h0l-5.1-12.2h-3v16.8H135.6z"/>
<path d="M160,193.5c4,0,6-1.7,6-5c0-1-0.3-1.9-0.8-2.6c-0.5-0.7-1.2-1.2-1.9-1.4v-0.1c1.4-0.7,2.1-1.8,2.1-3.3
	c0-1.3-0.4-2.3-1.3-3.2c-0.9-0.8-2.1-1.3-3.6-1.3h-6.7v16.8H160z M156.2,178.9h3.9c0.9,0,1.6,0.2,2.2,0.6c0.5,0.4,0.8,1,0.8,1.8
	c0,1.6-1,2.4-2.9,2.4h-3.9V178.9z M156.2,185.7h3.4c1.4,0,2.4,0.2,3,0.6s1,1.1,1,2.1c0,1.1-0.3,1.8-1,2.2s-1.7,0.6-3,0.6h-3.4V185.7
	z"/>
<path d="M179.7,193.5v-2.2h-7.9v-5.4h7.2v-2.1h-7.2v-4.9h7.9v-2.2h-10.3v16.8H179.7z"/>
<path d="M185.8,193.5v-6.6h3.4l3.6,6.6h2.6l-3.7-6.8c1.3-0.3,2.3-0.8,2.9-1.6c0.7-0.8,1-1.9,1-3.3c0-1.6-0.5-2.9-1.5-3.8
	c-1-0.9-2.4-1.3-4.1-1.3h-6.6v16.8H185.8z M185.8,178.9h4c2.3,0,3.5,1,3.5,2.9c0,1-0.3,1.7-0.9,2.2c-0.6,0.5-1.5,0.7-2.5,0.7h-4
	V178.9z"/>
<path d="M201.8,190.5h-3v3h3V190.5z M201.8,180.8h-3v3h3V180.8z"/>
<path d="M46.3,278.1v-17.6h0.1l7.5,17.6h0.8l7.5-17.6h0.1v17.6h3.3v-23.1h-4.2l-7.1,16.8h-0.1l-7-16.8H43v23.1H46.3z"/>
<path d="M74.5,274c-0.9-1.1-1.4-2.7-1.4-4.7s0.4-3.6,1.3-4.7s2.1-1.6,3.5-1.6c1.4,0,2.6,0.6,3.4,1.7c0.9,1.1,1.3,2.7,1.3,4.6
	c0,2-0.4,3.6-1.3,4.7c-0.9,1.1-2,1.7-3.4,1.7C76.6,275.6,75.4,275.1,74.5,274z M83.7,276.1c1.5-1.6,2.2-3.9,2.2-6.8
	c0-2.9-0.8-5.1-2.3-6.8c-1.5-1.6-3.4-2.5-5.6-2.5c-2.3,0-4.2,0.8-5.7,2.5c-1.5,1.7-2.3,3.9-2.3,6.8c0,2.9,0.8,5.2,2.3,6.8
	c1.5,1.6,3.4,2.4,5.8,2.4C80.3,278.5,82.2,277.7,83.7,276.1z"/>
<path d="M93.3,278.1v-11c0-1.3,0.4-2.2,1.1-3s1.8-1.1,3-1.1c2.5,0,3.7,1.5,3.7,4.5v10.5h3.2v-11.5c0-2-0.6-3.6-1.7-4.8
	c-1.1-1.2-2.7-1.7-4.6-1.7c-1,0-1.9,0.2-2.8,0.6s-1.6,0.9-2,1.6h-0.1v-1.7h-3.1v17.5H93.3z"/>
<path d="M119.5,274.5c-0.8,0.8-1.8,1.1-3.1,1.1c-1.6,0-2.8-0.6-3.6-1.6c-0.8-1.1-1.3-2.7-1.3-4.7s0.4-3.6,1.3-4.7
	c0.8-1.1,2.1-1.6,3.6-1.6c1.3,0,2.3,0.4,3.1,1.3s1.2,1.8,1.2,2.9v4.7C120.6,272.8,120.2,273.7,119.5,274.5z M123.8,278.1V254h-3.2
	v8.3h-0.1c-1.3-1.4-2.8-2.2-4.7-2.2c-2.1,0-3.9,0.8-5.4,2.5c-1.5,1.7-2.2,3.9-2.2,6.7c0,2.8,0.7,5.1,2.1,6.7s3.2,2.5,5.5,2.5
	c2,0,3.7-0.7,4.9-2.2h0.1v1.7H123.8z"/>
<path d="M142,278.1v-11.6c0-2.2-0.6-3.8-1.9-4.9c-1.2-1-2.9-1.6-4.9-1.6c-1.9,0-3.4,0.5-4.6,1.4c-1.2,0.9-1.9,2.2-2.2,3.7l2.8,1
	c0.5-2.2,1.9-3.3,4.1-3.3c1.1,0,2,0.2,2.6,0.7c0.6,0.5,0.9,1,0.9,1.7s-0.3,1.2-1,1.6s-2,0.8-3.8,1.3c-2.1,0.5-3.6,1.2-4.5,2
	c-0.9,0.8-1.3,2-1.3,3.4c0,1.5,0.5,2.7,1.5,3.6c1,1,2.5,1.4,4.5,1.4c1.4,0,2.6-0.3,3.4-0.8c0.9-0.5,1.5-1.1,1.7-1.5h0.1v1.8H142z
	 M137.2,269.6c0.6-0.3,1-0.4,1.2-0.6c0.2-0.1,0.3-0.3,0.4-0.5h0.1v3.9c0,0.9-0.4,1.7-1.2,2.3c-0.8,0.6-1.9,1-3.4,1
	c-2.1,0-3.2-0.8-3.2-2.4c0-0.7,0.2-1.2,0.7-1.7c0.5-0.4,1.4-0.8,2.8-1.2C135.7,270.1,136.5,269.8,137.2,269.6z"/>
<path d="M150.5,285.5l9.8-24.9H157l-4.8,12.5l-4.8-12.5h-3.4l6.6,16.3l-3.4,8.6H150.5z"/>
<path d="M249.2,278.1v-20h7v-3.1h-17.3v3.1h7v20H249.2z"/>
<path d="M259.2,276.8c1,1.1,2.5,1.7,4.5,1.7c2,0,3.6-0.7,4.7-2.2h0.1v1.7h3.1v-17.5h-3.2v10.8c0,1.3-0.4,2.4-1.1,3.1
	s-1.7,1.1-2.9,1.1c-1.3,0-2.2-0.3-2.7-0.9s-0.8-1.6-0.8-3.1v-10.9h-3.2v11.4C257.7,274.1,258.2,275.7,259.2,276.8z"/>
<path d="M288.1,273.5c-0.2,0.2-0.5,0.6-0.9,1c-0.4,0.4-0.9,0.7-1.5,0.9c-0.6,0.2-1.2,0.3-1.9,0.3c-1.5,0-2.7-0.5-3.5-1.5
	s-1.3-2.3-1.3-3.9h12.7v-1c0-2.8-0.7-5.1-2.2-6.7c-1.5-1.7-3.4-2.5-5.7-2.5s-4.3,0.8-5.8,2.5c-1.5,1.7-2.3,3.9-2.3,6.7
	s0.8,5,2.3,6.7c1.5,1.7,3.5,2.5,5.9,2.5c1.7,0,3.2-0.4,4.4-1.2c1.2-0.8,2.2-1.8,2.8-3.1l-2.4-1.8
	C288.5,272.9,288.2,273.3,288.1,273.5z M280.3,264.4c0.8-1,2-1.5,3.4-1.5c1.5,0,2.7,0.5,3.5,1.4s1.2,2.1,1.3,3.4H279
	C279,266.5,279.5,265.4,280.3,264.4z"/>
<path d="M296.6,276.7c1.3,1.2,3.1,1.8,5.4,1.8c2.3,0,4-0.5,5.1-1.6c1.1-1,1.7-2.3,1.7-3.6c0-1.4-0.4-2.5-1.2-3.3
	c-0.8-0.8-2.3-1.5-4.5-2.2c-2.2-0.6-3.6-1.1-4.2-1.4c-0.6-0.3-0.9-0.8-0.9-1.5c0-0.6,0.3-1.1,0.9-1.5c0.6-0.4,1.4-0.6,2.4-0.6
	c2.1,0,3.5,1,4.2,3.1l2.8-0.8c-0.4-1.5-1.2-2.8-2.3-3.7c-1.1-0.9-2.7-1.4-4.7-1.4c-1.9,0-3.5,0.5-4.6,1.5c-1.1,1-1.7,2.2-1.7,3.5
	c0,1.3,0.4,2.3,1.4,3.1c0.9,0.8,2.4,1.4,4.5,2c2,0.6,3.4,1.1,4,1.4c0.6,0.4,1,1,1,1.7c0,0.8-0.3,1.4-1,1.8c-0.7,0.5-1.7,0.7-2.9,0.7
	c-2.7,0-4.2-1.4-4.5-4.3l-3,0.7C294.6,274,295.4,275.5,296.6,276.7z"/>
<path d="M322.8,274.5c-0.8,0.8-1.8,1.1-3.1,1.1c-1.6,0-2.8-0.6-3.6-1.6c-0.8-1.1-1.3-2.7-1.3-4.7s0.4-3.6,1.3-4.7s2.1-1.6,3.6-1.6
	c1.3,0,2.3,0.4,3.1,1.3s1.2,1.8,1.2,2.9v4.7C324,272.8,323.6,273.7,322.8,274.5z M327.2,278.1V254H324v8.3h-0.1
	c-1.3-1.4-2.8-2.2-4.7-2.2c-2.1,0-3.9,0.8-5.4,2.5c-1.5,1.7-2.2,3.9-2.2,6.7c0,2.8,0.7,5.1,2.1,6.7s3.2,2.5,5.5,2.5
	c2,0,3.7-0.7,4.9-2.2h0.1v1.7H327.2z"/>
<path d="M345.3,278.1v-11.6c0-2.2-0.6-3.8-1.9-4.9c-1.2-1-2.9-1.6-4.9-1.6c-1.9,0-3.4,0.5-4.6,1.4c-1.2,0.9-1.9,2.2-2.2,3.7l2.8,1
	c0.5-2.2,1.9-3.3,4.1-3.3c1.1,0,2,0.2,2.6,0.7c0.6,0.5,0.9,1,0.9,1.7s-0.3,1.2-1,1.6s-2,0.8-3.8,1.3c-2.1,0.5-3.6,1.2-4.5,2
	c-0.9,0.8-1.3,2-1.3,3.4c0,1.5,0.5,2.7,1.5,3.6c1,1,2.5,1.4,4.5,1.4c1.4,0,2.6-0.3,3.4-0.8c0.9-0.5,1.5-1.1,1.7-1.5h0.1v1.8H345.3z
	 M340.5,269.6c0.6-0.3,1-0.4,1.2-0.6s0.3-0.3,0.4-0.5h0.1v3.9c0,0.9-0.4,1.7-1.2,2.3s-1.9,1-3.4,1c-2.1,0-3.2-0.8-3.2-2.4
	c0-0.7,0.2-1.2,0.7-1.7c0.5-0.4,1.4-0.8,2.8-1.2C339,270.1,339.9,269.8,340.5,269.6z"/>
<path d="M353.9,285.5l9.8-24.9h-3.3l-4.8,12.5l-4.8-12.5h-3.4l6.6,16.3l-3.4,8.6H353.9z"/>
<path d="M423.1,278.1l5.4-17.5h0.1l5.5,17.5h3.7l4.3-23.1h-3.3l-3.3,17.7h-0.1l-5.6-17.7h-2.5l-5.6,17.7h-0.1l-3.3-17.7h-3.4
	l4.3,23.1H423.1z"/>
<path d="M456.4,273.5c-0.2,0.2-0.5,0.6-0.9,1c-0.4,0.4-0.9,0.7-1.4,0.9c-0.6,0.2-1.2,0.3-1.9,0.3c-1.5,0-2.7-0.5-3.5-1.5
	c-0.8-1-1.3-2.3-1.3-3.9H460v-1c0-2.8-0.7-5.1-2.2-6.7c-1.5-1.7-3.4-2.5-5.7-2.5s-4.2,0.8-5.8,2.5s-2.3,3.9-2.3,6.7s0.8,5,2.3,6.7
	c1.5,1.7,3.5,2.5,5.9,2.5c1.7,0,3.2-0.4,4.4-1.2c1.2-0.8,2.2-1.8,2.8-3.1l-2.4-1.8C456.8,272.9,456.6,273.3,456.4,273.5z
	 M448.6,264.4c0.8-1,2-1.5,3.4-1.5c1.5,0,2.7,0.5,3.5,1.4s1.2,2.1,1.3,3.4h-9.4C447.4,266.5,447.8,265.4,448.6,264.4z"/>
<path d="M474.1,274.5c-0.8,0.8-1.8,1.1-3.1,1.1c-1.6,0-2.8-0.6-3.6-1.6c-0.8-1.1-1.3-2.7-1.3-4.7s0.4-3.6,1.3-4.7
	c0.8-1.1,2.1-1.6,3.6-1.6c1.3,0,2.3,0.4,3.1,1.3s1.2,1.8,1.2,2.9v4.7C475.3,272.8,474.9,273.7,474.1,274.5z M478.5,278.1V254h-3.2
	v8.3h-0.1c-1.3-1.4-2.8-2.2-4.7-2.2c-2.1,0-3.9,0.8-5.4,2.5c-1.5,1.7-2.2,3.9-2.2,6.7c0,2.8,0.7,5.1,2.1,6.7s3.2,2.5,5.5,2.5
	c2,0,3.7-0.7,4.9-2.2h0.1v1.7H478.5z"/>
<path d="M486.9,278.1v-11c0-1.3,0.4-2.2,1.1-3c0.8-0.7,1.8-1.1,3-1.1c2.5,0,3.7,1.5,3.7,4.5v10.5h3.2v-11.5c0-2-0.6-3.6-1.7-4.8
	c-1.1-1.2-2.7-1.7-4.6-1.7c-1,0-1.9,0.2-2.8,0.6c-0.9,0.4-1.6,0.9-2,1.6h-0.1v-1.7h-3.1v17.5H486.9z"/>
<path d="M514.4,273.5c-0.2,0.2-0.5,0.6-0.9,1c-0.4,0.4-0.9,0.7-1.4,0.9c-0.6,0.2-1.2,0.3-1.9,0.3c-1.5,0-2.7-0.5-3.5-1.5
	c-0.8-1-1.3-2.3-1.3-3.9h12.7v-1c0-2.8-0.7-5.1-2.2-6.7c-1.5-1.7-3.4-2.5-5.7-2.5c-2.3,0-4.2,0.8-5.8,2.5s-2.3,3.9-2.3,6.7
	s0.8,5,2.3,6.7c1.5,1.7,3.5,2.5,5.9,2.5c1.7,0,3.2-0.4,4.4-1.2c1.2-0.8,2.2-1.8,2.8-3.1l-2.4-1.8
	C514.8,272.9,514.5,273.3,514.4,273.5z M506.6,264.4c0.8-1,2-1.5,3.4-1.5c1.5,0,2.7,0.5,3.5,1.4s1.2,2.1,1.3,3.4h-9.4
	C505.3,266.5,505.8,265.4,506.6,264.4z"/>
<path d="M522.9,276.7c1.3,1.2,3.1,1.8,5.4,1.8c2.3,0,4-0.5,5.1-1.6c1.1-1,1.7-2.3,1.7-3.6c0-1.4-0.4-2.5-1.2-3.3
	c-0.8-0.8-2.3-1.5-4.5-2.2c-2.2-0.6-3.6-1.1-4.2-1.4c-0.6-0.3-0.9-0.8-0.9-1.5c0-0.6,0.3-1.1,0.9-1.5c0.6-0.4,1.4-0.6,2.4-0.6
	c2.1,0,3.5,1,4.2,3.1l2.8-0.8c-0.4-1.5-1.2-2.8-2.3-3.7c-1.1-0.9-2.7-1.4-4.7-1.4c-1.9,0-3.5,0.5-4.6,1.5c-1.1,1-1.7,2.2-1.7,3.5
	c0,1.3,0.5,2.3,1.4,3.1c0.9,0.8,2.4,1.4,4.5,2c2,0.6,3.4,1.1,4,1.4c0.6,0.4,1,1,1,1.7c0,0.8-0.3,1.4-1,1.8c-0.7,0.5-1.7,0.7-2.9,0.7
	c-2.7,0-4.2-1.4-4.5-4.3l-3,0.7C520.9,274,521.7,275.5,522.9,276.7z"/>
<path d="M549.1,274.5c-0.8,0.8-1.8,1.1-3.1,1.1c-1.6,0-2.8-0.6-3.6-1.6c-0.8-1.1-1.3-2.7-1.3-4.7s0.4-3.6,1.3-4.7s2.1-1.6,3.6-1.6
	c1.3,0,2.3,0.4,3.1,1.3c0.8,0.8,1.2,1.8,1.2,2.9v4.7C550.3,272.8,549.9,273.7,549.1,274.5z M553.5,278.1V254h-3.2v8.3h-0.1
	c-1.3-1.4-2.8-2.2-4.7-2.2c-2.1,0-3.9,0.8-5.4,2.5c-1.5,1.7-2.2,3.9-2.2,6.7c0,2.8,0.7,5.1,2.1,6.7s3.2,2.5,5.5,2.5
	c2,0,3.7-0.7,4.9-2.2h0.1v1.7H553.5z"/>
<path d="M571.7,278.1v-11.6c0-2.2-0.6-3.8-1.9-4.9c-1.2-1-2.9-1.6-4.9-1.6c-1.9,0-3.4,0.5-4.6,1.4c-1.2,0.9-1.9,2.2-2.2,3.7l2.8,1
	c0.5-2.2,1.9-3.3,4.1-3.3c1.1,0,2,0.2,2.6,0.7c0.6,0.5,0.9,1,0.9,1.7s-0.3,1.2-1,1.6c-0.7,0.4-2,0.8-3.8,1.3c-2.1,0.5-3.6,1.2-4.5,2
	c-0.9,0.8-1.3,2-1.3,3.4c0,1.5,0.5,2.7,1.5,3.6s2.5,1.4,4.5,1.4c1.4,0,2.6-0.3,3.4-0.8c0.9-0.5,1.5-1.1,1.7-1.5h0.1v1.8H571.7z
	 M566.8,269.6c0.6-0.3,1-0.4,1.2-0.6s0.3-0.3,0.4-0.5h0.1v3.9c0,0.9-0.4,1.7-1.2,2.3c-0.8,0.6-1.9,1-3.4,1c-2.1,0-3.2-0.8-3.2-2.4
	c0-0.7,0.2-1.2,0.7-1.7c0.5-0.4,1.4-0.8,2.8-1.2C565.3,270.1,566.2,269.8,566.8,269.6z"/>
<path d="M580.2,285.5l9.8-24.9h-3.3l-4.8,12.5l-4.8-12.5h-3.4l6.6,16.3l-3.4,8.6H580.2z"/>
<path d="M643.3,278.1v-20h7v-3.1h-17.3v3.1h7v20H643.3z"/>
<path d="M656.9,278.1v-11c0-1.2,0.4-2.2,1.2-2.9c0.8-0.7,1.8-1.1,3-1.1c1.3,0,2.2,0.4,2.8,1.2s1,1.8,1,3.2v10.7h3.2v-11.5
	c0-2-0.6-3.6-1.7-4.8s-2.7-1.7-4.5-1.7c-1,0-2,0.2-2.9,0.6c-0.9,0.4-1.6,1-2,1.6h-0.1V254h-3.2v24.1H656.9z"/>
<path d="M674.5,276.8c1,1.1,2.5,1.7,4.5,1.7c2,0,3.6-0.7,4.7-2.2h0.1v1.7h3.1v-17.5h-3.2v10.8c0,1.3-0.4,2.4-1.1,3.1
	s-1.7,1.1-2.9,1.1c-1.3,0-2.2-0.3-2.7-0.9s-0.8-1.6-0.8-3.1v-10.9H673v11.4C673,274.1,673.5,275.7,674.5,276.8z"/>
<path d="M695.4,278.1v-10.3c0-2.9,1.1-4.3,3.2-4.3c0.5,0,0.9,0.1,1.4,0.3l0.6-3.2c-0.4-0.2-1-0.3-1.6-0.3c-0.7,0-1.4,0.2-2.1,0.6
	c-0.7,0.4-1.2,0.9-1.5,1.6h-0.1v-1.9h-3.1v17.5H695.4z"/>
<path d="M704.8,276.7c1.3,1.2,3.1,1.8,5.4,1.8c2.3,0,4-0.5,5.1-1.6c1.1-1,1.7-2.3,1.7-3.6c0-1.4-0.4-2.5-1.2-3.3
	c-0.8-0.8-2.3-1.5-4.5-2.2c-2.2-0.6-3.6-1.1-4.2-1.4c-0.6-0.3-0.9-0.8-0.9-1.5c0-0.6,0.3-1.1,0.9-1.5c0.6-0.4,1.4-0.6,2.4-0.6
	c2.1,0,3.5,1,4.2,3.1l2.8-0.8c-0.4-1.5-1.2-2.8-2.3-3.7c-1.1-0.9-2.7-1.4-4.7-1.4c-1.9,0-3.5,0.5-4.6,1.5c-1.1,1-1.7,2.2-1.7,3.5
	c0,1.3,0.4,2.3,1.4,3.1c0.9,0.8,2.4,1.4,4.5,2c2,0.6,3.4,1.1,4,1.4c0.6,0.4,1,1,1,1.7c0,0.8-0.3,1.4-1,1.8c-0.7,0.5-1.7,0.7-2.9,0.7
	c-2.7,0-4.2-1.4-4.5-4.3l-3,0.7C702.8,274,703.5,275.5,704.8,276.7z"/>
<path d="M731,274.5c-0.8,0.8-1.8,1.1-3.1,1.1c-1.6,0-2.8-0.6-3.6-1.6c-0.8-1.1-1.3-2.7-1.3-4.7s0.4-3.6,1.3-4.7
	c0.8-1.1,2.1-1.6,3.6-1.6c1.3,0,2.3,0.4,3.1,1.3s1.2,1.8,1.2,2.9v4.7C732.1,272.8,731.8,273.7,731,274.5z M735.3,278.1V254h-3.2v8.3
	h-0.1c-1.3-1.4-2.8-2.2-4.7-2.2c-2.1,0-3.9,0.8-5.4,2.5c-1.5,1.7-2.2,3.9-2.2,6.7c0,2.8,0.7,5.1,2.1,6.7s3.2,2.5,5.5,2.5
	c2,0,3.7-0.7,4.9-2.2h0.1v1.7H735.3z"/>
<path d="M753.5,278.1v-11.6c0-2.2-0.6-3.8-1.9-4.9c-1.2-1-2.9-1.6-4.9-1.6c-1.9,0-3.4,0.5-4.6,1.4c-1.2,0.9-1.9,2.2-2.2,3.7l2.8,1
	c0.5-2.2,1.9-3.3,4.1-3.3c1.1,0,2,0.2,2.6,0.7c0.6,0.5,0.9,1,0.9,1.7s-0.3,1.2-1,1.6s-2,0.8-3.8,1.3c-2.1,0.5-3.6,1.2-4.5,2
	c-0.9,0.8-1.3,2-1.3,3.4c0,1.5,0.5,2.7,1.5,3.6c1,1,2.5,1.4,4.5,1.4c1.4,0,2.6-0.3,3.4-0.8c0.9-0.5,1.5-1.1,1.7-1.5h0.1v1.8H753.5z
	 M748.7,269.6c0.6-0.3,1-0.4,1.2-0.6c0.2-0.1,0.3-0.3,0.4-0.5h0.1v3.9c0,0.9-0.4,1.7-1.2,2.3c-0.8,0.6-1.9,1-3.4,1
	c-2.1,0-3.2-0.8-3.2-2.4c0-0.7,0.2-1.2,0.7-1.7c0.5-0.4,1.4-0.8,2.8-1.2C747.2,270.1,748,269.8,748.7,269.6z"/>
<path d="M762,285.5l9.8-24.9h-3.3l-4.8,12.5l-4.8-12.5h-3.4l6.6,16.3l-3.4,8.6H762z"/>
<path d="M862.6,278.1v-9.5h9.9v-2.9h-9.9V258h10.9v-3.1h-14.2v23.1H862.6z"/>
<path d="M880.8,278.1v-10.3c0-2.9,1.1-4.3,3.2-4.3c0.5,0,0.9,0.1,1.4,0.3l0.6-3.2c-0.4-0.2-1-0.3-1.6-0.3c-0.7,0-1.4,0.2-2.1,0.6
	c-0.7,0.4-1.2,0.9-1.5,1.6h-0.1v-1.9h-3.1v17.5H880.8z"/>
<path d="M892.7,260.6h-3.2v17.5h3.2V260.6z M892.8,254h-3.5v3.4h3.5V254z"/>
<path d="M908.1,274.5c-0.8,0.8-1.8,1.1-3.1,1.1c-1.6,0-2.8-0.6-3.6-1.6c-0.8-1.1-1.3-2.7-1.3-4.7s0.4-3.6,1.3-4.7s2.1-1.6,3.6-1.6
	c1.3,0,2.3,0.4,3.1,1.3c0.8,0.8,1.2,1.8,1.2,2.9v4.7C909.3,272.8,908.9,273.7,908.1,274.5z M912.5,278.1V254h-3.2v8.3h-0.1
	c-1.3-1.4-2.8-2.2-4.7-2.2c-2.1,0-3.9,0.8-5.4,2.5c-1.5,1.7-2.2,3.9-2.2,6.7c0,2.8,0.7,5.1,2.1,6.7s3.2,2.5,5.5,2.5
	c2,0,3.7-0.7,4.9-2.2h0.1v1.7H912.5z"/>
<path d="M930.6,278.1v-11.6c0-2.2-0.6-3.8-1.9-4.9c-1.2-1-2.9-1.6-4.9-1.6c-1.9,0-3.4,0.5-4.6,1.4c-1.2,0.9-1.9,2.2-2.2,3.7l2.8,1
	c0.5-2.2,1.9-3.3,4.1-3.3c1.1,0,2,0.2,2.6,0.7c0.6,0.5,0.9,1,0.9,1.7s-0.3,1.2-1,1.6c-0.7,0.4-2,0.8-3.8,1.3c-2.1,0.5-3.6,1.2-4.5,2
	c-0.9,0.8-1.3,2-1.3,3.4c0,1.5,0.5,2.7,1.5,3.6s2.5,1.4,4.5,1.4c1.4,0,2.6-0.3,3.4-0.8c0.9-0.5,1.5-1.1,1.7-1.5h0.1v1.8H930.6z
	 M925.8,269.6c0.6-0.3,1-0.4,1.2-0.6s0.3-0.3,0.4-0.5h0.1v3.9c0,0.9-0.4,1.7-1.2,2.3s-1.9,1-3.4,1c-2.1,0-3.2-0.8-3.2-2.4
	c0-0.7,0.2-1.2,0.7-1.7c0.5-0.4,1.4-0.8,2.8-1.2C924.3,270.1,925.2,269.8,925.8,269.6z"/>
<path d="M939.2,285.5l9.8-24.9h-3.3l-4.8,12.5l-4.8-12.5h-3.4l6.6,16.3l-3.4,8.6H939.2z"/>
<path d="M1040.4,276.4c1.6,1.4,3.7,2.1,6.4,2.1c2.5,0,4.5-0.6,6-1.9c1.5-1.3,2.2-2.9,2.2-4.9c0-1.7-0.5-3.1-1.5-4.1c-1-1-3-2-5.9-3
	c-2.5-0.8-4-1.5-4.8-2c-0.7-0.5-1.1-1.1-1.1-2c0-0.9,0.4-1.6,1.1-2.2c0.7-0.6,1.7-0.9,3.1-0.9c1.5,0,2.6,0.3,3.4,1
	c0.8,0.7,1.3,1.7,1.6,3l3.3-0.7c-0.3-2.1-1.2-3.7-2.7-4.8s-3.3-1.6-5.5-1.6c-2.3,0-4.1,0.6-5.4,1.8c-1.3,1.2-2,2.7-2,4.4
	c0,1.6,0.5,2.9,1.6,3.9s2.9,1.9,5.4,2.7c2.6,0.8,4.3,1.6,5.1,2.1c0.8,0.6,1.2,1.4,1.2,2.4c0,1-0.4,1.9-1.3,2.5s-2.1,1-3.6,1
	c-1.9,0-3.3-0.5-4.1-1.4s-1.4-2.5-1.7-4.6l-3.5,0.7C1037.9,272.9,1038.8,275,1040.4,276.4z"/>
<path d="M1071.7,278.1v-11.6c0-2.2-0.6-3.8-1.9-4.9c-1.2-1-2.9-1.6-4.9-1.6c-1.9,0-3.4,0.5-4.6,1.4c-1.2,0.9-1.9,2.2-2.2,3.7l2.8,1
	c0.5-2.2,1.9-3.3,4.1-3.3c1.1,0,2,0.2,2.6,0.7c0.6,0.5,0.9,1,0.9,1.7s-0.3,1.2-1,1.6s-2,0.8-3.8,1.3c-2.1,0.5-3.6,1.2-4.5,2
	c-0.9,0.8-1.3,2-1.3,3.4c0,1.5,0.5,2.7,1.5,3.6c1,1,2.5,1.4,4.5,1.4c1.4,0,2.6-0.3,3.4-0.8c0.9-0.5,1.5-1.1,1.7-1.5h0.1v1.8H1071.7z
	 M1066.8,269.6c0.6-0.3,1-0.4,1.2-0.6s0.3-0.3,0.4-0.5h0.1v3.9c0,0.9-0.4,1.7-1.2,2.3s-1.9,1-3.4,1c-2.1,0-3.2-0.8-3.2-2.4
	c0-0.7,0.2-1.2,0.7-1.7c0.5-0.4,1.4-0.8,2.8-1.2C1065.3,270.1,1066.2,269.8,1066.8,269.6z"/>
<path d="M1078.5,276.7c0.8,0.9,2.1,1.4,4,1.4h1.6v-3.1h-1.3c-0.9,0-1.5-0.2-1.8-0.6c-0.3-0.4-0.4-1.1-0.4-2.1v-8.9h4.3v-2.8h-4.4
	v-4.3h-3.1v4.3h-2.6v2.8h2.6v9.2C1077.4,274.4,1077.8,275.8,1078.5,276.7z"/>
<path d="M1090.2,276.8c1,1.1,2.5,1.7,4.5,1.7c2,0,3.6-0.7,4.7-2.2h0.1v1.7h3.1v-17.5h-3.2v10.8c0,1.3-0.4,2.4-1.1,3.1
	s-1.7,1.1-2.9,1.1c-1.3,0-2.2-0.3-2.7-0.9c-0.5-0.6-0.8-1.6-0.8-3.1v-10.9h-3.2v11.4C1088.7,274.1,1089.2,275.7,1090.2,276.8z"/>
<path d="M1111,278.1v-10.3c0-2.9,1.1-4.3,3.2-4.3c0.5,0,0.9,0.1,1.4,0.3l0.6-3.2c-0.4-0.2-1-0.3-1.6-0.3c-0.7,0-1.4,0.2-2.1,0.6
	c-0.7,0.4-1.2,0.9-1.5,1.6h-0.1v-1.9h-3.1v17.5H1111z"/>
<path d="M1129.6,274.5c-0.8,0.8-1.8,1.1-3.1,1.1c-1.6,0-2.8-0.6-3.6-1.6c-0.8-1.1-1.3-2.7-1.3-4.7s0.4-3.6,1.3-4.7s2.1-1.6,3.6-1.6
	c1.3,0,2.3,0.4,3.1,1.3s1.2,1.8,1.2,2.9v4.7C1130.8,272.8,1130.4,273.7,1129.6,274.5z M1134,278.1V254h-3.2v8.3h-0.1
	c-1.3-1.4-2.8-2.2-4.7-2.2c-2.1,0-3.9,0.8-5.4,2.5c-1.5,1.7-2.2,3.9-2.2,6.7c0,2.8,0.7,5.1,2.1,6.7s3.2,2.5,5.5,2.5
	c2,0,3.7-0.7,4.9-2.2h0.1v1.7H1134z"/>
<path d="M1152.1,278.1v-11.6c0-2.2-0.6-3.8-1.9-4.9c-1.2-1-2.9-1.6-4.9-1.6c-1.9,0-3.4,0.5-4.6,1.4c-1.2,0.9-1.9,2.2-2.2,3.7l2.8,1
	c0.5-2.2,1.9-3.3,4.1-3.3c1.1,0,2,0.2,2.6,0.7c0.6,0.5,0.9,1,0.9,1.7s-0.3,1.2-1,1.6s-2,0.8-3.8,1.3c-2.1,0.5-3.6,1.2-4.5,2
	c-0.9,0.8-1.3,2-1.3,3.4c0,1.5,0.5,2.7,1.5,3.6c1,1,2.5,1.4,4.5,1.4c1.4,0,2.6-0.3,3.4-0.8c0.9-0.5,1.5-1.1,1.7-1.5h0.1v1.8H1152.1z
	 M1147.3,269.6c0.6-0.3,1-0.4,1.2-0.6s0.3-0.3,0.4-0.5h0.1v3.9c0,0.9-0.4,1.7-1.2,2.3s-1.9,1-3.4,1c-2.1,0-3.2-0.8-3.2-2.4
	c0-0.7,0.2-1.2,0.7-1.7c0.5-0.4,1.4-0.8,2.8-1.2C1145.8,270.1,1146.7,269.8,1147.3,269.6z"/>
<path d="M1160.6,285.5l9.8-24.9h-3.3l-4.8,12.5l-4.8-12.5h-3.4l6.6,16.3l-3.4,8.6H1160.6z"/>
<path d="M1252,276.4c1.6,1.4,3.7,2.1,6.4,2.1c2.5,0,4.5-0.6,6-1.9c1.5-1.3,2.2-2.9,2.2-4.9c0-1.7-0.5-3.1-1.5-4.1s-3-2-5.9-3
	c-2.5-0.8-4-1.5-4.8-2c-0.7-0.5-1.1-1.1-1.1-2c0-0.9,0.4-1.6,1.1-2.2c0.7-0.6,1.7-0.9,3.1-0.9c1.5,0,2.6,0.3,3.4,1
	c0.8,0.7,1.3,1.7,1.6,3l3.3-0.7c-0.3-2.1-1.2-3.7-2.7-4.8s-3.3-1.6-5.5-1.6c-2.3,0-4.1,0.6-5.4,1.8c-1.3,1.2-2,2.7-2,4.4
	c0,1.6,0.5,2.9,1.6,3.9s2.9,1.9,5.4,2.7c2.6,0.8,4.3,1.6,5.1,2.1s1.2,1.4,1.2,2.4c0,1-0.4,1.9-1.3,2.5c-0.8,0.7-2.1,1-3.6,1
	c-1.9,0-3.3-0.5-4.1-1.4c-0.8-0.9-1.4-2.5-1.7-4.6l-3.5,0.7C1249.4,272.9,1250.4,275,1252,276.4z"/>
<path d="M1271.8,276.8c1,1.1,2.5,1.7,4.5,1.7c2,0,3.6-0.7,4.7-2.2h0.1v1.7h3.1v-17.5h-3.2v10.8c0,1.3-0.4,2.4-1.1,3.1
	s-1.7,1.1-2.9,1.1c-1.3,0-2.2-0.3-2.7-0.9s-0.8-1.6-0.8-3.1v-10.9h-3.2v11.4C1270.2,274.1,1270.7,275.7,1271.8,276.8z"/>
<path d="M1292.6,278.1v-11c0-1.3,0.4-2.2,1.1-3c0.8-0.7,1.8-1.1,3-1.1c2.5,0,3.7,1.5,3.7,4.5v10.5h3.2v-11.5c0-2-0.6-3.6-1.7-4.8
	c-1.1-1.2-2.7-1.7-4.6-1.7c-1,0-1.9,0.2-2.8,0.6c-0.9,0.4-1.6,0.9-2,1.6h-0.1v-1.7h-3.1v17.5H1292.6z"/>
<path d="M1318.8,274.5c-0.8,0.8-1.8,1.1-3.1,1.1c-1.6,0-2.8-0.6-3.6-1.6c-0.8-1.1-1.3-2.7-1.3-4.7s0.4-3.6,1.3-4.7s2.1-1.6,3.6-1.6
	c1.3,0,2.3,0.4,3.1,1.3s1.2,1.8,1.2,2.9v4.7C1320,272.8,1319.6,273.7,1318.8,274.5z M1323.2,278.1V254h-3.2v8.3h-0.1
	c-1.3-1.4-2.8-2.2-4.7-2.2c-2.1,0-3.9,0.8-5.4,2.5c-1.5,1.7-2.2,3.9-2.2,6.7c0,2.8,0.7,5.1,2.1,6.7s3.2,2.5,5.5,2.5
	c2,0,3.7-0.7,4.9-2.2h0.1v1.7H1323.2z"/>
<path d="M1341.3,278.1v-11.6c0-2.2-0.6-3.8-1.9-4.9c-1.2-1-2.9-1.6-4.9-1.6c-1.9,0-3.4,0.5-4.6,1.4c-1.2,0.9-1.9,2.2-2.2,3.7l2.8,1
	c0.5-2.2,1.9-3.3,4.1-3.3c1.1,0,2,0.2,2.6,0.7c0.6,0.5,0.9,1,0.9,1.7s-0.3,1.2-1,1.6s-2,0.8-3.8,1.3c-2.1,0.5-3.6,1.2-4.5,2
	c-0.9,0.8-1.3,2-1.3,3.4c0,1.5,0.5,2.7,1.5,3.6s2.5,1.4,4.5,1.4c1.4,0,2.6-0.3,3.4-0.8c0.9-0.5,1.5-1.1,1.7-1.5h0.1v1.8H1341.3z
	 M1336.5,269.6c0.6-0.3,1-0.4,1.2-0.6s0.3-0.3,0.4-0.5h0.1v3.9c0,0.9-0.4,1.7-1.2,2.3s-1.9,1-3.4,1c-2.1,0-3.2-0.8-3.2-2.4
	c0-0.7,0.2-1.2,0.7-1.7c0.5-0.4,1.4-0.8,2.8-1.2C1335,270.1,1335.9,269.8,1336.5,269.6z"/>
<path d="M1349.8,285.5l9.8-24.9h-3.3l-4.8,12.5l-4.8-12.5h-3.4l6.6,16.3l-3.4,8.6H1349.8z"/>
</svg>
