<?xml version="1.0" encoding="utf-8"?>
<!-- Generator: Adobe Illustrator 22.1.0, SVG Export Plug-In . SVG Version: 6.00 Build 0)  -->
<svg version="1.1" id="Layer_1" xmlns="http://www.w3.org/2000/svg" xmlns:xlink="http://www.w3.org/1999/xlink" x="0px" y="0px"
	 viewBox="0 0 1404 1872" style="enable-background:new 0 0 1404 1872;" xml:space="preserve">
<style type="text/css">
	.st0{fill:#FFFFFF;}
	.st1{fill:none;stroke:#000000;stroke-width:0.5;stroke-miterlimit:10;}
	.st2{fill:none;stroke:#000000;stroke-miterlimit:10;}
</style>
<title>praytogod</title>
<g id="Paper_background">
	<rect x="2" y="0" class="st0" width="1403" height="1872"/>
</g>
<g id="Lines_layer_2">
	<line class="st1" x1="1" y1="1871.5" x2="1404" y2="1871.5"/>
	<line class="st1" x1="1" y1="93.5" x2="1404" y2="93.5"/>
	<line class="st1" x1="1" y1="187.1" x2="1404" y2="187.1"/>
	<line class="st1" x1="1" y1="280.7" x2="1404" y2="280.7"/>
	<line class="st1" x1="1" y1="374.3" x2="1404" y2="374.3"/>
	<line class="st1" x1="1" y1="467.8" x2="1404" y2="467.8"/>
	<line class="st1" x1="1" y1="561.4" x2="1404" y2="561.4"/>
	<line class="st1" x1="1" y1="655" x2="1404" y2="655"/>
	<line class="st1" x1="1" y1="748.6" x2="1404" y2="748.6"/>
	<line class="st1" x1="1" y1="842.2" x2="1404" y2="842.2"/>
	<line class="st1" x1="1" y1="935.7" x2="1404" y2="935.7"/>
	<line class="st1" x1="1" y1="1029.3" x2="1404" y2="1029.3"/>
	<line class="st1" x1="1" y1="1122.9" x2="1404" y2="1122.9"/>
	<line class="st1" x1="1" y1="1216.5" x2="1404" y2="1216.5"/>
	<line class="st1" x1="1" y1="1310.1" x2="1404" y2="1310.1"/>
	<line class="st1" x1="1" y1="1403.6" x2="1404" y2="1403.6"/>
	<line class="st1" x1="1" y1="1497.2" x2="1404" y2="1497.2"/>
	<line class="st1" x1="1" y1="1590.8" x2="1404" y2="1590.8"/>
	<line class="st1" x1="1" y1="1684.4" x2="1404" y2="1684.4"/>
	<line class="st1" x1="1" y1="1777.9" x2="1404" y2="1777.9"/>
	<line class="st1" x1="702.5" y1="0" x2="702.5" y2="1871.5"/>
</g>
<g id="Perspective_lines">
	<line class="st2" x1="702.5" y1="0.2" x2="1404" y2="935.7"/>
	<line class="st2" x1="702.5" y1="93.5" x2="1404" y2="935.7"/>
	<line class="st2" x1="702.5" y1="187.1" x2="1404" y2="935.7"/>
	<line class="st2" x1="702.5" y1="280.7" x2="1404" y2="935.7"/>
	<line class="st2" x1="702.5" y1="374.3" x2="1404" y2="935.7"/>
	<line class="st2" x1="702.5" y1="467.8" x2="1404" y2="935.7"/>
	<line class="st2" x1="702.5" y1="561.4" x2="1404" y2="935.7"/>
	<line class="st2" x1="702.5" y1="655" x2="1404" y2="935.7"/>
	<line class="st2" x1="702.5" y1="748.6" x2="1404" y2="935.7"/>
	<line class="st2" x1="702.5" y1="842.2" x2="1404" y2="935.7"/>
	<line class="st2" x1="2" y1="935.1" x2="1405" y2="935.7"/>
	<line class="st2" x1="702.5" y1="1029.3" x2="1404" y2="935.7"/>
	<line class="st2" x1="702.5" y1="1122.9" x2="1404" y2="935.7"/>
	<line class="st2" x1="702.5" y1="1216.5" x2="1404" y2="935.7"/>
	<line class="st2" x1="702.5" y1="1310.1" x2="1404" y2="935.7"/>
	<line class="st2" x1="702.5" y1="1403.6" x2="1404" y2="935.7"/>
	<line class="st2" x1="702.5" y1="1497.2" x2="1404" y2="935.7"/>
	<line class="st2" x1="702.5" y1="1590.8" x2="1404" y2="935.7"/>
	<line class="st2" x1="702.5" y1="1684.4" x2="1404" y2="935.7"/>
	<line class="st2" x1="702.5" y1="1777.9" x2="1404" y2="935.7"/>
	<line class="st2" x1="702.5" y1="1871.5" x2="1404" y2="935.7"/>
	<line class="st2" x1="702.5" y1="0.2" x2="1" y2="935.7"/>
	<line class="st2" x1="702.5" y1="93.5" x2="1" y2="935.7"/>
	<line class="st2" x1="702.5" y1="187.1" x2="1" y2="935.7"/>
	<line class="st2" x1="702.5" y1="280.7" x2="1" y2="935.7"/>
	<line class="st2" x1="702.5" y1="374.3" x2="1" y2="935.7"/>
	<line class="st2" x1="702.5" y1="467.8" x2="1" y2="935.7"/>
	<line class="st2" x1="702.5" y1="561.4" x2="1" y2="935.7"/>
	<line class="st2" x1="702.5" y1="655" x2="1" y2="935.7"/>
	<line class="st2" x1="702.5" y1="748.6" x2="1" y2="935.7"/>
	<line class="st2" x1="702.5" y1="842.2" x2="1" y2="935.7"/>
	<line class="st2" x1="702.5" y1="1029.3" x2="1" y2="935.7"/>
	<line class="st2" x1="702.5" y1="1122.9" x2="1" y2="935.7"/>
	<line class="st2" x1="702.5" y1="1216.5" x2="1" y2="935.7"/>
	<line class="st2" x1="702.5" y1="1310.1" x2="1" y2="935.7"/>
	<line class="st2" x1="702.5" y1="1403.6" x2="1" y2="935.7"/>
	<line class="st2" x1="702.5" y1="1497.2" x2="1" y2="935.7"/>
	<line class="st2" x1="702.5" y1="1590.8" x2="1" y2="935.7"/>
	<line class="st2" x1="702.5" y1="1684.4" x2="1" y2="935.7"/>
	<line class="st2" x1="702.5" y1="1777.9" x2="1" y2="935.7"/>
	<line class="st2" x1="702.5" y1="1871.5" x2="1" y2="935.7"/>
</g>
</svg>
